<svg width="880" height="880" viewBox="0 0 880 880" fill="none" xmlns="http://www.w3.org/2000/svg">
<circle cx="440" cy="440" r="439" fill="#F8FBF9" stroke="#87E29B" stroke-width="2"/>
<path d="M99 660.296C103.879 637.968 121.845 620.89 140.771 608.1C146.981 603.886 154.226 599.82 161.546 601.373C169.53 603.073 174.705 610.836 182.172 614.089C188.9 616.972 196.885 615.863 203.39 612.462C209.896 609.061 215.219 603.738 219.951 598.194C232.223 583.777 241.908 567.143 248.414 549.251C253.368 535.648 255.881 520.862 253.368 506.593C251.372 495.134 246.196 484.266 245.309 472.659C244.348 459.795 248.636 444.935 258.691 436.359C257.508 444.196 255.512 451.884 252.702 459.351C257.36 455.285 258.691 448.631 259.208 442.421C259.726 436.285 259.726 429.779 262.609 424.308C264.753 420.316 268.228 417.285 272.072 414.919C276.065 412.553 280.574 410.483 285.084 409.374C284.788 413.44 284.493 417.507 284.197 421.647C279.835 423.643 275.843 426.378 272.442 429.705C274.956 429.262 277.247 428.448 279.687 427.857C278.282 434.732 276.952 441.904 279.022 448.557C280.131 452.18 282.201 455.433 283.753 458.908C285.158 462.087 286.045 465.414 286.932 468.667C287.967 472.511 289.002 476.356 290.111 480.2C292.847 471.994 290.555 463.122 287.893 454.916C285.971 449.223 283.975 443.456 282.644 437.616C281.388 431.997 282.792 426.156 283.753 420.612C285.084 413.292 285.749 405.899 286.045 398.432C286.415 388.969 286.785 379.136 286.045 369.673C285.306 360.358 282.866 350.969 279.391 342.319C273.181 326.793 274.29 305.871 282.423 291.306C281.018 302.766 281.24 314.373 281.388 325.832C281.388 326.424 281.314 329.233 282.423 329.011C283.458 328.789 283.827 326.276 283.901 325.536C284.049 322.062 284.419 318.735 284.493 315.26C284.567 311.194 284.862 307.054 284.936 303.061C285.01 298.921 285.749 294.855 287.154 291.011C287.598 296.334 288.263 301.583 288.485 306.906C288.707 312.451 288.707 318.069 288.559 323.614C288.559 324.501 288.485 325.463 288.633 326.35C288.855 327.459 289.742 329.381 291.146 328.642C292.255 328.05 292.551 326.35 292.551 325.241C292.847 319.4 291.738 313.708 291.59 307.867C291.516 305.132 291.442 302.322 291.738 299.587C292.034 296.777 293.216 293.894 293.956 291.159C295.139 296.925 295.804 302.766 295.952 308.606C296.1 314.373 295.73 320.066 295.952 325.832C295.952 326.498 296.026 327.237 296.396 327.754C296.765 328.272 297.504 328.716 298.096 328.346C298.613 328.05 298.761 327.311 298.835 326.719C300.018 315.038 299.205 303.505 299.353 291.898C305.341 306.241 306.968 324.28 301.94 339.214C298.17 350.377 295.73 361.097 294.473 372.778C293.586 380.837 292.995 388.895 292.551 397.028C292.181 404.347 292.921 412.331 291.516 419.503C288.855 419.503 286.415 420.76 285.602 423.495C284.123 428.3 287.45 439.464 293.66 439.39C296.248 439.39 298.613 437.32 299.353 434.806C300.979 429.409 297.8 421.129 292.329 419.207C292.329 416.102 292.329 413.071 292.329 409.966C296.691 412.553 299.501 417.063 302.162 421.351C302.975 422.608 303.715 423.939 303.936 425.417C304.158 426.896 303.567 428.596 302.236 429.262C300.905 429.927 298.909 428.892 299.057 427.413C300.905 432.81 302.68 438.133 304.528 443.53C304.306 443.087 304.01 442.643 303.789 442.199C300.831 440.869 297.504 443.308 295.582 445.896C298.096 445.157 300.757 444.935 303.419 445.305C298.244 447.375 294.325 452.254 293.29 457.725C296.322 453.437 300.314 449.888 304.898 447.449C304.75 447.522 306.08 455.581 306.302 456.542C306.968 460.313 308.52 464.009 309.407 467.78C311.108 475.247 311.921 483.083 309.851 490.55C308.003 497.13 304.084 502.823 300.683 508.737C294.325 519.679 289.446 531.434 286.193 543.633C282.94 555.979 280.131 568.547 281.609 581.337C298.835 556.349 327.151 541.784 357.315 541.489C372.47 541.341 387.478 543.559 402.56 544.52C433.537 546.368 464.884 542.45 494.456 533.061C515.675 526.333 536.671 516.278 550.718 499.052C562.177 485.005 568.239 467.04 570.383 449.001C575.411 407.6 560.033 364.128 530.165 335.074C495.418 301.287 441.448 288.275 395.537 303.801C349.626 319.326 314.361 363.315 310.368 411.592C307.115 451.293 324.785 492.177 355.984 516.87C375.797 532.543 400.342 541.784 425.405 545.111C454.755 549.03 485.806 544.816 511.017 529.29C535.784 514.06 553.453 488.85 562.842 461.348C578.442 415.732 570.309 360.802 536.153 326.793C508.281 299.069 465.697 287.98 427.253 296.186C388.809 304.392 355.171 330.638 335.505 364.646C323.232 385.938 316.061 410.779 318.944 435.176C320.275 446.192 325.82 458.982 336.836 460.239C343.416 460.978 349.774 457.06 354.136 452.106C358.497 447.153 361.529 441.091 365.299 435.694C372.175 425.861 381.934 418.024 393.097 413.44C392.21 415.954 393.689 418.468 396.128 419.355C393.023 417.211 388.957 416.472 386.887 420.464C385.778 422.534 386.074 425.195 387.552 426.97C386 425.787 384.004 425.047 382.155 425.565C380.307 426.083 378.902 428.227 379.568 430.001C380.011 431.184 381.194 431.923 382.377 432.367C383.56 432.81 384.817 432.958 386 433.328C390.214 434.659 393.245 439.242 392.727 443.678C391.397 441.164 389.179 439.02 386.591 437.764C385.408 437.172 384.078 436.729 382.747 437.024C379.937 437.616 380.159 440.425 381.712 442.199C382.673 443.308 384.151 443.9 385.556 444.196C384.595 442.569 383.56 440.943 382.081 439.834C380.603 438.651 378.607 438.059 376.832 438.725C375.058 439.39 373.801 441.386 374.467 443.161C375.058 444.639 376.684 445.452 378.237 445.674C379.79 445.896 381.416 445.822 382.969 446.192C384.521 446.561 386 447.67 386.148 449.297C384.817 448.631 383.486 447.966 382.007 447.67C380.529 447.375 378.902 447.522 377.719 448.41C376.537 449.297 375.797 450.923 376.389 452.328C376.98 453.733 378.976 454.398 380.085 453.363C375.871 456.986 378.902 464.231 383.19 466.005C383.634 466.227 389.179 466.597 388.735 465.488C388.144 464.157 387.626 462.826 387.035 461.495C386.591 460.46 386.148 459.425 386.074 458.316C386 457.207 386.443 456.025 387.404 455.433C388.957 454.546 390.953 455.729 391.914 457.281C393.541 459.943 393.171 463.565 391.101 465.857C389.992 467.114 388.366 468.075 387.848 469.628C387.109 472.068 389.179 474.433 391.545 474.655C393.467 474.877 395.389 473.768 396.202 472.068C396.202 473.177 396.202 474.359 396.646 475.394C397.089 476.429 397.903 477.391 399.086 477.612C400.268 477.834 401.599 477.169 402.117 476.06C402.634 474.951 402.191 473.472 401.156 472.807C402.56 474.433 404.556 475.542 406.7 475.468C408.844 475.468 410.988 474.138 411.654 472.141C413.28 467.558 406.922 464.601 403.374 464.157C406.7 465.266 410.471 463.492 411.802 460.239C412.023 459.647 412.245 458.982 412.097 458.39C411.95 457.799 411.506 457.133 410.914 457.06C407.292 456.32 408.992 463.418 410.619 464.601C416.09 468.593 421.93 459.869 416.903 455.803C420.452 455.729 424 455.581 427.549 455.507C429.249 455.433 431.098 455.507 432.207 456.764C433.094 457.799 433.094 459.573 432.059 460.608C431.098 461.643 429.323 461.717 428.214 460.83C429.323 461.717 428.584 464.822 428.14 465.857C427.401 467.558 426.218 469.11 424.222 469.184C422.448 469.258 420.599 467.484 421.191 465.709C420.821 467.41 419.047 468.593 417.346 468.371C415.646 468.149 414.315 466.375 414.537 464.674C416.533 464.453 418.234 462.9 418.677 460.978C419.121 459.056 418.16 456.912 416.459 455.877C422.152 455.803 427.845 455.729 433.463 455.655C431.393 454.028 429.767 452.476 427.253 452.328C424.148 452.18 420.673 452.919 417.568 453.215C418.603 453.067 419.564 452.18 419.786 451.145C420.008 450.11 419.638 448.927 418.751 448.262C423.778 446.414 429.693 447.449 431.911 452.402C434.572 458.316 437.086 464.231 438.934 470.441C440.265 474.877 440.191 479.608 440.487 484.192C440.561 484.71 440.561 485.301 440.93 485.671C441.3 486.04 441.818 486.114 442.335 486.188C444.035 486.41 454.829 486.188 455.125 484.488C455.199 483.896 454.903 483.305 454.534 482.788C452.907 480.052 452.39 476.651 453.129 473.546C454.608 476.873 456.086 480.2 457.565 483.601C459.265 484.044 461.187 483.601 462.444 482.344C458.97 478.869 457.935 473.694 457.713 468.741C457.491 463.787 457.713 458.76 456.16 454.176C455.864 456.098 457.565 458.169 459.561 458.169C461.557 458.169 463.258 456.172 462.962 454.176C464.219 455.285 466.215 455.433 467.546 454.398C468.876 453.437 469.394 451.441 468.655 449.888C469.172 451.589 471.612 452.55 473.312 451.958C475.9 451.145 476.343 447.67 474.051 446.118C474.939 446.709 476.195 446.487 477.009 445.822C477.822 445.083 478.192 444.048 478.413 443.013C478.635 441.83 478.709 440.499 478.118 439.464C477.526 438.429 476.048 437.764 475.013 438.429C474.347 438.799 474.051 439.612 473.978 440.351C473.978 441.09 474.199 441.83 474.495 442.495C475.974 445.452 480.853 449.149 484.18 447.079C485.806 446.118 486.62 443.9 486.028 442.126C486.62 442.643 487.581 442.865 488.32 442.495C489.059 442.199 489.577 441.386 489.651 440.573C489.651 439.464 488.838 438.503 487.95 437.838C487.063 437.172 486.102 436.507 485.511 435.546C484.993 434.585 484.993 433.254 485.954 432.588C486.915 436.137 494.309 434.658 492.165 430.814C491.943 430.37 491.499 430.001 491.129 429.705C490.242 429.04 489.355 428.744 488.32 428.522C487.359 428.3 486.472 428.596 485.511 428.744C486.398 428.3 487.063 427.339 487.137 426.378C487.211 425.343 486.62 424.308 485.733 423.939C484.845 423.495 483.589 423.865 483.071 424.678C482.997 423.347 481.888 422.09 480.557 421.795C481.297 423.347 481.223 425.343 480.262 426.822C478.857 429.114 475.826 430.001 473.46 428.818C471.612 427.931 470.281 426.083 470.059 424.086C469.985 423.495 469.985 422.83 469.468 422.386C468.876 421.868 467.915 422.238 467.324 422.756C466.141 423.717 465.402 425.269 465.328 426.822C465.254 428.374 465.993 429.927 467.102 430.962C466.289 430.001 465.106 429.335 463.775 429.262C461.927 429.262 460.818 430.666 460.744 432.367C460.744 433.402 460.966 434.363 460.966 435.398C460.966 436.433 460.67 437.468 459.783 438.059C458.97 438.577 457.713 438.503 457.195 439.316C456.899 439.834 457.047 440.573 457.343 441.09C457.713 441.608 458.23 441.978 458.674 442.421C460.226 443.752 461.409 445.748 461.187 447.818C460.966 449.593 459.709 451.145 458.008 451.737C456.308 452.254 454.386 451.81 453.129 450.48C451.946 449.149 451.576 447.153 452.242 445.526C452.464 444.935 452.907 444.343 453.425 444.048C453.942 443.678 454.682 443.53 455.273 443.752C456.16 444.048 456.752 445.009 457.047 445.896C457.565 447.449 457.491 449.297 456.604 450.702C455.717 452.106 454.09 453.141 452.464 452.919C451.059 452.772 449.802 451.737 449.063 450.554C448.471 449.666 448.102 448.631 447.806 447.596C447.362 446.044 447.51 446.118 448.471 445.157C449.58 444.122 450.541 443.087 451.429 441.756C453.942 438.059 455.199 433.993 456.16 429.631C457.935 430.592 460.374 429.927 461.483 428.227C462.74 426.304 462.296 423.643 460.078 422.608C461.335 422.016 462.666 421.425 463.923 420.759C463.331 420.02 463.627 418.837 464.293 418.098C465.18 417.063 466.584 416.545 467.989 416.693C469.024 416.841 470.503 417.211 471.168 418.098C471.612 418.689 471.907 419.429 472.351 420.094C472.795 420.759 473.46 421.351 474.199 421.351C474.791 421.351 475.382 420.981 475.678 420.538C476.048 420.094 476.195 419.429 476.195 418.837C477.231 419.798 478.339 420.833 479.744 421.129C481.223 421.425 482.923 421.203 484.254 420.39C486.102 419.281 487.285 417.137 487.285 414.919C487.285 413.884 486.989 412.775 486.324 411.962C485.511 410.927 484.106 410.261 482.775 410.409C481.445 410.483 480.188 411.296 479.522 412.479C479.301 412.923 479.153 413.44 479.448 413.81C479.67 414.032 479.966 414.032 480.262 414.106C482.406 414.254 484.697 413.292 486.102 411.666C489.133 408.191 487.803 400.133 482.184 400.355C480.41 400.428 478.709 401.611 477.97 403.238C477.452 402.203 476.935 401.094 476.417 400.059C477.157 399.763 477.748 399.024 477.822 398.211C478.265 395.105 474.273 396.288 474.643 397.767C474.347 396.732 473.164 396.141 472.129 396.362C471.094 396.584 470.281 397.471 469.911 398.432C469.542 399.393 469.468 400.502 469.468 401.611C469.394 400.059 467.619 398.95 466.067 399.246C464.514 399.541 463.405 401.02 463.184 402.572C462.962 404.125 463.553 405.678 464.367 407.008C462.666 404.421 461.779 401.464 458.304 401.02C454.09 400.502 450.615 403.386 451.355 407.748C451.724 409.892 453.203 411.814 455.125 412.775C453.203 411.518 450.246 412.405 449.432 414.549C448.619 416.693 450.172 419.355 452.464 419.724C450.172 419.798 448.25 422.09 448.545 424.382C448.767 426.009 450.246 427.413 451.798 427.709C453.72 428.079 455.199 427.044 456.234 425.417C456.456 425.121 456.604 424.752 456.678 424.382C456.752 424.012 456.604 423.643 456.308 423.421C455.938 423.125 455.421 423.199 455.051 423.421C454.682 423.643 454.46 424.086 454.238 424.456C453.499 426.156 453.351 428.005 453.129 429.853C452.907 431.627 452.464 433.18 451.429 434.658C450.985 435.324 450.541 436.063 450.024 436.729C448.989 438.207 447.51 439.686 446.771 441.312V441.386C445.071 437.616 445.588 432.81 448.176 429.557C447.067 429.779 445.81 429.262 445.218 428.3C444.627 427.339 444.775 426.009 445.44 425.121C445.662 426.23 444.701 427.339 443.592 427.339C442.483 427.339 441.522 426.304 441.67 425.195C441.67 428.3 441.522 431.258 441.744 434.289C441.892 435.694 441.596 438.207 442.187 439.464C439.23 433.032 437.604 424.234 439.156 417.285C439.748 419.133 442.039 420.242 443.814 419.651C445.662 418.985 446.697 416.693 445.958 414.845C447.067 414.845 447.806 413.588 447.584 412.479C447.436 411.444 446.623 410.557 445.884 409.744C447.215 411.148 450.911 409.152 450.467 407.23C450.024 405.308 447.51 404.643 445.884 404.347C447.51 405.234 448.915 403.016 448.989 401.611C449.063 400.502 448.693 399.393 448.989 398.358C449.359 396.732 451.281 395.697 452.907 396.214C454.534 396.732 455.421 398.728 454.829 400.281C454.977 398.95 455.199 397.619 455.347 396.288C457.713 397.102 460.522 396.214 462.001 394.218C463.036 392.814 463.258 390.67 462.001 389.413C460.67 388.156 458.23 388.673 457.195 390.3C456.16 391.926 456.382 393.997 457.269 395.623C458.082 397.249 459.487 398.58 460.818 399.763C460.966 397.249 464.44 397.176 466.363 396.806C466.658 396.732 467.028 396.658 467.324 396.584C469.098 396.067 470.207 393.997 469.763 392.222C469.32 390.448 467.398 389.191 465.549 389.487C466.511 388.304 466.88 386.603 466.363 385.125C465.18 381.576 460.596 381.576 458.452 384.238C459.487 382.759 459.339 380.541 458.156 379.21C456.973 377.88 454.829 377.362 453.203 378.101C452.464 378.471 451.798 379.062 451.724 379.876C451.65 380.689 452.538 381.502 453.277 381.206C453.794 380.985 454.016 380.319 454.09 379.728C454.312 377.584 452.759 374.701 450.615 374.183C448.915 373.739 445.662 375.292 445.514 377.288C445.588 376.105 444.627 374.996 443.518 374.627C442.335 374.331 441.078 374.701 440.117 375.44C439.156 376.179 438.565 377.288 438.195 378.397C437.899 379.136 437.751 379.876 437.825 380.689C437.899 381.428 438.343 382.241 439.082 382.537C439.969 382.981 441.078 382.537 441.744 381.872C442.409 381.133 442.705 380.171 442.927 379.21C443.296 377.51 443.444 375.588 442.853 373.961C442.039 371.522 439.6 369.673 437.012 370.634C434.498 371.595 433.463 374.922 434.498 377.362C433.685 374.701 429.619 373.222 427.475 375.218C425.183 377.288 426.44 381.65 429.028 382.833C425.922 381.354 424.296 387.195 428.214 387.786C429.619 388.008 431.024 387.417 432.354 386.899C430.432 387.565 428.954 389.413 428.658 391.409C429.693 389.561 432.133 388.6 434.129 389.339C438.417 390.891 437.086 397.028 435.829 400.207C434.203 404.273 431.393 407.896 427.845 410.409C426.44 411.37 424.666 412.184 423.113 411.518C422.078 411.075 421.487 409.966 421.339 408.857C421.191 407.748 421.487 406.639 421.93 405.604C423.261 402.499 426.144 400.059 429.471 399.32C432.65 398.58 436.642 399.541 437.604 403.164C437.825 401.537 438.639 399.837 440.117 399.32C441.448 398.876 443.148 399.689 443.592 401.02C444.035 402.351 443.296 404.051 441.892 404.495C443 403.903 444.553 404.569 445.071 405.752C445.588 406.934 445.071 408.413 444.036 409.152C441.67 411.001 437.751 409.966 437.234 406.934C436.051 415.51 435.238 423.717 437.751 432.145C433.389 426.6 431.985 418.911 433.981 412.11C433.242 413.219 431.911 414.993 430.58 415.51C429.028 416.028 428.584 415.067 427.549 414.401C429.471 415.88 429.619 419.207 427.697 420.612C425.775 422.09 422.448 420.759 422.226 418.394C425.183 421.721 427.549 425.491 429.397 429.557C430.284 431.479 431.024 433.254 431.541 435.25C432.059 437.394 433.242 440.055 433.242 442.199C430.358 437.098 427.549 432.071 424.666 426.97C423.557 425.047 422.891 422.83 422.669 420.612C422.004 421.425 421.265 422.238 420.599 423.125C420.156 426.23 421.191 429.409 422.522 432.219C422.965 433.18 427.401 441.386 425.479 441.386C424.666 441.386 422.3 438.059 421.782 437.394C420.673 435.989 419.712 434.437 419.121 432.81C417.864 429.409 417.568 425.639 418.529 422.164C418.012 423.569 416.385 424.456 414.981 424.16C413.502 423.865 412.467 422.386 412.541 420.907C412.615 419.946 412.911 418.542 411.949 418.32C411.062 418.172 410.693 419.281 410.323 420.02C409.362 421.868 406.331 422.238 405 420.612C405.591 419.281 405 417.58 403.669 416.989C402.412 416.398 400.638 416.989 399.973 418.246C401.377 419.724 404.039 419.798 405.517 418.32C408.918 414.993 404.63 409.3 401.451 407.674C400.786 407.304 399.973 407.008 399.233 407.082C398.494 407.156 397.681 407.526 397.385 408.265C397.089 408.931 397.385 409.818 397.829 410.335C398.346 410.927 399.012 411.296 399.677 411.592C402.56 412.849 405.739 413.292 408.844 412.849C409.288 412.775 409.732 412.701 409.953 412.331C410.249 411.814 409.806 411.148 409.51 410.631C408.031 408.117 411.062 402.794 413.872 405.308C411.802 404.125 411.432 400.798 413.132 399.172C414.833 397.545 418.086 398.063 419.195 400.133C418.899 398.876 419.564 397.471 420.747 396.88C421.93 396.288 423.335 396.732 424.222 397.619C424.518 396.658 424.592 395.845 425.479 395.327C426.218 394.884 428.066 394.884 428.658 395.623C427.623 394.292 427.623 392.222 428.658 390.891C427.031 392 424.148 391.853 423.926 389.413C422.3 390.152 420.23 388.895 419.86 387.121C419.49 385.347 420.673 383.498 422.226 382.685C423.778 381.798 425.701 381.798 427.475 382.168C426.957 381.206 426.514 380.245 425.775 379.506C425.035 378.693 424 378.175 422.965 378.175C421.93 378.175 420.821 378.915 420.599 380.024C420.821 378.101 418.973 376.327 417.051 376.253C415.129 376.179 413.28 377.584 412.541 379.358C411.654 381.576 412.245 384.459 413.428 386.456C414.759 388.747 417.346 392.518 420.008 393.479C417.125 392.444 413.65 393.775 412.171 396.436C412.097 393.331 409.14 388.156 405.444 390.3C403.891 391.187 403.3 393.331 404.113 394.884C404.704 395.993 406.035 396.732 407.292 396.806C408.549 396.88 409.879 396.436 410.914 395.697C412.615 394.588 413.872 392.518 413.428 390.522C412.985 388.526 410.471 387.121 408.844 388.304C409.879 386.603 410.693 384.755 410.841 382.759C410.988 380.763 410.471 378.693 408.992 377.362C407.514 376.031 405.148 375.662 403.521 376.845C402.338 377.732 401.821 379.21 401.969 380.689C402.117 382.094 402.93 383.424 404.039 384.385C404.704 381.872 403.3 378.989 400.934 377.954C398.568 376.918 395.463 377.88 394.058 380.097C392.654 382.315 393.171 385.494 395.167 387.195C393.245 387.491 391.619 389.191 391.397 391.113C391.101 393.923 394.206 396.436 396.054 398.285C393.91 397.693 391.471 397.767 389.548 398.876C387.626 399.985 386.222 402.277 386.591 404.495C386.887 406.713 389.105 408.635 391.323 408.265C390.436 405.53 389.918 400.946 387.183 399.541C384.669 398.284 381.342 398.654 379.346 400.798C377.35 402.942 377.128 406.491 378.755 408.931C380.085 410.779 382.303 411.814 384.521 412.184C386.369 412.479 389.77 411.444 391.323 412.184C391.84 412.405 393.319 415.732 394.058 414.401C394.28 414.032 394.428 413.514 394.798 413.366C395.389 413.145 395.906 413.884 395.906 414.475C395.906 415.067 395.537 415.658 395.389 416.25C395.167 417.359 395.759 418.616 396.794 419.059C397.829 419.503 399.159 419.207 399.899 418.246C396.128 420.242 394.576 425.565 396.276 429.409C396.942 430.888 398.124 432.293 399.677 432.81C402.708 433.845 407.292 430.592 407.44 427.413C406.848 428.522 408.031 429.779 409.288 430.001C410.545 430.223 411.802 430.001 412.985 430.444C414.241 430.888 415.202 432.219 415.202 433.623C415.202 436.285 411.802 438.133 409.51 437.246C413.132 438.651 411.284 446.414 409.732 448.484C408.031 450.702 405.148 452.032 402.338 451.884C400.786 451.81 399.159 451.145 398.494 449.74C397.755 447.966 399.086 445.896 400.712 444.861C403.3 443.308 406.626 443.308 409.658 443.826C412.023 444.196 414.463 445.009 416.903 445.009C418.973 445.083 420.747 443.678 422.743 443.235C430.802 441.238 434.424 450.11 436.716 455.729C440.043 463.787 442.187 472.289 443.222 480.939C444.331 480.717 445.44 480.496 446.549 480.2C443.518 467.927 440.487 455.655 437.456 443.308C444.331 452.993 449.58 464.896 461.631 468.667C468.876 470.885 476.787 471.92 482.627 476.651C489.725 482.418 491.943 491.955 494.53 500.679C504.363 533.874 522.402 565.516 556.632 577.197C562.842 579.341 569.496 580.82 576.076 579.859C582.582 578.898 589.014 575.053 591.675 569.065C597.294 556.349 589.088 544.15 584.061 532.691C579.847 523.006 575.559 513.099 574.819 502.527C574.006 491.881 576.963 481.383 580.808 471.55C582.656 466.818 584.726 461.865 586.057 456.912C587.609 450.997 587.461 444.048 588.127 437.911C588.718 440.277 590.714 442.273 593.154 442.791C595.594 443.308 598.255 442.347 599.734 440.425C601.213 438.577 601.582 436.137 601.656 433.771C601.804 429.409 601.36 421.425 595.964 420.168C593.45 419.577 590.862 421.129 589.458 423.273C588.053 425.417 587.683 428.079 587.461 430.666C587.092 435.767 587.314 440.943 586.87 446.118C586.648 449.297 585.909 452.698 584.726 455.655C583.765 458.021 581.399 459.351 579.181 457.429C577.037 455.507 577.111 451.441 577.776 448.927C578.59 445.97 580.438 443.234 582.212 440.721C583.765 438.503 585.983 436.507 586.057 433.623C583.987 435.989 581.769 438.207 579.477 440.425C579.033 440.869 578.516 441.386 577.85 441.46C576.741 441.682 575.706 440.721 575.411 439.612C575.115 438.503 575.337 437.394 575.633 436.359C577.481 428.596 582.212 422.09 589.975 419.355C590.714 419.133 589.605 407.526 589.532 406.269C587.979 379.136 578.664 353.408 576.076 326.35C574.597 310.676 574.524 295.299 581.769 280.734C582.878 278.516 584.578 276.077 587.018 276.003C588.866 275.929 590.419 277.334 591.232 278.96C592.045 280.587 592.193 282.435 592.415 284.283C594.041 302.766 594.855 321.396 595.224 339.953C595.668 358.658 602.395 434.141 602.691 441.756C603.283 457.355 602.1 472.955 601.582 488.554C605.205 485.153 604.909 479.387 604.613 474.359C604.318 469.406 604.687 463.418 608.901 460.756C607.866 461.421 604.761 449.001 604.687 447.892C604.318 443.382 605.131 439.612 607.127 435.62C604.096 431.036 602.026 425.787 601.287 420.39C607.127 419.503 612.968 423.273 616.221 428.227C619.474 433.18 620.656 439.168 621.839 445.009C624.501 458.538 627.162 472.068 629.824 485.523C632.19 497.426 627.754 508.959 628.271 520.936C628.863 535.574 631.081 550.213 634.629 564.481C641.579 592.205 653.925 618.673 671.003 641.591C675.439 647.58 681.576 653.938 688.969 653.124C699.245 652.015 702.72 639.004 703.681 628.727C704.346 621.925 704.938 614.828 702.572 608.396C700.206 601.964 693.848 596.493 687.046 597.454C680.984 598.342 676.474 604.108 675.291 610.17C674.108 616.233 675.587 622.443 677.288 628.284C688.155 665.693 710.335 699.775 740.277 724.689" stroke="#87E29B" stroke-width="2" stroke-miterlimit="10" stroke-linecap="round" stroke-linejoin="round"/>
</svg>
