<svg width="184" height="53" viewBox="0 0 184 53" fill="none" xmlns="http://www.w3.org/2000/svg">
<path d="M99.0241 41.5224L99.0121 41.5212H99H98.92H98.8391H98.7572H98.6743H98.5904H98.5056H98.4198H98.3331H98.2454H98.1568H98.0672H97.9767H97.8852H97.7928H97.6995H97.6052H97.5101H97.414H97.3169H97.219H97.1202H97.0204H96.9198H96.8182H96.7158H96.6124H96.5082H96.4031H96.2971H96.1902H96.0825H95.9739H95.8644H95.754H95.6428H95.5307H95.4178H95.304H95.1894H95.0739H94.9576H94.8405H94.7225H94.6037H94.484H94.3636H94.2423H94.1202H93.9973H93.8736H93.7491H93.6237H93.4976H93.3707H93.243H93.1145H92.9852H92.8551H92.7243H92.5927H92.4603H92.3271H92.1932H92.0586H91.9231H91.7869H91.65H91.5123H91.3739H91.2347H91.0948H90.9542H90.8129H90.6708H90.528H90.3844H90.2402H90.0952H89.9496H89.8032H89.6562H89.5084H89.36H89.2108H89.061H88.9105H88.7593H88.6074H88.4549H88.3017H88.1478H87.9932H87.838H87.6822H87.5257H87.3685H87.2107H87.0523H86.8932H86.7335H86.5732H86.4122H86.2506H86.0884H85.9256H85.7621H85.5981H85.4334H85.2681H85.1023H84.9358H84.7688H84.6011H84.4329H84.2641H84.0947H83.9248H83.7542H83.5831H83.4115H83.2392H83.0665H82.8931H82.7192H82.5448H82.3698H82.1943H82.0183H81.8417H81.6646H81.4869H81.3088H81.1301H80.9509H80.7712H80.5909H80.4102H80.229H80.0473H79.8651H79.6823H79.4991H79.3155H79.1313H78.9467H78.7616H78.576H78.3899H78.2034H78.0164H77.829H77.6411H77.4528H77.264H77.0748H76.8852H76.6951H76.5045H76.3136H76.1222H75.9304H75.7382H75.5456H75.3525H75.1591H74.9652H74.771H74.5763H74.3813H74.1859H73.9901H73.7939H73.5973H73.4003H73.203H73.0053H72.8072H72.6088H72.41H72.2109H72.0114H71.8116H71.6114H71.4109H71.21H71.0088H70.8073H70.6055H70.4033H70.2008H69.998H69.7949H69.5914H69.3877H69.1837H68.9793H68.7747H68.5698H68.3646H68.1591H67.9533H67.7472H67.5409H67.3343H67.1274H66.9203H66.7129H66.5052H66.2973H66.0892H65.8808H65.6721H65.4632H65.2541H65.0448H64.8352H64.6254H64.4154H64.2051H63.9946H63.784H63.5731H63.362H63.1507H62.9392H62.7275H62.5157H62.3036H62.0914H61.8789H61.6664H61.4536H61.2406H61.0275H60.8143H60.6008H60.3872H60.1735H59.9596H59.7456H59.5314H59.3171H59.1027H58.8881H58.6734H58.4585H58.2436H58.0285H57.8134H57.5981H57.3827H57.1672H56.9516H56.7359H56.5201H56.3042H56.0882H55.8722H55.6561H55.4398H55.2236H55.0072H54.7908H54.5744H54.3578H54.1413H53.9246H53.7079H53.4912H53.2745H53.0577H52.8408H52.624H52.4071H52.1902H51.9732H51.7563H51.5393H51.3223H51.1054H50.8884H50.6714H50.4544H50.2375H50.0205H49.8036H49.5867H49.3698H49.1529H48.9361H48.7193H48.5025H48.2858H48.0691H47.8525H47.6359H47.4193H47.2029H46.9865H46.7701H46.5538H46.3376H46.1215H45.9054H45.6894H45.4735H45.2577H45.042H44.8264H44.6109H44.3955H44.1802H43.965H43.7499H43.5349H43.3201H43.1054H42.8908H42.6763H42.462H42.2478H42.0337H41.8198H41.6061H41.3925H41.179H40.9657H40.7526H40.5396H40.3268H40.1142H39.9018H39.6895H39.4774H39.2655H39.0538H38.8423H38.631H38.4199H38.209H37.9983H37.7878H37.5775H37.3674H37.1576H36.948H36.7386H36.5294H36.3205H36.1119H35.9034H35.6952H35.4873H35.2796H35.0722H34.865H34.6581H34.4515H34.2451H34.039H33.8332H33.6277H33.4224H33.2174H33.0128H32.8084H32.6043H32.4005H32.1971H31.9939H31.791H31.5885H31.3863H31.1844H30.9828H30.7816H30.5807H30.3801H30.1799H29.98H29.7805H29.5813H29.3825H29.184H28.9859H28.7882H28.5908H28.3938H28.1972H28.0009H27.805H27.6096H27.4145H27.2198H27.0255H26.8316H26.6381H26.445H26.2523H26.06H25.8682H25.6767H25.4857H25.2951H25.105H24.9153H24.726H24.5372H24.3488H24.1608H23.9734H23.7863H23.5997H23.4136H23.228H23.0428H22.8581H22.6739H22.4901H22.3069H22.1241H21.9418H21.76H21.5787H21.398H21.2177H21.0379H20.8586H20.6799H20.5016H20.3239H20.1467H19.9701H19.794H19.6184H19.4433H19.2688H19.0949H18.9214H18.7486H18.5763H18.4046H18.2334H18.0628H17.8927H17.7233H17.5544H17.3861H17.2184H17.0512H16.8847H16.7188H16.5534H16.3887H16.2245H16.061H15.8981H15.7358H15.5741H15.4131H15.2527H15.0929H14.9337H14.7752H14.6173H14.4601H14.3035H14.1475H13.9922H13.8376H13.6836H13.5303H13.3777H13.2258H13.0745H12.9239H12.7739H12.6247H12.4762H12.3283H12.1812H12.0347H11.8889H11.7439H11.5996H11.456H11.313H11.1709H11.0294H10.8887H10.7487H10.6094H10.4709H10.3331H10.1961H10.0598H9.92427H9.78949H9.65547H9.52222H9.38973H9.25801H9.12707H8.9969H8.86752H8.73891H8.6111H8.48407H8.35785H8.23241H8.10778H7.98396C3.7044 41.5212 0.250008 38.052 0.250017 33.7712L0.250073 7.99997C0.250082 3.71977 3.71987 0.25 8.00007 0.25H176C180.28 0.25 183.75 3.71979 183.75 8V33.4426C183.75 37.6771 180.355 41.1248 176.121 41.1753C165.006 41.3079 143.298 41.5212 118.646 41.5212C117.452 41.5212 116.276 42.284 115.206 43.3485C114.128 44.4211 113.114 45.8435 112.244 47.2544C111.373 48.6673 110.641 50.0787 110.126 51.1361C109.873 51.6547 109.673 52.0887 109.534 52.3967C109.392 52.1035 109.188 51.6948 108.929 51.2069C108.389 50.192 107.608 48.8317 106.645 47.4524C105.682 46.0744 104.531 44.6699 103.25 43.5721C101.97 42.4761 100.541 41.6693 99.0241 41.5224Z" fill="#F8FBF9" stroke="#666666" stroke-width="0.5"/>
</svg>
