<svg width="192" height="60" viewBox="0 0 192 60" fill="none" xmlns="http://www.w3.org/2000/svg">
<path d="M0.250069 7.98687C0.250086 3.70721 3.71934 0.25 8.00006 0.25H184C188.28 0.25 191.75 3.71979 191.75 8V38.0277C191.75 42.3007 188.373 45.7625 184.106 45.777C153.495 45.8811 42.7332 46.25 10.6668 46.25C10.0135 46.25 9.36444 46.5813 8.7425 47.091C8.11705 47.6035 7.49069 48.3196 6.87835 49.1426C5.65354 50.7888 4.45491 52.904 3.40744 54.7815C3.33169 54.9172 3.25675 55.0518 3.18264 55.1848C2.74278 55.9742 2.33244 56.7107 1.95909 57.3436C1.52076 58.0867 1.14305 58.6703 0.837176 59.0247C0.681478 59.2051 0.563861 59.3027 0.484492 59.3415C0.464392 59.3513 0.451367 59.355 0.444365 59.3565C0.416432 59.3291 0.359804 59.234 0.315864 58.9922C0.273809 58.7607 0.250113 58.4355 0.250103 58C0.249929 50.2002 0.250014 21.9836 0.250069 7.98687Z" fill="#F8FBF9" stroke="#666666" stroke-width="0.5"/>
</svg>
