<svg width="641" height="586" viewBox="0 0 641 586" fill="none" xmlns="http://www.w3.org/2000/svg">
<path d="M193.541 583.33C296.21 592.758 402.15 561.952 483.706 498.846C565.262 435.74 621.595 340.988 638.224 239.328C642.148 215.336 641.027 185.37 619.633 173.888C607.676 167.447 592.541 169.407 580.397 175.568C568.252 181.729 558.443 191.531 548.727 201.053C508.836 240.355 467.264 278.442 420.367 309.062C373.469 339.681 320.687 362.646 265.008 369.18C254.544 370.394 243.708 371.047 233.712 367.687C223.716 364.326 214.747 356.298 213.066 345.936C210.543 330.159 224.837 317.09 238.102 308.221C304.338 263.599 384.306 234.66 432.605 171.087C436.622 165.766 440.546 159.605 439.798 152.977C438.397 141.495 423.449 136.454 412.519 140.001C401.589 143.549 393.275 152.417 384.026 159.232C374.777 166.046 362.165 171.087 351.889 165.766C337.129 158.111 339.09 135.707 347.965 121.798C356.934 107.795 370.76 96.4058 374.871 80.2559C380.569 58.2248 364.781 34.9801 344.042 25.7383C323.302 16.4031 299.293 18.2701 277.152 23.0311C243.334 30.3125 211.384 44.0353 178.406 54.304C145.429 64.5727 110.209 71.3874 76.2974 64.4794C42.479 57.478 10.2487 34.2333 0.999992 1.00001" stroke="#C7FBD2" stroke-width="1.5" stroke-miterlimit="10" stroke-linecap="round" stroke-linejoin="round"/>
</svg>
