<svg width="717" height="745" viewBox="0 0 717 745" fill="none" xmlns="http://www.w3.org/2000/svg">
<path d="M432.557 115.578C502.718 169.593 551.424 250.871 565.901 338.265C580.378 425.658 560.477 518.264 511.538 592.037C499.988 609.447 481.77 627.676 461.588 622.419C450.294 619.495 441.91 609.421 437.863 598.447C433.816 587.472 433.367 575.567 432.814 563.893C430.663 515.832 426.743 467.553 415.106 420.871C403.469 374.19 383.652 328.895 352.41 292.262C346.531 285.387 340.089 278.647 331.83 274.927C323.572 271.208 313.233 271.029 306.118 276.577C295.31 285.046 296.673 301.629 299.844 314.964C315.475 381.763 348.918 446.698 342.18 514.964C341.6 520.663 340.47 526.837 336.126 530.578C328.533 536.995 316.175 531.443 311.365 522.824C306.556 514.206 306.503 503.762 304.662 494.067C302.82 484.372 297.824 473.83 288.244 471.182C274.476 467.386 262.618 482.65 260.078 496.598C257.542 510.66 259.593 525.911 252.743 538.488C243.456 555.699 219.931 561.127 201.47 554.84C182.955 548.611 168.927 533.414 157.768 517.485C140.728 493.147 128.628 465.842 113.864 440.113C99.0987 414.384 80.9035 389.522 55.5122 374.072C30.1252 358.735 -3.75431 354.562 -28.9998 370.103" stroke="#C7FBD2" stroke-width="2" stroke-miterlimit="10" stroke-linecap="round" stroke-linejoin="round"/>
</svg>
