<svg width="480" height="320" viewBox="0 0 480 320" fill="none" xmlns="http://www.w3.org/2000/svg">
<g clip-path="url(#clip0)">
<path opacity="0.1" d="M279.786 63.8227C251.547 62.8172 224.652 53.6848 198.988 43.7129C173.324 33.741 147.869 22.6457 120.306 17.3515C102.579 13.946 82.303 13.4651 68.0222 22.9866C54.2738 32.1672 49.832 47.9709 47.4454 62.6511C45.6477 73.6941 44.5918 85.314 49.5135 95.6531C52.9343 102.831 58.9991 108.864 63.1965 115.741C77.8002 139.663 67.4768 169.163 51.6559 192.521C44.2384 203.481 35.6211 213.943 29.8922 225.598C24.1633 237.253 21.5149 250.626 26.5282 262.525C31.4935 274.329 43.3309 283.177 56.1543 289.407C82.1983 302.059 112.876 305.683 142.812 307.733C209.058 312.275 275.654 310.308 342.075 308.341C366.657 307.611 391.344 306.872 415.525 303.064C428.955 300.948 442.817 297.591 452.569 289.49C464.943 279.204 468.01 261.782 459.715 248.886C445.806 227.25 407.357 221.877 397.623 198.655C392.273 185.876 397.767 171.638 405.546 159.786C422.231 134.36 450.195 112.051 451.665 82.9839C452.678 63.0227 439.235 43.0309 418.448 33.5837C396.663 23.6818 366.448 24.9277 350.382 41.3172C333.811 58.1745 304.721 64.6665 279.786 63.8227Z" fill="#80FF9B"/>
<path d="M74.7242 320C92.3659 320 106.667 317.244 106.667 313.845C106.667 310.445 92.3659 307.689 74.7242 307.689C57.0826 307.689 42.7812 310.445 42.7812 313.845C42.7812 317.244 57.0826 320 74.7242 320Z" fill="#63FF85"/>
<path d="M74.1872 316.109C76.2403 316.109 77.9046 313.925 77.9046 311.23C77.9046 308.536 76.2403 306.352 74.1872 306.352C72.1341 306.352 70.4697 308.536 70.4697 311.23C70.4697 313.925 72.1341 316.109 74.1872 316.109Z" fill="#3F3D56"/>
<path d="M74.1872 310.146C76.2403 310.146 77.9046 307.962 77.9046 305.267C77.9046 302.573 76.2403 300.389 74.1872 300.389C72.1341 300.389 70.4697 302.573 70.4697 305.267C70.4697 307.962 72.1341 310.146 74.1872 310.146Z" fill="#3F3D56"/>
<path d="M74.1872 304.183C76.2403 304.183 77.9046 301.999 77.9046 299.305C77.9046 296.61 76.2403 294.426 74.1872 294.426C72.1341 294.426 70.4697 296.61 70.4697 299.305C70.4697 301.999 72.1341 304.183 74.1872 304.183Z" fill="#3F3D56"/>
<path d="M74.1872 298.224C76.2403 298.224 77.9046 296.04 77.9046 293.346C77.9046 290.651 76.2403 288.467 74.1872 288.467C72.1341 288.467 70.4697 290.651 70.4697 293.346C70.4697 296.04 72.1341 298.224 74.1872 298.224Z" fill="#3F3D56"/>
<path d="M74.1872 292.262C76.2403 292.262 77.9046 290.077 77.9046 287.383C77.9046 284.688 76.2403 282.504 74.1872 282.504C72.1341 282.504 70.4697 284.688 70.4697 287.383C70.4697 290.077 72.1341 292.262 74.1872 292.262Z" fill="#3F3D56"/>
<path d="M74.1872 286.299C76.2403 286.299 77.9046 284.114 77.9046 281.42C77.9046 278.725 76.2403 276.541 74.1872 276.541C72.1341 276.541 70.4697 278.725 70.4697 281.42C70.4697 284.114 72.1341 286.299 74.1872 286.299Z" fill="#3F3D56"/>
<path d="M74.1872 280.336C76.2403 280.336 77.9046 278.151 77.9046 275.457C77.9046 272.762 76.2403 270.578 74.1872 270.578C72.1341 270.578 70.4697 272.762 70.4697 275.457C70.4697 278.151 72.1341 280.336 74.1872 280.336Z" fill="#3F3D56"/>
<path d="M88.1101 234.656C88.6196 234.009 89.0832 233.327 89.4976 232.615L79.724 231.006L90.2917 231.084C91.3063 228.875 91.8598 226.48 91.9183 224.048C91.9768 221.617 91.5391 219.198 90.632 216.942L76.456 224.313L89.5456 214.695C88.3194 212.576 86.6712 210.733 84.7034 209.28C82.7356 207.827 80.4904 206.795 78.1076 206.249C75.7247 205.702 73.2551 205.653 70.8524 206.104C68.4498 206.555 66.1655 207.497 64.1417 208.871C62.118 210.245 60.398 212.021 59.089 214.089C57.7799 216.158 56.9096 218.474 56.5324 220.894C56.1552 223.314 56.279 225.786 56.8963 228.156C57.5135 230.525 58.6109 232.743 60.1202 234.669C59.3285 235.679 58.6468 236.771 58.0869 237.926L70.7751 244.527L57.2492 239.981C56.2977 242.793 56.0619 245.799 56.5632 248.726C57.0646 251.653 58.2872 254.408 60.1202 256.742C58.0529 259.375 56.7669 262.537 56.4091 265.868C56.0512 269.199 56.636 272.563 58.0966 275.576C59.5572 278.59 61.8347 281.13 64.6685 282.908C67.5024 284.685 70.7783 285.628 74.1217 285.628C77.4651 285.628 80.741 284.685 83.5748 282.908C86.4087 281.13 88.6861 278.59 90.1467 275.576C91.6073 272.563 92.1921 269.199 91.8343 265.868C91.4765 262.537 90.1904 259.375 88.1232 256.742C90.5935 253.596 91.9366 249.709 91.9366 245.706C91.9366 241.702 90.5935 237.816 88.1232 234.669L88.1101 234.656Z" fill="#63FF85"/>
<path opacity="0.1" d="M56.3115 245.685C56.3063 249.689 57.65 253.577 60.125 256.72C58.0578 259.352 56.7717 262.515 56.4139 265.846C56.056 269.176 56.6408 272.541 58.1014 275.554C59.562 278.567 61.8395 281.108 64.6733 282.886C67.5072 284.663 70.7831 285.606 74.1265 285.606C77.4699 285.606 80.7458 284.663 83.5796 282.886C86.4135 281.108 88.6909 278.567 90.1515 275.554C91.6121 272.541 92.1969 269.176 91.8391 265.846C91.4813 262.515 90.1952 259.352 88.128 256.72C90.5016 253.69 56.3115 243.688 56.3115 245.685Z" fill="black"/>
<path d="M229.482 239.565C229.753 243.062 231.097 246.682 233.924 248.745C236.751 250.809 241.25 250.769 243.409 247.998C244.135 246.957 244.668 245.795 244.985 244.566C246.804 238.804 248.096 232.5 246.102 226.795C241.603 226.502 236.389 224.382 233.012 228.106C230.285 231.14 229.168 235.521 229.482 239.565Z" fill="#3F3D56"/>
<path d="M250.365 204.317C249.767 209.401 248.75 214.463 248.855 219.583C248.894 221.559 249.104 223.517 249.108 225.502C249.116 230.655 247.761 235.719 245.181 240.178C244.91 240.702 244.546 241.173 244.108 241.568C243.074 242.407 241.516 242.337 240.356 241.695C239.222 240.988 238.3 239.986 237.69 238.796C234.439 233.218 234.348 226.437 233.06 220.112C232.074 215.272 230.347 210.581 229.723 205.685C229.317 202.533 229.378 199.32 228.732 196.207C228.536 195.267 227.986 193.855 227.624 192.469C227.292 191.232 227.109 190.017 227.449 189.182C228.143 187.472 230.416 188.137 231.895 188.242C237.104 188.629 242.335 188.616 247.542 188.202C248.057 188.163 248.641 188.141 249.004 188.509C249.162 188.694 249.28 188.91 249.353 189.142C249.767 190.279 250.084 191.449 250.299 192.64C251.019 196.448 250.819 200.439 250.365 204.317Z" fill="#FABDBD"/>
<g opacity="0.1">
<path opacity="0.1" d="M248.358 188.201C248.09 188.173 247.82 188.173 247.551 188.201C245.055 188.402 242.555 188.503 240.06 188.516C242.826 188.522 245.592 188.417 248.358 188.201Z" fill="black"/>
<path opacity="0.1" d="M241.237 241.694C240.103 240.987 239.182 239.986 238.571 238.796C235.321 233.217 235.229 226.437 233.942 220.111C232.956 215.271 231.228 210.581 230.604 205.684C230.198 202.532 230.259 199.319 229.614 196.206C229.417 195.266 228.867 193.854 228.505 192.469C228.174 191.231 227.99 190.016 228.331 189.181C228.475 188.839 228.719 188.548 229.03 188.345C229.341 188.142 229.705 188.038 230.076 188.044C228.972 187.97 227.894 188.101 227.458 189.181C227.118 190.016 227.301 191.231 227.633 192.469C227.995 193.854 228.545 195.266 228.741 196.206C229.387 199.319 229.326 202.532 229.731 205.684C230.355 210.585 232.083 215.276 233.069 220.111C234.356 226.437 234.448 233.226 237.699 238.796C238.309 239.986 239.231 240.987 240.364 241.694C241.061 242.08 241.859 242.242 242.651 242.157C242.155 242.092 241.676 241.935 241.237 241.694Z" fill="black"/>
</g>
<path d="M266.862 231.127C264.244 236.373 264.681 243.805 264.681 243.805C265.117 261.292 258.136 298.014 258.136 298.014H252.027C252.027 298.014 251.155 257.357 252.027 253.86C252.9 250.363 251.591 238.122 250.282 221.072C249.309 208.394 251.957 196.905 253.38 191.865C253.869 190.116 254.209 189.159 254.209 189.159C254.209 189.159 264.244 174.295 269.916 181.29C271.225 182.916 271.919 186.199 272.159 190.343C272.936 204.018 268.869 227.101 266.862 231.127Z" fill="#FABDBD"/>
<path opacity="0.1" d="M272.158 190.344C271.918 186.2 271.233 182.912 269.916 181.29C268.65 179.734 267.167 179.262 265.631 179.467C266.821 179.665 267.888 180.319 268.607 181.29C269.916 182.917 270.609 186.2 270.849 190.344C271.626 204.019 267.56 227.101 265.553 231.128C262.935 236.374 263.371 243.806 263.371 243.806C263.807 261.292 256.826 298.015 256.826 298.015H258.135C258.135 298.015 265.116 261.292 264.68 243.806C264.68 243.806 264.244 236.374 266.862 231.128C268.869 227.101 272.935 204.019 272.158 190.344Z" fill="black"/>
<path d="M248.851 296.419C248.363 296.803 247.942 297.263 247.603 297.783C246.822 299.261 247.93 301.027 249.117 302.203C250.304 303.379 251.735 304.638 251.735 306.313C251.735 307.659 250.718 308.813 249.579 309.53C248.969 309.915 248.201 310.405 248.327 311.13C248.372 311.314 248.45 311.487 248.558 311.642C249.536 313.141 251.268 314.02 253.022 314.352C254.776 314.684 256.587 314.54 258.371 314.396C258.639 314.405 258.9 314.315 259.104 314.142C259.234 313.968 259.303 313.756 259.301 313.539C259.388 312.612 259.331 311.633 259.737 310.798C260.304 309.657 261.609 309.075 262.355 308.053C263.402 306.654 263.258 304.708 262.861 303.008C261.988 299.305 260.047 295.082 257.132 292.515C253.755 289.569 251.107 294.29 248.851 296.419Z" fill="#3F3D56"/>
<path d="M262.072 76.0633C264.506 72.4173 263.874 67.3199 261.387 63.6914C258.9 60.0628 254.903 57.7808 250.78 56.3076C245.221 54.3228 239.091 53.6452 233.379 55.1359C228.833 56.3207 224.749 58.7994 220.464 60.7142C212.884 64.103 204.642 65.7462 196.344 65.5231C187.134 65.2652 177.042 62.9001 169.314 67.945C155.169 77.165 161.461 102.259 148.079 112.536C144.47 115.308 139.928 116.519 135.914 118.657C131.9 120.795 128.095 124.515 128.191 129.07C128.235 131.256 129.195 133.341 130.373 135.191C135.391 143.16 144.771 148.091 154.165 148C163.559 147.908 172.726 142.902 178.141 135.199C179.498 133.271 180.694 131.125 182.661 129.84C186.588 127.26 191.763 129.066 196.449 129.451C206.882 130.303 217.318 122.456 219.395 112.16C220.268 107.767 220.115 102.516 223.645 99.7579C226.494 97.5327 230.504 98.0092 234.117 97.6289C240.723 96.9425 245.937 92.82 249.523 87.4341C251.168 84.9641 251.36 82.0132 253.603 80.0678C256.02 77.93 259.759 79.5082 262.072 76.0633Z" fill="#3F3D56"/>
<g opacity="0.1">
<path opacity="0.1" d="M187.617 66.3662C191.443 66.4714 195.27 66.1784 199.036 65.4919C197.997 65.5225 196.95 65.5225 195.907 65.4919C188.677 65.2908 180.907 63.7957 174.161 65.5968C178.612 65.6405 183.215 66.2438 187.617 66.3662Z" fill="black"/>
<path opacity="0.1" d="M173.925 130.708C171.958 131.993 170.762 134.14 169.405 136.068C165.234 141.934 159.139 146.144 152.184 147.963C152.694 147.985 153.205 147.998 153.719 147.994C163.122 147.902 172.28 142.896 177.695 135.193C179.052 133.266 180.248 131.119 182.215 129.834L182.556 129.624C179.475 129.2 176.452 129.051 173.925 130.708Z" fill="black"/>
<path opacity="0.1" d="M260.945 63.6777C258.463 60.0667 254.462 57.7671 250.338 56.2939C244.78 54.3091 238.649 53.6315 232.938 55.1223C232.807 55.1529 232.681 55.1922 232.554 55.2272C235.796 55.4083 238.995 56.0622 242.048 57.1682C246.172 58.6415 250.173 60.941 252.655 64.552C255.138 68.1631 255.775 73.2954 253.34 76.924C251.028 80.382 247.289 78.8038 244.841 80.9328C242.598 82.8782 242.406 85.8291 240.761 88.2991C237.676 92.92 233.383 96.6054 228.038 98.0043C229.875 97.7857 231.812 97.812 233.645 97.6196C240.251 96.9333 245.465 92.8107 249.051 87.4248C250.696 84.9548 250.888 82.0039 253.131 80.0585C255.579 77.9295 259.318 79.5076 261.63 76.0496C264.069 72.4036 263.437 67.2887 260.945 63.6777Z" fill="black"/>
<path opacity="0.1" d="M225.359 98.4939C221.768 98.8698 217.758 98.3977 214.887 100.623C211.357 103.381 211.527 108.632 210.637 113.025C209.106 120.706 202.884 127.041 195.497 129.397L196.016 129.446C206.449 130.298 216.885 122.451 218.962 112.155C219.835 107.762 219.682 102.511 223.212 99.7529C224.023 99.1454 224.943 98.7001 225.922 98.4414C225.725 98.4458 225.546 98.4764 225.359 98.4939Z" fill="black"/>
</g>
<path d="M330.783 60.4127C330.783 60.4127 320.312 81.3969 316.821 89.266C313.33 97.1351 281.479 108.939 277.116 109.376C275.946 109.537 274.855 110.063 274.001 110.88C271.535 113.066 270.135 116.808 270.135 116.808C270.135 116.808 271.88 128.611 269.698 148.284C269.655 148.664 269.616 149.045 269.581 149.412C267.678 168.132 271.662 172.547 271.662 172.547C271.662 172.547 229.339 188.722 230.648 167.738C231.058 161.132 230.997 156.306 230.591 152.271C230.147 148.14 229.308 144.062 228.087 140.091C227.053 136.467 225.818 132.493 224.539 127.081C223.924 124.381 223.113 121.729 222.113 119.147C222.083 119.068 222.052 118.989 222.026 118.915C219.845 113.49 217.663 111.737 216.415 111.168C215.237 110.655 214.114 110.022 213.064 109.28C209.033 106.364 200.38 99.828 192.675 92.1076C182.203 81.6155 171.732 56.6968 171.732 56.6968C171.732 56.6968 168.677 42.2702 175.658 30.4666C182.64 18.663 179.585 53.6366 179.585 53.6366C179.585 53.6366 192.239 70.6862 195.293 78.5553C196.864 82.6035 199.359 84.6757 201.401 85.7511C204.775 87.5107 208.005 89.5338 211.061 91.8016C213.127 93.3657 215.298 94.7855 217.558 96.0509C222.436 98.6739 228.279 101.634 233.148 102.412C233.908 102.538 234.677 102.603 235.447 102.608C235.813 102.62 236.176 102.547 236.509 102.396C236.842 102.244 237.136 102.018 237.367 101.734C238.676 100.191 238.646 96.8684 238.345 94.1361C238.184 92.7206 237.945 91.3151 237.629 89.9261C237.629 89.9261 251.809 80.9641 251.373 91.8934C251.305 93.1011 251.417 94.3121 251.705 95.4869C251.937 96.5652 252.451 97.5624 253.193 98.3766C253.936 99.1908 254.881 99.7927 255.933 100.121C257.635 100.621 259.437 100.68 261.168 100.291C261.708 100.199 262.23 100.02 262.713 99.7624C264.022 98.8881 277.112 94.9536 281.038 94.5164C284.965 94.0792 304.6 84.4615 304.6 84.4615L325.979 54.7339C325.979 54.7339 325.543 37.2471 334.269 30.2524C342.996 23.2576 330.783 60.4127 330.783 60.4127Z" fill="#FABDBD"/>
<g opacity="0.1">
<path opacity="0.1" d="M269.581 146.787C269.2 150.3 269.032 153.833 269.079 157.367C269.123 155.058 269.275 152.422 269.581 149.41C269.616 149.043 269.655 148.663 269.699 148.282C270.462 141.55 270.826 134.778 270.789 128.002C270.722 133.902 270.358 139.796 269.699 145.659C269.672 146.04 269.616 146.42 269.581 146.787Z" fill="black"/>
<path opacity="0.1" d="M238.083 89.6445C237.791 89.815 237.646 89.92 237.646 89.92C238.071 91.7901 238.351 93.6901 238.485 95.6032C238.573 93.6082 238.438 91.6096 238.083 89.6445Z" fill="black"/>
<path opacity="0.1" d="M179.791 51.2614C180.005 48.2012 180.324 42.7148 180.263 37.8359C180.188 44.3585 179.607 51.0122 179.607 51.0122L179.791 51.2614Z" fill="black"/>
<path opacity="0.1" d="M230.678 167.225C230.678 167.395 230.678 167.566 230.648 167.736C229.339 188.72 271.662 172.545 271.662 172.545C271.167 171.875 270.793 171.123 270.558 170.324C264.184 172.597 232.149 183.168 230.678 167.225Z" fill="black"/>
<path opacity="0.1" d="M330.783 57.7887C330.783 57.7887 320.312 78.7729 316.821 86.6419C313.33 94.511 281.479 106.315 277.116 106.752C275.946 106.913 274.855 107.439 274.001 108.256C271.535 110.441 270.135 114.184 270.135 114.184C270.135 114.184 270.239 114.896 270.366 116.251C270.855 115.128 272.111 112.549 274.001 110.879C274.855 110.062 275.946 109.536 277.116 109.375C281.479 108.938 313.33 97.134 316.821 89.2649C320.312 81.3959 330.783 60.4117 330.783 60.4117C330.783 60.4117 338.161 37.963 337.35 31.248C336.678 39.8516 330.783 57.7887 330.783 57.7887Z" fill="black"/>
<path opacity="0.1" d="M230.591 149.647C230.147 145.517 229.308 141.438 228.087 137.468C227.053 133.844 225.818 129.87 224.54 124.458C223.924 121.757 223.113 119.105 222.114 116.523C222.083 116.444 222.052 116.366 222.026 116.291C219.845 110.866 217.663 109.113 216.415 108.545C215.237 108.031 214.114 107.398 213.064 106.656C209.033 103.74 200.38 97.2044 192.675 89.484C182.203 78.9919 171.732 54.0732 171.732 54.0732C171.345 51.9695 171.129 49.8379 171.086 47.6992C170.979 50.7127 171.196 53.729 171.732 56.6962C171.732 56.6962 182.203 81.6149 192.675 92.107C200.38 99.8274 209.033 106.363 213.064 109.279C214.122 110.023 215.254 110.656 216.441 111.168C217.685 111.736 219.862 113.489 222.052 118.914C222.079 118.989 222.109 119.067 222.14 119.146C223.135 121.729 223.942 124.381 224.553 127.081C225.831 132.493 227.066 136.467 228.1 140.091C229.322 144.061 230.16 148.14 230.604 152.27C230.788 154.098 230.897 156.087 230.927 158.325C230.98 155.429 230.868 152.531 230.591 149.647Z" fill="black"/>
</g>
<path d="M273.804 130.658C273.138 131.761 272.555 132.913 272.059 134.103C271.4 135.939 271.396 137.937 271.273 139.882C271.099 142.612 270.685 145.321 270.034 147.978C269.929 148.468 269.783 148.947 269.598 149.412C269.468 149.725 269.296 150.019 269.087 150.287C268.855 150.572 268.581 150.821 268.276 151.025C267.808 151.338 267.313 151.609 266.797 151.834C260.723 154.676 254.1 157.185 247.472 156.206C244.67 155.715 241.959 154.801 239.431 153.495C237.031 152.328 234.317 150.942 231.83 151.913C231.448 152.107 231.037 152.236 230.613 152.293C230.531 152.295 230.449 152.287 230.368 152.271C229.548 152.114 229.548 149.342 229.361 148.525C228.645 145.386 228.536 142.842 228.108 140.114C227.881 138.605 227.529 137.118 227.057 135.668C225.312 130.378 224.784 124.738 224.784 119.195C224.784 118.92 222.82 119.195 222.166 119.169C222 119.169 221.908 119.143 221.948 119.086C221.985 119.031 222.029 118.982 222.078 118.937C222.307 118.751 222.574 118.618 222.859 118.548L223.374 118.395C226.071 117.63 229.046 117.311 231.062 115.409C233.157 113.446 233.68 110.312 233.589 107.444C233.562 106.521 233.113 104.283 233.187 102.425C233.947 102.551 234.716 102.617 235.487 102.622C235.852 102.634 236.215 102.561 236.548 102.409C236.881 102.258 237.175 102.031 237.406 101.748C238.134 103.16 238.764 104.62 239.291 106.119C240.033 107.947 240.6 109.87 241.687 111.523C243.432 114.216 246.652 115.986 249.855 115.715C253.057 115.444 256.037 112.978 256.609 109.813C257.111 107.037 255.946 103.042 255.972 100.156C257.674 100.657 259.476 100.715 261.208 100.327C261.281 100.505 261.344 100.687 261.395 100.873C262.377 104.248 263.686 108.122 266.98 109.319C269.109 110.089 271.627 109.512 273.595 110.631C273.746 110.718 273.892 110.814 274.031 110.919C274.485 111.258 274.877 111.674 275.187 112.148C275.996 113.485 276.476 114.995 276.588 116.555C277.092 121.429 276.122 126.342 273.804 130.658Z" fill="#63FF85"/>
<path opacity="0.1" d="M251.705 95.4822C249.528 96.3228 247.185 96.6385 244.864 96.4038C242.543 96.1691 240.31 95.3907 238.344 94.1313C238.184 92.7158 237.945 91.3104 237.629 89.9214C237.629 89.9214 251.809 80.9594 251.373 91.8886C251.305 93.0963 251.417 94.3074 251.705 95.4822Z" fill="black"/>
<path d="M246.351 95.6045C254.544 95.6045 261.185 88.9498 261.185 80.7407C261.185 72.5317 254.544 65.877 246.351 65.877C238.157 65.877 231.516 72.5317 231.516 80.7407C231.516 88.9498 238.157 95.6045 246.351 95.6045Z" fill="#FABDBD"/>
<path d="M220.394 117.682C220.394 117.682 249.191 99.3207 338.636 118.993C428.082 138.666 480.004 122.928 480.004 122.928V143.475C480.004 143.475 379.65 154.404 341.254 143.475C302.858 132.546 248.2 126.242 229.059 143.165L220.394 117.682Z" fill="#F86D70"/>
<path opacity="0.1" d="M220.394 117.682C220.394 117.682 249.191 99.3207 338.636 118.993C428.082 138.666 480.004 122.928 480.004 122.928V143.475C480.004 143.475 379.65 154.404 341.254 143.475C302.858 132.546 248.2 126.242 229.059 143.165L220.394 117.682Z" fill="black"/>
<path d="M221.267 118.557C221.267 118.557 249.191 100.196 338.637 119.868C428.082 139.541 479.132 123.803 479.132 123.803L479.568 142.601C479.568 142.601 380.087 153.531 341.691 142.601C303.295 131.672 249.073 124.056 229.932 140.979L221.267 118.557Z" fill="#F8826D"/>
<path d="M210.769 146.797C210.769 146.797 181.972 165.158 92.526 145.485C3.08045 125.813 7.44365 141.551 7.44365 141.551V121.004C7.44365 121.004 51.512 110.075 89.9081 121.004C128.304 131.933 182.962 138.237 202.103 121.314L210.769 146.797Z" fill="#F86D70"/>
<path opacity="0.1" d="M210.769 146.797C210.769 146.797 181.972 165.158 92.526 145.485C3.08045 125.813 7.44365 141.551 7.44365 141.551V121.004C7.44365 121.004 51.512 110.075 89.9081 121.004C128.304 131.933 182.962 138.237 202.103 121.314L210.769 146.797Z" fill="black"/>
<path d="M209.896 145.923C209.896 145.923 181.972 164.284 92.526 144.612C3.08036 124.939 8.3162 140.677 8.3162 140.677L7.87988 121.879C7.87988 121.879 51.0756 110.95 89.4717 121.879C127.868 132.808 182.089 140.424 201.231 123.501L209.896 145.923Z" fill="#F8826D"/>
<path d="M233.593 83.2032C233.156 80.4752 232.484 77.0391 234.762 75.4784C235.574 74.9849 236.513 74.7416 237.463 74.7789C242.179 74.7308 246.686 78.0227 251.311 77.0609C252.783 76.7519 254.135 76.0234 255.203 74.9631C256.272 73.9028 257.012 72.5558 257.335 71.084C257.657 69.6123 257.549 68.0786 257.022 66.6672C256.495 65.2558 255.573 64.0269 254.366 63.1283C252.546 61.7731 250.247 61.2834 248.022 60.8244C242.171 59.6178 236.062 58.4156 230.285 59.9501C224.508 61.4845 219.229 66.6738 219.691 72.628C219.91 75.4784 221.358 78.0664 222.872 80.4971C224.024 82.342 228.509 90.9892 230.687 91.1203C233.758 91.2996 233.894 84.9868 233.593 83.2032Z" fill="#3F3D56"/>
<path d="M270.353 165.115C270.353 165.115 240.247 172.547 230.211 165.115C230.211 165.115 225.848 182.165 227.157 190.908C227.157 190.908 248.537 192.22 250.718 193.531C250.718 193.531 251.155 190.034 253.336 191.783C253.336 191.783 260.754 183.039 274.28 190.908C274.28 190.908 276.898 170.361 270.353 165.115Z" fill="#63FF85"/>
<path opacity="0.1" d="M254.375 63.1277C254.064 62.9023 253.739 62.6978 253.402 62.5156C254.302 63.5412 254.918 64.7856 255.188 66.1244C255.458 67.4632 255.373 68.8495 254.94 70.1449C254.508 71.4402 253.744 72.5991 252.724 73.5058C251.705 74.4125 250.465 75.0352 249.13 75.3116C244.505 76.2734 239.998 72.9815 235.282 73.0296C234.332 72.9923 233.393 73.2355 232.581 73.729C230.303 75.2897 230.971 78.7259 231.407 81.4538C231.695 83.2375 231.577 89.5502 228.514 89.3797H228.462C229.304 90.4071 230.089 91.1022 230.696 91.1284C233.75 91.2989 233.877 85.008 233.589 83.2025C233.152 80.4746 232.485 77.0384 234.762 75.4777C235.575 74.9842 236.514 74.741 237.463 74.7783C242.18 74.7302 246.687 78.0221 251.312 77.0603C252.784 76.7512 254.135 76.0228 255.204 74.9624C256.272 73.9021 257.012 72.5551 257.335 71.0834C257.658 69.6117 257.549 68.0779 257.022 66.6665C256.496 65.2552 255.573 64.0263 254.366 63.1277H254.375Z" fill="black"/>
<g opacity="0.1">
<path opacity="0.1" d="M37.6809 42.3611C37.6809 42.3611 5.0572 28.6164 0.781268 53.404C0.781268 53.404 -1.44833 57.2642 1.65391 60.4555C1.65391 60.4555 2.32148 58.7462 5.47607 60.5167C6.6022 61.1371 7.79718 61.6228 9.03644 61.9638C10.7111 62.4266 12.4905 62.3315 14.1065 61.6927C14.1065 61.6927 24.8356 61.1113 33.8587 47.0475C33.8587 47.0475 37.7245 44.6518 37.9208 43.7556L31.4546 44.1928C31.4546 44.1928 31.9476 48.9361 29.273 51.7821C29.273 51.7821 31.6509 44.4245 30.5078 44.2147C30.2765 44.1709 27.0914 44.595 27.0914 44.595C27.0914 44.595 27.916 52.84 23.6008 57.1068C23.6008 57.1068 27.6062 48.7175 25.8609 44.7436L21.092 45.6661C21.092 45.6661 22.4009 54.3395 17.6799 59.3888C17.6799 59.3888 21.5588 50.4706 20.0623 45.9371L15.4896 47.4759C15.4896 47.4759 16.5935 55.9658 12.6448 60.1539C12.6448 60.1539 16.0917 49.3951 14.4686 47.9131C14.4686 47.9131 10.3585 49.5831 9.47713 50.5361C9.47713 50.5361 10.1316 56.6565 7.6184 58.8424C7.6184 58.8424 9.16298 51.4105 8.39942 51.1045C8.39942 51.1045 3.62171 54.7067 2.16877 57.815C2.16877 57.815 3.98386 53.0674 7.79729 50.3831C7.79729 50.3831 4.59471 49.841 2.12513 51.1831C2.12513 51.1831 3.77879 48.0312 8.95354 49.5263C8.95354 49.5263 12.7888 46.8683 13.5567 46.9033C13.5567 46.9033 8.66121 44.7174 5.12265 44.9841C5.12265 44.9841 8.91428 42.7982 14.7566 46.453L19.3118 44.8005C19.3118 44.8005 12.9895 41.5523 9.81746 41.5654C9.81746 41.5654 14.0323 39.9348 20.4986 44.4813L25.1628 43.5239C25.1628 43.5239 19.927 40.3107 16.3972 39.5632C16.3972 39.5632 20.6338 38.8943 26.5111 43.3053L29.7049 43.0343C29.7049 43.0343 25.8391 40.7566 24.6698 40.2014C23.5005 39.6462 23.5528 39.2834 23.5528 39.2834C26.336 39.7675 28.9298 41.0178 31.0444 42.8944C31.0444 42.8944 37.6503 42.7676 37.6809 42.3611Z" fill="#6C63FF"/>
</g>
<g opacity="0.1">
<path opacity="0.1" d="M36.4763 17.7225C36.4763 17.7225 24.8963 -9.06289 8.27689 3.2216C8.27689 3.2216 4.75579 4.24458 4.78633 7.89932C4.78633 7.89932 6.15637 7.26542 7.02029 10.1158C7.3433 11.128 7.78256 12.0992 8.32925 13.0098C9.05231 14.2347 10.1534 15.1907 11.4664 15.7334C11.4664 15.7334 18.1683 21.5128 31.5371 18.3083C31.5371 18.3083 35.1978 19.0953 35.8261 18.6712L31.7378 15.235C31.7378 15.235 29.3381 18.3346 26.118 18.4876C26.118 18.4876 31.716 15.4711 31.1531 14.6929C31.0397 14.5356 28.9105 12.9705 28.9105 12.9705C28.9105 12.9705 24.7087 18.3389 19.7477 18.422C19.7477 18.422 26.899 15.7203 28.1207 12.3672L24.7654 10.1814C24.7654 10.1814 20.6029 16.0788 14.9351 16.3848C14.9351 16.3848 22.3089 13.3246 23.9975 9.7573L20.4066 8.06107C20.4066 8.06107 16.2354 13.7443 11.5187 13.9585C11.5187 13.9585 19.6823 9.53434 19.5558 7.72883C19.5558 7.72883 16.1656 6.37359 15.0922 6.45228C15.0922 6.45228 12.0074 10.4524 9.25425 10.3387C9.25425 10.3387 14.3985 6.80202 14.1149 6.18561C14.1149 6.18561 9.22807 5.59981 6.59706 6.62278C6.59706 6.62278 10.3756 4.83913 14.1672 5.42493C14.1672 5.42493 12.5746 3.26969 10.3538 2.67076C10.3538 2.67076 13.1288 1.73959 15.354 5.58232C15.354 5.58232 19.1413 6.18998 19.5819 6.64464C19.5819 6.64464 17.9239 2.53961 15.6551 0.690378C15.6551 0.690378 19.1456 1.56472 20.5418 7.05996L24.1851 8.68186C24.1851 8.68186 22.2784 3.1429 20.363 1.34613C20.363 1.34613 23.7968 2.78005 25.0534 9.17149L28.3651 11.2655C28.3651 11.2655 27.0779 6.36922 25.4112 3.92981C25.4112 3.92981 28.3083 5.94517 29.2944 11.9213L31.3451 13.5825C31.3451 13.5825 30.3416 10.024 29.962 9.02722C29.5824 8.03047 29.8224 7.84686 29.8224 7.84686C31.1982 9.72442 32.0273 11.9475 32.2178 14.2689C32.2178 14.2689 36.2406 17.9499 36.4763 17.7225Z" fill="#6C63FF"/>
</g>
</g>
<defs>
<clipPath id="clip0">
<rect width="480" height="320" fill="white"/>
</clipPath>
</defs>
</svg>
