<svg width="641" height="586" viewBox="0 0 641 586" fill="none" xmlns="http://www.w3.org/2000/svg">
<path d="M447.459 2.6701C344.79 -6.75846 238.85 24.0477 157.294 87.1537C75.7375 150.26 19.4048 245.012 2.77583 346.672C-1.14785 370.664 -0.0268305 400.63 21.3666 412.112C33.3244 418.553 48.4586 416.593 60.6034 410.432C72.7481 404.271 82.5573 394.469 92.2731 384.947C132.164 345.645 173.736 307.558 220.633 276.938C267.531 246.319 320.313 223.354 375.992 216.82C386.456 215.606 397.292 214.953 407.288 218.313C417.284 221.674 426.253 229.702 427.934 240.064C430.457 255.841 416.163 268.91 402.898 277.779C336.662 322.401 256.694 351.34 208.395 414.913C204.378 420.234 200.454 426.395 201.202 433.023C202.603 444.505 217.551 449.546 228.481 445.999C239.411 442.451 247.725 433.583 256.974 426.768C266.223 419.954 278.835 414.913 289.111 420.234C303.871 427.889 301.91 450.293 293.035 464.202C284.066 478.205 270.24 489.594 266.129 505.744C260.431 527.775 276.219 551.02 296.958 560.262C317.698 569.597 341.707 567.73 363.848 562.969C397.666 555.687 429.616 541.965 462.594 531.696C495.571 521.427 530.791 514.613 564.703 521.521C598.521 528.522 630.751 551.767 640 585" stroke="#C7FBD2" stroke-width="1.5" stroke-miterlimit="10" stroke-linecap="round" stroke-linejoin="round"/>
</svg>
