<svg width="220" height="178" viewBox="0 0 220 178" fill="none" xmlns="http://www.w3.org/2000/svg">
<g opacity="0.7" clip-path="url(#clip0)">
<path d="M0.430176 177.65C8.36416 178.377 17.1857 171.591 21.8116 165.693C24.4204 162.381 26.1955 158.234 25.8458 154.033C25.4962 149.832 22.6722 145.712 18.5842 144.689C21.5964 153.387 31.1979 159.284 40.2884 158.045C46.6624 157.184 52.3373 152.902 55.3495 147.274C59.1686 140.192 56.5867 132.301 54.5158 125.004C51.638 114.878 47.8727 104.995 43.6771 95.3549C41.2297 89.6998 38.4057 84.2333 35.9852 78.5513C34.2639 74.5658 32.3275 70.2841 31.3862 66.0293C31.1172 64.7906 31.1441 63.1479 32.3275 62.7171C33.4033 62.3131 34.4522 63.3095 35.1783 64.1982C41.66 72.2499 47.8996 81.2711 48.814 91.5848C49.0292 93.9277 48.9485 96.2705 49.1906 98.5864C49.8629 105.022 52.9021 110.866 56.237 116.279C59.7871 122.014 63.3104 127.643 67.237 133.136C67.7749 133.89 68.3397 134.671 69.1466 135.102C69.9534 135.533 71.083 135.533 71.7016 134.833C72.2126 134.24 72.1857 133.352 72.105 132.571C71.325 125.408 68.6893 118.487 66.1881 111.755C63.3104 104.026 60.2981 96.3513 57.3666 88.6496C56.6135 86.6838 56.0488 84.8257 54.7309 83.183C53.44 81.5673 51.9876 80.0862 50.6429 78.5243C46.7162 73.9195 45.5329 68.2644 44.5915 62.3939C44.5378 62.0169 44.5378 61.4783 44.9143 61.3706C45.3177 61.236 45.6136 61.7476 45.748 62.1516C46.3666 64.0635 46.9583 66.0024 47.5769 67.9143C48.061 69.4224 48.4644 70.9304 48.9485 72.4115C49.083 72.8423 49.1637 73.2463 49.5402 73.5425C50.105 73.9733 50.7505 73.6771 50.9118 72.977C51.0194 72.573 50.9118 72.1422 50.8043 71.7113C50.5622 70.8227 50.2664 69.9609 49.9705 69.0992C49.1099 66.6756 48.2761 64.252 47.4155 61.8284C47.3079 61.5591 47.2272 61.2629 47.2541 60.9667C47.3079 60.6705 47.5231 60.3742 47.8189 60.4012C48.1955 60.4012 48.3837 60.8051 48.5182 61.1552C49.8091 64.6829 51.3691 68.0221 52.6331 71.5767C52.7407 71.846 52.8752 72.1691 53.171 72.223C53.44 72.2499 53.682 72.0075 53.7358 71.7382C53.7896 71.469 53.7089 71.1997 53.6013 70.9304C52.4448 67.4835 51.4497 64.0366 50.2933 60.5897C50.1319 60.1319 50.0512 59.4587 50.5084 59.2702C50.7505 59.1625 51.0463 59.2702 51.2346 59.4856C51.4228 59.6741 51.5035 59.9434 51.6111 60.2127C52.7945 63.6057 53.9779 66.9988 55.1343 70.3918C55.2688 70.8227 55.5378 71.3074 55.9681 71.2805C56.2639 71.2535 56.506 70.9573 56.5598 70.6611C56.6135 70.3649 56.5329 70.0687 56.4522 69.7724C55.995 68.1836 55.2419 66.6756 54.704 65.1137C54.0854 63.3095 53.4669 61.4783 52.8214 59.6741C52.7407 59.4317 52.66 59.1894 52.66 58.947C52.66 58.7047 52.7945 58.4354 53.0365 58.3546C53.4669 58.193 53.8434 58.6777 54.0585 59.0817C54.9461 60.859 55.484 62.744 56.2639 64.5482C57.8238 68.1567 59.2493 71.2266 59.3299 75.2659C59.3837 78.1743 59.1148 81.1095 59.4375 83.9909C61.4277 101.279 74.7676 115.713 91.55 119.941C105.643 123.496 121.188 119.86 132.807 111.135C144.425 102.41 152.144 88.8919 154.699 74.5388C156.178 66.1909 155.936 57.3582 152.548 49.5758C147.411 37.7809 135.308 31.2641 123.743 27.2248C111.936 23.1047 98.193 24.5319 87.704 31.4257C64.1172 46.9367 64.7358 80.8402 84.0732 99.475C97.8703 112.778 118.633 115.794 136.545 110.139C148.244 106.423 158.572 97.4284 162.176 85.6874C164.865 76.8547 163.682 67.1873 160.508 58.5162C155.21 44.1092 143.78 31.4526 128.988 27.4402C117.181 24.2357 104.056 26.9286 94.0243 33.957C83.9925 40.9854 77.1074 52.1609 74.6331 64.1443C72.4546 74.7274 73.6918 86.1991 79.0977 95.5703C87.1123 109.466 104.164 117.302 120.032 115.04C135.9 112.805 149.858 101.01 155.479 85.9567C161.1 70.9304 158.518 53.265 149.508 39.9891C144.372 32.449 137.164 26.1745 128.557 23.1316C116.535 18.8768 102.496 21.5159 92.3568 29.2444C82.2175 36.973 75.9779 49.3873 75.0365 62.1246C74.0952 74.862 78.2908 87.7609 85.8483 98.0478C94.5084 109.843 108.978 118.568 123.394 116.171C132.565 114.663 140.526 108.981 147.115 102.437C154.511 95.0856 160.75 86.2798 163.548 76.2084C167.098 63.3634 164.516 48.9295 156.636 38.1579C148.755 27.3864 135.792 20.5464 122.452 20.1963C109.139 19.8463 95.7994 26.0668 87.5158 36.5422C77.8605 48.741 75.1172 66.0024 82.1099 80.167C89.5598 95.2472 107.687 104.834 124.281 100.741C128.127 99.7982 131.785 98.1824 135.012 95.8935C146.927 87.4378 151.794 72.223 154.914 57.9237C158.034 43.6245 160.401 28.4096 169.491 16.9649C180.949 2.53098 201.792 -2.72016 219.489 2.39633" stroke="#C7FBD2" stroke-width="0.8" stroke-miterlimit="10" stroke-linecap="round" stroke-linejoin="round"/>
</g>
<defs>
<clipPath id="clip0">
<rect width="220" height="178" fill="white"/>
</clipPath>
</defs>
</svg>
