<svg width="1210" height="633" viewBox="0 0 1210 633" fill="none" xmlns="http://www.w3.org/2000/svg">
<path d="M1209 200.631C1127.07 193.13 1053.24 161.215 1000.14 96.7963C983.226 76.2059 968.665 47.6735 980.726 23.8474C989.404 6.78679 1010.88 -1.74352 1029.7 1.78626C1048.53 5.31605 1064.42 19.141 1073.54 36.0546C1082.65 52.9682 1085.6 72.529 1085.45 91.7958C1085.16 129.741 1072.8 168.127 1048.24 197.101C1023.67 226.075 986.609 244.9 948.662 244.606C922.481 244.459 895.711 235.635 870.854 243.577C840.849 252.989 823.199 283.287 810.256 311.966C793.047 350.205 767.307 410.212 714.357 397.269C696.56 393.004 682.734 379.62 667.584 369.472C652.435 359.324 632.431 351.97 616.252 360.501C599.632 369.325 588.159 393.739 570.215 388.592C558.154 385.209 552.27 369.178 539.915 367.266C519.471 364.178 516.382 396.828 501.232 410.8C474.757 435.214 442.105 402.27 419.16 390.945C388.125 375.796 352.972 367.56 318.848 364.766C219.126 356.53 128.081 394.475 73.6595 479.778C44.3898 525.665 27.7694 578.612 17.4735 632C78.8075 585.083 125.874 519.488 150.437 446.392C174.559 374.914 182.06 282.992 154.85 211.22C131.464 149.596 73.8066 95.0314 14.2376 68.9993C9.82507 67.0873 5.41255 65.3224 1.00003 63.7046" stroke="#C7FBD2" stroke-width="1.5" stroke-miterlimit="10" stroke-linecap="round" stroke-linejoin="round"/>
</svg>
