<svg width="720" height="745" viewBox="0 0 720 745" fill="none" xmlns="http://www.w3.org/2000/svg">
<path d="M463.557 115.578C533.718 169.593 582.424 250.871 596.901 338.265C611.378 425.658 591.477 518.264 542.538 592.037C530.988 609.447 512.77 627.676 492.588 622.419C481.294 619.495 472.91 609.421 468.863 598.447C464.816 587.472 464.367 575.567 463.814 563.893C461.663 515.832 457.743 467.553 446.106 420.871C434.469 374.19 414.652 328.895 383.41 292.262C377.531 285.387 371.089 278.647 362.83 274.927C354.572 271.208 344.233 271.029 337.118 276.577C326.31 285.046 327.673 301.629 330.844 314.964C346.475 381.763 379.918 446.698 373.18 514.964C372.6 520.663 371.47 526.837 367.126 530.578C359.533 536.995 347.175 531.443 342.365 522.824C337.556 514.206 337.503 503.762 335.662 494.067C333.82 484.372 328.824 473.83 319.244 471.182C305.476 467.386 293.618 482.65 291.078 496.598C288.542 510.66 290.593 525.911 283.743 538.488C274.456 555.699 250.931 561.127 232.47 554.84C213.955 548.611 199.927 533.414 188.768 517.485C171.728 493.147 159.628 465.842 144.864 440.113C130.099 414.384 111.903 389.522 86.5122 374.072C61.1252 358.735 27.2457 354.562 2.00025 370.103" stroke="#C7FBD2" stroke-width="2" stroke-miterlimit="10" stroke-linecap="round" stroke-linejoin="round"/>
</svg>
