<svg width="663" height="661" viewBox="0 0 663 661" fill="none" xmlns="http://www.w3.org/2000/svg">
<path d="M251.947 102.551C189.786 150.408 146.632 222.42 133.806 299.849C120.979 377.279 138.611 459.327 181.971 524.69C192.204 540.115 208.345 556.266 226.226 551.608C236.232 549.017 243.661 540.092 247.246 530.369C250.832 520.645 251.229 510.097 251.719 499.754C253.626 457.172 257.098 414.398 267.409 373.038C277.719 331.679 295.276 291.548 322.957 259.092C328.166 253 333.873 247.029 341.19 243.733C348.507 240.438 357.668 240.28 363.971 245.195C373.547 252.698 372.339 267.39 369.53 279.205C355.681 338.389 326.05 395.921 332.02 456.404C332.534 461.453 333.535 466.923 337.384 470.237C344.111 475.923 355.061 471.004 359.322 463.368C363.583 455.732 363.63 446.479 365.261 437.889C366.893 429.299 371.319 419.959 379.807 417.613C392.006 414.25 402.512 427.774 404.762 440.132C407.009 452.59 405.192 466.102 411.261 477.246C419.489 492.495 440.332 497.304 456.688 491.733C473.092 486.215 485.521 472.75 495.408 458.637C510.505 437.074 521.225 412.882 534.307 390.086C547.388 367.291 563.509 345.263 586.006 331.575C608.498 317.986 638.515 314.288 660.882 328.058" stroke="#C7FBD2" stroke-width="2" stroke-miterlimit="10" stroke-linecap="round" stroke-linejoin="round"/>
</svg>
