<svg width="690" height="484" viewBox="0 0 690 484" fill="none" xmlns="http://www.w3.org/2000/svg">
<path d="M0.95166 413.78C6.18614 389.818 25.4586 371.49 45.762 357.763C52.4241 353.241 60.1965 348.877 68.0482 350.543C76.6137 352.368 82.1655 360.699 90.1758 364.19C97.393 367.285 105.959 366.094 112.938 362.445C119.917 358.795 125.628 353.082 130.703 347.131C143.869 331.659 154.259 313.807 161.238 294.605C166.552 280.006 169.248 264.137 166.552 248.824C164.41 236.525 158.859 224.862 157.907 212.405C156.876 198.599 161.476 182.65 172.262 173.447C170.993 181.857 168.852 190.109 165.838 198.123C170.834 193.759 172.262 186.618 172.817 179.953C173.372 173.367 173.372 166.385 176.465 160.513C178.765 156.229 182.493 152.976 186.617 150.437C190.9 147.898 195.738 145.676 200.576 144.486C200.259 148.85 199.941 153.214 199.624 157.657C194.945 159.799 190.662 162.735 187.014 166.306C189.71 165.829 192.169 164.957 194.786 164.322C193.279 171.701 191.852 179.397 194.072 186.538C195.262 190.426 197.483 193.917 199.148 197.646C200.655 201.058 201.607 204.629 202.559 208.12C203.669 212.246 204.779 216.372 205.969 220.498C208.903 211.69 206.445 202.169 203.59 193.362C201.528 187.252 199.386 181.064 197.959 174.795C196.61 168.765 198.117 162.497 199.148 156.546C200.576 148.691 201.29 140.757 201.607 132.743C202.003 122.587 202.4 112.034 201.607 101.878C200.814 91.8806 198.197 81.8039 194.469 72.5206C187.807 55.8583 188.996 33.4039 197.721 17.7731C196.214 30.0714 196.452 42.5285 196.61 54.8268C196.61 55.4616 196.531 58.4767 197.721 58.2386C198.831 58.0006 199.228 55.3029 199.307 54.5095C199.465 50.7803 199.862 47.2098 199.941 43.4806C200.021 39.1167 200.338 34.6734 200.417 30.3888C200.497 25.9455 201.29 21.5816 202.797 17.4557C203.272 23.1685 203.986 28.8019 204.224 34.5147C204.462 40.4655 204.462 46.4957 204.303 52.4465C204.303 53.3987 204.224 54.4301 204.383 55.3822C204.621 56.5724 205.572 58.6354 207.079 57.8419C208.269 57.2072 208.586 55.3822 208.586 54.1921C208.903 47.9239 207.714 41.8144 207.555 35.5462C207.476 32.6104 207.396 29.5954 207.714 26.6596C208.031 23.6446 209.3 20.5501 210.093 17.6144C211.362 23.8032 212.076 30.0714 212.234 36.3396C212.393 42.5285 211.996 48.638 212.234 54.8268C212.234 55.5409 212.314 56.3344 212.71 56.8898C213.107 57.4452 213.9 57.9213 214.534 57.5245C215.09 57.2072 215.248 56.4137 215.328 55.779C216.596 43.2426 215.724 30.8649 215.883 18.4078C222.307 33.8006 224.052 53.1606 218.659 69.1882C214.614 81.1691 211.996 92.6741 210.648 105.21C209.696 113.859 209.062 122.507 208.586 131.235C208.19 139.09 208.983 147.66 207.476 155.356C204.621 155.356 202.003 156.705 201.131 159.641C199.545 164.798 203.114 176.779 209.776 176.7C212.552 176.7 215.09 174.478 215.883 171.78C217.628 165.988 214.217 157.102 208.348 155.039C208.348 151.706 208.348 148.453 208.348 145.121C213.028 147.898 216.041 152.738 218.896 157.34C219.769 158.688 220.562 160.117 220.8 161.704C221.038 163.29 220.403 165.115 218.976 165.829C217.548 166.544 215.407 165.433 215.565 163.846C217.548 169.638 219.452 175.351 221.434 181.143C221.196 180.667 220.879 180.191 220.641 179.715C217.469 178.287 213.9 180.905 211.838 183.682C214.534 182.888 217.39 182.65 220.245 183.047C214.693 185.269 210.49 190.506 209.379 196.377C212.631 191.775 216.914 187.966 221.831 185.348C221.672 185.427 223.1 194.076 223.338 195.108C224.052 199.154 225.717 203.121 226.669 207.168C228.493 215.182 229.365 223.592 227.145 231.606C225.162 238.668 220.959 244.777 217.31 251.125C210.49 262.868 205.255 275.483 201.765 288.575C198.276 301.826 195.262 315.314 196.848 329.041C215.328 302.222 245.703 286.591 278.062 286.274C294.321 286.115 310.421 288.496 326.6 289.527C359.831 291.511 393.459 287.306 425.183 277.229C447.945 270.009 470.469 259.218 485.538 240.73C497.831 225.655 504.334 206.374 506.634 187.014C512.028 142.582 495.531 95.9272 463.49 64.7449C426.214 28.4846 368.317 14.5199 319.065 31.1822C269.814 47.8445 231.983 95.0544 227.7 146.866C224.21 189.474 243.165 233.351 276.634 259.852C297.89 276.673 324.221 286.591 351.107 290.162C382.593 294.367 415.903 289.845 442.948 273.182C469.517 256.837 488.472 229.781 498.545 200.265C515.279 151.309 506.555 92.3567 469.914 55.8583C440.014 26.1042 394.331 14.2026 353.09 23.0098C311.848 31.817 275.762 59.9842 254.665 96.4826C241.5 119.334 233.807 145.993 236.9 172.177C238.328 183.999 244.276 197.726 256.093 199.075C263.152 199.868 269.972 195.663 274.652 190.347C279.331 185.031 282.583 178.525 286.628 172.732C294.003 162.18 304.472 153.769 316.448 148.85C315.496 151.548 317.083 154.245 319.7 155.197C316.369 152.896 312.007 152.103 309.786 156.388C308.596 158.609 308.914 161.466 310.5 163.37C308.834 162.1 306.693 161.307 304.71 161.862C302.728 162.418 301.221 164.719 301.934 166.623C302.41 167.892 303.679 168.686 304.948 169.162C306.217 169.638 307.565 169.797 308.834 170.193C313.355 171.622 316.607 176.541 316.052 181.302C314.624 178.604 312.245 176.303 309.469 174.954C308.2 174.319 306.772 173.843 305.345 174.161C302.331 174.795 302.569 177.81 304.234 179.715C305.265 180.905 306.852 181.54 308.359 181.857C307.328 180.111 306.217 178.366 304.631 177.176C303.045 175.906 300.903 175.271 299 175.986C297.096 176.7 295.748 178.842 296.462 180.746C297.096 182.333 298.841 183.206 300.507 183.444C302.172 183.682 303.917 183.603 305.583 183.999C307.248 184.396 308.834 185.586 308.993 187.332C307.565 186.618 306.138 185.904 304.552 185.586C302.965 185.269 301.221 185.428 299.952 186.38C298.683 187.332 297.89 189.077 298.524 190.585C299.159 192.092 301.3 192.806 302.49 191.696C297.969 195.584 301.221 203.359 305.821 205.264C306.296 205.502 312.245 205.898 311.769 204.708C311.134 203.28 310.579 201.852 309.945 200.424C309.469 199.313 308.993 198.202 308.914 197.012C308.834 195.822 309.31 194.552 310.341 193.917C312.007 192.965 314.148 194.235 315.179 195.901C316.924 198.757 316.528 202.645 314.307 205.105C313.117 206.454 311.372 207.485 310.817 209.151C310.024 211.77 312.245 214.309 314.783 214.547C316.845 214.785 318.907 213.595 319.779 211.77C319.779 212.96 319.779 214.229 320.255 215.34C320.731 216.451 321.603 217.483 322.872 217.721C324.141 217.959 325.569 217.245 326.124 216.054C326.679 214.864 326.203 213.277 325.093 212.563C326.6 214.309 328.741 215.499 331.041 215.42C333.341 215.42 335.641 213.991 336.355 211.849C338.1 206.93 331.279 203.756 327.472 203.28C331.041 204.47 335.086 202.566 336.514 199.075C336.752 198.44 336.99 197.726 336.831 197.091C336.672 196.456 336.196 195.742 335.562 195.663C331.676 194.869 333.5 202.487 335.245 203.756C341.114 208.041 347.379 198.678 341.986 194.314C345.793 194.235 349.6 194.076 353.407 193.997C355.231 193.917 357.214 193.997 358.403 195.346C359.355 196.456 359.355 198.361 358.245 199.471C357.214 200.582 355.31 200.662 354.121 199.709C355.31 200.662 354.517 203.994 354.041 205.105C353.248 206.93 351.979 208.596 349.838 208.675C347.934 208.755 345.952 206.85 346.586 204.946C346.19 206.771 344.286 208.041 342.462 207.803C340.638 207.565 339.21 205.66 339.448 203.835C341.59 203.597 343.414 201.931 343.89 199.868C344.365 197.805 343.334 195.504 341.51 194.393C347.617 194.314 353.724 194.235 359.752 194.155C357.531 192.41 355.786 190.744 353.09 190.585C349.759 190.426 346.031 191.22 342.7 191.537C343.81 191.378 344.841 190.426 345.079 189.315C345.317 188.205 344.921 186.935 343.969 186.221C349.362 184.237 355.707 185.348 358.086 190.664C360.941 197.012 363.638 203.359 365.621 210.024C367.048 214.785 366.969 219.863 367.286 224.782C367.365 225.338 367.365 225.972 367.762 226.369C368.159 226.766 368.714 226.845 369.269 226.925C371.093 227.163 382.672 226.925 382.99 225.1C383.069 224.465 382.752 223.83 382.355 223.275C380.61 220.339 380.055 216.689 380.848 213.357C382.434 216.927 384.021 220.498 385.607 224.148C387.431 224.624 389.493 224.147 390.841 222.799C387.114 219.069 386.003 213.515 385.765 208.199C385.528 202.883 385.765 197.488 384.1 192.568C383.783 194.631 385.607 196.853 387.748 196.853C389.89 196.853 391.714 194.711 391.396 192.568C392.745 193.759 394.886 193.917 396.314 192.807C397.741 191.775 398.296 189.633 397.503 187.967C398.059 189.791 400.676 190.823 402.5 190.188C405.276 189.315 405.752 185.586 403.293 183.92C404.245 184.555 405.593 184.317 406.465 183.603C407.338 182.809 407.734 181.698 407.972 180.587C408.21 179.318 408.29 177.89 407.655 176.779C407.021 175.668 405.434 174.954 404.324 175.668C403.61 176.065 403.293 176.938 403.214 177.731C403.214 178.525 403.452 179.318 403.769 180.032C405.355 183.206 410.59 187.173 414.159 184.951C415.903 183.92 416.776 181.54 416.141 179.635C416.776 180.191 417.807 180.429 418.6 180.032C419.393 179.715 419.948 178.842 420.027 177.969C420.027 176.779 419.155 175.747 418.203 175.033C417.252 174.319 416.221 173.605 415.586 172.574C415.031 171.542 415.031 170.114 416.062 169.4C417.093 173.208 425.024 171.622 422.724 167.496C422.486 167.02 422.01 166.623 421.614 166.306C420.662 165.591 419.71 165.274 418.6 165.036C417.569 164.798 416.617 165.115 415.586 165.274C416.538 164.798 417.252 163.767 417.331 162.735C417.41 161.624 416.776 160.513 415.824 160.117C414.872 159.641 413.524 160.037 412.969 160.91C412.89 159.482 411.7 158.133 410.272 157.816C411.065 159.482 410.986 161.624 409.955 163.211C408.448 165.671 405.196 166.623 402.659 165.353C400.676 164.401 399.248 162.418 399.01 160.275C398.931 159.641 398.931 158.927 398.376 158.45C397.741 157.895 396.71 158.292 396.076 158.847C394.807 159.879 394.014 161.545 393.934 163.211C393.855 164.877 394.648 166.544 395.838 167.654C394.965 166.623 393.696 165.909 392.269 165.829C390.286 165.829 389.096 167.337 389.017 169.162C389.017 170.273 389.255 171.304 389.255 172.415C389.255 173.526 388.938 174.637 387.986 175.271C387.114 175.827 385.765 175.747 385.21 176.62C384.893 177.176 385.052 177.969 385.369 178.525C385.765 179.08 386.321 179.477 386.796 179.953C388.462 181.381 389.731 183.523 389.493 185.745C389.255 187.649 387.907 189.315 386.083 189.95C384.259 190.506 382.196 190.029 380.848 188.601C379.579 187.173 379.183 185.031 379.896 183.285C380.134 182.65 380.61 182.016 381.165 181.698C381.721 181.302 382.514 181.143 383.148 181.381C384.1 181.698 384.734 182.73 385.052 183.682C385.607 185.348 385.528 187.332 384.576 188.839C383.624 190.347 381.879 191.458 380.134 191.22C378.628 191.061 377.279 189.95 376.486 188.681C375.852 187.728 375.455 186.618 375.138 185.507C374.662 183.841 374.821 183.92 375.852 182.888C377.041 181.778 378.072 180.667 379.024 179.239C381.721 175.271 383.069 170.908 384.1 166.226C386.003 167.258 388.621 166.544 389.81 164.719C391.159 162.656 390.683 159.799 388.303 158.688C389.652 158.054 391.079 157.419 392.428 156.705C391.793 155.911 392.11 154.642 392.824 153.848C393.776 152.738 395.283 152.182 396.79 152.341C397.9 152.5 399.486 152.896 400.2 153.848C400.676 154.483 400.993 155.277 401.469 155.991C401.945 156.705 402.659 157.34 403.452 157.34C404.086 157.34 404.721 156.943 405.038 156.467C405.434 155.991 405.593 155.277 405.593 154.642C406.703 155.673 407.893 156.784 409.4 157.102C410.986 157.419 412.81 157.181 414.238 156.308C416.221 155.118 417.49 152.817 417.49 150.437C417.49 149.326 417.172 148.136 416.459 147.263C415.586 146.152 414.079 145.438 412.652 145.597C411.224 145.676 409.876 146.549 409.162 147.818C408.924 148.294 408.765 148.85 409.083 149.247C409.321 149.485 409.638 149.485 409.955 149.564C412.255 149.723 414.714 148.691 416.221 146.946C419.472 143.216 418.045 134.568 412.017 134.806C410.114 134.885 408.29 136.155 407.496 137.9C406.941 136.789 406.386 135.599 405.831 134.488C406.624 134.171 407.259 133.378 407.338 132.505C407.814 129.172 403.531 130.442 403.928 132.029C403.61 130.918 402.341 130.283 401.231 130.521C400.121 130.759 399.248 131.711 398.852 132.743C398.455 133.774 398.376 134.965 398.376 136.155C398.296 134.488 396.393 133.298 394.728 133.616C393.062 133.933 391.872 135.52 391.634 137.186C391.396 138.852 392.031 140.519 392.903 141.947C391.079 139.17 390.128 135.996 386.4 135.52C381.879 134.965 378.152 138.059 378.945 142.74C379.341 145.041 380.928 147.104 382.99 148.136C380.928 146.787 377.755 147.739 376.883 150.04C376.01 152.341 377.676 155.197 380.134 155.594C377.676 155.673 375.614 158.133 375.931 160.593C376.169 162.338 377.755 163.846 379.421 164.163C381.483 164.56 383.069 163.449 384.179 161.704C384.417 161.386 384.576 160.989 384.655 160.593C384.734 160.196 384.576 159.799 384.259 159.561C383.862 159.244 383.307 159.323 382.91 159.561C382.514 159.799 382.276 160.275 382.038 160.672C381.245 162.497 381.086 164.481 380.848 166.464C380.61 168.368 380.134 170.035 379.024 171.622C378.548 172.336 378.072 173.129 377.517 173.843C376.407 175.43 374.821 177.017 374.027 178.763V178.842C372.203 174.795 372.759 169.638 375.534 166.147C374.345 166.385 372.996 165.829 372.362 164.798C371.728 163.767 371.886 162.338 372.6 161.386C372.838 162.576 371.807 163.767 370.617 163.767C369.428 163.767 368.396 162.656 368.555 161.466C368.555 164.798 368.396 167.972 368.634 171.225C368.793 172.732 368.476 175.43 369.11 176.779C365.938 169.876 364.193 160.434 365.859 152.976C366.493 154.959 368.952 156.149 370.855 155.515C372.838 154.801 373.948 152.341 373.155 150.357C374.345 150.357 375.138 149.008 374.9 147.818C374.741 146.707 373.869 145.755 373.076 144.883C374.503 146.39 378.469 144.248 377.993 142.185C377.517 140.122 374.821 139.408 373.076 139.09C374.821 140.043 376.327 137.662 376.407 136.155C376.486 134.965 376.09 133.774 376.407 132.664C376.803 130.918 378.865 129.807 380.61 130.363C382.355 130.918 383.307 133.06 382.672 134.727C382.831 133.298 383.069 131.87 383.228 130.442C385.765 131.315 388.779 130.363 390.365 128.22C391.476 126.713 391.714 124.412 390.365 123.063C388.938 121.714 386.321 122.269 385.21 124.015C384.1 125.761 384.338 127.982 385.29 129.728C386.162 131.473 387.669 132.902 389.096 134.171C389.255 131.473 392.983 131.394 395.045 130.997C395.362 130.918 395.759 130.839 396.076 130.759C397.979 130.204 399.169 127.982 398.693 126.078C398.217 124.174 396.155 122.825 394.172 123.142C395.203 121.873 395.6 120.048 395.045 118.461C393.776 114.652 388.859 114.652 386.559 117.509C387.669 115.922 387.51 113.542 386.241 112.113C384.972 110.685 382.672 110.13 380.928 110.923C380.134 111.32 379.421 111.955 379.341 112.828C379.262 113.7 380.214 114.573 381.007 114.256C381.562 114.018 381.8 113.304 381.879 112.669C382.117 110.368 380.452 107.273 378.152 106.718C376.328 106.242 372.838 107.908 372.679 110.05C372.759 108.781 371.728 107.591 370.538 107.194C369.269 106.877 367.921 107.273 366.89 108.067C365.859 108.86 365.224 110.05 364.828 111.241C364.51 112.034 364.352 112.827 364.431 113.7C364.51 114.494 364.986 115.367 365.779 115.684C366.731 116.16 367.921 115.684 368.634 114.97C369.348 114.176 369.665 113.145 369.903 112.113C370.3 110.288 370.459 108.226 369.824 106.48C368.952 103.862 366.334 101.878 363.559 102.909C360.862 103.941 359.752 107.511 360.862 110.13C359.99 107.273 355.628 105.687 353.328 107.829C350.869 110.05 352.217 114.732 354.993 116.001C351.662 114.414 349.917 120.683 354.121 121.317C355.628 121.555 357.134 120.921 358.562 120.365C356.5 121.079 354.914 123.063 354.596 125.205C355.707 123.222 358.324 122.19 360.465 122.984C365.065 124.65 363.638 131.235 362.29 134.647C360.545 139.011 357.531 142.899 353.724 145.597C352.217 146.628 350.314 147.501 348.648 146.787C347.538 146.311 346.903 145.121 346.745 143.93C346.586 142.74 346.903 141.55 347.379 140.439C348.807 137.107 351.9 134.488 355.469 133.695C358.879 132.902 363.162 133.933 364.193 137.821C364.431 136.075 365.303 134.25 366.89 133.695C368.317 133.219 370.141 134.092 370.617 135.52C371.093 136.948 370.3 138.773 368.793 139.249C369.983 138.614 371.648 139.328 372.203 140.598C372.759 141.868 372.203 143.454 371.093 144.248C368.555 146.231 364.352 145.121 363.796 141.867C362.528 151.071 361.655 159.879 364.352 168.924C359.672 162.973 358.165 154.721 360.307 147.422C359.514 148.612 358.086 150.516 356.659 151.071C354.993 151.627 354.517 150.595 353.407 149.881C355.469 151.468 355.628 155.039 353.565 156.546C351.503 158.133 347.934 156.705 347.696 154.166C350.869 157.736 353.407 161.783 355.39 166.147C356.341 168.21 357.134 170.114 357.69 172.256C358.245 174.557 359.514 177.414 359.514 179.715C356.421 174.24 353.407 168.845 350.314 163.37C349.124 161.307 348.41 158.927 348.172 156.546C347.459 157.419 346.665 158.292 345.952 159.244C345.476 162.576 346.586 165.988 348.014 169.003C348.49 170.035 353.248 178.842 351.186 178.842C350.314 178.842 347.776 175.271 347.221 174.557C346.031 173.05 345 171.384 344.365 169.638C343.017 165.988 342.7 161.942 343.731 158.212C343.176 159.72 341.431 160.672 339.924 160.355C338.338 160.037 337.228 158.45 337.307 156.864C337.386 155.832 337.703 154.325 336.672 154.087C335.721 153.928 335.324 155.118 334.928 155.911C333.896 157.895 330.645 158.292 329.217 156.546C329.852 155.118 329.217 153.293 327.79 152.658C326.441 152.024 324.538 152.658 323.824 154.007C325.331 155.594 328.186 155.673 329.772 154.087C333.421 150.516 328.821 144.407 325.41 142.661C324.696 142.264 323.824 141.947 323.031 142.026C322.238 142.106 321.365 142.502 321.048 143.296C320.731 144.01 321.048 144.962 321.524 145.517C322.079 146.152 322.793 146.549 323.507 146.866C326.6 148.215 330.01 148.691 333.341 148.215C333.817 148.136 334.293 148.056 334.531 147.66C334.848 147.104 334.372 146.39 334.055 145.835C332.469 143.137 335.721 137.424 338.734 140.122C336.514 138.852 336.117 135.282 337.941 133.536C339.765 131.791 343.255 132.346 344.445 134.568C344.128 133.219 344.841 131.711 346.11 131.077C347.379 130.442 348.886 130.918 349.838 131.87C350.155 130.839 350.234 129.966 351.186 129.41C351.979 128.934 353.962 128.934 354.596 129.728C353.486 128.3 353.486 126.078 354.596 124.65C352.852 125.84 349.759 125.681 349.521 123.063C347.776 123.856 345.555 122.508 345.159 120.603C344.762 118.699 346.031 116.715 347.696 115.843C349.362 114.89 351.424 114.89 353.328 115.287C352.772 114.256 352.296 113.224 351.503 112.431C350.71 111.558 349.6 111.003 348.49 111.003C347.379 111.003 346.19 111.796 345.952 112.986C346.19 110.923 344.207 109.019 342.145 108.94C340.083 108.86 338.1 110.368 337.307 112.272C336.355 114.652 336.99 117.747 338.259 119.889C339.686 122.349 342.462 126.395 345.317 127.427C342.224 126.316 338.496 127.744 336.91 130.601C336.831 127.268 333.659 121.714 329.693 124.015C328.028 124.967 327.393 127.268 328.265 128.934C328.9 130.125 330.328 130.918 331.676 130.997C333.024 131.077 334.452 130.601 335.562 129.807C337.386 128.617 338.734 126.395 338.259 124.253C337.783 122.111 335.086 120.603 333.341 121.873C334.452 120.048 335.324 118.064 335.483 115.922C335.641 113.78 335.086 111.558 333.5 110.13C331.914 108.702 329.376 108.305 327.631 109.574C326.362 110.527 325.807 112.113 325.965 113.7C326.124 115.208 326.996 116.636 328.186 117.667C328.9 114.97 327.393 111.875 324.855 110.765C322.317 109.654 318.986 110.685 317.479 113.066C315.972 115.446 316.528 118.858 318.669 120.683C316.607 121 314.862 122.825 314.624 124.888C314.307 127.903 317.638 130.601 319.621 132.584C317.321 131.949 314.703 132.029 312.641 133.219C310.579 134.409 309.072 136.869 309.469 139.249C309.786 141.629 312.165 143.692 314.545 143.296C313.593 140.36 313.038 135.441 310.103 133.933C307.407 132.584 303.838 132.981 301.696 135.282C299.555 137.583 299.317 141.391 301.062 144.01C302.49 145.993 304.869 147.104 307.248 147.501C309.231 147.818 312.879 146.707 314.545 147.501C315.1 147.739 316.686 151.309 317.479 149.881C317.717 149.485 317.876 148.929 318.272 148.77C318.907 148.532 319.462 149.326 319.462 149.961C319.462 150.595 319.065 151.23 318.907 151.865C318.669 153.055 319.303 154.404 320.414 154.88C321.524 155.356 322.952 155.039 323.745 154.007C319.7 156.149 318.034 161.862 319.859 165.988C320.572 167.575 321.841 169.083 323.507 169.638C326.759 170.749 331.676 167.258 331.834 163.846C331.2 165.036 332.469 166.385 333.817 166.623C335.165 166.861 336.514 166.623 337.783 167.099C339.131 167.575 340.162 169.003 340.162 170.511C340.162 173.367 336.514 175.351 334.055 174.399C337.941 175.906 335.959 184.237 334.293 186.459C332.469 188.839 329.376 190.267 326.362 190.109C324.696 190.029 322.952 189.315 322.238 187.808C321.445 185.904 322.872 183.682 324.617 182.571C327.393 180.905 330.962 180.905 334.214 181.46C336.752 181.857 339.369 182.73 341.986 182.73C344.207 182.809 346.11 181.302 348.252 180.826C356.896 178.683 360.783 188.205 363.241 194.235C366.81 202.883 369.11 212.008 370.221 221.291C371.41 221.053 372.6 220.815 373.79 220.498C370.538 207.327 367.286 194.155 364.034 180.905C371.41 191.299 377.041 204.073 389.969 208.12C397.741 210.5 406.227 211.611 412.493 216.689C420.107 222.878 422.486 233.113 425.262 242.476C435.81 278.102 455.162 312.061 491.883 324.597C498.545 326.898 505.683 328.485 512.741 327.454C519.721 326.422 526.621 322.296 529.476 315.869C535.503 302.222 526.7 289.13 521.307 276.832C516.786 266.438 512.186 255.806 511.393 244.46C510.521 233.034 513.693 221.767 517.817 211.214C519.8 206.136 522.021 200.82 523.448 195.504C525.114 189.157 524.955 181.698 525.669 175.113C526.303 177.652 528.445 179.794 531.062 180.349C533.679 180.905 536.534 179.873 538.121 177.81C539.707 175.827 540.103 173.208 540.183 170.669C540.341 165.988 539.865 157.419 534.076 156.07C531.379 155.435 528.603 157.102 527.096 159.403C525.59 161.704 525.193 164.56 524.955 167.337C524.559 172.812 524.796 178.366 524.321 183.92C524.083 187.332 523.29 190.982 522.021 194.155C520.99 196.694 518.452 198.123 516.072 196.06C513.772 193.997 513.852 189.633 514.565 186.935C515.438 183.761 517.421 180.826 519.324 178.128C520.99 175.748 523.369 173.605 523.448 170.511C521.228 173.05 518.848 175.43 516.39 177.81C515.914 178.287 515.359 178.842 514.645 178.921C513.455 179.159 512.345 178.128 512.027 176.938C511.71 175.748 511.948 174.557 512.265 173.447C514.248 165.115 519.324 158.133 527.652 155.197C528.445 154.959 527.255 142.502 527.176 141.153C525.51 112.034 515.517 84.4222 512.741 55.3822C511.155 38.5613 511.076 22.0577 518.848 6.42685C520.038 4.04652 521.862 1.42817 524.479 1.34882C526.462 1.26948 528.128 2.77702 529 4.52259C529.872 6.26817 530.031 8.25176 530.269 10.2354C532.014 30.0714 532.886 50.0662 533.283 69.9816C533.759 90.0557 540.976 171.066 541.293 179.239C541.928 195.98 540.659 212.722 540.103 229.464C543.99 225.814 543.672 219.625 543.355 214.229C543.038 208.913 543.434 202.486 547.955 199.63C546.845 200.344 543.514 187.014 543.434 185.824C543.038 180.984 543.91 176.938 546.052 172.653C542.8 167.734 540.579 162.1 539.786 156.308C546.052 155.356 552.317 159.403 555.807 164.719C559.296 170.035 560.565 176.462 561.834 182.73C564.69 197.25 567.545 211.77 570.4 226.21C572.938 238.985 568.179 251.363 568.734 264.216C569.369 279.927 571.748 295.637 575.555 310.95C583.01 340.704 596.255 369.109 614.576 393.706C619.334 400.133 625.917 406.957 633.848 406.084C644.872 404.894 648.6 390.929 649.631 379.9C650.345 372.601 650.979 364.984 648.441 358.081C645.903 351.178 639.083 345.306 631.786 346.338C625.283 347.29 620.445 353.479 619.176 359.985C617.907 366.491 619.493 373.156 621.317 379.424C632.976 419.572 656.769 456.15 688.89 482.889" stroke="#C7FBD2" stroke-width="2.5" stroke-miterlimit="10" stroke-linecap="round" stroke-linejoin="round"/>
</svg>
