<svg width="1917" height="492" viewBox="0 0 1917 492" fill="none" xmlns="http://www.w3.org/2000/svg">
<path d="M162.159 240.592C175.561 238.976 177.337 225.461 174.969 214.369C167.649 180.23 160.382 146.146 153.062 112.007C149.402 94.9378 145.742 77.8686 142.082 60.8532C138.583 44.4301 134.116 28.7071 133.901 11.7994C133.847 8.03013 134.493 3.39935 138.045 1.99935C142.19 0.383968 146.065 4.69166 148.379 8.46089C179.221 58.3763 198.652 114.053 221.205 168.061C175.938 117.122 91.1635 107.646 35.7238 147.33C70.7638 135.215 105.858 123.099 140.898 111.038C156.722 105.599 171.632 98.8686 187.995 94.7225C204.95 90.4148 222.281 87.6686 239.721 86.484C240.42 86.4301 241.12 86.3763 241.82 86.3763C225.672 101.776 205.434 112.007 185.465 121.861C165.496 131.715 145.15 141.676 128.626 156.699C112.209 171.615 99.7217 192.615 100.314 214.907C100.26 213.292 110.648 207.584 112.209 206.561C116.569 203.707 120.983 201.015 125.504 198.484C134.062 193.692 142.943 190.084 151.609 185.399C171.255 174.792 190.847 164.238 210.494 153.63C219.913 160.307 217.114 176.838 207.049 182.492C196.983 188.146 183.635 184.376 175.292 176.407C166.949 168.438 162.589 157.184 159.36 146.092C151.986 120.784 149.025 94.3455 140.683 69.3609C132.34 44.3763 117.161 19.984 93.2627 8.9455C137.076 62.8455 194.938 105.169 259.528 130.638C265.234 132.899 271.854 136.13 272.5 142.215C273.361 150.507 262.596 154.599 254.253 154.815C234.338 155.407 214.261 150.453 196.93 140.546C192.947 138.284 188.694 134.892 188.964 130.369C189.233 126.007 193.646 123.207 197.522 121.269C221.904 109.046 248.117 100.538 274.976 96.0686C274.33 115.776 249.409 124.499 229.763 123.53C206.618 122.346 184.335 115.13 161.782 109.799C139.229 104.469 115.385 101.022 93.1012 107.376C70.8177 113.73 50.6333 132.199 48.6418 155.246C46.6502 178.346 68.9338 202.199 91.4326 196.546C106.127 192.884 115.815 179.422 125.934 168.222C136.107 157.022 151.017 146.576 165.334 151.476C171.793 157.938 167.918 170.376 159.575 174.092C151.232 177.807 141.059 174.361 134.439 168.115C127.765 161.815 123.943 153.253 120.39 144.799C104.781 107.807 91.9709 65.484 107.096 28.3301C109.195 23.1609 113.178 17.4532 118.722 18.0994C124.481 18.7455 126.903 25.6378 128.087 31.2378C139.821 86.2147 151.501 141.246 163.235 196.222C164.904 203.922 166.626 211.892 171.094 218.407C175.561 224.922 183.42 229.715 191.17 228.207C202.474 225.946 207.264 212.322 207.479 200.799C207.802 179.961 199.89 162.569 190.255 144.638C180.513 126.492 169.533 108.992 157.314 92.3532C159.737 95.6917 168.241 98.4378 171.847 100.646C177.176 103.876 182.397 107.322 187.456 110.93C197.36 117.93 206.833 125.576 215.822 133.761C233.746 150.184 251.454 166.069 265.287 186.261C234.984 183.299 212.162 157.722 195.799 132.092C185.896 116.692 177.068 100.215 173.946 82.2301C170.825 64.2455 174.162 44.3763 186.434 30.7532C197.576 18.3686 215.553 12.6609 231.808 16.2686C248.063 19.8763 261.896 32.7455 266.741 48.684C274.492 74.2609 259.044 101.992 237.89 118.307C216.737 134.622 190.524 142.699 166.142 153.63C129.164 170.215 95.4157 193.961 67.319 223.146C85.3504 231.276 106.504 229.876 125.235 223.469C143.912 217.061 160.652 206.076 177.122 195.092C183.635 190.73 191.924 186.261 198.814 189.976C207.91 194.876 205.542 208.822 199.944 217.492C194.346 226.215 186.434 235.315 188.587 245.438C201.128 248.346 209.256 233.269 216.845 222.822C232.885 200.907 266.149 193.961 289.616 207.638C287.948 196.815 286.118 185.669 280.251 176.407C274.384 167.146 263.35 160.307 252.692 162.73C239.936 165.692 234.5 179.046 229.924 189.922C224.057 203.922 214.315 216.738 202.527 226.269C191.117 235.476 176.638 238.492 162.105 240.592C163.666 240.322 165.173 240.053 166.734 239.838" stroke="#CBEAFF" stroke-width="1.5" stroke-miterlimit="10" stroke-linecap="round" stroke-linejoin="round"/>
<path d="M1.97546 436.376C6.28146 428.568 14.5167 423.453 23.1825 421.461C31.8483 419.415 40.9448 420.169 49.7182 421.784C58.4917 423.399 67.0499 425.876 75.8234 427.438C86.2116 429.215 96.7613 429.592 107.257 428.622C113.339 428.03 129.11 427.815 131.371 420.438C132.232 417.692 131.532 414.676 130.51 411.93C126.796 401.753 119.045 392.976 117.645 382.261C116.677 374.669 118.991 367.076 121.305 359.753C124.427 349.845 127.549 339.992 130.671 330.084C132.017 325.83 133.416 321.469 136.107 317.969C138.745 314.522 142.459 312.099 146.065 309.73C147.895 308.545 149.725 307.361 151.824 306.769C155.861 305.638 160.329 307.953 163.773 309.945C166.142 311.345 174.7 314.415 175.184 317.43C175.346 318.615 174.646 319.745 173.623 320.338C172.601 320.93 171.363 321.038 170.179 320.93C168.51 320.822 166.895 320.392 165.388 319.584C163.827 318.776 162.428 317.645 160.813 317.107C158.391 316.299 155.646 316.945 153.439 318.184C151.178 319.422 149.348 321.253 147.518 323.084C153.708 320.499 161.943 320.876 167.326 325.184C169.21 326.692 176.961 335.792 170.932 336.276C167.218 336.599 164.15 330.461 159.952 330.192C158.499 330.084 157.045 330.515 155.646 330.999C151.663 332.453 147.895 334.553 144.666 337.299C148.756 335.684 154.516 332.615 158.929 333.369C163.128 334.069 167.003 336.653 169.048 340.422C169.479 341.176 169.802 342.038 169.802 342.899C169.748 343.761 169.264 344.676 168.456 344.945C167.487 345.269 166.465 344.622 165.55 344.138C160.975 341.661 154.408 342.738 149.617 344.245C144.773 345.807 140.413 348.553 136.107 351.299C142.351 349.899 148.864 344.838 155.377 345.645C157.906 345.969 168.079 347.638 167.111 351.407C166.626 353.184 164.419 353.722 162.535 353.938C157.906 354.422 153.278 354.907 148.649 355.392C150.425 353.184 152.901 351.515 155.646 350.869C154.462 356.792 146.173 359.807 141.705 362.445C147.249 367.022 148.756 374.83 149.133 381.992C149.51 389.153 149.187 396.638 152.201 403.153C154.892 408.861 159.844 413.115 164.258 417.584C168.671 422.107 172.816 427.545 173.085 433.845C169.156 434.869 165.873 430.83 164.043 427.169C157.368 413.869 142.459 357.707 174 364.599C180.136 365.945 185.734 369.015 191.816 370.522C203.496 373.484 216.576 370.253 225.511 362.176C223.842 363.684 214.638 361.961 212.377 361.799C207.695 361.369 203.012 360.669 198.383 359.699C192.139 358.353 177.014 356.469 174.915 349.307C173.516 344.461 176.961 339.238 181.428 336.922C186.757 334.122 193.969 333.692 199.782 332.076C208.071 329.761 216.737 328.738 225.08 326.53C228.525 325.615 232.024 324.592 235.038 322.707C239.344 319.961 241.228 314.899 239.99 309.892C239.236 306.769 237.514 304.022 235.737 301.33C229.548 291.853 222.604 282.915 216.737 273.222C210.816 263.584 205.918 253.084 204.25 241.938C203.765 238.761 203.712 235.099 205.972 232.784C208.986 229.768 214.154 231.007 217.652 233.376C225.188 238.545 229.225 247.915 229.332 257.069C229.44 266.222 226.049 275.161 221.259 282.969C215.23 292.822 206.726 303.053 196.714 308.922C190.524 312.584 182.881 314.415 175.992 312.422C170.394 310.807 156.238 297.669 166.734 293.576C169.425 292.499 172.439 292.176 175.292 292.607C174 297.022 169.909 301.115 165.496 302.353C162.643 303.161 158.499 303.592 157.099 300.361C156.346 298.638 156.238 296.645 155.161 295.138C154.246 293.845 152.793 293.038 151.394 292.338C149.994 291.638 148.487 290.938 147.518 289.699C146.549 288.461 146.119 286.576 147.088 285.338C150.048 286.092 153.547 286.738 155.915 284.799C156.615 284.261 157.153 283.507 157.853 283.076C159.79 281.838 162.266 282.699 164.419 283.399C168.941 284.853 173.677 285.499 178.414 285.338C177.66 285.338 174.431 287.815 173.3 288.245C170.771 289.215 168.241 290.022 165.603 290.399C158.391 291.422 152.847 288.73 148.272 283.13C145.527 279.792 141.059 274.299 142.674 269.776C143.643 267.03 146.173 264.984 148.972 264.284C151.824 263.584 154.838 264.176 157.422 265.576C158.606 266.222 159.737 267.192 159.952 268.484C160.167 269.992 158.983 271.445 157.53 272.038C154.731 273.169 151.286 272.361 148.487 273.438C145.096 274.676 142.297 279.469 138.26 278.876C133.47 278.23 133.739 272.792 133.416 269.022C132.34 256.476 131.478 243.93 130.51 231.438C130.079 226.053 129.541 220.292 126.096 216.092C122.651 211.892 115.277 210.599 112.101 214.961C106.88 222.069 121.467 232.407 126.634 235.261C160.598 253.838 205.811 226.861 228.686 201.661C252.262 175.707 261.52 136.992 250.862 103.445C251.562 105.653 248.063 113.084 247.525 115.615C246.556 120.192 245.803 124.822 245.372 129.453C244.457 138.769 244.672 148.192 245.91 157.453C248.279 174.953 255.33 191.645 260.766 208.176C272.123 242.638 293.653 269.992 322.611 291.261C347.155 309.299 373.529 332.022 384.833 361.207C393.606 383.769 394.252 409.399 386.663 432.338C384.456 439.068 381.442 445.692 376.544 450.753C371.646 455.815 364.487 459.153 357.543 458.076C349.308 456.838 343.065 449.999 338.382 443.053C317.229 411.607 314.483 368.638 331.546 334.822C345.863 306.445 377.513 288.73 408.839 298.745C426.332 304.345 437.312 320.715 432.575 339.722C425.255 324.645 428 305.207 439.142 292.715L437.743 295.299C442.91 287.169 452.222 283.668 460.403 287.168C468.584 290.668 470.899 302.353 480.211 304.668C494.205 308.168 508.2 297.668 509.33 283.668C509.33 283.668 519.018 135.484 519.234 130.745L540.064 388.507C540.064 388.507 544.209 310.376 553.09 299.876C557.988 294.061 563.747 295.407 569.506 298.853C572.144 300.415 575.858 303.215 579.033 301.33C583.555 298.638 582.209 291.207 586.031 287.869C588.883 285.392 592.49 287.33 595.396 288.73C601.209 291.476 606.753 292.715 610.79 286.307C614.988 279.63 613.266 262.022 622.578 259.168C630.651 256.692 633.72 274.138 635.227 279.145C637.272 286.145 638.941 293.253 641.47 300.092C642.87 303.861 645.884 313.445 650.836 307.899C655.842 302.353 656.864 285.715 667.575 288.407C677.964 291.045 678.287 304.292 684.961 310.861C687.222 313.068 690.128 314.415 693.358 314.307C690.559 301.653 705.091 291.207 716.126 298.584C722.692 304.507 732.058 310.376 740.185 305.692C745.998 301.007 748.367 283.507 748.367 283.507L770.758 132.684L788.413 378.815L797.348 312.692C798.532 306.876 799.662 301.007 804.345 298.692C810.158 296.376 816.025 301.007 821.838 297.507C827.651 295.192 830.019 288.192 838.147 287.007L874.102 288.299C857.524 276.884 874.102 288.299 874.102 288.299C857.524 276.884 837.178 266.007 828.997 246.515C824.906 236.822 824.206 223.953 831.473 215.553C837.878 208.122 848.535 207.045 857.039 211.245C866.889 216.092 873.079 226.43 876.793 236.392C880.615 227.399 884.544 217.438 892.564 211.299C898.754 206.507 908.066 205.376 915.063 207.692C925.559 212.376 933.74 222.876 931.372 235.692C925.559 261.322 903.383 274.192 884.436 288.299C884.867 288.299 884.867 288.299 884.436 288.299L930.188 287.007C936.001 285.822 937.185 275.322 944.182 277.692C951.179 280.007 953.494 289.376 956.992 296.376C960.491 303.376 965.174 309.192 974.486 308.061C982.667 306.876 988.48 302.245 993.163 295.245C995.477 290.561 997.846 278.93 997.846 278.93L1009.9 130.261C1010.01 131.822 1009.79 131.822 1009.9 130.261C1009.9 131.822 1029.33 388.507 1029.33 388.507L1046.99 304.184C1048.39 299.661 1048.6 293.899 1054.42 295.999C1058.18 297.345 1061.95 300.792 1066.2 300.415C1070.99 299.93 1071.96 294.869 1073.25 291.153C1075.41 285.015 1081.38 287.976 1085.9 289.645C1090.96 291.53 1097.53 292.607 1100.81 287.276C1103.61 282.753 1104.47 277.745 1105.6 272.684C1106.57 268.376 1107.76 263.099 1111.52 260.299C1113.95 258.469 1115.56 260.784 1117.34 262.83C1118.95 264.661 1120.24 266.761 1121.27 268.969C1125.63 278.069 1125.95 288.515 1129.02 297.992C1129.99 301.061 1130.15 305.907 1133.92 306.93C1138.17 308.061 1141.24 305.207 1142.85 301.707C1144.46 298.153 1144.95 293.738 1147.86 290.992C1150.82 288.192 1154.58 287.815 1157.92 290.022C1168.52 297.076 1168.58 312.961 1181.66 316.892C1180.2 316.461 1181.28 308.653 1181.5 307.522C1182.14 304.615 1184.03 302.084 1186.13 299.93C1190.05 295.999 1195.71 294.815 1200.66 297.561C1208.84 302.245 1216.97 308.061 1226.28 302.245C1229.78 299.93 1257.77 136.668 1258.68 132.738C1258.57 133.438 1258.57 133.438 1258.68 132.738C1258.68 134.353 1269.45 297.561 1276.34 378.869C1276.44 377.253 1276.44 377.253 1276.34 378.869C1278.44 358.461 1280.86 337.461 1286.02 317.538C1288.39 308.545 1289.68 295.192 1300.61 294.815C1308.58 294.545 1310.03 302.892 1321.44 301.438C1340.87 298.961 1344.42 300.576 1354.87 316.945C1365.9 334.284 1374.62 351.999 1379.46 372.084C1388.99 411.392 1384.58 454.361 1365.31 490.061C1349.16 463.892 1344.05 431.153 1351.48 401.322C1367.09 338.215 1424.52 316.03 1484.59 318.83C1467.95 305.153 1456.65 288.245 1447.77 268.753C1444 260.138 1441.31 251.522 1439.16 241.83C1437 229.445 1435.39 218.138 1436.47 205.753C1437 198.215 1438.08 190.676 1439.7 183.138C1441.85 174.522 1445.08 166.984 1448.31 158.907C1449.38 156.215 1451 152.984 1452.61 150.292C1454.77 147.599 1455.84 144.907 1457.46 142.215C1477.37 112.599 1504.29 92.6762 1538.19 83.5223C1565.65 76.5223 1593.63 78.6762 1620.01 88.907C1653.92 101.83 1681.37 127.676 1695.9 161.061C1696.98 164.292 1698.59 166.984 1699.67 170.215C1703.44 182.599 1706.67 194.445 1707.21 207.369C1707.21 215.984 1707.74 224.599 1706.67 233.215C1704.51 253.138 1697.52 270.907 1687.83 288.138C1687.29 288.676 1686.75 289.215 1686.21 289.753C1669.53 318.83 1643.15 339.83 1611.94 351.138C1582.87 361.369 1552.19 362.445 1522.05 354.369C1511.82 351.676 1502.13 348.984 1492.44 343.599C1478.45 335.522 1466.07 326.369 1455.3 313.984C1433.77 288.138 1425.16 256.369 1427.32 224.061C1432.16 163.215 1475.22 108.292 1536.04 93.2147C1536.58 93.2147 1537.66 92.1377 1538.19 92.1377C1583.41 81.3685 1628.62 92.6762 1664.68 121.215C1666.84 123.368 1668.99 124.984 1671.68 127.138C1696.98 149.753 1711.51 179.907 1715.28 213.292C1715.82 221.907 1716.36 230.522 1715.82 239.138C1715.28 245.061 1714.74 250.445 1713.66 256.369C1712.1 264.392 1709.95 272.307 1706.94 279.899C1702.58 290.938 1694.29 302.192 1686.75 311.292C1681.91 316.676 1677.06 320.984 1671.68 326.369C1650.69 346.83 1627.01 361.907 1597.94 368.907C1580.18 372.676 1562.95 373.215 1545.19 370.522C1529.58 367.83 1515.59 362.984 1502.13 354.369C1501.06 353.292 1499.98 352.753 1498.36 351.676C1491.37 346.83 1485.98 341.445 1480.06 335.522C1464.4 317.215 1454.23 296.484 1447.34 273.33C1434.1 228.853 1436.79 177.969 1469.3 142.215C1469.84 141.676 1469.84 140.599 1470.38 140.061C1495.13 114.215 1528.51 101.292 1563.49 100.215C1592.56 99.1377 1620.01 106.676 1645.31 122.292C1670.6 138.445 1689.44 160.522 1701.28 186.907C1709.9 207.369 1715.28 228.369 1716.36 250.445C1717.43 273.599 1713.66 296.215 1699.67 316.676C1689.98 330.138 1679.75 340.907 1664.68 346.83C1652.84 351.676 1639.39 352.753 1627.01 347.907C1625.93 347.369 1624.85 346.83 1623.24 346.292C1617.86 344.138 1614.09 339.83 1610.32 335.522C1604.4 327.445 1601.71 318.83 1600.09 309.138C1598.48 294.061 1597.94 278.984 1601.17 264.445C1607.09 250.445 1615.16 237.522 1617.86 221.907C1618.39 217.061 1618.93 211.676 1618.39 206.83C1617.53 198.699 1615.97 190.622 1613.07 182.976C1611.02 177.592 1606.82 169.515 1601.71 166.445C1599.02 164.83 1596.33 164.292 1593.63 164.292C1588.25 164.83 1583.95 168.599 1580.72 172.907C1573.18 185.83 1569.95 199.292 1570.49 213.83C1571.57 224.599 1573.72 234.83 1580.18 244.522C1583.41 248.83 1586.1 253.676 1587.71 258.522C1593.1 274.676 1592.02 291.907 1590.41 308.599C1589.87 314.522 1589.87 320.445 1587.18 325.83C1584.48 331.215 1580.18 336.061 1574.8 338.215C1567.8 340.907 1559.72 340.907 1552.73 338.215C1541.8 333.853 1539.49 323.192 1538.57 312.692C1537.5 300.092 1538.95 287.438 1541.32 275.107C1543.85 262.13 1547.4 249.422 1550.36 236.553C1553.1 224.492 1553.86 211.676 1553.27 199.238C1553 194.176 1552.62 189.276 1551.33 184.376C1550.63 181.792 1549.77 179.207 1548.74 176.73C1548.1 175.169 1545.73 172.153 1545.73 170.538C1545.89 180.284 1545.73 190.138 1546.38 199.884C1546.97 208.715 1547.18 217.276 1545.57 226.107C1545.35 227.238 1545.08 228.476 1544.33 229.338C1543.58 230.253 1542.12 230.684 1541.21 229.984C1540.35 229.338 1540.24 228.153 1540.19 227.13C1539.7 217.33 1540.29 207.261 1540.99 197.407C1541.32 192.938 1541.1 188.361 1540.35 183.945C1539.97 181.63 1539.43 179.315 1538.79 177.053C1538.52 176.084 1536.58 172.315 1536.9 171.507C1530.23 189.438 1538.03 209.792 1533.89 228.476C1533.67 229.392 1533.4 230.361 1532.6 230.845C1531.52 231.545 1530.01 230.899 1529.31 229.822C1528.61 228.745 1528.51 227.399 1528.45 226.161C1527.75 208.015 1531.52 189.492 1526.84 171.992C1524.04 181.307 1522.1 189.653 1522.16 199.507C1522.21 208.715 1523.29 217.869 1523.82 227.022C1523.88 227.884 1523.93 228.799 1523.61 229.661C1523.29 230.468 1522.48 231.222 1521.62 231.115C1520.43 231.007 1519.79 229.715 1519.41 228.584C1513.27 210.222 1517.36 189.707 1517.36 170.699C1509.72 188.038 1507.46 207.692 1510.85 226.269C1513.38 239.945 1519.14 252.438 1522.59 265.899C1525.6 277.638 1527.43 289.645 1528.08 301.707C1528.72 313.984 1527.32 326.207 1527.32 338.484C1517.8 335.038 1508.81 330.138 1500.79 323.945C1475.17 304.184 1459.56 272.953 1457.4 240.645C1456.87 227.184 1457.4 214.261 1461.17 201.338C1462.79 196.492 1463.86 191.645 1466.02 187.338C1468.71 181.415 1471.4 176.03 1474.63 170.107C1495.62 136.184 1529.53 114.645 1568.82 110.338C1605.42 106.569 1642.02 121.107 1665.17 151.261C1669.47 157.722 1673.24 163.645 1676.47 170.645C1682.39 183.569 1684.55 197.03 1685.08 211.03C1686.97 260.03 1658.76 307.63 1618.88 334.984C1621.62 324.484 1633.84 319.799 1644.61 318.776C1679.43 315.599 1712.26 334.338 1746.77 340.261C1779.49 345.861 1814.1 339.507 1842.63 322.545C1885.1 297.399 1922.13 241.992 1914.16 191.43" stroke="#CBEAFF" stroke-width="1.5" stroke-miterlimit="10" stroke-linecap="round" stroke-linejoin="round"/>
</svg>
