<svg width="662" height="582" viewBox="0 0 662 582" fill="none" xmlns="http://www.w3.org/2000/svg">
<path opacity="0.2" d="M199.868 579.341C305.912 588.705 415.333 558.11 499.57 495.436C583.806 432.763 641.99 338.659 659.166 237.695C663.218 213.868 662.061 184.107 639.964 172.704C627.613 166.307 611.982 168.254 599.438 174.373C586.894 180.492 576.762 190.226 566.727 199.683C525.526 238.715 482.587 276.542 434.149 306.952C385.71 337.361 331.193 360.169 273.684 366.659C262.877 367.864 251.684 368.513 241.359 365.175C231.035 361.838 221.772 353.864 220.035 343.573C217.43 327.905 232.193 314.925 245.894 306.117C314.307 261.801 396.903 233.06 446.789 169.922C450.938 164.638 454.991 158.519 454.219 151.936C452.771 140.532 437.333 135.526 426.043 139.049C414.754 142.572 406.166 151.38 396.614 158.148C387.061 164.916 374.035 169.922 363.421 164.638C348.175 157.035 350.201 134.784 359.368 120.97C368.631 107.063 382.912 95.7523 387.157 79.713C393.043 57.8329 376.736 34.7474 355.315 25.5688C333.894 16.2976 309.096 18.1518 286.228 22.8802C251.298 30.1117 218.298 43.7405 184.237 53.9389C150.175 64.1373 113.798 70.9053 78.7719 64.0446C43.8421 57.0911 10.5526 34.0057 1 1" stroke="#292929" stroke-miterlimit="10" stroke-linecap="round" stroke-linejoin="round"/>
</svg>
