<svg width="662" height="582" viewBox="0 0 662 582" fill="none" xmlns="http://www.w3.org/2000/svg">
<path opacity="0.2" d="M462.132 2.65866C356.088 -6.70532 246.667 23.8899 162.43 86.5636C78.1937 149.237 20.0096 243.341 2.83419 344.305C-1.21843 368.132 -0.0605761 397.893 22.0359 409.296C34.3867 415.693 50.0183 413.746 62.5621 407.627C75.106 401.508 85.2376 391.774 95.2727 382.317C136.474 343.285 179.413 305.458 227.851 275.048C276.29 244.639 330.807 221.831 388.316 215.341C399.123 214.136 410.316 213.487 420.641 216.825C430.965 220.162 440.228 228.136 441.965 238.427C444.57 254.095 429.807 267.075 416.106 275.883C347.693 320.199 265.097 348.94 215.211 412.078C211.062 417.362 207.009 423.481 207.781 430.064C209.229 441.468 224.667 446.474 235.957 442.951C247.246 439.428 255.834 430.62 265.386 423.852C274.939 417.084 287.965 412.078 298.579 417.362C313.825 424.965 311.799 447.216 302.632 461.03C293.369 474.937 279.088 486.248 274.843 502.287C268.957 524.167 285.264 547.253 306.685 556.431C328.106 565.702 352.904 563.848 375.772 559.12C410.702 551.888 443.702 538.259 477.763 528.061C511.825 517.863 548.202 511.095 583.228 517.955C618.158 524.909 651.447 547.994 661 581" stroke="#292929" stroke-miterlimit="10" stroke-linecap="round" stroke-linejoin="round"/>
</svg>
