<svg width="140" height="140" viewBox="0 0 140 140" fill="none" xmlns="http://www.w3.org/2000/svg">
<g clip-path="url(#clip0)">
<path d="M136.326 108.002L107.99 89.1045C104.394 86.7257 99.5735 87.5084 96.915 90.9032L88.6609 101.516C87.6001 102.915 85.6718 103.32 84.1373 102.468L82.5672 101.602C77.3622 98.7653 70.886 95.2332 57.8376 82.1802C44.7892 69.1271 41.25 62.646 38.413 57.4506L37.5521 55.8805C36.6879 54.3462 37.0859 52.4097 38.4852 51.3405L49.0908 43.0888C52.4842 40.43 53.268 35.6111 50.8919 32.014L31.9947 3.67753C29.5596 0.0145557 24.674 -1.08505 20.9041 1.18114L9.05482 8.29903C5.3317 10.4878 2.60019 14.0327 1.43306 18.1908C-2.83385 33.7378 0.376104 60.5695 39.9016 100.1C71.3434 131.539 94.7503 139.994 110.839 139.994C114.541 140.01 118.229 139.528 121.804 138.561C125.963 137.396 129.508 134.664 131.695 130.94L138.82 119.098C141.09 115.327 139.991 110.438 136.326 108.002ZM134.8 116.704L127.692 128.553C126.121 131.241 123.571 133.217 120.576 134.068C106.224 138.009 81.1488 134.745 43.2026 96.7987C5.25652 58.8526 1.99298 33.7799 5.93345 19.4252C6.78535 16.4266 8.7642 13.8733 11.4555 12.3002L23.3048 5.1916C24.9405 4.20737 27.061 4.68445 28.1177 6.27398L38.3829 21.6856L46.9988 34.608C48.0306 36.1683 47.6915 38.2595 46.2196 39.4141L35.6115 47.6657C32.3832 50.1342 31.4613 54.6007 33.4489 58.1456L34.2913 59.6761C37.2729 65.1445 40.9799 71.9475 54.5136 85.479C68.0473 99.0102 74.8481 102.717 80.3141 105.699L81.8467 106.543C85.3913 108.531 89.8581 107.609 92.3266 104.381L100.578 93.7728C101.733 92.3016 103.823 91.9629 105.384 92.9936L133.718 111.891C135.309 112.947 135.786 115.068 134.8 116.704Z" fill="white"/>
<path d="M79.329 23.3452C101.223 23.3696 118.965 41.1122 118.99 63.0061C118.99 64.2946 120.034 65.339 121.323 65.339C122.611 65.339 123.656 64.2946 123.656 63.0061C123.629 38.5363 103.799 18.7062 79.329 18.6794C78.0405 18.6794 76.9961 19.7238 76.9961 21.0123C76.9961 22.3009 78.0405 23.3452 79.329 23.3452Z" fill="white"/>
<path d="M79.329 37.3433C93.4953 37.36 104.975 48.8399 104.992 63.0062C104.992 64.2948 106.037 65.3391 107.325 65.3391C108.613 65.3391 109.658 64.2948 109.658 63.0062C109.638 46.264 96.071 32.6966 79.329 32.6775C78.0405 32.6775 76.9961 33.7219 76.9961 35.0104C76.9961 36.2989 78.0405 37.3433 79.329 37.3433Z" fill="white"/>
<path d="M79.329 51.3413C85.768 51.349 90.9861 56.567 90.994 63.0064C90.994 64.2949 92.0387 65.3393 93.3269 65.3393C94.6152 65.3393 95.6598 64.2949 95.6598 63.0064C95.6494 53.9914 88.344 46.6857 79.329 46.6755C78.0405 46.6755 76.9961 47.7199 76.9961 49.0084C76.9961 50.297 78.0405 51.3413 79.329 51.3413Z" fill="white"/>
</g>
<defs>
<clipPath id="clip0">
<rect width="140" height="140" fill="white"/>
</clipPath>
</defs>
</svg>
