<svg width="531" height="455" viewBox="0 0 531 455" fill="none" xmlns="http://www.w3.org/2000/svg">
<path d="M445.574 120.259C448.852 120.259 451.508 117.597 451.508 114.314C451.508 111.031 448.852 108.37 445.574 108.37C442.297 108.37 439.64 111.031 439.64 114.314C439.64 117.597 442.297 120.259 445.574 120.259Z" fill="url(#paint0_linear)"/>
<path d="M445.574 124.495C451.187 124.495 455.736 119.937 455.736 114.314C455.736 108.692 451.187 104.134 445.574 104.134C439.962 104.134 435.412 108.692 435.412 114.314C435.412 119.937 439.962 124.495 445.574 124.495Z" fill="url(#paint1_linear)"/>
<path d="M316.638 407.269C316.638 411.244 313.416 414.471 309.449 414.471C305.481 414.471 302.259 411.244 302.259 407.269C302.259 403.294 305.481 400.067 309.449 400.067C313.416 400.067 316.638 403.282 316.638 407.269Z" stroke="url(#paint2_linear)" stroke-miterlimit="10"/>
<path d="M474.237 146.41C482.061 146.41 488.403 140.057 488.403 132.219C488.403 124.382 482.061 118.028 474.237 118.028C466.414 118.028 460.072 124.382 460.072 132.219C460.072 140.057 466.414 146.41 474.237 146.41Z" fill="url(#paint3_linear)"/>
<path d="M74.4241 286.017C74.4241 289.648 71.4868 292.591 67.8624 292.591C64.2381 292.591 61.3007 289.648 61.3007 286.017C61.3007 282.387 64.2381 279.444 67.8624 279.444C71.4868 279.444 74.4241 282.387 74.4241 286.017Z" fill="url(#paint4_linear)"/>
<path d="M403.018 97.9522L413.583 85.3394" stroke="url(#paint5_linear)" stroke-miterlimit="10"/>
<path d="M406.263 100.669L422.857 80.8662" stroke="url(#paint6_linear)" stroke-miterlimit="10"/>
<path d="M403.018 111.147L420.061 90.7856" stroke="url(#paint7_linear)" stroke-miterlimit="10"/>
<path d="M80.7135 244.797L91.2667 232.184" stroke="url(#paint8_linear)" stroke-miterlimit="10"/>
<path d="M83.947 247.526L100.541 227.711" stroke="url(#paint9_linear)" stroke-miterlimit="10"/>
<path d="M80.7135 257.991L97.7455 237.631" stroke="url(#paint10_linear)" stroke-miterlimit="10"/>
<path d="M432.913 315.384L446.391 299.271" stroke="url(#paint11_linear)" stroke-miterlimit="10"/>
<path d="M437.046 318.861L458.236 293.552" stroke="url(#paint12_linear)" stroke-miterlimit="10"/>
<path d="M432.913 332.233L454.682 306.236" stroke="url(#paint13_linear)" stroke-miterlimit="10"/>
<g opacity="0.5">
<path opacity="0.5" d="M411.049 34.105L395.225 51.7724" stroke="url(#paint14_linear)" stroke-miterlimit="10"/>
<path opacity="0.5" d="M415.585 38.1865L390.736 65.9395" stroke="url(#paint15_linear)" stroke-miterlimit="10"/>
<path opacity="0.5" d="M429.845 31.4233L404.309 59.9357" stroke="url(#paint16_linear)" stroke-miterlimit="10"/>
</g>
<path d="M74.4242 307.719L94.5001 283.739" stroke="url(#paint17_linear)" stroke-miterlimit="10"/>
<path d="M80.5832 312.892L112.124 275.232" stroke="url(#paint18_linear)" stroke-miterlimit="10"/>
<path d="M74.4242 332.802L106.818 294.097" stroke="url(#paint19_linear)" stroke-miterlimit="10"/>
<path d="M112.124 255.713C114.303 255.713 116.068 253.944 116.068 251.762C116.068 249.58 114.303 247.811 112.124 247.811C109.946 247.811 108.18 249.58 108.18 251.762C108.18 253.944 109.946 255.713 112.124 255.713Z" fill="white"/>
<path d="M114.718 334.725C114.718 336.908 112.953 338.676 110.774 338.676C108.595 338.676 106.83 336.908 106.83 334.725C106.83 332.541 108.595 330.773 110.774 330.773C112.953 330.773 114.718 332.541 114.718 334.725Z" fill="white"/>
<path d="M94.0619 143.1C94.0619 144.108 93.2447 144.927 92.2379 144.927C91.2311 144.927 90.4139 144.108 90.4139 143.1C90.4139 142.091 91.2311 141.272 92.2379 141.272C93.2447 141.284 94.0619 142.091 94.0619 143.1Z" fill="white"/>
<path d="M443.798 195.912C444.805 195.912 445.622 195.094 445.622 194.085C445.622 193.076 444.805 192.258 443.798 192.258C442.79 192.258 441.974 193.076 441.974 194.085C441.974 195.094 442.79 195.912 443.798 195.912Z" fill="white"/>
<path d="M461.884 358.55C461.884 359.559 461.066 360.377 460.06 360.377C459.053 360.377 458.236 359.559 458.236 358.55C458.236 357.542 459.053 356.723 460.06 356.723C461.066 356.735 461.884 357.542 461.884 358.55Z" fill="white"/>
<path d="M74.4241 118.266C76.6024 118.266 78.3682 116.497 78.3682 114.314C78.3682 112.132 76.6024 110.363 74.4241 110.363C72.2458 110.363 70.48 112.132 70.48 114.314C70.48 116.497 72.2458 118.266 74.4241 118.266Z" fill="white"/>
<path d="M181.815 377.048C181.815 379.231 180.051 380.999 177.871 380.999C175.692 380.999 173.927 379.231 173.927 377.048C173.927 374.865 175.692 373.097 177.871 373.097C180.051 373.097 181.815 374.865 181.815 377.048Z" fill="white"/>
<path d="M436.857 374.663C436.857 376.846 435.092 378.614 432.913 378.614C430.733 378.614 428.969 376.846 428.969 374.663C428.969 372.48 430.733 370.712 432.913 370.712C435.092 370.712 436.857 372.48 436.857 374.663Z" fill="white"/>
<path d="M504.381 257.991C504.381 260.175 502.616 261.943 500.437 261.943C498.258 261.943 496.493 260.175 496.493 257.991C496.493 255.808 498.258 254.04 500.437 254.04C502.616 254.028 504.381 255.808 504.381 257.991Z" fill="white"/>
<path d="M30.3044 203.814C32.4827 203.814 34.2485 202.045 34.2485 199.863C34.2485 197.681 32.4827 195.912 30.3044 195.912C28.1261 195.912 26.3603 197.681 26.3603 199.863C26.3603 202.045 28.1261 203.814 30.3044 203.814Z" fill="white"/>
<path d="M141.853 381.082L152.75 385.52L157.653 368.552L141.853 381.082Z" fill="#31CC31"/>
<path d="M112.124 366.915L120.984 389.578L154.989 359.749L112.124 366.915Z" fill="url(#paint20_linear)"/>
<path d="M495.96 180.333L491.21 204.206L452.503 180.819L495.96 180.333Z" fill="#31CC52"/>
<path d="M105.088 89.5515L90.6741 99.6726L108.014 108.655L105.088 89.5515Z" fill="#37E637"/>
<path d="M458.33 220.414L441.95 213.971L444.058 233.407L458.33 220.414Z" fill="url(#paint21_linear)"/>
<path d="M308.229 47.4653C292.299 38.59 272.566 32.7523 254.468 37.9493C240.421 41.9835 229.82 52.4962 221.814 64.3378C212.8 77.6625 206.452 92.601 199.724 107.16C195.602 116.071 191.114 124.637 185.097 132.445C178.63 140.845 170.931 148.297 162.344 154.49C153.461 160.886 143.677 165.881 133.302 169.334C121.47 173.273 109.175 175.456 97.035 178.209C77.0775 182.754 55.9119 189.813 42.8477 206.639C37.0678 214.078 33.6329 223.096 33.479 232.552C33.3131 242.258 36.4163 251.822 41.308 260.127C52.406 279.005 71.7002 289.802 91.8354 296.72C113.392 304.124 136.145 307.648 157.251 316.428C167.792 320.818 177.884 326.573 186.246 334.44C194.537 342.247 200.944 351.751 206.641 361.552C217.384 380.062 226.03 400.245 241.511 415.468C248.653 422.492 257.192 428.176 266.834 431.071C276.522 433.966 286.874 433.966 296.716 431.866C342.968 421.982 363.553 375.292 382.196 336.955C392.619 315.527 404.179 294.667 421.744 278.234C438.705 262.37 458.947 250.267 474.759 233.134C488.806 217.922 499.371 198.44 496.895 177.118C494.538 156.852 481.948 138.923 466.503 126.239C448.713 111.633 426.707 103.09 405.34 95.235C393.875 91.0229 382.267 87.0954 371.134 82.0408C360.142 77.0455 349.577 71.1959 339.142 65.1446C334.156 62.2495 329.205 59.3069 324.231 56.388C318.948 53.2912 313.464 50.6096 308.122 47.6314C307.708 47.3941 307.329 48.0348 307.743 48.2721C313.073 51.2385 318.143 54.6913 323.401 57.7881C328.376 60.707 333.327 63.6496 338.313 66.5447C348.511 72.4655 358.839 78.1846 369.558 83.0968C390.819 92.8501 413.536 98.9608 434.737 108.88C454.505 118.123 473.1 130.534 484.968 149.305C490.417 157.92 494.302 167.649 495.368 177.83C496.481 188.449 494.349 199.068 489.824 208.691C480.349 228.85 462.689 243.231 445.503 256.603C436.383 263.699 427.169 270.735 418.842 278.768C410.788 286.528 403.859 295.296 397.842 304.717C385.572 323.927 376.985 345.142 366.455 365.301C356.174 384.974 343.596 404.671 325.095 417.556C308.004 429.457 285.488 435.841 265.223 428.864C245.277 421.994 232.094 403.804 222.051 386.196C211.391 367.497 202.531 346.981 186.269 332.292C170.208 317.793 149.09 310.935 128.6 305.453C106.949 299.663 84.338 294.916 65.2451 282.553C48.4027 271.649 34.4028 252.783 35.0661 231.912C35.7294 210.768 52.785 195.9 70.8356 187.927C92.4987 178.352 116.803 177.509 138.833 169.014C157.286 161.894 173.643 149.626 185.807 134.035C196.609 120.2 202.697 103.719 210.289 88.0565C216.839 74.5419 224.265 60.6833 235.506 50.4554C247.113 39.8834 262.013 35.8966 277.458 38.0561C288.106 39.5392 298.233 43.3361 307.649 48.4738C308.288 48.7942 308.857 47.8212 308.229 47.4653Z" fill="url(#paint22_linear)"/>
<g opacity="0.4248">
<path opacity="0.4248" d="M314.388 13.1032C296.172 2.9584 273.597 -3.7099 252.905 2.24649C236.856 6.8621 224.739 18.8817 215.596 32.4081C205.279 47.6669 198.019 64.7648 190.308 81.4237C185.582 91.6398 180.442 101.441 173.56 110.387C166.158 120.01 157.334 128.565 147.479 135.648C137.305 142.981 126.089 148.7 114.209 152.651C100.671 157.16 86.5884 159.652 72.6951 162.82C49.8714 168.017 25.6499 176.085 10.7025 195.331C4.10532 203.826 0.196732 214.125 0.00722459 224.923C-0.182283 236.017 3.37098 246.933 8.9496 256.425C21.6348 278.008 43.7005 290.36 66.7257 298.262C91.409 306.734 117.454 310.768 141.617 320.818C153.709 325.849 165.281 332.446 174.863 341.464C184.362 350.399 191.706 361.291 198.232 372.527C210.514 393.707 220.416 416.809 238.135 434.227C246.296 442.26 256.043 448.75 267.07 452.061C278.145 455.371 289.965 455.371 301.217 452.974C354.125 441.667 377.672 388.237 399.003 344.371C410.942 319.834 424.172 295.937 444.307 277.118C463.732 258.964 486.899 245.106 504.997 225.492C521.058 208.098 533.139 185.827 530.296 161.443C527.596 138.282 513.193 117.779 495.533 103.28C475.185 86.5733 450.004 76.7963 425.57 67.8142C412.434 62.985 399.133 58.4881 386.377 52.6978C373.799 46.9787 361.694 40.2867 349.755 33.3455C344.046 30.035 338.373 26.6653 332.687 23.3193C326.647 19.7716 320.393 16.651 314.281 13.2456C313.867 13.0083 313.488 13.6491 313.902 13.8864C320.002 17.2798 325.841 21.1835 331.87 24.7194C337.555 28.0654 343.241 31.4233 348.938 34.7456C360.604 41.5207 372.425 48.0703 384.695 53.6945C409.035 64.8597 435.045 71.8484 459.314 83.2035C481.96 93.7993 503.256 108.014 516.865 129.514C523.107 139.386 527.56 150.551 528.78 162.227C530.059 174.412 527.607 186.574 522.408 197.621C511.547 220.711 491.329 237.18 471.655 252.498C461.209 260.626 450.668 268.67 441.133 277.866C431.918 286.741 423.994 296.779 417.113 307.553C403.066 329.551 393.235 353.84 381.178 376.918C369.393 399.462 354.99 422.018 333.789 436.778C314.198 450.411 288.378 457.732 265.152 449.723C242.292 441.845 227.167 421.009 215.655 400.814C203.455 379.421 193.317 355.94 174.709 339.126C156.339 322.539 132.177 314.696 108.737 308.431C83.9471 301.798 58.0438 296.352 36.1913 282.209C16.8852 269.714 0.836321 248.072 1.58251 224.14C2.34054 199.899 21.8953 182.837 42.5872 173.688C67.3889 162.725 95.2346 161.764 120.463 152.022C141.557 143.883 160.271 129.834 174.188 112.013C186.553 96.1723 193.518 77.3184 202.2 59.4017C209.709 43.9175 218.213 28.0535 231.088 16.3306C244.412 4.20426 261.492 -0.363885 279.223 2.12783C291.422 3.83644 303.018 8.17915 313.796 14.0762C314.459 14.4203 315.028 13.4473 314.388 13.1032Z" fill="url(#paint23_linear)"/>
</g>
<path d="M400.116 281.414C414.069 266.309 431.717 255.464 446.948 241.795C460.226 229.883 472.425 214.742 475.41 196.648C478.276 179.182 471.501 162.001 460.569 148.581C448.393 133.631 431.444 123.925 413.986 116.379C394.905 108.133 374.758 102.52 356.044 93.4076C337.401 84.3188 320.274 72.5485 301.904 62.9969C287.987 55.759 270.896 51.3333 255.416 55.8065C243.5 59.2474 234.262 67.8379 227.179 77.7336C219.089 89.0294 213.392 101.868 207.624 114.433C204.32 121.647 201.086 128.885 196.739 135.553C191.871 143.005 185.985 149.78 179.317 155.665C172.482 161.704 164.807 166.783 156.588 170.71C147.124 175.231 136.95 177.877 126.752 180.143C108.204 184.26 88.8742 187.583 73.299 199.282C66.7492 204.206 61.0877 210.471 57.7831 218.053C54.4786 225.623 53.8153 234.012 55.4853 242.08C59.0741 259.38 71.7475 273.31 86.7067 281.9C120.51 301.324 165.4 297.989 194.442 326.348C208.536 340.111 216.176 358.645 226.006 375.363C234.736 390.218 245.976 404.991 262.404 411.671C279.163 418.493 298.256 414.934 313.689 406.367C330.378 397.112 342.601 381.83 352.195 365.645C354.611 361.564 356.885 357.411 359.064 353.199C361.315 348.868 363.044 344.335 365.164 339.945C365.365 339.518 364.738 339.138 364.525 339.565C362.428 343.92 359.893 348.085 357.667 352.368C355.428 356.675 353.107 360.947 350.619 365.123C345.728 373.346 340.244 381.236 333.753 388.273C321.234 401.846 304.356 412.051 285.654 413.498C276.664 414.198 267.591 412.668 259.502 408.61C251.602 404.647 244.945 398.655 239.307 391.903C227.428 377.677 220.321 360.377 210.656 344.703C205.848 336.908 200.352 329.456 193.541 323.298C186.696 317.104 178.677 312.358 170.268 308.644C152.987 301.003 134.332 297.562 116.305 292.187C98.3495 286.836 80.0976 279.183 68.0521 264.185C57.1436 250.599 51.9676 231.662 60.7797 215.632C69.3312 200.077 86.7067 191.795 103.099 187.274C122.275 181.982 142.374 179.977 160.259 170.686C175.349 162.855 188.389 151.097 197.77 136.906C205.777 124.803 210.716 110.826 217.206 97.8927C222.939 86.4902 229.56 74.9334 239.319 66.4853C249.434 57.7287 262.214 54.4182 275.397 56.0794C295.07 58.5474 311.699 70.3059 328.411 80.0829C337.212 85.2325 346.083 90.2871 355.262 94.7484C364.11 99.0555 373.23 102.556 382.468 105.914C416.84 118.455 458.769 132.943 471.703 171.268C474.557 179.716 475.398 188.757 473.728 197.538C472.022 206.484 467.96 214.79 462.737 222.194C451.579 238.046 435.661 249.27 420.69 261.183C413.145 267.187 405.802 273.452 399.323 280.607C398.837 281.152 399.631 281.948 400.116 281.414Z" fill="url(#paint24_linear)"/>
<path d="M255.48 143C279.093 143 295.667 149.747 305.2 163.24C314.88 176.587 319.72 195.947 319.72 221.32C319.72 246.693 314.88 266.127 305.2 279.62C295.667 292.967 279.093 299.64 255.48 299.64C231.72 299.64 215 292.967 205.32 279.62C195.787 266.127 191.02 246.693 191.02 221.32C191.02 195.947 195.787 176.587 205.32 163.24C215 149.747 231.72 143 255.48 143ZM255.48 172.7C247.853 172.7 242.427 175.633 239.2 181.5C235.973 187.367 234.36 196.973 234.36 210.32V232.1C234.36 245.593 235.973 255.273 239.2 261.14C242.427 267.007 247.853 269.94 255.48 269.94C263.107 269.94 268.46 267.007 271.54 261.14C274.62 255.273 276.16 245.593 276.16 232.1V210.32C276.16 196.827 274.62 187.22 271.54 181.5C268.46 175.633 263.107 172.7 255.48 172.7Z" fill="white"/>
<path d="M353.16 289.2H371.8V300H330.6V294.8L348.36 268.56H331.56V257.76H371.08V262.72L353.16 289.2ZM402.413 259.28V267.28L394.733 271.92V300H378.813V281.28L372.253 285.2V277.36L378.813 273.36V242H394.733V264L402.413 259.28Z" fill="white"/>
<defs>
<linearGradient id="paint0_linear" x1="439.646" y1="114.319" x2="451.502" y2="114.319" gradientUnits="userSpaceOnUse">
<stop offset="0.0277" stop-color="#45E668"/>
<stop offset="0.7154" stop-color="#4DDB59"/>
<stop offset="1" stop-color="#51D951"/>
</linearGradient>
<linearGradient id="paint1_linear" x1="435.42" y1="114.323" x2="455.725" y2="114.323" gradientUnits="userSpaceOnUse">
<stop offset="0.0277" stop-color="#45E668"/>
<stop offset="0.7154" stop-color="#4DDB59"/>
<stop offset="1" stop-color="#51D951"/>
</linearGradient>
<linearGradient id="paint2_linear" x1="302.265" y1="407.275" x2="316.63" y2="407.275" gradientUnits="userSpaceOnUse">
<stop offset="0.0277" stop-color="#45E668"/>
<stop offset="0.7154" stop-color="#4DDB59"/>
<stop offset="1" stop-color="#51D951"/>
</linearGradient>
<linearGradient id="paint3_linear" x1="460.066" y1="132.224" x2="488.405" y2="132.224" gradientUnits="userSpaceOnUse">
<stop offset="0.0277" stop-color="#45E668"/>
<stop offset="0.7154" stop-color="#4DDB5D"/>
<stop offset="1" stop-color="#51D951"/>
</linearGradient>
<linearGradient id="paint4_linear" x1="61.3097" y1="286.014" x2="74.4235" y2="286.014" gradientUnits="userSpaceOnUse">
<stop offset="0.0277" stop-color="#45E668"/>
<stop offset="0.7154" stop-color="#4DDB54"/>
<stop offset="1" stop-color="#51D951"/>
</linearGradient>
<linearGradient id="paint5_linear" x1="403.022" y1="91.6508" x2="413.577" y2="91.6508" gradientUnits="userSpaceOnUse">
<stop offset="0.0277" stop-color="#45E668"/>
<stop offset="0.7154" stop-color="#4DDB59"/>
<stop offset="1" stop-color="#51D951"/>
</linearGradient>
<linearGradient id="paint6_linear" x1="406.27" y1="90.7757" x2="422.848" y2="90.7757" gradientUnits="userSpaceOnUse">
<stop offset="0.0277" stop-color="#45E668"/>
<stop offset="0.7154" stop-color="#4DDB59"/>
<stop offset="1" stop-color="#51D951"/>
</linearGradient>
<linearGradient id="paint7_linear" x1="403.025" y1="100.974" x2="420.052" y2="100.974" gradientUnits="userSpaceOnUse">
<stop offset="0.0277" stop-color="#45E668"/>
<stop offset="0.7154" stop-color="#4DDB59"/>
<stop offset="1" stop-color="#51D951"/>
</linearGradient>
<linearGradient id="paint8_linear" x1="80.0705" y1="239.01" x2="91.9116" y2="237.975" gradientUnits="userSpaceOnUse">
<stop offset="0.0277" stop-color="#4DFF74"/>
<stop offset="0.1674" stop-color="#4DEB6F"/>
<stop offset="0.4544" stop-color="#4DB664"/>
<stop offset="0.8604" stop-color="#4E6255"/>
<stop offset="1" stop-color="#44494E"/>
</linearGradient>
<linearGradient id="paint9_linear" x1="82.9359" y1="238.435" x2="101.555" y2="236.805" gradientUnits="userSpaceOnUse">
<stop offset="0.0277" stop-color="#4DFF74"/>
<stop offset="0.1674" stop-color="#4DEB6F"/>
<stop offset="0.4544" stop-color="#4DB664"/>
<stop offset="0.8604" stop-color="#4E6255"/>
<stop offset="1" stop-color="#44494E"/>
</linearGradient>
<linearGradient id="paint10_linear" x1="79.6757" y1="248.65" x2="98.7864" y2="246.979" gradientUnits="userSpaceOnUse">
<stop offset="0.0277" stop-color="#4DFF74"/>
<stop offset="0.1674" stop-color="#4DEB6F"/>
<stop offset="0.4544" stop-color="#4DB664"/>
<stop offset="0.8604" stop-color="#4E6255"/>
<stop offset="1" stop-color="#44494E"/>
</linearGradient>
<linearGradient id="paint11_linear" x1="432.919" y1="307.334" x2="446.384" y2="307.334" gradientUnits="userSpaceOnUse">
<stop offset="0.0277" stop-color="#45E668"/>
<stop offset="0.7154" stop-color="#4DDB59"/>
<stop offset="1" stop-color="#51D951"/>
</linearGradient>
<linearGradient id="paint12_linear" x1="437.055" y1="306.216" x2="458.224" y2="306.216" gradientUnits="userSpaceOnUse">
<stop offset="0.0277" stop-color="#45E668"/>
<stop offset="0.7154" stop-color="#4DDB59"/>
<stop offset="1" stop-color="#51D951"/>
</linearGradient>
<linearGradient id="paint13_linear" x1="432.922" y1="319.245" x2="454.671" y2="319.245" gradientUnits="userSpaceOnUse">
<stop offset="0.0277" stop-color="#45E668"/>
<stop offset="0.7154" stop-color="#4DDB59"/>
<stop offset="1" stop-color="#51D951"/>
</linearGradient>
<linearGradient id="paint14_linear" x1="395.232" y1="42.9457" x2="411.04" y2="42.9457" gradientUnits="userSpaceOnUse">
<stop offset="0.0277" stop-color="#45E668"/>
<stop offset="0.7154" stop-color="#4DDB59"/>
<stop offset="1" stop-color="#51D951"/>
</linearGradient>
<linearGradient id="paint15_linear" x1="390.746" y1="52.0741" x2="415.571" y2="52.0741" gradientUnits="userSpaceOnUse">
<stop offset="0.0277" stop-color="#45E668"/>
<stop offset="0.7154" stop-color="#4DDB59"/>
<stop offset="1" stop-color="#51D951"/>
</linearGradient>
<linearGradient id="paint16_linear" x1="404.32" y1="45.6909" x2="429.831" y2="45.6909" gradientUnits="userSpaceOnUse">
<stop offset="0.0277" stop-color="#45E668"/>
<stop offset="0.7154" stop-color="#4DDB59"/>
<stop offset="1" stop-color="#51D951"/>
</linearGradient>
<linearGradient id="paint17_linear" x1="73.2009" y1="296.717" x2="95.7268" y2="294.746" gradientUnits="userSpaceOnUse">
<stop offset="0.0277" stop-color="#4DFF74"/>
<stop offset="0.1674" stop-color="#4DEB6F"/>
<stop offset="0.4544" stop-color="#4DB664"/>
<stop offset="0.8604" stop-color="#4E6255"/>
<stop offset="1" stop-color="#44494E"/>
</linearGradient>
<linearGradient id="paint18_linear" x1="78.6612" y1="295.613" x2="114.051" y2="292.516" gradientUnits="userSpaceOnUse">
<stop offset="0.0277" stop-color="#4DFF74"/>
<stop offset="0.1674" stop-color="#4DEB6F"/>
<stop offset="0.4544" stop-color="#4DB664"/>
<stop offset="0.8604" stop-color="#4E6255"/>
<stop offset="1" stop-color="#44494E"/>
</linearGradient>
<linearGradient id="paint19_linear" x1="72.4503" y1="315.044" x2="108.798" y2="311.865" gradientUnits="userSpaceOnUse">
<stop offset="0.0277" stop-color="#4DFF74"/>
<stop offset="0.1674" stop-color="#4DEB6F"/>
<stop offset="0.4544" stop-color="#4DB664"/>
<stop offset="0.8604" stop-color="#4E6255"/>
<stop offset="1" stop-color="#44494E"/>
</linearGradient>
<linearGradient id="paint20_linear" x1="112.123" y1="374.664" x2="154.989" y2="374.664" gradientUnits="userSpaceOnUse">
<stop offset="0.0277" stop-color="#45E668"/>
<stop offset="0.7154" stop-color="#4DE655"/>
<stop offset="1" stop-color="#51E66A"/>
</linearGradient>
<linearGradient id="paint21_linear" x1="439.953" y1="216.046" x2="451.673" y2="227.329" gradientUnits="userSpaceOnUse">
<stop offset="0.0277" stop-color="#45E668"/>
<stop offset="0.7154" stop-color="#4DDB59"/>
<stop offset="1" stop-color="#51D951"/>
</linearGradient>
<linearGradient id="paint22_linear" x1="59.7589" y1="313.965" x2="491.406" y2="157.137" gradientUnits="userSpaceOnUse">
<stop offset="0.0277" stop-color="#4DFF74"/>
<stop offset="0.0356" stop-color="#4CF771"/>
<stop offset="0.0797" stop-color="#4ACE67"/>
<stop offset="0.1292" stop-color="#48A85D"/>
<stop offset="0.1831" stop-color="#458854"/>
<stop offset="0.2427" stop-color="#446C51"/>
<stop offset="0.3099" stop-color="#425749"/>
<stop offset="0.3884" stop-color="#454B41"/>
<stop offset="0.4856" stop-color="#3A4241"/>
<stop offset="0.6218" stop-color="#333D40"/>
<stop offset="1" stop-color="#313C40"/>
</linearGradient>
<linearGradient id="paint23_linear" x1="0.00580329" y1="227.34" x2="530.72" y2="227.34" gradientUnits="userSpaceOnUse">
<stop stop-color="#5C5A44"/>
<stop offset="0.6103" stop-color="#3F4541"/>
<stop offset="1" stop-color="#313C40"/>
</linearGradient>
<linearGradient id="paint24_linear" x1="164.298" y1="107.263" x2="390.566" y2="333.128" gradientUnits="userSpaceOnUse">
<stop stop-color="#313C40"/>
<stop offset="0.251" stop-color="#333E40"/>
<stop offset="0.397" stop-color="#3C4441"/>
<stop offset="0.5161" stop-color="#4A4E42"/>
<stop offset="0.6208" stop-color="#435E55"/>
<stop offset="0.716" stop-color="#447859"/>
<stop offset="0.8042" stop-color="#46985F"/>
<stop offset="0.8873" stop-color="#49BD68"/>
<stop offset="0.964" stop-color="#4CE86E"/>
<stop offset="1" stop-color="#4DFF74"/>
</linearGradient>
</defs>
</svg>
