<svg width="375" height="96" viewBox="0 0 375 96" fill="none" xmlns="http://www.w3.org/2000/svg">
<g opacity="0.4">
<path d="M31.7213 46.9448C34.343 46.6296 34.6905 43.9925 34.2272 41.8281C32.7952 35.167 31.3738 28.5163 29.9418 21.8552C29.2258 18.5246 28.5099 15.194 27.7939 11.8739C27.1095 8.66941 26.2356 5.60149 26.1934 2.30243C26.1829 1.56697 26.3093 0.663405 27.0042 0.390234C27.8149 0.0750368 28.573 0.915562 29.0258 1.65102C35.059 11.3906 38.86 22.2544 43.2717 32.7925C34.4167 22.8533 17.8333 21.0041 6.98828 28.7475C13.8428 26.3835 20.7078 24.0195 27.5622 21.666C30.6578 20.6049 33.5744 19.2916 36.7752 18.4825C40.0919 17.642 43.4823 17.1062 46.8938 16.875C47.0306 16.8645 47.1675 16.854 47.3044 16.854C44.1456 19.8589 40.1867 21.8552 36.2804 23.7779C32.3741 25.7006 28.394 27.6443 25.1616 30.5756C21.9502 33.4859 19.5074 37.5835 19.6233 41.9332C19.6127 41.618 21.6449 40.5043 21.9502 40.3047C22.8031 39.7478 23.6665 39.2225 24.5509 38.7287C26.225 37.7936 27.9623 37.0897 29.6575 36.1756C33.5007 34.1058 37.3333 32.0465 41.1764 29.9767C43.019 31.2795 42.4715 34.5051 40.5026 35.6083C38.5336 36.7114 35.9224 35.976 34.2904 34.421C32.6583 32.866 31.8055 30.6702 31.1737 28.5058C29.7312 23.5677 29.1521 18.409 27.5201 13.534C25.8881 8.6589 22.9189 3.89943 18.2439 1.74558C26.8147 12.2627 38.1335 20.5208 50.7685 25.4904C51.8846 25.9317 53.1797 26.5621 53.306 27.7493C53.4745 29.3673 51.3686 30.1658 49.7366 30.2079C45.8408 30.3234 41.9135 29.3568 38.5231 27.4236C37.7439 26.9824 36.9121 26.3204 36.9648 25.4379C37.0174 24.5869 37.8808 24.0405 38.6389 23.6623C43.4086 21.2773 48.5363 19.6173 53.7903 18.7452C53.664 22.5906 48.789 24.2927 44.9459 24.1036C40.4183 23.8724 36.0593 22.4645 31.6475 21.4244C27.2358 20.3842 22.5714 19.7118 18.2124 20.9516C13.8533 22.1914 9.90486 25.7951 9.51528 30.2919C9.1257 34.7992 13.4848 39.4537 17.886 38.3505C20.7604 37.636 22.6557 35.0094 24.6351 32.824C26.6251 30.6386 29.5417 28.6004 32.3425 29.5565C33.606 30.8173 32.8479 33.2443 31.2159 33.9692C29.5838 34.6942 27.5938 34.0218 26.2987 32.803C24.9931 31.5737 24.2456 29.9032 23.5506 28.2537C20.4972 21.0356 17.9912 12.7775 20.9499 5.52795C21.3606 4.51931 22.1397 3.40562 23.2242 3.5317C24.3508 3.65778 24.8247 5.00262 25.0563 6.0953C27.3517 16.8225 29.6365 27.5602 31.9318 38.2874C32.2582 39.7899 32.5952 41.3448 33.4691 42.6161C34.343 43.8874 35.8803 44.8225 37.3965 44.5283C39.6076 44.087 40.5447 41.4289 40.5868 39.1805C40.65 35.1144 39.1022 31.7208 37.2175 28.2221C35.3117 24.6814 33.1637 21.2668 30.7736 18.0203C31.2474 18.6717 32.911 19.2075 33.6165 19.6383C34.6589 20.2687 35.6802 20.9411 36.67 21.645C38.6073 23.0109 40.4604 24.5028 42.2188 26.0998C45.725 29.3043 49.1891 32.4037 51.8951 36.3437C45.9672 35.7658 41.5028 30.7752 38.302 25.7741C36.3646 22.7692 34.6378 19.5542 34.0271 16.045C33.4164 12.5358 34.0693 8.6589 36.4699 6.00074C38.6494 3.58423 42.1662 2.47053 45.346 3.17447C48.5258 3.87841 51.2318 6.38949 52.1794 9.49943C53.6956 14.49 50.6737 19.9009 46.5358 23.0844C42.3978 26.2679 37.2701 27.8439 32.5004 29.9767C25.2669 33.2127 18.6651 37.8462 13.1689 43.5407C16.6962 45.1272 20.8341 44.854 24.4983 43.6037C28.1519 42.3535 31.4264 40.2101 34.6484 38.0668C35.9224 37.2158 37.5439 36.3437 38.8916 37.0687C40.671 38.0248 40.2077 40.746 39.1127 42.4375C38.0177 44.1396 36.4699 45.9152 36.8911 47.8904C39.3444 48.4578 40.9343 45.5159 42.4189 43.4777C45.5566 39.2015 52.0636 37.8462 56.6543 40.5148C56.3279 38.403 55.9699 36.2281 54.8222 34.421C53.6745 32.6139 51.516 31.2795 49.4313 31.7523C46.9359 32.3302 45.8724 34.9358 44.9774 37.0582C43.8298 39.7899 41.924 42.2904 39.6181 44.1501C37.3859 45.9467 34.5536 46.5351 31.7107 46.9448C32.0161 46.8923 32.3109 46.8398 32.6162 46.7977" stroke="#535353" stroke-width="0.5" stroke-miterlimit="10" stroke-linecap="round" stroke-linejoin="round"/>
<path d="M0.386475 85.1467C1.22881 83.6232 2.83977 82.6251 4.53496 82.2364C6.23015 81.8371 8.00958 81.9842 9.72583 82.2994C11.4421 82.6146 13.1162 83.0979 14.8325 83.4026C16.8646 83.7493 18.9283 83.8229 20.9815 83.6337C22.1713 83.5182 25.2563 83.4761 25.6986 82.0367C25.867 81.5009 25.7301 80.9125 25.5301 80.3767C24.8036 78.391 23.2874 76.6784 23.0136 74.5876C22.8241 73.1062 23.2768 71.6247 23.7296 70.1958C24.3403 68.2626 24.951 66.3399 25.5617 64.4067C25.8249 63.5767 26.0987 62.7257 26.6251 62.0427C27.141 61.3703 27.8676 60.8975 28.573 60.4352C28.931 60.2041 29.289 59.973 29.6996 59.8574C30.4893 59.6367 31.3632 60.0885 32.0371 60.4773C32.5004 60.7504 34.1745 61.3493 34.2693 61.9377C34.3009 62.1688 34.164 62.3895 33.9639 62.505C33.7639 62.6206 33.5217 62.6416 33.2901 62.6206C32.9637 62.5996 32.6478 62.5155 32.353 62.3579C32.0476 62.2003 31.7739 61.9797 31.458 61.8746C30.9842 61.717 30.4472 61.8431 30.0155 62.0848C29.5733 62.3264 29.2153 62.6837 28.8573 63.0409C30.0682 62.5366 31.6791 62.6101 32.732 63.4506C33.1005 63.7448 34.6167 65.5204 33.4375 65.615C32.711 65.678 32.1108 64.4803 31.2895 64.4277C31.0052 64.4067 30.721 64.4908 30.4472 64.5853C29.668 64.869 28.931 65.2788 28.2992 65.8146C29.0995 65.4994 30.2261 64.9005 31.0895 65.0476C31.9107 65.1842 32.6689 65.6885 33.069 66.424C33.1532 66.5711 33.2164 66.7392 33.2164 66.9073C33.2058 67.0754 33.1111 67.254 32.9531 67.3065C32.7636 67.3696 32.5636 67.2435 32.3846 67.1489C31.4896 66.6656 30.205 66.8758 29.2679 67.17C28.3203 67.4746 27.4674 68.0105 26.6251 68.5463C27.8465 68.2731 29.1205 67.2855 30.3946 67.4431C30.8894 67.5062 32.8794 67.8319 32.6899 68.5673C32.5951 68.914 32.1634 69.0191 31.7949 69.0611C30.8894 69.1557 29.9839 69.2503 29.0784 69.3448C29.4259 68.914 29.9102 68.5883 30.4472 68.4623C30.2156 69.618 28.5941 70.2064 27.7201 70.7212C28.8046 71.6142 29.0995 73.1377 29.1732 74.5351C29.2469 75.9324 29.1837 77.3928 29.7733 78.6641C30.2998 79.7778 31.2685 80.6079 32.1319 81.4799C32.9953 82.3624 33.806 83.4236 33.8586 84.6529C33.09 84.8525 32.4477 84.0645 32.0897 83.3501C30.7841 80.7549 27.8676 69.7966 34.0376 71.1414C35.238 71.4041 36.333 72.003 37.5228 72.2972C39.8076 72.875 42.3662 72.2446 44.114 70.6686C43.7876 70.9628 41.9871 70.6266 41.5449 70.5951C40.6289 70.511 39.7129 70.3745 38.8073 70.1853C37.586 69.9227 34.6273 69.5549 34.2166 68.1576C33.9429 67.212 34.6167 66.1928 35.4907 65.7411C36.533 65.1947 37.944 65.1107 39.0811 64.7955C40.7026 64.3437 42.3978 64.1441 44.0298 63.7133C44.7037 63.5347 45.3881 63.3351 45.9777 62.9673C46.82 62.4315 47.1885 61.4439 46.9464 60.4668C46.799 59.8574 46.462 59.3216 46.1146 58.7962C44.9037 56.9471 43.5455 55.203 42.3978 53.3118C41.2396 51.4311 40.2814 49.3823 39.955 47.2075C39.8603 46.5876 39.8497 45.8731 40.292 45.4214C40.8816 44.833 41.8924 45.0746 42.5768 45.5369C44.0509 46.5456 44.8405 48.3737 44.8616 50.1598C44.8827 51.9459 44.2193 53.69 43.2822 55.2135C42.103 57.1362 40.4394 59.1324 38.4809 60.2776C37.2701 60.9921 35.7749 61.3493 34.4272 60.9606C33.3322 60.6454 30.563 58.0818 32.6162 57.2833C33.1427 57.0731 33.7323 57.0101 34.2903 57.0942C34.0376 57.9557 33.2374 58.7542 32.374 58.9958C31.816 59.1534 31.0052 59.2375 30.7315 58.6071C30.5841 58.2709 30.563 57.8822 30.3524 57.588C30.1734 57.3358 29.8892 57.1782 29.6154 57.0416C29.3416 56.905 29.0468 56.7685 28.8573 56.5268C28.6678 56.2852 28.5835 55.9174 28.7731 55.6758C29.3522 55.8229 30.0366 55.9489 30.4998 55.5707C30.6367 55.4656 30.742 55.3185 30.8789 55.2345C31.2579 54.9928 31.7423 55.1609 32.1634 55.2975C33.0479 55.5812 33.9745 55.7073 34.901 55.6758C34.7536 55.6758 34.1219 56.1591 33.9008 56.2431C33.4059 56.4322 32.911 56.5898 32.3951 56.6634C30.9842 56.863 29.8997 56.3377 29.0047 55.245C28.4677 54.5936 27.5938 53.5219 27.9097 52.6394C28.0992 52.1035 28.5941 51.7043 29.1416 51.5677C29.6996 51.4311 30.2893 51.5467 30.7947 51.8199C31.0263 51.9459 31.2474 52.1351 31.2895 52.3872C31.3316 52.6814 31.1 52.9651 30.8157 53.0807C30.2682 53.3013 29.5943 53.1437 29.0468 53.3538C28.3835 53.5955 27.836 54.5306 27.0463 54.415C26.1092 54.2889 26.1618 53.2277 26.0987 52.4923C25.8881 50.0443 25.7196 47.5962 25.5301 45.1587C25.4459 44.108 25.3406 42.9838 24.6667 42.1643C23.9928 41.3448 22.5503 41.0927 21.9291 41.9437C20.9078 43.3306 23.7612 45.3478 24.772 45.9047C31.4159 49.5294 40.2604 44.2656 44.7353 39.3486C49.347 34.2844 51.158 26.7302 49.0733 20.1846C49.2101 20.6154 48.5258 22.0653 48.4205 22.5591C48.2309 23.4521 48.0835 24.3557 47.9993 25.2593C47.8203 27.0769 47.8624 28.9156 48.1046 30.7227C48.5679 34.1373 49.9472 37.3944 51.0106 40.6199C53.2323 47.3441 57.4439 52.6814 63.1086 56.8315C67.9099 60.3512 73.0692 64.785 75.2803 70.4795C76.9966 74.8818 77.1229 79.8829 75.6383 84.3587C75.2066 85.672 74.617 86.9643 73.6588 87.9519C72.7007 88.9396 71.3003 89.591 69.942 89.3808C68.3311 89.1392 67.1097 87.8048 66.1937 86.4495C62.0557 80.3137 61.5187 71.9294 64.8565 65.3313C67.6572 59.7943 73.8484 56.3377 79.9763 58.2919C83.3983 59.3846 85.5462 62.5786 84.6197 66.2874C83.1877 63.3456 83.7247 59.5527 85.9042 57.1152L85.6305 57.6195C86.6413 56.033 88.4628 55.3501 90.0632 56.033C91.6637 56.7159 92.1164 58.9958 93.938 59.4476C96.6756 60.1306 99.4131 58.0818 99.6342 55.3501C99.6342 55.3501 101.529 26.436 101.572 25.5114L105.646 75.8063C105.646 75.8063 106.457 60.5613 108.194 58.5125C109.153 57.3778 110.279 57.6405 111.406 58.3129C111.922 58.6176 112.648 59.164 113.269 58.7962C114.154 58.2709 113.891 56.821 114.638 56.1696C115.196 55.6863 115.902 56.0645 116.47 56.3377C117.608 56.8735 118.692 57.1152 119.482 55.8649C120.303 54.5621 119.966 51.1264 121.788 50.5696C123.367 50.0863 123.967 53.4904 124.262 54.4675C124.662 55.8334 124.988 57.2202 125.483 58.5546C125.757 59.29 126.347 61.1602 127.315 60.078C128.295 58.9958 128.495 55.7493 130.59 56.2746C132.622 56.7895 132.685 59.3741 133.991 60.6559C134.433 61.0867 135.002 61.3493 135.633 61.3283C135.086 58.8593 137.929 56.821 140.087 58.2604C141.372 59.4161 143.204 60.5613 144.794 59.6473C145.931 58.7332 146.394 55.3185 146.394 55.3185L150.774 25.8897L154.228 73.9152L155.976 61.0131C156.207 59.8784 156.428 58.7332 157.345 58.2814C158.482 57.8296 159.629 58.7332 160.766 58.0503C161.904 57.5985 162.367 56.2326 163.957 56.0015L170.99 56.2536C167.747 54.0262 170.99 56.2536 170.99 56.2536C167.747 54.0262 163.767 51.9039 162.167 48.1005C161.367 46.2094 161.23 43.6983 162.651 42.0593C163.904 40.6094 165.989 40.3992 167.653 41.2187C169.579 42.1643 170.79 44.1816 171.517 46.1253C172.264 44.3707 173.033 42.427 174.602 41.2292C175.813 40.2942 177.634 40.0735 179.003 40.5253C181.056 41.4394 182.657 43.4882 182.193 45.9887C181.056 50.9898 176.718 53.5009 173.012 56.2536C173.096 56.2536 173.096 56.2536 173.012 56.2536L181.962 56.0015C183.099 55.7703 183.33 53.7216 184.699 54.1838C186.068 54.6356 186.521 56.4638 187.205 57.8296C187.89 59.1955 188.806 60.3302 190.627 60.1095C192.228 59.8784 193.365 58.9748 194.281 57.609C194.734 56.6949 195.197 54.4255 195.197 54.4255L197.555 25.4169C197.576 25.7216 197.534 25.7216 197.555 25.4169C197.555 25.7216 201.356 75.8063 201.356 75.8063L204.81 59.3531C205.084 58.4705 205.126 57.3463 206.263 57.7561C207 58.0187 207.737 58.6912 208.569 58.6176C209.506 58.5231 209.695 57.5354 209.948 56.8105C210.369 55.6127 211.538 56.1906 212.423 56.5163C213.412 56.884 214.697 57.0942 215.339 56.054C215.887 55.1715 216.055 54.1943 216.276 53.2067C216.466 52.3662 216.697 51.3366 217.434 50.7902C217.908 50.433 218.224 50.8848 218.572 51.284C218.887 51.6413 219.14 52.051 219.34 52.4818C220.193 54.2574 220.256 56.2957 220.856 58.1448C221.046 58.7437 221.077 59.6893 221.815 59.8889C222.646 60.1095 223.246 59.5527 223.562 58.8698C223.878 58.1763 223.973 57.3148 224.542 56.779C225.121 56.2326 225.858 56.1591 226.51 56.5898C228.585 57.9662 228.595 61.0656 231.154 61.8326C230.87 61.7486 231.08 60.2251 231.122 60.0045C231.249 59.4371 231.617 58.9433 232.028 58.5231C232.796 57.7561 233.902 57.5249 234.871 58.0608C236.471 58.9748 238.061 60.1095 239.883 58.9748C240.567 58.523 246.042 26.6671 246.221 25.9002C246.2 26.0368 246.2 26.0368 246.221 25.9002C246.221 26.2154 248.327 58.0608 249.675 73.9257C249.696 73.6105 249.696 73.6105 249.675 73.9257C250.085 69.9437 250.559 65.8461 251.57 61.9587C252.033 60.2041 252.286 57.5985 254.423 57.5249C255.982 57.4724 256.266 59.1009 258.498 58.8172C262.299 58.3339 262.994 58.6491 265.037 61.8431C267.195 65.2262 268.901 68.6829 269.848 72.6018C271.712 80.2716 270.849 88.6559 267.079 95.6217C263.921 90.5155 262.92 84.1275 264.373 78.3069C267.427 65.9932 278.661 61.6645 290.412 62.2109C287.158 59.5422 284.947 56.2431 283.21 52.4398C282.473 50.7587 281.946 49.0777 281.525 47.1865C281.104 44.77 280.788 42.5636 280.999 40.1471C281.104 38.6762 281.315 37.2052 281.631 35.7343C282.052 34.0533 282.684 32.5823 283.315 31.0064C283.526 30.481 283.842 29.8506 284.158 29.3253C284.579 28.8 284.789 28.2746 285.105 27.7493C289.001 21.9707 294.266 18.0833 300.899 16.2972C306.269 14.9313 311.744 15.3516 316.903 17.3478C323.537 19.8694 328.906 24.9126 331.749 31.4266C331.96 32.057 332.276 32.5823 332.486 33.2127C333.223 35.6292 333.855 37.9407 333.96 40.4623C333.96 42.1433 334.066 43.8244 333.855 45.5054C333.434 49.3928 332.065 52.86 330.17 56.2221C330.065 56.3272 329.959 56.4322 329.854 56.5373C326.59 62.2109 321.431 66.3084 315.324 68.5148C309.638 70.511 303.637 70.7212 297.74 69.1452C295.74 68.6199 293.844 68.0945 291.949 67.0439C289.212 65.4679 286.79 63.6818 284.684 61.2653C280.472 56.2221 278.788 50.0232 279.209 43.7193C280.157 31.8469 288.58 21.1302 300.478 18.1883C300.583 18.1883 300.794 17.9782 300.899 17.9782C309.743 15.8769 318.588 18.0833 325.642 23.6518C326.064 24.072 326.485 24.3872 327.011 24.8075C331.96 29.2202 334.803 35.1039 335.54 41.618C335.645 43.299 335.75 44.9801 335.645 46.6611C335.54 47.8169 335.435 48.8675 335.224 50.0232C334.919 51.5887 334.497 53.1332 333.908 54.6146C333.055 56.7685 331.433 58.9643 329.959 60.7399C329.012 61.7906 328.064 62.6311 327.011 63.6818C322.905 67.6743 318.272 70.6161 312.586 71.982C309.112 72.7174 305.742 72.8225 302.268 72.2972C299.214 71.7718 296.477 70.8262 293.844 69.1452C293.634 68.9351 293.423 68.83 293.107 68.6199C291.739 67.6743 290.686 66.6236 289.527 65.4679C286.463 61.8957 284.473 57.8506 283.126 53.3328C280.536 44.6544 281.062 34.7257 287.422 27.7493C287.527 27.6443 287.527 27.4341 287.632 27.3291C292.476 22.2859 299.004 19.7643 305.848 19.5542C311.533 19.3441 316.903 20.815 321.852 23.8619C326.801 27.0139 330.486 31.3216 332.802 36.4698C334.487 40.4623 335.54 44.5598 335.75 48.8675C335.961 53.3853 335.224 57.7981 332.486 61.7906C330.591 64.4172 328.591 66.5186 325.642 67.6743C323.326 68.6199 320.694 68.83 318.272 67.8844C318.061 67.7793 317.851 67.6743 317.535 67.5692C316.482 67.1489 315.745 66.3084 315.008 65.4679C313.85 63.8919 313.323 62.2109 313.007 60.3197C312.692 57.3778 312.586 54.436 313.218 51.5992C314.376 48.8675 315.956 46.3459 316.482 43.299C316.587 42.3535 316.693 41.3028 316.587 40.3572C316.419 38.7707 316.114 37.1947 315.545 35.7028C315.145 34.6521 314.324 33.0762 313.323 32.4773C312.797 32.1621 312.27 32.057 311.744 32.057C310.691 32.1621 309.849 32.8975 309.217 33.7381C307.743 36.2596 307.111 38.8863 307.216 41.7231C307.427 43.8244 307.848 45.8206 309.112 47.7118C309.743 48.5523 310.27 49.4979 310.586 50.4435C311.639 53.5955 311.428 56.9576 311.112 60.2146C311.007 61.3703 311.007 62.5261 310.48 63.5767C309.954 64.6274 309.112 65.573 308.059 65.9932C306.69 66.5186 305.111 66.5186 303.742 65.9932C301.604 65.1422 301.152 63.0619 300.973 61.0131C300.762 58.5546 301.046 56.0855 301.51 53.6795C302.004 51.1474 302.699 48.6679 303.279 46.1568C303.816 43.8034 303.963 41.3028 303.847 38.8758C303.794 37.8882 303.721 36.9321 303.468 35.976C303.331 35.4716 303.163 34.9673 302.963 34.484C302.836 34.1793 302.373 33.591 302.373 33.2758C302.405 35.1775 302.373 37.1002 302.499 39.0019C302.615 40.7249 302.657 42.3955 302.341 44.1186C302.299 44.3392 302.247 44.5808 302.099 44.7489C301.952 44.9276 301.668 45.0116 301.489 44.875C301.32 44.7489 301.299 44.5178 301.289 44.3182C301.194 42.406 301.31 40.4413 301.446 38.5186C301.51 37.6465 301.468 36.7535 301.32 35.8919C301.246 35.4401 301.141 34.9883 301.015 34.5471C300.962 34.3579 300.583 33.6225 300.646 33.4649C299.341 36.9636 300.867 40.9351 300.057 44.5808C300.014 44.7594 299.962 44.9486 299.804 45.0431C299.593 45.1797 299.299 45.0536 299.162 44.8435C299.025 44.6334 299.004 44.3707 298.993 44.1291C298.856 40.5883 299.593 36.9741 298.677 33.5595C298.13 35.3771 297.751 37.0056 297.761 38.9283C297.772 40.7249 297.982 42.511 298.088 44.2972C298.098 44.4653 298.109 44.6439 298.046 44.812C297.982 44.9696 297.824 45.1167 297.656 45.0957C297.424 45.0746 297.298 44.8225 297.224 44.6019C296.024 41.0191 296.824 37.0161 296.824 33.3073C295.329 36.6904 294.887 40.5253 295.55 44.1501C296.045 46.8187 297.172 49.2563 297.845 51.8829C298.435 54.1733 298.793 56.5163 298.919 58.8698C299.046 61.2653 298.772 63.6503 298.772 66.0458C296.908 65.3733 295.15 64.4172 293.581 63.209C288.569 59.3531 285.516 53.2593 285.095 46.9553C284.989 44.3287 285.095 41.8071 285.832 39.2855C286.148 38.3399 286.358 37.3944 286.779 36.5538C287.306 35.3981 287.832 34.3474 288.464 33.1917C292.57 26.5726 299.204 22.37 306.89 21.5294C314.05 20.794 321.21 23.6308 325.737 29.5144C326.58 30.7752 327.317 31.9309 327.948 33.2968C329.107 35.8184 329.528 38.445 329.633 41.1767C330.002 50.7377 324.484 60.0255 316.682 65.3628C317.219 63.314 319.609 62.4 321.715 62.2003C328.527 61.5805 334.95 65.2367 341.699 66.3925C348.101 67.4852 354.871 66.2454 360.452 62.9358C368.759 58.0292 376.003 47.218 374.445 37.3523" stroke="#535353" stroke-width="0.5" stroke-miterlimit="10" stroke-linecap="round" stroke-linejoin="round"/>
</g>
</svg>
