<svg width="540" height="283" viewBox="0 0 540 283" fill="none" xmlns="http://www.w3.org/2000/svg">
<path d="M1 193.099C37.4868 196.44 70.3708 210.652 94.0184 239.34C101.552 248.509 108.037 261.215 102.665 271.825C98.8003 279.423 89.2364 283.222 80.8517 281.65C72.4669 280.078 65.3923 273.921 61.3309 266.389C57.2696 258.857 55.9595 250.146 56.025 241.566C56.156 224.668 61.6585 207.574 72.5979 194.671C83.5374 181.769 100.045 173.385 116.945 173.516C128.606 173.582 140.528 177.511 151.598 173.975C164.961 169.783 172.822 156.291 178.587 143.519C186.251 126.49 197.714 99.7678 221.296 105.531C229.223 107.431 235.38 113.391 242.127 117.91C248.874 122.429 257.783 125.704 264.989 121.905C272.391 117.976 277.5 107.103 285.492 109.396C290.864 110.902 293.484 118.041 298.986 118.893C308.092 120.268 309.467 105.728 316.214 99.5058C328.005 88.6335 342.548 103.305 352.767 108.348C366.588 115.094 382.244 118.762 397.442 120.006C441.855 123.674 482.403 106.776 506.64 68.7882C519.676 48.3535 527.078 24.775 531.663 0.99999C504.347 21.8932 483.385 51.1043 472.446 83.6558C461.703 115.487 458.362 156.422 470.481 188.384C480.896 215.826 506.575 240.125 533.104 251.718C535.07 252.57 537.035 253.356 539 254.076" stroke="white" stroke-width="2" stroke-miterlimit="10" stroke-linecap="round" stroke-linejoin="round"/>
</svg>
