<svg width="18" height="12" viewBox="0 0 18 12" fill="none" xmlns="http://www.w3.org/2000/svg">
<path d="M0.374975 6.37501L16.7196 6.37501L11.7348 11.3599C11.5883 11.5064 11.5883 11.7437 11.7348 11.8901C11.8813 12.0366 12.1186 12.0366 12.265 11.8901L17.89 6.26515C18.0365 6.11865 18.0365 5.88135 17.89 5.73489L12.265 0.109906C12.1918 0.0366764 12.0958 4.29153e-05 11.9999 4.29153e-05C11.9039 4.29153e-05 11.808 0.0366764 11.7347 0.109906C11.5882 0.256402 11.5882 0.493705 11.7347 0.640165L16.7196 5.62499L0.374941 5.62499C0.16766 5.62499 -6.86646e-05 5.79272 -6.86646e-05 6C-6.86646e-05 6.20728 0.167696 6.37501 0.374975 6.37501Z" fill="#ffffff"/>
</svg>
