<svg width="90" height="42" viewBox="0 0 90 42" fill="none" xmlns="http://www.w3.org/2000/svg">
<path d="M13.166 0.579459H13.8604V18.6089L0.694336 2.52552V18.3471H0V0.317657L13.166 16.3748V0.579459Z" fill="#535353"/>
<path d="M20.25 16.9159C19.1514 15.7901 18.6064 14.4724 18.6064 12.9714C18.6064 11.4704 19.1602 10.1701 20.2764 9.07055C21.3926 7.97099 22.7285 7.4212 24.293 7.4212C25.8574 7.4212 27.1934 7.97099 28.3008 9.07055C29.4082 10.1701 29.9619 11.4704 29.9619 12.9801C29.9619 14.4899 29.417 15.7989 28.3359 16.9246C27.2549 18.0504 25.9453 18.6089 24.3984 18.6089H24.1875C22.6582 18.6089 21.3486 18.0416 20.25 16.9159ZM29.1973 13.0325C29.1973 11.6973 28.7139 10.5454 27.7559 9.55925C26.7891 8.58186 25.6465 8.09316 24.3105 8.09316C22.9746 8.09316 21.8145 8.59059 20.8389 9.57671C19.8633 10.5628 19.3711 11.7235 19.3711 13.0499C19.3711 14.3764 19.8633 15.5283 20.8389 16.497C21.8145 17.4657 22.9746 17.9544 24.3193 17.9544C25.6641 17.9544 26.8154 17.4657 27.7646 16.497C28.7227 15.5196 29.1973 14.3677 29.1973 13.0325Z" fill="#535353"/>
<path d="M33.5127 7.69174H34.3037L38.7158 17.0032L40.79 12.666L38.4785 7.73537H39.2432L41.1768 11.9242L43.1543 7.68301H43.8662L41.5283 12.6572L43.5762 17.0381L47.9443 7.7092H48.6387L43.5586 18.6089L41.124 13.4252L38.6631 18.6089L33.5127 7.69174Z" fill="#535353"/>
<path d="M63.501 7.69173V18.3471H62.7363V15.6941C62.2881 16.593 61.6201 17.3086 60.7324 17.8235C59.8447 18.3471 58.8867 18.6089 57.8672 18.6089C56.3115 18.6089 54.9756 18.0591 53.8594 16.9595C52.7432 15.86 52.1895 14.5509 52.1895 13.015C52.1895 11.4791 52.7432 10.1701 53.8594 9.07055C54.9756 7.97099 56.3115 7.4212 57.8672 7.4212C58.8867 7.4212 59.8623 7.69173 60.7852 8.22406C61.7168 8.76512 62.3672 9.47199 62.7275 10.3534V7.67428H63.501V7.69173ZM52.9541 13.0412C52.9541 14.3677 53.4463 15.5196 54.4219 16.4883C55.3975 17.4569 56.5576 17.9456 57.9023 17.9456C59.2471 17.9456 60.3984 17.4569 61.3477 16.4883C62.3057 15.5196 62.7803 14.3677 62.7803 13.0325C62.7803 11.6973 62.2969 10.5454 61.3389 9.55925C60.3721 8.58186 59.2295 8.09316 57.8936 8.09316C56.5576 8.09316 55.3975 8.59059 54.4219 9.57671C53.4375 10.5541 52.9541 11.7148 52.9541 13.0412Z" fill="#535353"/>
<path d="M73.6172 3.38074V4.04397C72.6943 4.04397 71.9121 4.35813 71.2705 4.99518C70.6289 5.62351 70.3037 6.42637 70.3037 7.38631V13.6172H73.6436V14.2804H70.3037V18.3558H69.5391V7.37758C69.5391 6.2082 69.9346 5.24826 70.7344 4.49776C71.5254 3.75599 72.4922 3.38074 73.6172 3.38074Z" fill="#535353"/>
<path d="M79.4268 5.10861C78.9697 5.10861 78.7324 4.89917 78.7324 4.47156C78.7324 4.04395 78.9609 3.8345 79.4268 3.8345C79.8926 3.8345 80.1211 4.04395 80.1211 4.47156C80.1123 4.89044 79.8838 5.10861 79.4268 5.10861ZM79.8047 7.70917V18.3471H79.04V7.70917H79.8047Z" fill="#535353"/>
<path d="M90 17.8234V18.4867C88.8662 18.4867 87.9082 18.1114 87.1172 17.3609C86.3262 16.6104 85.9219 15.6505 85.9219 14.4811V3.39816H86.6865V7.70917H89.9824V8.3724H86.6865V14.4811C86.6865 15.441 87.0117 16.2439 87.6533 16.8722C88.2949 17.5093 89.0771 17.8234 90 17.8234Z" fill="#535353"/>
<path d="M20.2852 41.6821L15.9258 31.6376H16.418L20.3555 40.6785L22.2012 36.4024L20.1445 31.6376H20.6191L22.4648 35.9661L24.3633 31.6376H24.7324L22.667 36.385L24.5478 40.7134L28.5644 31.6376H28.9248L24.4951 41.6821L22.3857 36.8649L20.2852 41.6821Z" fill="#8B8B8B"/>
<path d="M32.9414 41.6649H32.8184C31.9834 41.6649 31.2451 41.3507 30.6211 40.7224C29.9971 40.0941 29.6895 39.361 29.6895 38.532C29.6895 37.6942 29.9971 36.9786 30.6211 36.3678C31.2363 35.7569 32.001 35.4514 32.915 35.4514C33.8203 35.4514 34.6025 35.8092 35.2617 36.5336L31.0957 40.6089C31.667 41.0627 32.2207 41.2896 32.7481 41.2896C33.2754 41.2896 33.75 41.1675 34.1719 40.9318C34.5938 40.6875 34.9365 40.3646 35.209 39.9632V40.6351C34.5938 41.3245 33.8291 41.6649 32.9414 41.6649ZM32.8008 35.8267C32.0977 35.8267 31.4736 36.0972 30.9287 36.6383C30.3838 37.1793 30.1113 37.7989 30.1113 38.4971C30.1113 39.1952 30.3486 39.8148 30.8145 40.3384L34.6729 36.5336C34.1279 36.0623 33.5039 35.8267 32.8008 35.8267Z" fill="#8B8B8B"/>
<path d="M40.3769 41.2547V41.6213C39.7529 41.6213 39.2168 41.4118 38.7773 40.9929C38.3379 40.574 38.1182 40.0417 38.1182 39.3959V31.6292H38.54V39.3959C38.54 39.9283 38.7158 40.3733 39.0762 40.7224C39.4277 41.0802 39.8584 41.2547 40.3769 41.2547Z" fill="#8B8B8B"/>
<path d="M45.2901 41.2547V41.6213C44.666 41.6213 44.1299 41.4118 43.6904 40.9929C43.251 40.574 43.0312 40.0417 43.0312 39.3959V31.6292H43.4531V39.3959C43.4531 39.9283 43.6289 40.3733 43.9893 40.7224C44.3408 41.0802 44.7803 41.2547 45.2901 41.2547Z" fill="#8B8B8B"/>
<path d="M48.3662 41.5078H47.9443V35.5823H48.3662V36.7779C48.8145 35.8791 49.5879 35.434 50.6689 35.434C51.4072 35.434 52.0312 35.6871 52.541 36.1932C53.042 36.6994 53.2969 37.319 53.2969 38.052V41.5078H52.875V38.0607C52.875 37.4586 52.6641 36.9263 52.2334 36.4812C51.8027 36.0361 51.2842 35.8092 50.6777 35.8092C50.0713 35.8092 49.5352 36.0361 49.0693 36.4812C48.6035 36.9263 48.375 37.4586 48.375 38.0607V41.5078H48.3662Z" fill="#8B8B8B"/>
<path d="M59.458 41.6649H59.335C58.4912 41.6649 57.7617 41.3507 57.1377 40.7224C56.5137 40.0941 56.2061 39.361 56.2061 38.532C56.2061 37.6942 56.5137 36.9786 57.1377 36.3678C57.7529 35.7569 58.5176 35.4514 59.4316 35.4514C60.3457 35.4514 61.1191 35.8092 61.7783 36.5336L57.6211 40.6089C58.1924 41.0627 58.7461 41.2896 59.2734 41.2896C59.8008 41.2896 60.2754 41.1675 60.6973 40.9318C61.1191 40.6875 61.4619 40.3646 61.7344 39.9632V40.6351C61.1103 41.3245 60.3545 41.6649 59.458 41.6649ZM59.3174 35.8267C58.6143 35.8267 57.9902 36.0972 57.4453 36.6383C56.9004 37.1793 56.6279 37.7989 56.6279 38.4971C56.6279 39.1952 56.8652 39.8148 57.3311 40.3384L61.1894 36.5336C60.6445 36.0623 60.0205 35.8267 59.3174 35.8267Z" fill="#8B8B8B"/>
<path d="M65.9268 35.8005C65.6982 35.8005 65.4961 35.8791 65.3203 36.0274C65.1445 36.1758 65.0566 36.3591 65.0566 36.5772C65.0566 36.7954 65.1533 36.9961 65.3555 37.1794C65.5576 37.3626 65.7949 37.5284 66.0674 37.6855C66.3486 37.8426 66.6299 37.9997 66.9111 38.1829C67.1924 38.3575 67.4385 38.5844 67.6318 38.8549C67.8252 39.1254 67.9307 39.4396 67.9307 39.7887C67.9307 40.3035 67.7373 40.7486 67.3418 41.1151C66.9463 41.4816 66.4717 41.6649 65.918 41.6649C65.5664 41.6649 65.2324 41.5864 64.9336 41.438C64.626 41.2809 64.4062 41.0802 64.2656 40.8271V40.1988C64.5996 40.9319 65.1445 41.3071 65.8828 41.3071C66.3398 41.3071 66.7266 41.1675 67.043 40.8882C67.3594 40.609 67.5088 40.2948 67.5088 39.9457C67.5088 39.5967 67.4121 39.3087 67.21 39.0731C67.0078 38.8374 66.7705 38.6367 66.4893 38.4709C66.208 38.3051 65.9268 38.1393 65.6455 37.9735C65.3643 37.8077 65.127 37.6157 64.9336 37.3801C64.7314 37.1445 64.6348 36.8739 64.6348 36.5685C64.6348 36.2543 64.7578 35.9925 65.0127 35.7831C65.2676 35.5649 65.5928 35.4602 65.9883 35.4602C66.3838 35.4602 66.7266 35.6173 67.0078 35.9227V36.4638C66.7178 36.01 66.3574 35.8005 65.9268 35.8005Z" fill="#8B8B8B"/>
<path d="M72.0791 35.8005C71.8506 35.8005 71.6484 35.8791 71.4727 36.0274C71.2969 36.1758 71.209 36.3591 71.209 36.5772C71.209 36.7954 71.3057 36.9961 71.5078 37.1794C71.71 37.3626 71.9473 37.5284 72.2197 37.6855C72.501 37.8426 72.7822 37.9997 73.0635 38.1829C73.3447 38.3575 73.5908 38.5844 73.7842 38.8549C73.9775 39.1254 74.083 39.4396 74.083 39.7887C74.083 40.3035 73.8896 40.7486 73.4941 41.1151C73.0986 41.4816 72.624 41.6649 72.0703 41.6649C71.7187 41.6649 71.3848 41.5864 71.0859 41.438C70.7783 41.2809 70.5586 41.0802 70.418 40.8271V40.1988C70.752 40.9319 71.2969 41.3071 72.0352 41.3071C72.4922 41.3071 72.8789 41.1675 73.1953 40.8882C73.5117 40.609 73.6699 40.2948 73.6699 39.9457C73.6699 39.5967 73.5732 39.3087 73.3711 39.0731C73.1689 38.8374 72.9316 38.6367 72.6504 38.4709C72.3691 38.3051 72.0879 38.1393 71.8066 37.9735C71.5254 37.8077 71.2881 37.6157 71.0947 37.3801C70.8926 37.1445 70.7959 36.8739 70.7959 36.5685C70.7959 36.2543 70.9189 35.9925 71.1738 35.7831C71.4287 35.5649 71.7539 35.4602 72.1494 35.4602C72.5449 35.4602 72.8877 35.6173 73.1689 35.9227V36.4638C72.8701 36.01 72.5098 35.8005 72.0791 35.8005Z" fill="#8B8B8B"/>
</svg>
