<svg width="145" height="56" viewBox="0 0 145 56" fill="none" xmlns="http://www.w3.org/2000/svg">
<rect width="145" height="56" rx="8" fill="white"/>
<g clip-path="url(#clip0)">
<path d="M61.2217 40.2233L65.5468 15.9116H72.3047L68.1148 40.2233H61.2217Z" fill="#3C58BF"/>
<path d="M61.2217 40.2233L66.7632 15.9116H72.3047L68.1148 40.2233H61.2217Z" fill="#293688"/>
<path d="M92.5787 16.1816C91.2271 15.6413 89.0646 15.1011 86.3614 15.1011C79.6035 15.1011 74.7377 18.4777 74.7377 23.34C74.7377 26.9868 78.1167 28.8777 80.8199 30.0933C83.5231 31.3089 84.334 32.1193 84.334 33.1998C84.334 34.8206 82.1715 35.6309 80.2793 35.6309C77.5761 35.6309 76.0893 35.2257 73.7916 34.2803L72.8455 33.8751L71.8994 39.4128C73.5213 40.0881 76.4948 40.7634 79.6035 40.7634C86.7669 40.7634 91.4974 37.3868 91.4974 32.2543C91.4974 29.418 89.7404 27.2569 85.6856 25.5011C83.2527 24.2855 81.766 23.6102 81.766 22.3946C81.766 21.3141 82.9824 20.2335 85.6856 20.2335C87.9833 20.2335 89.6052 20.6387 90.8216 21.179L91.4974 21.4491L92.5787 16.1816Z" fill="#3C58BF"/>
<path d="M92.5787 16.1816C91.2271 15.6413 89.0646 15.1011 86.3614 15.1011C79.6035 15.1011 75.9542 18.4777 75.9542 23.34C75.9542 26.9868 78.1167 28.8777 80.8199 30.0933C83.5231 31.3089 84.334 32.1193 84.334 33.1998C84.334 34.8206 82.1715 35.6309 80.2793 35.6309C77.5761 35.6309 76.0893 35.2257 73.7916 34.2803L72.8455 33.8751L71.8994 39.4128C73.5213 40.0881 76.4948 40.7634 79.6035 40.7634C86.7669 40.7634 91.4974 37.3868 91.4974 32.2543C91.4974 29.418 89.7404 27.2569 85.6856 25.5011C83.2527 24.2855 81.766 23.6102 81.766 22.3946C81.766 21.3141 82.9824 20.2335 85.6856 20.2335C87.9833 20.2335 89.6052 20.6387 90.8216 21.179L91.4974 21.4491L92.5787 16.1816Z" fill="#293688"/>
<path d="M104.202 15.9116C102.58 15.9116 101.364 16.0467 100.688 17.6675L90.5513 40.2233H97.8498L99.2014 36.1714H107.852L108.663 40.2233H115.15L109.473 15.9116H104.202ZM101.094 32.1194C101.499 30.9038 103.797 24.961 103.797 24.961C103.797 24.961 104.337 23.4753 104.743 22.5298L105.148 24.8259C105.148 24.8259 106.5 30.9038 106.77 32.2545H101.094V32.1194Z" fill="#3C58BF"/>
<path d="M105.824 15.9116C104.202 15.9116 102.986 16.0467 102.31 17.6675L90.5513 40.2233H97.8498L99.2014 36.1714H107.852L108.663 40.2233H115.15L109.473 15.9116H105.824ZM101.094 32.1194C101.634 30.7688 103.797 24.961 103.797 24.961C103.797 24.961 104.337 23.4753 104.743 22.5298L105.148 24.8259C105.148 24.8259 106.5 30.9038 106.77 32.2545H101.094V32.1194Z" fill="#293688"/>
<path d="M48.7873 32.93L48.1115 29.4183C46.8951 25.3664 42.9755 20.9092 38.6504 18.7482L44.7325 40.3586H52.0311L62.979 16.0469H55.6804L48.7873 32.93Z" fill="#3C58BF"/>
<path d="M48.7873 32.93L48.1115 29.4183C46.8951 25.3664 42.9755 20.9092 38.6504 18.7482L44.7325 40.3586H52.0311L62.979 16.0469H57.032L48.7873 32.93Z" fill="#293688"/>
<path d="M30 15.9116L31.2164 16.1818C39.8666 18.2077 45.8136 23.3402 48.1113 29.4181L45.6784 17.9376C45.2729 16.3168 44.0565 15.9116 42.5698 15.9116H30Z" fill="#FFBC00"/>
<path d="M30 15.9116C38.6502 17.9376 45.8136 23.2051 48.1113 29.2831L45.8136 19.6934C45.4081 18.0727 44.0565 17.1272 42.5698 17.1272L30 15.9116Z" fill="#F7981D"/>
<path d="M30 15.9116C38.6502 17.9376 45.8136 23.2051 48.1113 29.2831L46.4894 24.0155C46.0839 22.3947 45.5433 20.774 43.651 20.0986L30 15.9116Z" fill="#ED7C00"/>
<path d="M55.5448 32.1193L50.9494 27.5271L48.7869 32.6595L48.2463 29.2829C47.0298 25.231 43.1102 20.7738 38.7852 18.6128L44.8673 40.2232H52.1659L55.5448 32.1193Z" fill="#051244"/>
<path d="M68.1148 40.2231L62.3029 34.2803L61.2217 40.2231H68.1148Z" fill="#051244"/>
<path d="M83.6577 31.8491C84.1984 32.3894 84.4687 32.7946 84.3335 33.3348C84.3335 34.9556 82.171 35.766 80.2788 35.766C77.5756 35.766 76.0888 35.3608 73.7911 34.4154L72.845 34.0102L71.8989 39.5478C73.5208 40.2231 76.4943 40.8985 79.603 40.8985C83.928 40.8985 87.4422 39.6829 89.4696 37.5219L83.6577 31.8491Z" fill="#051244"/>
<path d="M91.4971 40.2233H97.8495L99.2011 36.1713H107.851L108.662 40.2233H115.15L112.852 30.3636L104.743 22.5298L105.148 24.6908C105.148 24.6908 106.5 30.7687 106.77 32.1194H101.093C101.634 30.7687 103.797 24.961 103.797 24.961C103.797 24.961 104.337 23.4752 104.743 22.5298" fill="#051244"/>
</g>
<defs>
<clipPath id="clip0">
<rect width="85.15" height="26" fill="white" transform="translate(30 15)"/>
</clipPath>
</defs>
</svg>
