<svg width="145" height="56" viewBox="0 0 145 56" fill="none" xmlns="http://www.w3.org/2000/svg">
<rect width="145" height="56" rx="8" fill="white"/>
<g clip-path="url(#clip0)">
<path d="M55.5764 17.6727H37.0378L38.3733 14H56.9119L55.5764 17.6727ZM54.9086 19.509H36.3617L35.0262 23.1816H53.5648L54.9086 19.509ZM52.9054 25.0013H34.3585L33.0229 28.6739H51.5448L52.9054 25.0013Z" fill="#009FDF"/>
<path d="M99.7491 37.8636H103.088C103.562 37.9203 104.044 37.8593 104.489 37.6861C104.934 37.5129 105.33 37.2327 105.642 36.8704C106.1 36.271 106.331 35.5287 106.293 34.7753C106.324 34.2959 106.236 33.8162 106.037 33.3792C105.837 32.9421 105.532 32.5615 105.15 32.2712C104.53 31.8657 103.793 31.6777 103.055 31.737H99.7491V37.8636ZM95.367 41.5613V19.5087H109.715L108.455 23.2064H99.7491V28.0894H103.297C106.16 28.0894 107.645 28.7738 108.672 29.6502C109.406 30.3002 109.983 31.108 110.361 32.0129C110.738 32.9179 110.905 33.8965 110.851 34.8754C110.907 35.9296 110.699 36.9811 110.246 37.9344C109.792 38.8878 109.108 39.7127 108.255 40.3343C106.877 41.2859 105.433 41.553 102.495 41.553L95.367 41.5613ZM82.6629 41.5613V23.1981H76.2859V19.5087H93.9897L92.7293 23.2064H87.0868V41.5697L82.6629 41.5613ZM64.9925 28.3398H67.4966C68.0087 28.3748 68.5232 28.3354 69.0241 28.2229C69.5449 28.0565 69.9938 27.7181 70.2971 27.2631C70.6005 26.8082 70.7402 26.2636 70.6934 25.7188C70.7629 25.1775 70.6313 24.6295 70.3236 24.1787C70.0159 23.7279 69.5535 23.4057 69.0241 23.2732C68.4772 23.1462 67.9154 23.0957 67.3547 23.1229H64.9925V28.3398ZM64.9925 32.1543V37.9388H68.0475C68.8894 38.035 69.7359 37.8017 70.4097 37.2877C70.7202 37 70.9634 36.6474 71.1221 36.255C71.2808 35.8626 71.351 35.44 71.3278 35.0173C71.3411 34.342 71.1362 33.6805 70.7435 33.1309C70.0925 32.2962 69.2912 32.1376 67.9223 32.1376L64.9925 32.1543ZM72.054 29.8255V29.9007C72.7982 30.1871 73.4936 30.587 74.1157 31.0859C74.7445 31.6077 75.2414 32.2704 75.5663 33.0202C75.8911 33.7699 76.0347 34.5857 75.9854 35.4013C75.9854 38.4145 74.3828 40.5931 71.7535 41.2442C70.7055 41.5003 69.626 41.6044 68.5483 41.553H60.6104V19.5087H67.6719C68.7934 19.4677 69.9156 19.5715 71.0106 19.8176C73.5648 20.502 75.2425 22.2632 75.2425 25.0427C75.2634 25.7054 75.1491 26.3654 74.9065 26.9825C74.664 27.5996 74.2984 28.1608 73.8319 28.6319C73.3365 29.1349 72.7464 29.5349 72.0957 29.8088L72.054 29.8255Z" fill="#0A2973"/>
</g>
<defs>
<clipPath id="clip0">
<rect width="78.2564" height="28" fill="white" transform="translate(33 14)"/>
</clipPath>
</defs>
</svg>
