<svg width="145" height="56" viewBox="0 0 145 56" fill="none" xmlns="http://www.w3.org/2000/svg">
<rect width="145" height="56" rx="8" fill="white"/>
<g clip-path="url(#clip0)">
<path d="M80.0551 14.5229H65.0552V41.4783H80.0551V14.5229Z" fill="#FF5F00"/>
<path d="M66.0045 27.9998C66.0021 25.4038 66.5904 22.8413 67.7248 20.5062C68.8591 18.1712 70.5099 16.1248 72.552 14.5221C70.0231 12.5343 66.986 11.2981 63.7877 10.9548C60.5894 10.6116 57.3591 11.175 54.466 12.5809C51.5728 13.9867 49.1335 16.1782 47.427 18.9048C45.7204 21.6314 44.8154 24.7831 44.8154 27.9998C44.8154 31.2164 45.7204 34.3681 47.427 37.0947C49.1335 39.8213 51.5728 42.0128 54.466 43.4187C57.3591 44.8245 60.5894 45.388 63.7877 45.0447C66.986 44.7014 70.0231 43.4652 72.552 41.4774C70.5099 39.8747 68.8592 37.8283 67.7248 35.4933C66.5904 33.1583 66.0021 30.5958 66.0045 27.9998Z" fill="#EB001B"/>
<path d="M100.291 27.9998C100.291 31.2163 99.3862 34.3681 97.6797 37.0947C95.9732 39.8213 93.534 42.0128 90.641 43.4186C87.7479 44.8245 84.5176 45.388 81.3194 45.0447C78.1211 44.7014 75.084 43.4652 72.5552 41.4774C74.5955 39.8731 76.245 37.8264 77.3792 35.4917C78.5134 33.1571 79.1027 30.5953 79.1027 27.9998C79.1027 25.4042 78.5134 22.8425 77.3792 20.5078C76.245 18.1731 74.5955 16.1264 72.5552 14.5221C75.084 12.5343 78.1211 11.2981 81.3194 10.9548C84.5176 10.6116 87.7479 11.1751 90.641 12.5809C93.534 13.9868 95.9732 16.1782 97.6797 18.9048C99.3862 21.6314 100.291 24.7832 100.291 27.9998Z" fill="#F79E1B"/>
<path d="M98.6557 38.6258V38.074H98.8782V37.9615H98.3115V38.074H98.5341V38.6258H98.6557ZM99.7559 38.6258V37.9604H99.5822L99.3824 38.4181L99.1826 37.9604H99.0088V38.6258H99.1314V38.1239L99.3188 38.5566H99.446L99.6334 38.1228V38.6258H99.7559Z" fill="#F79E1B"/>
</g>
<defs>
<clipPath id="clip0">
<rect width="56.5714" height="36" fill="white" transform="translate(44 10)"/>
</clipPath>
</defs>
</svg>
