<svg width="145" height="56" viewBox="0 0 145 56" fill="none" xmlns="http://www.w3.org/2000/svg">
<rect width="145" height="56" rx="8" fill="white"/>
<g clip-path="url(#clip0)">
<path d="M61.8723 25.8523H58.2603V23.6299H68.1145V25.8567H64.5024V31.9937H61.8723V25.8523Z" fill="#222220"/>
<path d="M69.0439 31.9718V23.6431H71.6741V31.9718H69.0439Z" fill="#222220"/>
<path d="M80.2263 28.2019V23.6299H82.646V31.9587H80.4016L75.8953 27.3603V31.9718H73.4756V23.643H75.8252L80.2263 28.2019Z" fill="#222220"/>
<path d="M87.0254 31.9718H84.4829V23.6431H87.0254V26.7817H87.7267L90.7952 23.6431H93.9865L89.9185 27.6409L94.1443 31.9894H90.7558L87.7224 28.8332H87.021L87.0254 31.9718Z" fill="#222220"/>
<path d="M104.888 27.8161C104.888 30.306 102.837 32.2347 99.435 32.2347C96.0334 32.2347 93.9644 30.306 93.9644 27.8161C93.9644 25.3262 96.0159 23.3975 99.435 23.3975C102.854 23.3975 104.888 25.3262 104.888 27.8161ZM102.223 27.8161C102.223 26.4484 101.118 25.449 99.435 25.449C97.7518 25.449 96.6471 26.4484 96.6471 27.8161C96.6471 29.1838 97.7342 30.2007 99.435 30.2007C101.136 30.2007 102.223 29.1838 102.223 27.8161Z" fill="#222220"/>
<path d="M108.671 25.7472V27.2551H114.282V29.0085H108.671V31.9718H106.129V23.6431H114.493V25.7647L108.671 25.7472Z" fill="#222220"/>
<path d="M118.219 25.7472V27.2551H123.83V29.0085H118.219V31.9718H115.685V23.6431H124.049V25.7647L118.219 25.7472Z" fill="#222220"/>
<path d="M55.9852 26.8077L56.4236 25.3348L54.9025 25.383C54.2006 25.3553 53.5223 25.1221 52.9518 24.7123C53.0219 24.7123 53.0877 24.7123 53.1578 24.7123C53.6143 24.7111 54.0613 24.5825 54.4486 24.3408C54.8358 24.0992 55.1479 23.7541 55.3496 23.3447L56.0027 21.8937C55.4767 21.8982 54.951 21.8674 54.429 21.8016C53.9316 21.6837 53.4838 21.4122 53.149 21.0258C52.9241 20.7856 52.6527 20.5937 52.3512 20.4618C52.0498 20.3299 51.7246 20.2608 51.3956 20.2586C51.1351 20.2598 50.8764 20.3012 50.6285 20.3814C50.6655 20.2636 50.6948 20.1435 50.7162 20.0219C50.819 19.1674 50.5795 18.3069 50.0499 17.6285L48.9101 16.2126L48.2 17.8784C48.088 18.1147 47.9156 18.3173 47.7003 18.4658C47.579 17.873 47.2863 17.3288 46.8586 16.9008C46.5035 16.5369 46.0786 16.2483 45.6094 16.0525C45.1401 15.8567 44.6361 15.7575 44.1277 15.7611C43.9486 15.7602 43.7698 15.7734 43.5929 15.8005L42.2252 16.0679C42.3449 15.6038 42.5341 15.1605 42.7863 14.7529L43.5403 13.5474L41.6159 13.7534L41.0066 12.4384L39.823 13.0477L38.7184 12L37.6356 13.0784L36.4477 12.469L35.8384 13.7534L33.9227 13.5342L34.6855 14.7353C34.937 15.1428 35.1247 15.5863 35.2422 16.0504L33.9271 15.7918H33.8833C33.7005 15.7641 33.5158 15.7509 33.331 15.7523C32.8224 15.7485 32.3184 15.8475 31.8491 16.0434C31.3798 16.2392 30.9549 16.5279 30.6 16.8921C30.1709 17.3197 29.8767 17.8638 29.754 18.457C29.5414 18.3122 29.3706 18.1142 29.2586 17.8827L28.5485 16.2126L27.3868 17.6373C26.8663 18.3165 26.6319 19.1723 26.7337 20.0219C26.7554 20.1435 26.7846 20.2635 26.8214 20.3814C26.5736 20.3007 26.3148 20.2593 26.0542 20.2586C25.7253 20.2611 25.4002 20.3303 25.0988 20.4622C24.7974 20.594 24.5259 20.7858 24.3008 21.0258C23.9681 21.4081 23.5258 21.679 23.034 21.8016C22.5088 21.8794 21.9778 21.9102 21.4471 21.8937L22.1003 23.3447C22.3024 23.7538 22.6145 24.0986 23.0017 24.3401C23.3889 24.5817 23.8357 24.7106 24.2921 24.7123C24.3622 24.7123 24.4279 24.7123 24.4981 24.7123C23.9291 25.1268 23.2507 25.3646 22.5474 25.3962L21 25.3479L21.469 26.8208C21.6373 27.3873 21.967 27.8926 22.4177 28.2748C22.8684 28.657 23.4207 28.8997 24.0071 28.9732C23.9462 29.355 23.7951 29.7168 23.5664 30.0286C23.3377 30.3404 23.038 30.5932 22.6921 30.766L21.5392 31.2395L22.1704 32.3353C22.4255 32.7329 22.7772 33.0593 23.1927 33.2839C23.6083 33.5085 24.074 33.6241 24.5463 33.6197C24.7968 33.6192 25.0465 33.5928 25.2915 33.5408C25.3478 33.816 25.418 34.0881 25.5019 34.3562C25.719 34.9316 25.7344 35.5637 25.5458 36.149L24.9759 37.3414L26.2471 37.6745C26.5337 37.7471 26.8282 37.7839 27.1238 37.7841C27.3383 37.7819 27.5517 37.7539 27.7595 37.7008C27.909 37.6674 28.0556 37.622 28.1978 37.5649C28.3607 37.8585 28.5611 38.1296 28.794 38.3715C29.6093 39.2088 30.7666 39.634 32.2263 39.634H33.2696L31.1129 40.5107L32.7523 41.3041C33.4106 41.6304 34.0851 41.9231 34.7731 42.1808L34.5671 42.7419L35.1326 43.0005C36.071 43.3711 37.0657 43.5787 38.074 43.6142C38.074 43.6142 38.5123 43.6142 38.749 43.6142C38.9858 43.6142 39.4197 43.6142 39.4197 43.6142C40.4218 43.5783 41.4105 43.3723 42.3436 43.0049L42.909 42.7463L42.703 42.1852C43.3989 41.9177 44.0807 41.6149 44.7458 41.2778L46.3545 40.4975L44.2022 39.6208H45.2499C46.714 39.6208 47.88 39.1825 48.6866 38.3584C48.9197 38.1167 49.1201 37.8455 49.2827 37.5518C49.4251 37.6084 49.5717 37.6538 49.7211 37.6877C49.9252 37.735 50.1341 37.7585 50.3436 37.7578C50.6392 37.7571 50.9336 37.7203 51.2203 37.6482L52.5003 37.3107L51.9436 36.1403C51.7444 35.5481 51.7568 34.9052 51.9786 34.3211C52.0663 34.0537 52.1452 33.7819 52.2066 33.5145C52.4531 33.5665 52.7043 33.5929 52.9562 33.5934C53.4324 33.5969 53.9016 33.4778 54.3184 33.2475C54.7353 33.0172 55.0859 32.6834 55.3364 32.2784L55.9589 31.1956L54.806 30.7222C54.4597 30.5499 54.1596 30.2973 53.9308 29.9854C53.702 29.6735 53.5512 29.3114 53.491 28.9293C54.0762 28.8527 54.6269 28.6089 55.0771 28.2271C55.5273 27.8453 55.8578 27.3419 56.029 26.777L55.9852 26.8077Z" fill="white"/>
<path d="M38.7183 16.5063C37.4953 16.5063 36.5791 16.9096 36.3818 17.383L38.7183 18.3036L41.0591 17.3787C40.8618 16.9052 39.9457 16.502 38.7183 16.502" fill="white"/>
<path d="M38.7491 40.9314H38.7184C37.9586 40.9248 37.2022 40.8276 36.4653 40.6421L35.8604 42.2465C37.7334 42.7864 39.721 42.7864 41.594 42.2465L41.0023 40.6465C40.2653 40.8318 39.509 40.9289 38.7491 40.9358" fill="white"/>
<path d="M43.2245 39.3447C42.5828 39.6652 41.9157 39.9321 41.23 40.1425L41.7078 41.4576C42.4726 41.2569 43.2156 40.9808 43.9259 40.6335L42.9308 40.3047L43.2245 39.3447Z" fill="white"/>
<path d="M34.2297 39.3447L34.5234 40.3047L33.5283 40.6335C34.2374 40.9802 34.9789 41.2562 35.742 41.4576L36.2242 40.1425C35.5385 39.932 34.8714 39.6651 34.2297 39.3447Z" fill="white"/>
<path d="M38.7182 14.9767C39.5959 14.9676 40.4621 15.177 41.2387 15.5861C41.3135 15.3336 41.4043 15.0862 41.5105 14.8452L41.2475 14.8759L40.9713 14.9066L40.853 14.6567L40.5023 13.9159L39.8623 14.2491L39.6124 14.3762L39.4239 14.1921L38.7182 13.4863L38.0299 14.1921L37.8414 14.3718L37.5916 14.2447L36.9472 13.9115L36.6009 14.6524L36.4825 14.9022L36.2064 14.8715L35.9434 14.8408C36.0491 15.082 36.1398 15.3294 36.2151 15.5817C36.9871 15.1773 37.8468 14.9695 38.7182 14.9767Z" fill="white"/>
<path d="M52.7982 23.5594C52.9151 23.6003 53.0382 23.6211 53.162 23.6208C53.408 23.6186 53.6489 23.5503 53.8595 23.423C54.07 23.2958 54.2424 23.1143 54.3588 22.8975C53.5897 22.771 52.888 22.3823 52.373 21.7972C52.2509 21.6608 52.1017 21.5513 51.9349 21.4758C51.7681 21.4003 51.5873 21.3605 51.4042 21.3589C51.1178 21.3643 50.8385 21.4492 50.5977 21.6044C51.8382 22.2663 52.0925 23.3271 52.7894 23.5638" fill="white"/>
<path d="M24.2963 23.6208C24.4187 23.6211 24.5403 23.6003 24.6557 23.5594C25.3659 23.3227 25.6201 22.2444 26.8475 21.6C26.6067 21.4449 26.3274 21.3599 26.0409 21.3545C25.8571 21.3555 25.6755 21.395 25.5079 21.4705C25.3403 21.546 25.1904 21.6558 25.0678 21.7928C24.5539 22.377 23.854 22.7657 23.0864 22.8931C23.2027 23.1099 23.3752 23.2914 23.5857 23.4187C23.7963 23.5459 24.0371 23.6142 24.2831 23.6164" fill="white"/>
<path d="M53.1314 27.8686H53.184C54.4991 27.8686 54.9375 26.4746 54.9375 26.4746H54.9112C54.2259 26.4514 53.5539 26.279 52.9422 25.9693C52.3304 25.6597 51.7936 25.2203 51.3692 24.6817C50.4706 23.5376 49.7298 22.5338 48.2745 22.1393L48.1298 22.113L48.0991 21.9683C48.0597 21.7447 48.2131 21.5299 48.5375 21.3108C50.5495 19.9957 49.1818 18.3168 49.1818 18.3168C49.1818 18.3168 48.6076 19.6582 47.3232 19.6582H47.2268C47.0797 19.6555 46.9331 19.6408 46.7884 19.6143L46.5517 19.5705C46.6482 19.2351 46.6511 18.8796 46.5599 18.5427C46.4687 18.2057 46.287 17.9002 46.0345 17.6593C45.7821 17.4006 45.4799 17.1957 45.1461 17.0571C44.8123 16.9184 44.4539 16.8489 44.0925 16.8527C43.9633 16.8512 43.8342 16.8614 43.7068 16.8834C44.1451 17.462 44.4739 18.4264 43.961 19.0225C43.5227 19.5354 42.4355 19.5573 42.4355 20.3376C42.4355 20.662 42.738 21.0346 43.2772 21.3721C44.9035 22.3979 46.5166 23.7568 47.1917 25.576C48.029 27.8467 47.0865 29.3546 45.7364 30.2226C46.0292 30.4695 46.3898 30.6223 46.7709 30.6609C46.898 30.6609 47.0164 30.6609 47.1303 30.6609C47.8355 30.6897 48.5291 30.4745 49.0942 30.0516C48.9976 30.6474 48.745 31.207 48.3621 31.6735C48.0319 32.0573 47.6189 32.3613 47.1542 32.5625C46.6895 32.7637 46.1853 32.8569 45.6794 32.8352C45.6793 33.0402 45.723 33.2429 45.8077 33.4296C45.8924 33.6164 46.016 33.7829 46.1703 33.9179C46.5198 34.1525 46.919 34.3025 47.3364 34.3562C47.3364 34.3562 45.8109 34.6675 45.6399 36.9206C45.6441 37.4936 45.5055 38.0585 45.2366 38.5645H45.2629C48.8049 38.5645 48.7128 35.5267 48.7128 35.5267C48.8046 35.8058 48.9664 36.0568 49.1828 36.2555C49.3993 36.4543 49.663 36.5942 49.949 36.662C50.0694 36.6921 50.1931 36.7068 50.3172 36.7058C50.5181 36.7045 50.7183 36.6795 50.9134 36.6313C50.5932 35.7838 50.5932 34.8487 50.9134 34.0012C51.1627 33.2979 51.283 32.5554 51.2684 31.8094C51.4679 32.0536 51.7225 32.247 52.0114 32.3735C52.3002 32.5 52.615 32.5561 52.9298 32.5371C53.2094 32.5421 53.4858 32.4764 53.7334 32.3461C53.9809 32.2159 54.1915 32.0252 54.3457 31.7919C51.9829 30.8099 52.2197 27.6494 52.2197 27.6494C52.4913 27.8156 52.8042 27.9022 53.1227 27.8993L53.1314 27.8686ZM52.4125 31.2045C51.4525 30.731 50.8432 29.473 50.6986 29.0127C50.5539 31.485 49.3309 33.2121 47.9238 34.8779C47.4893 35.3781 47.1518 35.9549 46.9287 36.5787C47.0453 35.9497 47.3131 35.3585 47.709 34.856C49.024 33.2604 50.2997 31.2746 50.3917 28.982C50.4659 27.5889 50.1208 26.2056 49.401 25.0105C49.6254 25.6582 49.6588 26.3567 49.4971 27.0228C49.3355 27.6889 48.9856 28.2945 48.4892 28.7672C48.4892 28.7672 50.9046 25.8521 47.4854 22.8669C46.1265 21.7316 44.6361 21.0302 43.869 20.5305C46.635 21.4335 47.9895 20.4384 47.9895 20.4384C47.6118 20.7313 47.1759 20.9403 46.7111 21.0514C46.2462 21.1625 45.763 21.1732 45.2936 21.0828C45.4865 21.1749 45.6881 21.2757 45.9029 21.3897C48.235 22.6565 50.3347 24.7431 50.6898 27.6319V27.6099C51.2334 30.4461 52.4432 31.1738 52.4432 31.1738" fill="white"/>
<path d="M30.1133 34.33C30.5239 34.2823 30.9183 34.1413 31.2661 33.9179C31.4239 33.7854 31.5513 33.6206 31.6398 33.4345C31.7283 33.2485 31.7758 33.0456 31.779 32.8396C31.2725 32.8614 30.7676 32.7682 30.3022 32.567C29.8368 32.3658 29.423 32.0619 29.0919 31.6779C28.6932 31.2173 28.424 30.6591 28.3116 30.0604C28.8757 30.4853 29.57 30.7007 30.2755 30.6697C30.3938 30.6697 30.5122 30.6697 30.6393 30.6697C31.0219 30.6317 31.384 30.4789 31.6782 30.2314C30.3281 29.3546 29.3812 27.8598 30.2185 25.5848C30.8892 23.7656 32.5067 22.4023 34.133 21.3809C34.6722 21.0434 34.9746 20.6664 34.9746 20.3464C34.9746 19.5837 33.8919 19.5618 33.4492 19.0314C32.9363 18.4352 33.2563 17.4752 33.699 16.8922C33.5717 16.8702 33.4425 16.8599 33.3133 16.8615C32.9519 16.8577 32.5935 16.9272 32.2597 17.0659C31.9259 17.2045 31.6237 17.4094 31.3714 17.6681C31.1184 17.9087 30.9364 18.2143 30.8452 18.5513C30.754 18.8883 30.7571 19.2439 30.8541 19.5793L30.6174 19.6275C30.4726 19.6535 30.3261 19.6682 30.179 19.6714H30.087C28.7982 19.6714 28.2283 18.33 28.2283 18.33C28.2283 18.33 26.8826 19.9957 28.8946 21.3152C29.2409 21.5387 29.3944 21.7535 29.333 21.9727L29.3023 22.1174L29.1577 22.1437C27.7023 22.5382 26.9659 23.542 26.0629 24.6861C25.6398 25.2197 25.1059 25.6552 24.4982 25.9624C23.8905 26.2697 23.2234 26.4414 22.5429 26.4659H22.499C22.499 26.4659 22.9374 27.8598 24.2524 27.8598H24.3138C24.6323 27.8627 24.9452 27.7762 25.2168 27.61C25.2168 27.61 25.4492 30.7705 23.0864 31.7524C23.2409 31.9855 23.4516 32.1759 23.699 32.3062C23.9465 32.4364 24.2227 32.5023 24.5023 32.4977C24.8171 32.5167 25.1319 32.4606 25.4207 32.3341C25.7096 32.2076 25.9642 32.0142 26.1637 31.77C26.1494 32.516 26.2697 33.2584 26.5187 33.9618C26.8381 34.8094 26.8381 35.7443 26.5187 36.5919C26.7124 36.6398 26.911 36.6648 27.1105 36.6664C27.2346 36.6676 27.3584 36.6528 27.4788 36.6226C27.7647 36.5548 28.0285 36.4149 28.2449 36.2161C28.4613 36.0173 28.6231 35.7664 28.7149 35.4872C28.7149 35.4872 28.6229 38.525 32.1648 38.525H32.1911C31.9246 38.0184 31.7876 37.4537 31.7922 36.8812C31.6256 34.6281 30.0957 34.3168 30.0957 34.3168L30.1133 34.33ZM29.5259 34.8648C28.1056 33.199 26.8957 31.4719 26.7248 28.9777C26.5757 29.416 25.9708 30.6872 25.0108 31.1694C25.0108 31.1694 26.2163 30.4418 26.7642 27.6056V27.6275C27.1237 24.7387 29.219 22.6522 31.5555 21.3853C31.7703 21.267 31.9719 21.1705 32.1648 21.0785C31.6893 21.1747 31.1987 21.167 30.7266 21.0558C30.2544 20.9445 29.8119 20.7325 29.4294 20.4341C29.4294 20.4341 30.7796 21.4292 33.55 20.5261C32.796 21.0303 31.31 21.7316 29.9511 22.867C26.5494 25.8522 28.9823 28.7672 28.9823 28.7672C28.486 28.2945 28.1361 27.689 27.9744 27.0229C27.8127 26.3568 27.8461 25.6582 28.0705 25.0105C27.3495 26.2051 27.0043 27.5888 27.0798 28.982C27.1719 31.279 28.4344 33.2604 29.7582 34.856C30.1557 35.3581 30.425 35.9493 30.5429 36.5787C30.3173 35.9551 29.9785 35.3785 29.5434 34.8779" fill="white"/>
<path d="M36.0884 23.2221C36.1453 23.2835 36.2023 23.3536 36.2593 23.4194L36.2988 23.4676L36.4522 23.678L36.4873 23.7262C36.5443 23.8139 36.6012 23.9103 36.6582 24.0024C36.8537 24.3936 37.1452 24.7287 37.5056 24.9763C37.8659 25.224 38.2833 25.376 38.7185 25.4183C39.1525 25.3758 39.5687 25.224 39.9282 24.9772C40.2877 24.7304 40.5788 24.3965 40.7744 24.0068C40.8314 23.9103 40.8884 23.8139 40.9497 23.7262L40.976 23.6868C41.0286 23.6123 41.0812 23.5377 41.1338 23.4676L41.1689 23.4238C41.2259 23.3536 41.2829 23.2835 41.3443 23.2221L41.3706 23.1958C41.6371 22.9159 41.9751 22.7143 42.3481 22.6128L42.1727 22.5208L41.4538 22.0824L40.7174 21.644L38.7185 22.7399L36.7459 21.666L36.0095 22.1043L35.2906 22.5427L35.1064 22.6479C35.4767 22.7374 35.8159 22.9252 36.0884 23.1914L36.119 23.2221H36.0884ZM37.9382 23.1345H39.5952V23.7087C39.5193 23.6353 39.4279 23.5799 39.3278 23.5465C39.2277 23.5131 39.1213 23.5027 39.0166 23.5158V24.3399C39.0146 24.5443 39.0628 24.7459 39.1569 24.9273H38.3503C38.4506 24.7492 38.5049 24.5488 38.5081 24.3443V23.5202C38.4034 23.507 38.297 23.5175 38.1969 23.5509C38.0967 23.5843 38.0053 23.6397 37.9295 23.7131L37.9382 23.1345Z" fill="white"/>
<path d="M38.5562 22.025V18.6715L36.4214 17.9482L36.9649 21.2052L38.5562 22.025ZM38.1178 19.4956V20.0348L38.0126 19.9866C37.8517 19.9324 37.7029 19.8475 37.5743 19.7367C37.4598 19.6644 37.3616 19.5689 37.2861 19.4564C37.2107 19.344 37.1595 19.217 37.1359 19.0836L38.1178 19.4956Z" fill="white"/>
<path d="M40.4716 21.2053L41.0327 17.957L38.8979 18.6803V22.0337L40.4716 21.2053ZM39.3582 19.4957L40.327 19.088C40.3034 19.2214 40.2522 19.3484 40.1767 19.4608C40.1013 19.5733 40.0031 19.6688 39.8886 19.7411C39.76 19.8519 39.6112 19.9368 39.4503 19.991L39.3495 20.0392L39.3582 19.4957Z" fill="white"/>
<path d="M35.5361 29.8019C35.7258 29.8635 35.9241 29.8946 36.1235 29.894V29.8326C36.1358 29.7937 36.146 29.7542 36.1542 29.7142C36.1858 29.5391 36.2033 29.3617 36.2068 29.1838C36.0873 29.1126 35.9901 29.0093 35.9263 28.8857C35.8997 28.8123 35.8506 28.7491 35.7861 28.705C35.7216 28.661 35.6449 28.6383 35.5668 28.6402C35.3727 28.6565 35.1858 28.7213 35.0233 28.8287C34.9965 29.021 35.0291 29.2169 35.1169 29.3901C35.2047 29.5633 35.3433 29.7054 35.5142 29.7975" fill="white"/>
<path d="M40.2571 28.022C39.8626 28.4603 39.0823 29.2055 39.0473 29.2406L38.999 29.2888L36.5486 29.2494C36.5465 29.452 36.52 29.6536 36.4697 29.8499V29.9288L39.3848 30.4548C39.6873 30.2444 40.5245 29.6307 40.8489 29.394C40.6488 29.0872 40.575 28.715 40.6429 28.3551C40.5024 28.2672 40.3779 28.156 40.2747 28.0264" fill="white"/>
<path d="M40.5899 25.0718C40.3543 25.3348 40.0658 25.5449 39.7432 25.6885C39.4206 25.832 39.0712 25.9057 38.7181 25.9047C38.6291 25.9093 38.5398 25.9093 38.4507 25.9047C38.3623 25.8975 38.2744 25.8843 38.1877 25.8652C38.1414 26.0656 38.1582 26.2754 38.236 26.4658C38.2985 26.5876 38.3852 26.6955 38.4907 26.7829C38.5962 26.8703 38.7183 26.9354 38.8497 26.9742L38.9505 27.0137V27.1233C38.9626 27.3465 39.0477 27.5596 39.1926 27.7299C39.3375 27.9001 39.5342 28.0181 39.7527 28.0658C39.8798 27.9342 39.9938 27.8159 40.0814 27.7195C40.0033 27.5665 39.9761 27.3926 40.0037 27.2231C40.0313 27.0536 40.1123 26.8973 40.2349 26.777C40.1994 27.0349 40.2412 27.2976 40.3552 27.5317C40.4691 27.7658 40.65 27.9608 40.8749 28.0921L40.9976 28.149L40.9625 28.2805C40.8826 28.5364 40.9051 28.8133 41.0253 29.0529C41.1455 29.2925 41.354 29.476 41.6069 29.5649L41.7691 29.6263L41.699 29.7841C41.5934 30.0216 41.5833 30.2906 41.6706 30.5354C41.7579 30.7802 41.936 30.9821 42.168 31.0992H43.9784V29.6526C43.7306 29.6203 43.5 29.5084 43.3213 29.3337C43.1426 29.1589 43.0256 28.9309 42.9877 28.6838C42.7141 28.6483 42.4653 28.5066 42.2951 28.2893C42.1979 28.1523 42.142 27.9902 42.1342 27.8223C42.1265 27.6545 42.1671 27.4879 42.2513 27.3425C42.2554 27.6357 42.3624 27.9181 42.5538 28.1403C42.7114 28.3044 42.9232 28.4057 43.1499 28.4252H43.2814V28.5611C43.2928 28.7534 43.3673 28.9367 43.4933 29.0825C43.6192 29.2283 43.7898 29.3285 43.9784 29.3677V26.4131C43.9956 25.9521 44.0951 25.4978 44.2721 25.0718H40.5899Z" fill="white"/>
<path d="M35.6937 26.4261L35.6411 28.3067L35.8559 28.3374L36.3776 26.5357L36.1145 25.979L35.6937 26.4261Z" fill="white"/>
<path d="M41.4539 35.049H41.5065C41.8309 35.141 41.9142 36.3114 42.484 36.4166C42.535 36.4219 42.5864 36.4219 42.6375 36.4166C42.7104 36.417 42.7823 36.3991 42.8466 36.3647C42.9109 36.3302 42.9655 36.2803 43.0057 36.2194C43.0057 36.2194 42.7207 35.781 42.5059 35.4654C42.221 35.0665 42.0018 34.5887 41.467 34.5887H41.4276C41.3273 34.5924 41.2301 34.6243 41.147 34.6807C40.9698 34.5647 40.7628 34.5023 40.5509 34.501C40.3072 34.5307 40.0666 34.5821 39.832 34.6544L38.6484 34.5361C38.4886 34.4981 38.3501 34.3989 38.2627 34.2599V34.2292C38.2627 34.1985 38.2627 34.1635 38.2627 34.1328C38.2703 33.8157 38.1699 33.5054 37.9779 33.2529C37.7859 33.0004 37.5138 32.8207 37.2062 32.7432C37.2062 32.7432 37.2369 32.5591 37.1668 32.489L36.9038 32.8046L36.027 32.3662L36.6407 33.0807L36.0884 33.6944C36.063 33.7189 36.0463 33.7509 36.0408 33.7857C36.0352 33.8205 36.0412 33.8562 36.0577 33.8873L36.2813 34.0846L36.5662 33.9136C36.5892 33.9073 36.6134 33.9073 36.6364 33.9136C36.7153 33.9136 36.8336 33.9136 36.9388 33.9136C37.044 33.9136 37.1536 33.8873 37.1668 33.7821C37.1317 34.1416 36.7985 34.764 37.0177 35.255L37.1799 35.6276L36.1322 35.4785L35.6501 36.307C35.5777 36.4162 35.5391 36.5443 35.5391 36.6753C35.5391 36.8062 35.5777 36.9343 35.6501 37.0435L35.8342 37.2714C35.9617 37.1428 36.0682 36.9948 36.1498 36.8331L36.0665 36.741C36.0361 36.7119 36.0172 36.6729 36.0132 36.6311C36.0092 36.5893 36.0203 36.5474 36.0446 36.5131L36.3514 36.0046L37.5876 36.2939L37.6533 36.1843C37.687 36.1256 37.7365 36.0776 37.7962 36.0458C37.8559 36.014 37.9234 35.9997 37.9909 36.0046C38.0463 36.0004 38.102 36.0004 38.1575 36.0046C38.4822 36.0702 38.8124 36.1054 39.1438 36.1098C39.3302 36.1283 39.5184 36.1096 39.6976 36.0547C39.8767 35.9997 40.0431 35.9097 40.187 35.7898C40.6254 36.4561 41.5416 36.5613 41.4714 36.8988L41.2303 38.0342C41.3881 38.0342 41.5416 38.0342 41.6687 37.9991L41.8966 36.8155C41.9229 36.6884 41.9448 36.5131 41.9448 36.5131C41.7738 36.3684 41.626 36.1984 41.5065 36.0089C41.3443 35.7021 41.432 35.5399 41.2829 35.1322C41.2975 35.1052 41.319 35.0824 41.3451 35.0663C41.3713 35.0501 41.4012 35.0411 41.432 35.0402L41.4539 35.049ZM36.8029 33.3744C36.7887 33.3739 36.7748 33.3705 36.7619 33.3644C36.7491 33.3583 36.7376 33.3497 36.7281 33.339C36.7187 33.3284 36.7116 33.3159 36.7071 33.3024C36.7026 33.2889 36.7009 33.2746 36.7021 33.2605C36.7027 33.2462 36.7061 33.2323 36.7122 33.2194C36.7182 33.2066 36.7269 33.1951 36.7375 33.1857C36.7482 33.1762 36.7606 33.1691 36.7741 33.1646C36.7876 33.1601 36.8019 33.1584 36.8161 33.1596C36.8446 33.1596 36.8719 33.171 36.892 33.1911C36.9122 33.2112 36.9235 33.2385 36.9235 33.267C36.9235 33.2955 36.9122 33.3228 36.892 33.343C36.8719 33.3631 36.8446 33.3744 36.8161 33.3744" fill="white"/>
<path d="M35.1369 36.1094C35.1369 36.1094 35.549 35.9384 35.5753 35.8201L35.5227 35.6842C35.4998 35.6465 35.4913 35.6019 35.4985 35.5585C35.5058 35.5151 35.5283 35.4757 35.5621 35.4475L36.0005 35.1406L36.7413 35.2809C36.6579 35.1682 36.6147 35.0309 36.6186 34.8907L35.9128 34.7417L35.2465 35.145C35.1306 35.2309 35.0469 35.3531 35.0088 35.4922C34.9706 35.6313 34.9803 35.7791 35.0361 35.9121L35.1369 36.1094Z" fill="white"/>
<path d="M40.3667 38.0517H40.8051C40.8051 38.0517 41.1864 36.9383 41.2083 36.9032C40.925 36.7711 40.6485 36.6248 40.3798 36.4648C40.4938 36.6358 40.7656 36.8243 40.713 36.9733L40.3667 38.0517Z" fill="white"/>
<path d="M43.9786 31.4541H33.458V35.3993C33.458 37.0168 34.6284 38.0294 36.3555 38.0294C37.7977 38.0294 38.1791 38.0864 38.7183 38.6168C38.8862 38.437 39.09 38.2945 39.3166 38.1985C39.5431 38.1026 39.7874 38.0555 40.0333 38.0601V37.9988L40.3797 36.9862L39.8186 36.3462C39.5928 36.4142 39.357 36.4424 39.1216 36.4294C38.7712 36.4251 38.4219 36.3884 38.0783 36.3199C38.0419 36.3157 38.0051 36.3157 37.9687 36.3199C37.9205 36.3199 37.9205 36.3199 37.9073 36.3462L37.8416 36.4557L37.7232 36.653L37.4953 36.6004L36.4871 36.3637L36.3468 36.5916V36.6179L36.4695 36.7538L36.4169 36.9292C36.3249 37.1439 36.1925 37.3388 36.0268 37.5034L35.7725 37.7752L35.5446 37.4859L35.3736 37.2711C35.2834 37.1527 35.2248 37.0134 35.2034 36.8661C35.1819 36.7189 35.1982 36.5686 35.2509 36.4294L34.966 36.5478L34.8388 36.2716L34.7512 36.0744C34.6639 35.8733 34.648 35.6484 34.7062 35.4371C34.7644 35.2258 34.8932 35.0407 35.0712 34.9127L35.8821 34.4744L36.6536 34.6278C36.6536 34.5533 36.7018 34.2903 36.7238 34.2201H36.6799L36.2416 34.3867L35.8032 34.0886C35.7817 34.0674 35.7647 34.0422 35.7531 34.0143C35.7414 33.9865 35.7354 33.9566 35.7354 33.9264C35.7354 33.8963 35.7414 33.8664 35.7531 33.8385C35.7647 33.8107 35.7817 33.7854 35.8032 33.7642L36.2197 33.133L35.1632 31.8179L36.7851 32.4842L36.8947 32.3527L37.1139 32.0897L37.3638 32.3264C37.429 32.3897 37.4746 32.4703 37.4953 32.5588C37.9336 32.7341 38.7402 33.247 38.8103 34.0799L38.5605 34.1807C38.5912 34.2223 38.6319 34.2555 38.6788 34.2771L39.8361 34.3911L39.9413 34.3604C40.1378 34.2868 40.3452 34.2468 40.555 34.242C40.7645 34.2435 40.9711 34.2914 41.1599 34.3823C41.2431 34.3523 41.3303 34.3346 41.4186 34.3297H41.4755C41.7276 34.3521 41.9691 34.441 42.1755 34.5874C42.3819 34.7337 42.5458 34.9322 42.6503 35.1626L42.7775 35.3467C42.9923 35.6536 43.2772 36.0963 43.286 36.1182L43.4131 36.3155L43.2553 36.4952C43.1836 36.5888 43.0914 36.6648 42.9857 36.7172C42.8801 36.7696 42.7639 36.7972 42.646 36.7977C42.576 36.8043 42.5055 36.8043 42.4355 36.7977C42.3605 36.7677 42.2897 36.7279 42.2251 36.6793C42.2251 36.7407 42.2251 36.8152 42.1901 36.8766L41.9884 37.933C42.5667 37.8185 43.085 37.5012 43.4499 37.0382C43.8148 36.5752 44.0023 35.9971 43.9786 35.4081V31.4541Z" fill="#FCE527"/>
<path d="M33.4583 31.1342H41.6512C41.4874 30.9623 41.3732 30.7493 41.3207 30.5178C41.2683 30.2863 41.2794 30.0448 41.3531 29.8192C41.2422 29.7661 41.1389 29.6982 41.0462 29.6175C40.7262 29.8542 39.7312 30.5644 39.4944 30.7441L39.4418 30.7791L36.2331 30.2005H36.1673C36.0637 30.2066 35.9597 30.2066 35.8561 30.2005C35.8411 30.2697 35.803 30.3318 35.748 30.3764C35.693 30.4211 35.6244 30.4456 35.5536 30.446H35.501C35.4182 30.432 35.3442 30.386 35.295 30.3179C35.2458 30.2499 35.2253 30.1652 35.238 30.0822V30.012C35.0358 29.8652 34.8808 29.6626 34.7921 29.429C34.7033 29.1954 34.6846 28.941 34.7383 28.697L34.7734 28.6575L34.8216 28.6224C34.8216 28.6224 34.8829 28.5786 34.9662 28.5348L34.7339 28.4997C34.6923 28.4922 34.6553 28.4687 34.6307 28.4344C34.6062 28.4 34.596 28.3574 34.6024 28.3156C34.6056 28.2947 34.6129 28.2747 34.6239 28.2568C34.635 28.2388 34.6495 28.2232 34.6667 28.211C34.6838 28.1987 34.7033 28.19 34.7239 28.1854C34.7444 28.1808 34.7657 28.1803 34.7865 28.1841L35.3432 28.2718L35.3958 26.3167L36.2243 25.44L36.7416 26.5271L36.1761 28.3901L36.667 28.469C36.7086 28.4765 36.7456 28.5 36.7702 28.5344C36.7948 28.5687 36.8049 28.6114 36.7986 28.6531C36.7923 28.6903 36.7729 28.724 36.744 28.7481C36.715 28.7722 36.6784 28.7852 36.6407 28.7846H36.6144L36.2155 28.7189V28.7496C36.2599 28.8278 36.3272 28.8906 36.4084 28.9293L38.8544 28.9687L39.4813 28.3507C39.2472 28.2697 39.0407 28.1244 38.8856 27.9313C38.7305 27.7382 38.6331 27.5052 38.6046 27.2592C38.3 27.1434 38.0509 26.9161 37.9076 26.6235C37.7887 26.3465 37.7685 26.037 37.8506 25.7468C37.4646 25.5957 37.1161 25.3623 36.8292 25.063H33.1777C33.3498 25.4931 33.4448 25.9501 33.4583 26.4131V31.1342Z" fill="#FCE527"/>
<path d="M36.838 33.1683C36.8238 33.1671 36.8095 33.1688 36.796 33.1733C36.7825 33.1778 36.7701 33.185 36.7594 33.1944C36.7488 33.2038 36.7401 33.2153 36.7341 33.2281C36.728 33.241 36.7245 33.2549 36.724 33.2692C36.7228 33.2833 36.7245 33.2976 36.729 33.3111C36.7334 33.3246 36.7406 33.3371 36.75 33.3477C36.7595 33.3584 36.771 33.367 36.7838 33.3731C36.7967 33.3792 36.8106 33.3826 36.8248 33.3831C36.8533 33.3831 36.8806 33.3718 36.9008 33.3517C36.9209 33.3315 36.9322 33.3042 36.9322 33.2757C36.9322 33.2473 36.9209 33.2199 36.9008 33.1998C36.8806 33.1797 36.8533 33.1683 36.8248 33.1683" fill="#222220"/>
<path d="M43.9784 40.3443L43.3735 40.112L43.5401 39.4851L43.7242 38.8013C42.8973 39.2249 42.0311 39.567 41.1379 39.8226C40.6995 39.9454 40.3839 40.0024 40.3839 40.0024V40.467C39.8461 40.5544 39.3024 40.6013 38.7576 40.6073H38.7181C38.1733 40.6014 37.6297 40.5545 37.0918 40.467V40.0024C37.0918 40.0024 36.7675 39.9454 36.3379 39.8226C35.4446 39.5671 34.5784 39.2251 33.7516 38.8013L33.9313 39.4851L34.1023 40.112L33.4929 40.3443L32.8179 40.5941C33.7255 41.0716 34.673 41.4691 35.6497 41.7821L35.4173 42.4133C36.4704 42.8149 37.5914 43.0085 38.7181 42.9832H38.7444C39.8756 43.0103 41.0013 42.8167 42.0584 42.4133L41.8261 41.7821C42.7998 41.4708 43.7445 41.0747 44.6491 40.5985L43.9784 40.3443ZM33.5324 40.638L34.5275 40.3092L34.2338 39.3492C34.8755 39.6697 35.5426 39.9365 36.2283 40.147L35.7461 41.4621C34.983 41.2605 34.2415 40.9845 33.5324 40.638ZM38.7181 42.6544C37.7517 42.644 36.7908 42.507 35.8601 42.2468L36.4518 40.6467C37.1932 40.8317 37.9541 40.9274 38.7181 40.9317H38.7664C39.5262 40.9246 40.2825 40.8275 41.0195 40.6424L41.5938 42.2468C40.66 42.5064 39.6961 42.642 38.7269 42.65L38.7181 42.6544ZM41.7077 41.4621L41.2255 40.147C41.9113 39.9366 42.5784 39.6697 43.2201 39.3492L42.9264 40.3092L43.9214 40.638C43.211 40.9851 42.468 41.2611 41.7033 41.4621" fill="#222220"/>
<path d="M38.7184 15.3665C39.7104 15.3366 40.6849 15.6322 41.4932 16.2081C41.6246 15.5582 41.8726 14.9374 42.2252 14.3758L41.2301 14.4898L40.6953 13.3851L39.6959 13.898L38.7184 12.9424L37.754 13.898L36.7589 13.3851L36.2416 14.4898L35.2466 14.3758C35.5933 14.9385 35.8354 15.5593 35.9611 16.2081C36.7648 15.6364 37.7324 15.3411 38.7184 15.3665ZM36.1978 14.8755L36.474 14.9062L36.5923 14.6564L36.9386 13.9155L37.583 14.2487L37.8329 14.3758L38.0301 14.1917L38.7184 13.4859L39.4241 14.1917L39.6214 14.389L39.8712 14.2618L40.5112 13.9287L40.8619 14.6695L40.9803 14.9194L41.2564 14.8887L41.5195 14.858C41.4133 15.0989 41.3225 15.3464 41.2477 15.5988C40.4683 15.1995 39.6051 14.9913 38.7293 14.9913C37.8536 14.9913 36.9904 15.1995 36.211 15.5988C36.1357 15.3465 36.0449 15.0991 35.9392 14.858L36.1978 14.8755Z" fill="#222220"/>
<path d="M53.184 28.298C54.7796 28.298 55.3144 26.6761 55.3363 26.606L55.5161 26.0361H54.9199C54.2972 26.015 53.6866 25.8581 53.1309 25.5765C52.5751 25.2948 52.0876 24.8951 51.7024 24.4054L51.584 24.2564C50.7687 23.2219 49.9971 22.2356 48.6119 21.7841C48.6669 21.7357 48.7255 21.6917 48.7873 21.6526C49.112 21.4684 49.3932 21.2165 49.6118 20.9139C49.8304 20.6113 49.9812 20.2652 50.0541 19.8991C50.1284 19.2306 49.9398 18.5593 49.5281 18.0274L49.0898 17.4794L48.8004 18.1369C48.8004 18.1764 48.3139 19.2197 47.3319 19.2197H47.2574H47.0645C47.0893 18.8776 47.0394 18.5342 46.9183 18.2132C46.7972 17.8923 46.6078 17.6015 46.3632 17.3611C46.0703 17.0623 45.7203 16.8256 45.3339 16.6652C44.9475 16.5047 44.5328 16.4239 44.1144 16.4274C43.9574 16.4267 43.8005 16.4384 43.6454 16.4624L42.9747 16.5939L43.3867 17.1375C43.7111 17.5758 44.0048 18.3342 43.6585 18.7375C43.4926 18.8819 43.3027 18.9961 43.0974 19.075C42.6591 19.2811 42.0278 19.5748 42.0278 20.3112C42.0278 20.789 42.4004 21.2887 43.0711 21.7095C45.0569 22.9589 46.2799 24.2608 46.8103 25.6986C47.63 27.8904 46.5604 29.1748 45.5215 29.8367L45.0569 30.1348L45.4645 30.5074C45.8282 30.8172 46.2779 31.0084 46.7533 31.0553C46.8936 31.0553 47.0251 31.0553 47.1522 31.0553C47.5591 31.0569 47.9639 30.9978 48.3533 30.88C48.2563 31.0496 48.1432 31.2096 48.0158 31.3578C47.7242 31.6969 47.3589 31.9648 46.9479 32.1411C46.5368 32.3174 46.0909 32.3973 45.6443 32.3748H45.2541L45.2234 32.7649C45.2217 33.035 45.2794 33.3022 45.3922 33.5476C45.5051 33.793 45.6704 34.0107 45.8766 34.1852C45.9859 34.2811 46.1084 34.3608 46.2404 34.4219C45.5927 35.053 45.2222 35.9155 45.2103 36.8197C45.2212 37.3313 45.1132 37.8385 44.8947 38.3013L44.4563 38.9589H45.2366C46.5224 38.9589 47.5073 38.6067 48.1911 37.9024C48.5461 37.5293 48.8101 37.0793 48.9626 36.5874C49.216 36.8009 49.5165 36.9511 49.8393 37.0257C49.9931 37.0613 50.1505 37.0789 50.3084 37.0783C50.5446 37.0776 50.7799 37.0497 51.0097 36.995L51.5051 36.8635L51.2859 36.3989C51.0113 35.6578 51.0113 34.8429 51.2859 34.1019C51.4485 33.6177 51.5616 33.1184 51.6234 32.6115C52.0182 32.8127 52.456 32.915 52.8991 32.9096C53.2549 32.9149 53.6064 32.8301 53.9206 32.663C54.2349 32.4959 54.5018 32.252 54.6963 31.9539L54.9374 31.5156L54.4991 31.3315C53.0306 30.7222 52.7062 29.0871 52.6448 28.2016C52.7893 28.2309 52.9359 28.2485 53.0832 28.2542L53.184 28.298ZM54.3456 31.7611C54.1914 31.9944 53.9808 32.1851 53.7333 32.3153C53.4858 32.4456 53.2094 32.5113 52.9297 32.5063C52.615 32.5249 52.3004 32.4687 52.0116 32.3422C51.7228 32.2157 51.4681 32.0226 51.2684 31.7786C51.2814 32.5249 51.1596 33.2674 50.9089 33.9704C50.5888 34.8179 50.5888 35.753 50.9089 36.6005C50.7138 36.6487 50.5137 36.6738 50.3128 36.675C50.1887 36.6759 50.065 36.6612 49.9445 36.6312C49.6586 36.5634 49.3948 36.4235 49.1784 36.2247C48.962 36.0259 48.8002 35.775 48.7084 35.4959C48.7084 35.4959 48.8004 38.5337 45.2585 38.5337H45.2322C45.5009 38.0276 45.6395 37.4627 45.6355 36.8898C45.8021 34.6367 47.3276 34.3254 47.3276 34.3254C46.9157 34.2798 46.5198 34.1404 46.1703 33.9178C46.0125 33.7853 45.8851 33.6204 45.7966 33.4344C45.7081 33.2483 45.6607 33.0454 45.6574 32.8394C46.1673 32.8644 46.6762 32.7723 47.145 32.5701C47.6138 32.368 48.0301 32.0613 48.3621 31.6734C48.7632 31.2139 49.0342 30.6554 49.1467 30.0559C48.5827 30.4807 47.8884 30.6961 47.1829 30.6652C47.0689 30.6652 46.9462 30.6652 46.8234 30.6652C46.4423 30.6265 46.0818 30.4737 45.7889 30.2268C47.1391 29.3501 48.0815 27.8553 47.2443 25.5802C46.5736 23.7611 44.956 22.3978 43.3297 21.3764C42.7906 21.0389 42.4881 20.6619 42.4881 20.3419C42.4881 19.5791 43.5708 19.5572 44.0136 19.0268C44.5265 18.4306 44.2065 17.4706 43.7593 16.8876C43.8867 16.8657 44.0158 16.8554 44.1451 16.8569C44.5065 16.8532 44.8649 16.9227 45.1987 17.0613C45.5324 17.2 45.8346 17.4048 46.087 17.6635C46.3395 17.9045 46.5212 18.21 46.6124 18.5469C46.7036 18.8839 46.7008 19.2393 46.6043 19.5748L46.841 19.623C46.9857 19.6492 47.1323 19.6639 47.2793 19.6668H47.3758C48.6602 19.6668 49.2344 18.3254 49.2344 18.3254C49.2344 18.3254 50.5977 20.0043 48.59 21.3194C48.2437 21.543 48.0903 21.7578 48.1517 21.9769L48.1824 22.1216L48.327 22.1479C49.7824 22.5424 50.5188 23.5463 51.4218 24.6904C51.8422 25.2191 52.3713 25.6512 52.9734 25.9576C53.5754 26.2639 54.2362 26.4372 54.9111 26.4657H54.9374C54.9374 26.4657 54.4991 27.8597 53.184 27.8597H53.1226C52.8042 27.8626 52.4913 27.776 52.2196 27.6098C52.2196 27.6098 51.9873 30.7704 54.3456 31.7523" fill="#222220"/>
<path d="M50.3915 21.9769C50.8817 22.2562 51.3062 22.6374 51.6365 23.0947C51.8851 23.4811 52.2418 23.786 52.6622 23.9714C52.8219 24.0249 52.9892 24.0515 53.1576 24.0503C53.4859 24.0494 53.8077 23.9581 54.0876 23.7865C54.3675 23.6148 54.5947 23.3694 54.7444 23.0772L54.9987 22.5117L54.3806 22.4766C53.7177 22.3564 53.116 22.013 52.6754 21.5035C52.5128 21.3269 52.3157 21.1856 52.0962 21.0884C51.8768 20.9911 51.6398 20.9399 51.3998 20.938C51.0261 20.9444 50.6617 21.0553 50.3477 21.258L49.7822 21.6569L50.3915 21.9769ZM51.3998 21.3544C51.5829 21.356 51.7636 21.3958 51.9304 21.4713C52.0972 21.5468 52.2465 21.6563 52.3685 21.7928C52.8836 22.3778 53.5852 22.7666 54.3543 22.8931C54.2376 23.1095 54.0651 23.2908 53.8546 23.418C53.6442 23.5452 53.4035 23.6137 53.1576 23.6163C53.0337 23.6166 52.9107 23.5958 52.7937 23.555C52.088 23.3183 51.8337 22.2399 50.602 21.5955C50.8427 21.4402 51.1221 21.3552 51.4085 21.35" fill="#222220"/>
<path d="M50.6725 27.6099C50.313 24.7212 48.2177 22.6346 45.8856 21.3677C45.6709 21.2538 45.4692 21.1529 45.2763 21.0609C45.7524 21.1575 46.2438 21.15 46.7168 21.0387C47.1897 20.9275 47.6329 20.7152 48.0161 20.4165C48.0161 20.4165 46.6659 21.4116 43.8955 20.5086C44.6626 21.0039 46.1487 21.7053 47.5119 22.845C50.9092 25.8302 48.4807 28.7453 48.4807 28.7453C48.9771 28.2725 49.3269 27.667 49.4886 27.0009C49.6503 26.3348 49.6169 25.6362 49.3925 24.9886C50.112 26.1837 50.4571 27.567 50.3832 28.9601C50.2911 31.2571 49.0287 33.2384 47.7004 34.834C47.3045 35.3365 47.0367 35.9278 46.9202 36.5568C47.1483 35.94 47.4887 35.3708 47.924 34.8779C49.3443 33.2121 50.5541 31.485 50.7207 28.9907C50.8698 29.4291 51.4747 30.7003 52.4347 31.1825C52.4347 31.1825 51.2248 30.4549 50.6813 27.6187" fill="#222220"/>
<path d="M32.5813 38.3014C32.3686 37.8532 32.2564 37.364 32.2525 36.868C32.2406 35.9638 31.8701 35.1013 31.2224 34.4702C31.3545 34.4094 31.4771 34.3297 31.5862 34.2335C31.7928 34.0594 31.9585 33.8418 32.0714 33.5963C32.1843 33.3508 32.2416 33.0834 32.2393 32.8132L32.213 32.4231H31.8185C31.3726 32.4449 30.9275 32.3647 30.5173 32.1884C30.1071 32.0122 29.7425 31.7446 29.4514 31.4061C29.3099 31.2536 29.1836 31.0877 29.0744 30.9107C29.4624 31.0284 29.8657 31.0875 30.2711 31.0861C30.3982 31.0861 30.5297 31.0861 30.67 31.0861C31.1458 31.0374 31.5954 30.8447 31.9588 30.5337L32.3665 30.1611L31.9018 29.8631C30.8629 29.1968 29.7977 27.9343 30.613 25.725C31.1434 24.2872 32.3665 22.9852 34.3522 21.7359C35.0229 21.2976 35.3911 20.811 35.3911 20.3376C35.3911 19.6011 34.7774 19.3118 34.3259 19.1014C34.1205 19.0227 33.9306 18.9085 33.7648 18.7639C33.4141 18.3606 33.7078 17.5847 34.0322 17.1639L34.4487 16.6203L33.7736 16.4888C33.6199 16.4649 33.4645 16.4531 33.3089 16.4537C32.8905 16.45 32.4757 16.5308 32.0893 16.6912C31.7029 16.8516 31.3528 17.0885 31.0602 17.3874C30.8242 17.6283 30.6424 17.9167 30.5267 18.2335C30.4111 18.5502 30.3643 18.8879 30.3895 19.2241H30.1966H30.1265C29.1402 19.2241 28.6755 18.1809 28.658 18.1414L28.3818 17.4883L27.9434 18.0362C27.5346 18.5694 27.3476 19.2401 27.4218 19.908C27.4944 20.2742 27.6452 20.6204 27.8638 20.923C28.0824 21.2256 28.3638 21.4775 28.6887 21.6614C28.7507 21.7003 28.8093 21.7443 28.864 21.7929C27.4788 22.2313 26.7073 23.2307 25.8919 24.2652L25.7736 24.4143C25.3879 24.9045 24.8997 25.3045 24.3431 25.5862C23.7865 25.8679 23.1751 26.0245 22.5517 26.045L21.9292 26.0274L22.1133 26.5973C22.1133 26.6674 22.6656 28.2894 24.2613 28.2894H24.3402C24.4874 28.2834 24.634 28.2658 24.7785 28.2368C24.7128 29.1135 24.3884 30.7573 22.9199 31.3666L22.4815 31.5507L22.7226 31.9891C22.9171 32.2886 23.1844 32.5337 23.4995 32.7017C23.8146 32.8696 24.1672 32.9547 24.5243 32.9491C24.9658 32.9536 25.402 32.8514 25.7955 32.651C25.8571 33.158 25.9702 33.6574 26.133 34.1414C26.4076 34.8825 26.4076 35.6974 26.133 36.4384L25.9139 36.9031L26.4136 37.0346C26.6434 37.0892 26.8787 37.1172 27.115 37.1178C27.2728 37.1186 27.4302 37.101 27.584 37.0652C27.907 36.991 28.2075 36.8407 28.4607 36.6269C28.6119 37.1184 28.8744 37.5684 29.2278 37.942C29.9117 38.6463 30.8965 38.9984 32.1824 38.9984H32.9626L32.5813 38.3014ZM32.2043 38.5425C28.6624 38.5425 28.7544 35.5047 28.7544 35.5047C28.6626 35.7838 28.5008 36.0348 28.2844 36.2336C28.068 36.4323 27.8042 36.5723 27.5182 36.64C27.3979 36.6703 27.2741 36.685 27.15 36.6839C26.9505 36.6824 26.7519 36.6574 26.5582 36.6094C26.8776 35.7617 26.8776 34.8269 26.5582 33.9792C26.3092 33.2759 26.1889 32.5334 26.2032 31.7874C26.0037 32.0317 25.7491 32.225 25.4602 32.3515C25.1714 32.4781 24.8566 32.5341 24.5418 32.5151C24.2622 32.5197 23.986 32.4539 23.7385 32.3236C23.4911 32.1934 23.2804 32.003 23.1259 31.7699C25.4843 30.788 25.2563 27.6274 25.2563 27.6274C24.9846 27.7936 24.6718 27.8802 24.3533 27.8773H24.2525C22.9374 27.8773 22.4991 26.4833 22.4991 26.4833H22.5254C23.2099 26.4598 23.8811 26.2872 24.4921 25.9776C25.1031 25.6679 25.6392 25.2286 26.0629 24.6905C26.9615 23.5463 27.7024 22.5425 29.1577 22.148L29.3024 22.1217L29.333 21.977C29.3725 21.7535 29.2191 21.5387 28.8947 21.3195C26.887 20.0044 28.2503 18.3255 28.2503 18.3255C28.2503 18.3255 28.8202 19.6669 30.1089 19.6669H30.201C30.348 19.6637 30.4946 19.6491 30.6393 19.6231L30.876 19.5748C30.779 19.2394 30.776 18.8838 30.8672 18.5468C30.9584 18.2098 31.1404 17.9043 31.3933 17.6636C31.6457 17.4049 31.9479 17.2 32.2817 17.0614C32.6154 16.9228 32.9738 16.8533 33.3352 16.857C33.4645 16.8554 33.5936 16.8657 33.721 16.8877C33.2826 17.4663 32.9582 18.4307 33.4711 19.0269C33.9095 19.5398 34.9966 19.5617 34.9966 20.342C34.9966 20.6663 34.6941 21.0389 34.155 21.3765C32.5287 22.4022 30.9155 23.7611 30.2404 25.5803C29.4032 27.851 30.35 29.3589 31.7002 30.2269C31.406 30.4744 31.0438 30.6272 30.6613 30.6652C30.5341 30.6652 30.4158 30.6652 30.2974 30.6652C29.5919 30.6962 28.8976 30.4808 28.3336 30.0559C28.4459 30.6547 28.7152 31.2129 29.1139 31.6735C29.445 32.0574 29.8588 32.3614 30.3242 32.5625C30.7895 32.7637 31.2944 32.8569 31.801 32.8351C31.7957 33.0436 31.7451 33.2484 31.6528 33.4353C31.5604 33.6223 31.4285 33.787 31.2662 33.9178C30.9155 34.153 30.5147 34.3032 30.0958 34.3562C30.0958 34.3562 31.6213 34.6674 31.7922 36.9206C31.7876 37.493 31.9247 38.0577 32.1911 38.5644L32.2043 38.5425Z" fill="#222220"/>
<path d="M24.2962 24.0415C24.4645 24.0427 24.6319 24.0161 24.7915 23.9626C25.2121 23.7774 25.5688 23.4725 25.8173 23.0859C26.1476 22.6286 26.5721 22.2474 27.0622 21.9681L27.6759 21.6393L27.106 21.2404C26.7922 21.0375 26.4277 20.9266 26.054 20.9204C25.814 20.9223 25.5769 20.9735 25.3575 21.0708C25.1381 21.1681 24.941 21.3093 24.7784 21.4859C24.3377 21.9954 23.736 22.3389 23.0732 22.459L22.4551 22.5204L22.7093 23.0859C22.8596 23.3773 23.0871 23.6218 23.367 23.7927C23.6468 23.9635 23.9683 24.0542 24.2962 24.0547V24.0415ZM25.0808 21.8059C25.2034 21.6689 25.3533 21.5591 25.5209 21.4835C25.6886 21.408 25.8701 21.3685 26.054 21.3675C26.3466 21.3649 26.6339 21.4454 26.8825 21.5999C25.6419 22.2618 25.3877 23.3226 24.6907 23.5593C24.5753 23.6002 24.4537 23.621 24.3312 23.6207C24.0852 23.6185 23.8444 23.5502 23.6338 23.4229C23.4233 23.2957 23.2508 23.1142 23.1345 22.8974C23.9021 22.77 24.602 22.3813 25.1159 21.7971" fill="#222220"/>
<path d="M27.0798 28.982C27.0043 27.5888 27.3495 26.2051 28.0705 25.0105C27.8461 25.6582 27.8127 26.3568 27.9744 27.0229C28.1361 27.689 28.4859 28.2945 28.9823 28.7672C28.9823 28.7672 26.5494 25.8522 29.951 22.867C31.31 21.7316 32.796 21.0303 33.5631 20.5305C30.7971 21.4335 29.4426 20.4385 29.4426 20.4385C29.825 20.7368 30.2675 20.9489 30.7397 21.0602C31.2118 21.1714 31.7025 21.1791 32.1779 21.0829C31.985 21.1749 31.7834 21.2757 31.5686 21.3897C29.2321 22.6566 27.1368 24.7431 26.7773 27.6319V27.61C26.2338 30.4461 25.0239 31.1738 25.0239 31.1738C25.9839 30.7004 26.5889 29.4423 26.7379 28.982C26.9001 31.4763 28.1143 33.2034 29.539 34.8692C29.9742 35.3696 30.313 35.9463 30.5384 36.57C30.4206 35.9406 30.1513 35.3493 29.7538 34.8472C28.4387 33.2516 27.1675 31.2659 27.0754 28.9733" fill="#222220"/>
<path d="M37.9292 23.1387V23.7129C38.0051 23.6395 38.0965 23.5841 38.1966 23.5507C38.2967 23.5174 38.4031 23.5069 38.5078 23.52V24.3442C38.5046 24.5486 38.4504 24.749 38.35 24.9272H39.1566C39.0571 24.7487 39.0029 24.5485 38.9988 24.3442V23.52C39.1035 23.5069 39.2099 23.5174 39.31 23.5507C39.4102 23.5841 39.5015 23.6395 39.5774 23.7129V23.1387H37.9292Z" fill="#222220"/>
<path d="M37.5741 19.7415C37.7028 19.8523 37.8516 19.9372 38.0125 19.9914L38.1177 20.0396V19.4961L37.1489 19.0884C37.1725 19.2218 37.2237 19.3487 37.2992 19.4612C37.3747 19.5737 37.4728 19.6692 37.5873 19.7415" fill="#222220"/>
<path d="M39.88 19.7415C39.9947 19.6694 40.093 19.574 40.1685 19.4614C40.244 19.3489 40.295 19.2219 40.3184 19.0884L39.3496 19.4961V20.0352L39.4504 19.987C39.6116 19.9334 39.7606 19.8485 39.8888 19.7371" fill="#222220"/>
<path d="M41.629 17.5454C41.629 16.7257 40.2526 15.9893 38.7315 15.9893C37.2104 15.9893 35.8339 16.7257 35.8339 17.5454L35.8646 17.7471L36.4739 21.2539L35.8646 21.609L34.2734 22.5208C34.2734 22.5208 33.9183 22.7049 33.7517 22.8145C33.1512 23.2528 33.0241 23.8402 33.3704 24.0901C33.4123 23.8009 33.5593 23.5373 33.7833 23.3497C34.0073 23.1621 34.2926 23.0636 34.5846 23.0731C34.8334 23.0798 35.077 23.1453 35.2957 23.2641C35.5143 23.3829 35.7018 23.5518 35.8427 23.7569C35.9285 23.8629 36.0076 23.9742 36.0794 24.0901C36.1715 24.2391 36.2635 24.3706 36.3512 24.4977H32.3008C32.6423 25.0867 32.8419 25.747 32.8838 26.4265V35.4084C32.8838 37.6002 34.5583 38.626 36.3906 38.626C37.789 38.626 37.9775 38.5602 38.7534 39.3317C39.5205 38.5602 39.709 38.626 41.1117 38.626C42.9222 38.626 44.5967 37.5871 44.5967 35.4084V26.4134C44.6386 25.7339 44.8382 25.0735 45.1797 24.4846H41.0898C41.1819 24.3575 41.2739 24.226 41.3616 24.0769C41.4344 23.9617 41.5135 23.8505 41.5983 23.7438C41.7395 23.5389 41.927 23.3702 42.1456 23.2514C42.3642 23.1326 42.6077 23.067 42.8564 23.0599C43.1482 23.0514 43.433 23.1502 43.6568 23.3377C43.8806 23.5251 44.0278 23.7882 44.0706 24.0769C44.4213 23.8271 44.2942 23.2002 43.6893 22.8013C43.5402 22.6873 43.1764 22.5208 43.1764 22.5208L41.5983 21.6002L40.989 21.2451L41.5983 17.7383L41.629 17.5454ZM36.4213 17.9487L38.5561 18.672V22.0254L36.9649 21.2057L36.4213 17.9487ZM36.8597 25.072C37.1464 25.3714 37.495 25.6048 37.8811 25.7558C37.799 26.046 37.8191 26.3555 37.938 26.6325C38.081 26.9254 38.3303 27.1527 38.635 27.2682C38.6635 27.5142 38.761 27.7472 38.9161 27.9403C39.0712 28.1334 39.2776 28.2788 39.5117 28.3597L38.8717 28.9646L36.4257 28.9251C36.3445 28.8864 36.2772 28.8237 36.2328 28.7454V28.7147L36.6317 28.7805H36.658C36.6957 28.781 36.7323 28.768 36.7613 28.7439C36.7902 28.7198 36.8096 28.6861 36.8159 28.649C36.8222 28.6072 36.8121 28.5646 36.7875 28.5302C36.7629 28.4958 36.7259 28.4724 36.6843 28.4649L36.1934 28.386L36.7369 26.5054L36.2197 25.4183L35.3912 26.295L35.3386 28.2501L34.7731 28.1624C34.7524 28.1586 34.7311 28.1591 34.7105 28.1637C34.6899 28.1683 34.6704 28.177 34.6533 28.1893C34.6361 28.2015 34.6216 28.2171 34.6105 28.2351C34.5995 28.2531 34.5922 28.2731 34.589 28.2939C34.5826 28.3357 34.5928 28.3783 34.6174 28.4127C34.6419 28.4471 34.6789 28.4705 34.7205 28.478L34.9528 28.5131C34.8695 28.5613 34.8126 28.5964 34.8082 28.6051L34.7731 28.6577V28.7147C34.7195 28.9588 34.7381 29.2132 34.8269 29.4468C34.9157 29.6804 35.0706 29.883 35.2728 30.0298V30.0999C35.2602 30.183 35.2806 30.2677 35.3298 30.3357C35.379 30.4038 35.453 30.4498 35.5358 30.4638H35.5885C35.6593 30.4634 35.7278 30.4388 35.7828 30.3942C35.8378 30.3496 35.876 30.2875 35.8909 30.2183C35.9946 30.2244 36.0985 30.2244 36.2022 30.2183H36.2679L39.4767 30.7969L39.5293 30.7619C39.7835 30.5821 40.7611 29.8851 41.0811 29.6353C41.1738 29.716 41.277 29.7838 41.3879 29.8369C41.3143 30.0626 41.3031 30.304 41.3556 30.5356C41.408 30.7671 41.5222 30.9801 41.686 31.152H33.458V26.4134C33.4398 25.9524 33.3404 25.4983 33.1643 25.072H36.8597ZM40.8049 29.3898C40.4805 29.6309 39.6432 30.2402 39.3408 30.4506L36.4257 29.9246V29.8457C36.4759 29.6494 36.5024 29.4478 36.5046 29.2451L38.955 29.2846L39.0032 29.2364C39.0383 29.2013 39.8186 28.4473 40.2131 28.0177C40.3165 28.1472 40.441 28.2584 40.5813 28.3465C40.5135 28.7064 40.5873 29.0786 40.7874 29.3854L40.8049 29.3898ZM35.9479 28.8857C36.0118 29.0093 36.1089 29.1126 36.2285 29.1838C36.2248 29.3617 36.2072 29.539 36.1758 29.7142C36.1758 29.7536 36.1758 29.7931 36.1452 29.8325V29.8939C35.9457 29.8946 35.7474 29.8635 35.5578 29.8019C35.3869 29.7098 35.2482 29.5676 35.1604 29.3944C35.0727 29.2213 35.04 29.0254 35.0668 28.8331C35.2241 28.7337 35.403 28.6736 35.5885 28.6577C35.6659 28.6561 35.742 28.6789 35.8057 28.723C35.8695 28.7671 35.9177 28.8301 35.9435 28.9032L35.9479 28.8857ZM35.6498 28.3027L35.698 26.4221L36.1364 25.9838L36.3994 26.5361L35.8778 28.3377L35.6498 28.3027ZM40.8049 38.043H40.3665L40.7128 36.9865C40.7654 36.8375 40.4937 36.6446 40.3797 36.4736C40.6482 36.6338 40.9247 36.7801 41.2082 36.912C41.2082 36.9471 40.8049 38.0605 40.8049 38.0605V38.043ZM41.8964 36.8331L41.6685 38.0167C41.5238 38.0167 41.3704 38.0473 41.2301 38.0517L41.4712 36.9164C41.5413 36.5788 40.6339 36.478 40.1868 35.8073C40.043 35.9275 39.8766 36.0176 39.6975 36.0726C39.5183 36.1275 39.33 36.1462 39.1435 36.1273C38.8122 36.1229 38.482 36.0877 38.1572 36.0221C38.1018 36.0177 38.0461 36.0177 37.9906 36.0221C37.9232 36.0173 37.8557 36.0316 37.796 36.0634C37.7363 36.0952 37.6868 36.1432 37.6531 36.2019L37.5874 36.3114L36.3512 36.0221L36.0443 36.5306C36.0209 36.5652 36.0103 36.6069 36.0143 36.6485C36.0183 36.6901 36.0367 36.729 36.0663 36.7586L36.1495 36.8506C36.068 37.0124 35.9615 37.1603 35.8339 37.289L35.6498 37.0435C35.5774 36.9343 35.5388 36.8063 35.5388 36.6753C35.5388 36.5443 35.5774 36.4162 35.6498 36.3071L36.1408 35.4786L37.1885 35.6276L37.0263 35.255C36.8071 34.764 37.1402 34.1416 37.1753 33.7821C37.1753 33.8917 37.0613 33.9136 36.9474 33.9136C36.8334 33.9136 36.7238 33.9136 36.6449 33.9136C36.622 33.9071 36.5977 33.9071 36.5748 33.9136L36.2898 34.0846L36.0882 33.8873C36.0716 33.8562 36.0657 33.8206 36.0712 33.7858C36.0768 33.751 36.0935 33.7189 36.1189 33.6945L36.6361 33.1114L36.0224 32.3969L36.8991 32.8353L37.1621 32.5197C37.2323 32.5898 37.2016 32.7739 37.2016 32.7739C37.5092 32.8514 37.7813 33.0311 37.9733 33.2836C38.1652 33.5361 38.2657 33.8464 38.258 34.1635C38.258 34.1942 38.258 34.2249 38.258 34.2599V34.2906C38.3455 34.4297 38.484 34.5288 38.6438 34.5668L39.8274 34.6851C40.062 34.6128 40.3026 34.5615 40.5463 34.5317C40.7582 34.5327 40.9653 34.5952 41.1424 34.7114C41.2253 34.6548 41.3226 34.6229 41.423 34.6194H41.4624C41.9928 34.6194 42.2164 35.1016 42.5013 35.4961C42.7161 35.7986 43.0011 36.2501 43.0011 36.2501C42.9609 36.311 42.9063 36.3609 42.842 36.3954C42.7777 36.4298 42.7058 36.4477 42.6328 36.4473C42.5818 36.4525 42.5304 36.4525 42.4794 36.4473C41.9095 36.3421 41.8263 35.1717 41.5019 35.0797H41.4493C41.4185 35.0806 41.3886 35.0896 41.3624 35.1057C41.3363 35.1219 41.3148 35.1447 41.3002 35.1717C41.4493 35.5706 41.3616 35.7328 41.5238 36.0484C41.6433 36.2379 41.7911 36.4079 41.9622 36.5525C41.9622 36.5525 41.9402 36.7235 41.9139 36.855L41.8964 36.8331ZM35.5271 35.6977L35.5797 35.8336C35.5446 35.952 35.1413 36.123 35.1413 36.123L35.0537 35.9301C34.9978 35.7971 34.9882 35.6493 35.0264 35.5102C35.0645 35.3711 35.1482 35.2488 35.2641 35.163L35.9304 34.7597L36.6361 34.9087C36.6323 35.0488 36.6755 35.1862 36.7589 35.2988L36.018 35.1586L35.5797 35.4654C35.5459 35.4936 35.5233 35.533 35.5161 35.5765C35.5089 35.6199 35.5174 35.6645 35.5402 35.7021L35.5271 35.6977ZM42.0191 37.9377L42.2252 36.8769C42.2252 36.8156 42.2471 36.741 42.2559 36.6797C42.315 36.7051 42.3767 36.7242 42.44 36.7367C42.5099 36.7432 42.5804 36.7432 42.6504 36.7367C42.7683 36.7362 42.8845 36.7086 42.9902 36.6562C43.0958 36.6038 43.188 36.5278 43.2597 36.4342L43.4175 36.2545L43.2904 36.0572C43.2904 36.0572 42.9967 35.5925 42.7819 35.2857L42.6591 35.1016C42.5546 34.8712 42.3907 34.6727 42.1843 34.5263C41.9779 34.38 41.7364 34.2911 41.4843 34.2687H41.4274C41.339 34.2734 41.2519 34.2911 41.1687 34.3213C40.98 34.2302 40.7734 34.1823 40.5638 34.181C40.3541 34.1859 40.1466 34.2259 39.9501 34.2994L39.8449 34.3301L38.6876 34.2161C38.6403 34.1931 38.5996 34.1584 38.5693 34.1153L38.8191 34.0145C38.749 33.1816 37.9424 32.6687 37.5041 32.4934C37.4842 32.4033 37.4385 32.3211 37.3726 32.2567L37.1227 32.0199L36.9035 32.283L36.7939 32.4145L35.172 31.7482L36.2241 33.0632L35.8076 33.6945C35.7862 33.7157 35.7691 33.7409 35.7575 33.7688C35.7458 33.7966 35.7399 33.8265 35.7399 33.8567C35.7399 33.8868 35.7458 33.9167 35.7575 33.9445C35.7691 33.9724 35.7862 33.9976 35.8076 34.0188L36.246 34.3169L36.6843 34.1504H36.7282C36.7282 34.2161 36.68 34.4835 36.658 34.558L35.8865 34.4046L35.0756 34.843C34.8872 34.9759 34.753 35.1722 34.6975 35.396C34.642 35.6197 34.6688 35.856 34.7731 36.0616L34.8652 36.2588L34.9923 36.535L35.2772 36.4167C35.2246 36.5558 35.2082 36.7061 35.2297 36.8534C35.2512 37.0006 35.3098 37.14 35.4 37.2583L35.5709 37.4731L35.7989 37.7624L36.0531 37.4906C36.2192 37.3263 36.3517 37.1313 36.4432 36.9164L36.4959 36.741L36.3731 36.6051V36.5788L36.5134 36.3509L37.5216 36.5876L37.7495 36.6402L37.8723 36.4386L37.938 36.329C37.938 36.3071 37.938 36.3027 37.9994 36.3027H38.109C38.4527 36.3712 38.8019 36.4079 39.1523 36.4123C39.3877 36.4252 39.6235 36.397 39.8493 36.329L40.3797 36.9865L40.0334 38.0079V38.0693C39.7874 38.0646 39.5432 38.1118 39.3166 38.2077C39.09 38.3036 38.8862 38.4461 38.7183 38.626C38.1791 38.0912 37.8022 38.0386 36.3556 38.0386C34.6285 38.0386 33.458 37.026 33.458 35.4084V31.4632H43.9786V35.4084C44.0027 35.9962 43.8165 36.5733 43.4533 37.0361C43.0902 37.4989 42.5739 37.817 41.9972 37.9334L42.0191 37.9377ZM44.2723 25.072C44.095 25.498 43.9956 25.9523 43.9786 26.4134V29.3635C43.7921 29.3239 43.6236 29.2246 43.4986 29.0806C43.3736 28.9367 43.299 28.7559 43.286 28.5657V28.4298H43.1545C42.9278 28.4103 42.7159 28.309 42.5583 28.1449C42.3644 27.9221 42.2557 27.6379 42.2515 27.3427C42.1595 27.4929 42.1149 27.6673 42.1235 27.8433C42.1321 28.0192 42.1935 28.1884 42.2997 28.329C42.4699 28.5462 42.7186 28.6879 42.9923 28.7235C43.0299 28.9699 43.1463 29.1975 43.3241 29.3721C43.5019 29.5468 43.7316 29.6591 43.9786 29.6923V31.1388H42.1682C41.9362 31.0217 41.7581 30.8199 41.6708 30.5751C41.5835 30.3303 41.5936 30.0613 41.6991 29.8238L41.7693 29.666L41.6071 29.6046C41.3542 29.5157 41.1457 29.3321 41.0255 29.0925C40.9053 28.853 40.8828 28.5761 40.9627 28.3202L40.9978 28.1887L40.875 28.1317C40.6502 28.0005 40.4693 27.8055 40.3554 27.5714C40.2414 27.3373 40.1995 27.0746 40.235 26.8167C40.1124 26.9369 40.0315 27.0932 40.0039 27.2627C39.9763 27.4323 40.0035 27.6062 40.0816 27.7591C39.9939 27.8556 39.88 27.9783 39.7528 28.1054C39.5337 28.0576 39.3364 27.9389 39.1915 27.7678C39.0465 27.5967 38.9618 27.3826 38.9506 27.1586V27.0358L38.8498 26.9964C38.7166 26.9548 38.5934 26.8863 38.4878 26.795C38.3822 26.7038 38.2966 26.5918 38.2361 26.466C38.1513 26.2633 38.1358 26.0383 38.1923 25.826C38.2789 25.8453 38.3668 25.8585 38.4553 25.8654C38.5444 25.87 38.6336 25.87 38.7227 25.8654C39.0736 25.8646 39.4204 25.7901 39.7406 25.6466C40.0608 25.5031 40.3472 25.2939 40.5813 25.0325L44.2723 25.072ZM41.4449 22.0824L42.1638 22.5208L42.3435 22.626C41.9707 22.7276 41.6327 22.9292 41.366 23.209L41.3485 23.2221C41.2871 23.2879 41.2301 23.3536 41.1731 23.4238L41.138 23.4676C41.0825 23.5377 41.0299 23.6108 40.9802 23.6868L40.9539 23.7262C40.8926 23.8139 40.8356 23.9104 40.7786 24.0068C40.5826 24.3971 40.2908 24.7314 39.9305 24.9782C39.5701 25.2251 39.1531 25.3765 38.7183 25.4183C38.2851 25.3751 37.8698 25.223 37.5111 24.9762C37.1525 24.7294 36.862 24.396 36.6668 24.0068C36.6098 23.9104 36.5528 23.8183 36.4959 23.7306L36.4608 23.6824L36.3074 23.472L36.2679 23.4238C36.2109 23.3536 36.1539 23.2879 36.0969 23.2265L36.0882 23.1914C35.8211 22.9131 35.4831 22.7131 35.1106 22.6128L35.2948 22.5076L36.0137 22.0693L36.7501 21.6309L38.7183 22.7399L40.6909 21.666L41.4449 22.0824ZM40.4717 21.2057L38.898 22.0342V18.672L41.0328 17.9487L40.4717 21.2057ZM38.7183 18.3125L36.3819 17.3876C36.5791 16.9186 37.4997 16.5109 38.7183 16.5109C39.9369 16.5109 40.8575 16.9142 41.0591 17.3876L38.7183 18.3125Z" fill="#222220"/>
</g>
<defs>
<clipPath id="clip0">
<rect width="103.452" height="32" fill="white" transform="translate(21 12)"/>
</clipPath>
</defs>
</svg>
