<svg width="145" height="56" viewBox="0 0 145 56" fill="none" xmlns="http://www.w3.org/2000/svg">
<rect width="145" height="56" rx="8" fill="white"/>
<g clip-path="url(#clip0)">
<path d="M101.872 21.3662H96.0168C95.6724 21.3662 95.328 21.7108 95.1557 22.0554L92.7446 37.2185C92.7446 37.5631 92.9168 37.7354 93.2613 37.7354H96.3613C96.7057 37.7354 96.878 37.5631 96.878 37.2185L97.5669 32.9108C97.5669 32.5662 97.9113 32.2216 98.428 32.2216H100.322C104.284 32.2216 106.522 30.3262 107.039 26.5354C107.384 24.9847 107.039 23.6062 106.35 22.7447C105.317 21.8831 103.767 21.3662 101.872 21.3662ZM102.561 27.0524C102.217 29.1201 100.667 29.1201 99.1168 29.1201H98.0835L98.7724 25.157C98.7724 24.9847 98.9446 24.8124 99.2891 24.8124H99.6335C100.667 24.8124 101.7 24.8124 102.217 25.5016C102.561 25.6739 102.561 26.1908 102.561 27.0524Z" fill="#139AD6"/>
<path d="M59.6776 21.3662H53.822C53.4776 21.3662 53.1331 21.7108 52.9609 22.0554L50.5498 37.2185C50.5498 37.5631 50.722 37.7354 51.0665 37.7354H53.822C54.1665 37.7354 54.5109 37.3908 54.6831 37.0462L55.372 32.9108C55.372 32.5662 55.7165 32.2216 56.2331 32.2216H58.1276C62.0887 32.2216 64.3276 30.3262 64.8442 26.5354C65.1887 24.9847 64.8442 23.6062 64.1554 22.7447C63.122 21.8831 61.7442 21.3662 59.6776 21.3662ZM60.3665 27.0524C60.022 29.1201 58.472 29.1201 56.922 29.1201H56.0609L56.7498 25.157C56.7498 24.9847 56.922 24.8124 57.2665 24.8124H57.6109C58.6442 24.8124 59.6776 24.8124 60.1942 25.5016C60.3665 25.6739 60.5387 26.1908 60.3665 27.0524Z" fill="#263B80"/>
<path d="M77.4164 26.8798H74.6608C74.4886 26.8798 74.1441 27.0521 74.1441 27.2244L73.9719 28.0859L73.7997 27.7413C73.1108 26.8798 71.9052 26.5352 70.5275 26.5352C67.4275 26.5352 64.6719 28.9475 64.1553 32.2213C63.8108 33.9444 64.3275 35.4952 65.1886 36.529C66.0497 37.5629 67.2553 37.9075 68.8053 37.9075C71.3886 37.9075 72.7664 36.3567 72.7664 36.3567L72.5941 37.2182C72.5941 37.5628 72.7664 37.7352 73.1108 37.7352H75.6941C76.0386 37.7352 76.383 37.3905 76.5552 37.0459L78.1052 27.3967C77.933 27.2244 77.5886 26.8798 77.4164 26.8798ZM73.4552 32.3936C73.1108 33.9444 71.9052 35.1505 70.183 35.1505C69.3219 35.1505 68.633 34.8059 68.2886 34.4613C67.9441 33.9444 67.7719 33.2552 67.7719 32.3936C67.9441 30.8428 69.3219 29.6367 70.8719 29.6367C71.733 29.6367 72.2497 29.9813 72.7664 30.3259C73.283 30.8428 73.4552 31.7044 73.4552 32.3936Z" fill="#263B80"/>
<path d="M119.439 26.8798H116.683C116.511 26.8798 116.167 27.0521 116.167 27.2244L115.994 28.0859L115.822 27.7413C115.133 26.8798 113.928 26.5352 112.55 26.5352C109.45 26.5352 106.694 28.9475 106.178 32.2213C105.833 33.9444 106.35 35.4952 107.211 36.529C108.072 37.5629 109.278 37.9075 110.828 37.9075C113.411 37.9075 114.789 36.3567 114.789 36.3567L114.617 37.2182C114.617 37.5628 114.789 37.7352 115.133 37.7352H117.717C118.061 37.7352 118.405 37.3905 118.578 37.0459L120.128 27.3967C119.955 27.2244 119.783 26.8798 119.439 26.8798ZM115.478 32.3936C115.133 33.9444 113.928 35.1505 112.205 35.1505C111.344 35.1505 110.655 34.8059 110.311 34.4613C109.967 33.9444 109.794 33.2552 109.794 32.3936C109.967 30.8428 111.344 29.6367 112.894 29.6367C113.755 29.6367 114.272 29.9813 114.789 30.3259C115.478 30.8428 115.65 31.7044 115.478 32.3936Z" fill="#139AD6"/>
<path d="M92.3998 26.8804H89.472C89.1276 26.8804 88.9553 27.0527 88.7831 27.225L84.9942 33.0834L83.272 27.5696C83.0998 27.225 82.9276 27.0527 82.4109 27.0527H79.6553C79.3109 27.0527 79.1387 27.3973 79.1387 27.7419L82.2387 36.8742L79.3109 41.0096C79.1387 41.3542 79.3109 41.8711 79.6553 41.8711H82.4109C82.7553 41.8711 82.9276 41.6988 83.0998 41.5265L92.572 27.9142C93.0887 27.3973 92.7442 26.8804 92.3998 26.8804Z" fill="#263B80"/>
<path d="M122.711 21.8829L120.3 37.3906C120.3 37.7352 120.472 37.9075 120.816 37.9075H123.228C123.572 37.9075 123.916 37.5629 124.089 37.2183L126.5 22.0552C126.5 21.7106 126.328 21.5383 125.983 21.5383H123.228C123.055 21.366 122.883 21.5383 122.711 21.8829Z" fill="#139AD6"/>
<path d="M37.8056 16.1971C36.6 14.8186 34.3611 14.1294 31.2611 14.1294H22.65C22.1333 14.1294 21.6167 14.6463 21.4444 15.1632L18 37.7355C18 38.2525 18.3444 38.5971 18.6889 38.5971H24.0278L25.4056 30.154V30.4986C25.5778 29.9817 26.0944 29.4648 26.6111 29.4648H29.1944C34.1889 29.4648 37.9778 27.3971 39.1833 21.7109C39.1833 21.5386 39.1833 21.3663 39.1833 21.194C39.0111 21.194 39.0111 21.194 39.1833 21.194C39.3556 18.954 39.0111 17.5755 37.8056 16.1971Z" fill="#263B80"/>
<path d="M39.0112 21.1938C39.0112 21.3662 39.0112 21.5385 39.0112 21.7108C37.8057 27.5692 34.0168 29.4646 29.0223 29.4646H26.439C25.9223 29.4646 25.4057 29.9815 25.2335 30.4985L23.5112 41.0092C23.5112 41.3538 23.6835 41.6985 24.2001 41.6985H28.6779C29.1946 41.6985 29.7112 41.3538 29.7112 40.8369V40.6646L30.5723 35.3231V34.9785C30.5723 34.4615 31.089 34.1169 31.6057 34.1169H32.2946C36.6001 34.1169 40.0446 32.3938 40.9057 27.2246C41.2501 25.1569 41.0779 23.2615 40.0446 22.0554C39.8723 21.7108 39.5279 21.3662 39.0112 21.1938Z" fill="#139AD6"/>
<path d="M37.8058 20.6771C37.6335 20.6771 37.4613 20.5048 37.2891 20.5048C37.1169 20.5048 36.9447 20.5048 36.7724 20.3325C36.0835 20.1602 35.3947 20.1602 34.5335 20.1602H27.8169C27.6446 20.1602 27.4724 20.1602 27.3002 20.3325C26.9558 20.5048 26.7835 20.8494 26.7835 21.194L25.4058 30.154V30.4986C25.578 29.9817 26.0947 29.4648 26.6113 29.4648H29.1947C34.1891 29.4648 37.978 27.3971 39.1835 21.7109C39.1835 21.5386 39.1835 21.3663 39.3558 21.194C39.0113 21.0217 38.8391 20.8494 38.4947 20.8494C37.978 20.6771 37.978 20.6771 37.8058 20.6771Z" fill="#232C65"/>
</g>
<defs>
<clipPath id="clip0">
<rect width="108.5" height="28" fill="white" transform="translate(18 14)"/>
</clipPath>
</defs>
</svg>
