<svg width="145" height="56" viewBox="0 0 145 56" fill="none" xmlns="http://www.w3.org/2000/svg">
<rect width="145" height="56" rx="8" fill="white"/>
<g clip-path="url(#clip0)">
<path d="M101.847 22.4292L105.569 19.6821H93.1069V36.1376H105.569V33.3905H96.6677V29.1891H104.275V26.4421H96.6677V22.4292H101.847Z" fill="#21A038"/>
<path d="M83.6927 26.0919H79.3766V22.4292H86.2823L90.0049 19.6821H75.8159V36.1376H83.2341C87.3883 36.1376 89.7891 34.2523 89.7891 30.9666C89.7891 27.8156 87.631 26.0919 83.6927 26.0919ZM83.0992 33.3905H79.3766V28.839H83.0992C85.3651 28.839 86.4172 29.5931 86.4172 31.1282C86.4172 32.6633 85.2842 33.3905 83.0992 33.3905Z" fill="#21A038"/>
<path d="M115.658 19.6821H108.887V36.1376H112.448V31.4783H115.685C120.001 31.4783 122.699 29.216 122.699 25.5802C122.699 21.9444 120.001 19.6821 115.658 19.6821ZM115.577 28.7313H112.421V22.4292H115.577C117.87 22.4292 119.111 23.5603 119.111 25.5802C119.111 27.6001 117.87 28.7313 115.577 28.7313Z" fill="#21A038"/>
<path d="M69.7195 32.5832C68.7753 33.0949 67.7233 33.3642 66.6443 33.3642C63.4343 33.3642 61.1144 31.075 61.1144 27.9239C61.1144 24.7729 63.4343 22.4837 66.6443 22.4837C67.8042 22.4567 68.9372 22.8338 69.8813 23.5071L72.444 21.6218L72.2821 21.4603C70.7985 20.1406 68.8023 19.4673 66.5364 19.4673C64.0817 19.4673 61.8427 20.3022 60.2242 21.8104C58.6057 23.3724 57.6885 25.5539 57.7425 27.8162C57.7155 30.1054 58.6057 32.3138 60.2242 33.9298C61.9236 35.5187 64.1896 36.4075 66.5094 36.3536C69.0721 36.3536 71.311 35.4649 72.8216 33.849L70.5287 32.1522L69.7195 32.5832Z" fill="#21A038"/>
<path d="M46.6015 19.5747C47.2489 20.4096 47.7884 21.3253 48.247 22.2948L35.7845 31.4786L30.5513 28.1929V24.2609L35.7575 27.5196L46.6015 19.5747Z" fill="#21A038"/>
<path d="M25.2372 27.9234C25.2372 27.7349 25.2372 27.5733 25.2641 27.3847L22.108 27.2231C22.108 27.4386 22.0811 27.681 22.0811 27.8964C22.0811 31.6669 23.6186 35.0873 26.1004 37.565L28.3393 35.3297C26.4241 33.4444 25.2372 30.832 25.2372 27.9234Z" fill="url(#paint0_linear)"/>
<path d="M35.7577 17.4201C35.9465 17.4201 36.1084 17.4201 36.2972 17.447L36.4591 14.296C36.2433 14.296 36.0005 14.269 35.7847 14.269C32.0082 14.269 28.5823 15.8042 26.1006 18.2819L28.3395 20.5173C30.2278 18.6051 32.8714 17.4201 35.7577 17.4201Z" fill="url(#paint1_linear)"/>
<path d="M35.7575 38.4268C35.5687 38.4268 35.4068 38.4268 35.218 38.3998L35.0562 41.5509C35.272 41.5509 35.5147 41.5778 35.7305 41.5778C39.5071 41.5778 42.9329 40.0427 45.4146 37.5649L43.1757 35.3296C41.2874 37.2687 38.6708 38.4268 35.7575 38.4268Z" fill="url(#paint2_linear)"/>
<path d="M41.6919 19.2515L44.3624 17.2855C42.0156 15.4003 39.0213 14.2422 35.7573 14.2422V17.3932C37.9693 17.4202 40.0194 18.0935 41.6919 19.2515Z" fill="url(#paint3_linear)"/>
<path d="M49.4611 27.9235C49.4611 27.0886 49.3802 26.2806 49.2453 25.4727L46.305 27.6541C46.305 27.7349 46.305 27.8427 46.305 27.9235C46.305 31.0206 44.9562 33.7946 42.8252 35.7068L44.9562 38.0499C47.7077 35.5721 49.4611 31.9363 49.4611 27.9235Z" fill="#21A038"/>
<path d="M35.7574 38.4273C32.6553 38.4273 29.8768 37.0808 27.9616 34.9531L25.6147 37.0808C28.1234 39.8547 31.7381 41.5784 35.7574 41.5784V38.4273Z" fill="url(#paint4_linear)"/>
<path d="M28.717 20.14L26.5859 17.7969C23.8075 20.3015 22.0811 23.9104 22.0811 27.9233H25.2372C25.2372 24.8531 26.5859 22.0521 28.717 20.14Z" fill="url(#paint5_linear)"/>
</g>
<defs>
<linearGradient id="paint0_linear" x1="25.7739" y1="37.1816" x2="22.5528" y2="27.8856" gradientUnits="userSpaceOnUse">
<stop offset="0.1444" stop-color="#F2E913"/>
<stop offset="0.3037" stop-color="#E7E518"/>
<stop offset="0.5823" stop-color="#CADB26"/>
<stop offset="0.891" stop-color="#A3CD39"/>
</linearGradient>
<linearGradient id="paint1_linear" x1="27.0002" y1="17.9166" x2="35.1852" y2="14.8024" gradientUnits="userSpaceOnUse">
<stop offset="0.0592" stop-color="#0FA8E0"/>
<stop offset="0.5385" stop-color="#0099F9"/>
<stop offset="0.9234" stop-color="#0291EB"/>
</linearGradient>
<linearGradient id="paint2_linear" x1="34.8708" y1="38.8899" x2="44.6261" y2="36.6886" gradientUnits="userSpaceOnUse">
<stop offset="0.1226" stop-color="#A3CD39"/>
<stop offset="0.2846" stop-color="#86C339"/>
<stop offset="0.8693" stop-color="#21A038"/>
</linearGradient>
<linearGradient id="paint3_linear" x1="35.1089" y1="16.2583" x2="43.2216" y2="18.7574" gradientUnits="userSpaceOnUse">
<stop offset="0.0566" stop-color="#0291EB"/>
<stop offset="0.79" stop-color="#0C8ACB"/>
</linearGradient>
<linearGradient id="paint4_linear" x1="26.4172" y1="37.5926" x2="35.1287" y2="40.8422" gradientUnits="userSpaceOnUse">
<stop offset="0.1324" stop-color="#F2E913"/>
<stop offset="0.2977" stop-color="#EBE716"/>
<stop offset="0.5306" stop-color="#D9E01F"/>
<stop offset="0.8023" stop-color="#BBD62D"/>
<stop offset="0.9829" stop-color="#A3CD39"/>
</linearGradient>
<linearGradient id="paint5_linear" x1="24.4825" y1="28.3039" x2="27.9657" y2="19.2574" gradientUnits="userSpaceOnUse">
<stop offset="0.0698" stop-color="#A3CD39"/>
<stop offset="0.2599" stop-color="#81C55F"/>
<stop offset="0.9216" stop-color="#0FA8E0"/>
</linearGradient>
<clipPath id="clip0">
<rect width="100.947" height="28" fill="white" transform="translate(22 14)"/>
</clipPath>
</defs>
</svg>
