<svg width="150" height="150" viewBox="0 0 150 150" fill="none" xmlns="http://www.w3.org/2000/svg">
<path d="M0.877953 75.0596L0.880693 75.0299V75C0.880693 62.5985 5.38511 52.6938 10.807 42.3006C23.1825 18.578 46.3665 0.65 74.7307 0.65C99.2983 0.65 119.761 13.7297 133.203 32.3801C142.037 44.6357 147.59 61.1594 148.582 75.0463C150.381 100.228 134.818 120.954 115.853 134.471C103.766 143.086 90.5613 149.35 74.7307 149.35C54.3514 149.35 35.0121 140.184 21.1997 126.292C7.38571 112.398 -0.850777 93.8288 0.877953 75.0596Z" stroke="#87E29B" stroke-width="1.3"/>
<path d="M1.87267 72.1022L1.88074 72.0515V72.0001C1.88074 65.8452 3.85925 59.4173 6.5419 53.1962C8.6068 48.4076 11.0683 43.7851 13.3361 39.5265C14.0074 38.2658 14.6618 37.0369 15.2839 35.8451C27.6864 19.0003 49.9688 3.17775 80.6593 5.1465C93.3562 7.14006 101.773 9.62438 108.932 13.3273C116.086 17.0275 122.022 21.9635 129.744 28.936C138.575 41.2062 144.081 54.661 144.081 68.5C144.081 93.2684 132.199 114.089 115.063 128.486C102.982 137.093 89.7829 143.35 73.9614 143.35C57.4665 143.35 41.274 140.492 28.6213 130.981C9.73239 116.782 -1.58174 93.8155 1.87267 72.1022Z" stroke="#87E29B" stroke-width="1.3"/>
<path d="M30.1214 130.98L30.1112 130.973L30.1008 130.966C17.3444 122.134 9.37525 103.884 7.87974 77.4633C6.98137 61.5926 11.8561 45.2637 19.8581 35.5842L19.8699 35.57L19.8808 35.5551C32.215 18.7802 54.3333 9.17148 82.1378 11.6442C93.3336 13.8854 100.88 16.3673 107.544 20.0079C114.207 23.648 120.023 28.4644 127.744 35.4361C128.022 35.8225 128.297 36.2032 128.568 36.5786C136.941 48.1829 141.653 54.7136 143.084 68.0692C144.427 80.6041 141.618 88.7823 137.125 100.263C133.156 110.407 125.704 119.951 117.332 126.986C105.186 135.643 94.3651 143.02 78.5879 143.02C62.0571 143.02 42.7581 140.48 30.1214 130.98Z" stroke="#87E29B" stroke-width="1.3"/>
<path d="M36.7005 131.327L36.6904 131.319L36.68 131.312C24.6708 122.489 17.1593 104.246 15.75 77.8255C14.9032 61.9524 19.4982 45.6246 27.0363 35.949L27.0474 35.9346L27.0578 35.9197C38.6728 19.1574 59.4886 9.56636 85.6499 12.034C96.1893 14.273 103.29 16.7517 109.56 20.3864C115.831 24.0219 121.307 28.8332 128.58 35.8014C128.843 36.1886 129.102 36.57 129.358 36.9461C137.242 48.5407 141.684 55.0727 143.032 68.4298C144.298 80.9682 141.649 89.1494 137.418 100.625C133.677 110.767 126.657 120.307 118.775 127.335C107.33 135.991 97.1518 143.35 82.3169 143.35C66.7512 143.35 48.5906 140.812 36.7005 131.327Z" stroke="#87E29B" stroke-width="1.3"/>
<path d="M28.5256 126.87L28.5155 126.862L28.5051 126.854C16.0214 117.694 8.21797 98.7547 6.75389 71.3391C5.8741 54.8649 10.6481 37.9172 18.4827 27.8722L18.4939 27.8578L18.5042 27.8429C30.5755 10.4417 52.2082 0.487027 79.3922 3.04868C90.3424 5.37225 97.7216 7.94495 104.238 11.7183C110.756 15.4924 116.446 20.4869 124.001 27.7182C124.275 28.121 124.545 28.5178 124.812 28.909C133.001 40.9391 137.618 47.7211 139.02 61.5864C140.336 74.6019 137.582 83.0948 133.186 95.0024C129.299 105.531 122.004 115.432 113.814 122.727C101.925 131.708 91.346 139.35 75.926 139.35C59.7559 139.35 40.8837 136.716 28.5256 126.87Z" stroke="#87E29B" stroke-width="1.3"/>
<path d="M59.6852 99C57.6769 99 56.778 97.2789 56.778 95.5734V54.4266C56.7779 52.7211 57.6767 51 59.6849 51C60.3351 51 61.0092 51.199 61.689 51.5916L97.3234 72.1643C98.5301 72.8612 99.222 73.8946 99.222 74.9998C99.222 76.1051 98.5301 77.1384 97.3235 77.8352L61.6889 98.4087C61.0092 98.801 60.3351 99 59.6852 99ZM59.6849 53.1401C59.0177 53.1401 58.918 53.946 58.918 54.4266V95.5734C58.918 96.0538 59.0177 96.8599 59.6851 96.8599C59.8702 96.8599 60.1827 96.807 60.6188 96.5552L96.2533 75.9819C96.7721 75.6824 97.0818 75.3152 97.0818 74.9998C97.0818 74.6845 96.7721 74.3173 96.2531 74.0177L60.6188 53.4449C60.1827 53.193 59.8702 53.1401 59.6849 53.1401Z" fill="#87E29B"/>
</svg>
