<svg width="480" height="320" viewBox="0 0 480 320" fill="none" xmlns="http://www.w3.org/2000/svg">
<g clip-path="url(#clip0)">
<path opacity="0.1" d="M279.786 63.8227C251.547 62.8172 224.652 53.6848 198.988 43.7129C173.324 33.741 147.869 22.6457 120.306 17.3515C102.579 13.946 82.303 13.4651 68.0222 22.9866C54.2738 32.1672 49.832 47.9709 47.4454 62.6511C45.6477 73.6941 44.5918 85.314 49.5135 95.6531C52.9343 102.831 58.9991 108.864 63.1965 115.741C77.8002 139.663 67.4768 169.163 51.6559 192.521C44.2384 203.481 35.6211 213.943 29.8922 225.598C24.1633 237.253 21.5149 250.626 26.5282 262.525C31.4935 274.329 43.3309 283.177 56.1543 289.407C82.1983 302.059 112.876 305.683 142.812 307.733C209.058 312.275 275.654 310.308 342.075 308.341C366.657 307.611 391.344 306.872 415.525 303.064C428.955 300.948 442.817 297.591 452.569 289.49C464.943 279.204 468.01 261.782 459.715 248.886C445.806 227.25 407.357 221.877 397.623 198.655C392.273 185.876 397.767 171.638 405.546 159.786C422.231 134.36 450.195 112.051 451.665 82.9839C452.678 63.0227 439.235 43.0309 418.448 33.5837C396.663 23.6818 366.448 24.9277 350.382 41.3172C333.811 58.1745 304.721 64.6665 279.786 63.8227Z" fill="#80CCFF"/>
<path d="M74.7242 320C92.3659 320 106.667 317.244 106.667 313.845C106.667 310.445 92.3659 307.689 74.7242 307.689C57.0826 307.689 42.7812 310.445 42.7812 313.845C42.7812 317.244 57.0826 320 74.7242 320Z" fill="#63C1FF"/>
<path d="M74.1877 316.109C76.2408 316.109 77.9051 313.925 77.9051 311.23C77.9051 308.536 76.2408 306.352 74.1877 306.352C72.1346 306.352 70.4702 308.536 70.4702 311.23C70.4702 313.925 72.1346 316.109 74.1877 316.109Z" fill="#3F3D56"/>
<path d="M74.1877 310.146C76.2408 310.146 77.9051 307.962 77.9051 305.267C77.9051 302.573 76.2408 300.389 74.1877 300.389C72.1346 300.389 70.4702 302.573 70.4702 305.267C70.4702 307.962 72.1346 310.146 74.1877 310.146Z" fill="#3F3D56"/>
<path d="M74.1877 304.183C76.2408 304.183 77.9051 301.999 77.9051 299.305C77.9051 296.61 76.2408 294.426 74.1877 294.426C72.1346 294.426 70.4702 296.61 70.4702 299.305C70.4702 301.999 72.1346 304.183 74.1877 304.183Z" fill="#3F3D56"/>
<path d="M74.1877 298.224C76.2408 298.224 77.9051 296.04 77.9051 293.346C77.9051 290.651 76.2408 288.467 74.1877 288.467C72.1346 288.467 70.4702 290.651 70.4702 293.346C70.4702 296.04 72.1346 298.224 74.1877 298.224Z" fill="#3F3D56"/>
<path d="M74.1877 292.262C76.2408 292.262 77.9051 290.077 77.9051 287.383C77.9051 284.688 76.2408 282.504 74.1877 282.504C72.1346 282.504 70.4702 284.688 70.4702 287.383C70.4702 290.077 72.1346 292.262 74.1877 292.262Z" fill="#3F3D56"/>
<path d="M74.1877 286.299C76.2408 286.299 77.9051 284.114 77.9051 281.42C77.9051 278.725 76.2408 276.541 74.1877 276.541C72.1346 276.541 70.4702 278.725 70.4702 281.42C70.4702 284.114 72.1346 286.299 74.1877 286.299Z" fill="#3F3D56"/>
<path d="M74.1877 280.336C76.2408 280.336 77.9051 278.151 77.9051 275.457C77.9051 272.762 76.2408 270.578 74.1877 270.578C72.1346 270.578 70.4702 272.762 70.4702 275.457C70.4702 278.151 72.1346 280.336 74.1877 280.336Z" fill="#3F3D56"/>
<path d="M88.1106 234.656C88.6201 234.009 89.0837 233.327 89.4981 232.615L79.7245 231.006L90.2922 231.084C91.3068 228.875 91.8603 226.48 91.9188 224.048C91.9773 221.617 91.5396 219.198 90.6325 216.942L76.4565 224.313L89.5461 214.695C88.3199 212.576 86.6717 210.733 84.7039 209.28C82.7361 207.827 80.4909 206.795 78.108 206.249C75.7252 205.702 73.2556 205.653 70.8529 206.104C68.4503 206.555 66.166 207.497 64.1422 208.871C62.1185 210.245 60.3985 212.021 59.0894 214.089C57.7804 216.158 56.9101 218.474 56.5329 220.894C56.1557 223.314 56.2795 225.786 56.8968 228.156C57.514 230.525 58.6114 232.743 60.1207 234.669C59.329 235.679 58.6473 236.771 58.0874 237.926L70.7756 244.527L57.2497 239.981C56.2981 242.793 56.0624 245.799 56.5637 248.726C57.0651 251.653 58.2877 254.408 60.1207 256.742C58.0534 259.375 56.7674 262.537 56.4095 265.868C56.0517 269.199 56.6365 272.563 58.0971 275.576C59.5577 278.59 61.8352 281.13 64.669 282.908C67.5029 284.685 70.7788 285.628 74.1222 285.628C77.4655 285.628 80.7414 284.685 83.5753 282.908C86.4092 281.13 88.6866 278.59 90.1472 275.576C91.6078 272.563 92.1926 269.199 91.8348 265.868C91.4769 262.537 90.1909 259.375 88.1237 256.742C90.594 253.596 91.937 249.709 91.937 245.706C91.937 241.702 90.594 237.816 88.1237 234.669L88.1106 234.656Z" fill="#63C1FF"/>
<path opacity="0.1" d="M56.3113 245.685C56.306 249.689 57.6497 253.577 60.1247 256.72C58.0575 259.352 56.7715 262.515 56.4136 265.846C56.0558 269.176 56.6406 272.541 58.1012 275.554C59.5618 278.567 61.8392 281.108 64.6731 282.886C67.507 284.663 70.7829 285.606 74.1262 285.606C77.4696 285.606 80.7455 284.663 83.5794 282.886C86.4132 281.108 88.6907 278.567 90.1513 275.554C91.6119 272.541 92.1967 269.176 91.8389 265.846C91.481 262.515 90.195 259.352 88.1277 256.72C90.5013 253.69 56.3113 243.688 56.3113 245.685Z" fill="black"/>
<path d="M229.483 239.565C229.753 243.062 231.097 246.682 233.924 248.745C236.752 250.809 241.25 250.769 243.41 247.998C244.135 246.957 244.669 245.795 244.985 244.566C246.804 238.804 248.096 232.5 246.102 226.795C241.604 226.502 236.39 224.382 233.012 228.106C230.285 231.14 229.168 235.521 229.483 239.565Z" fill="#3F3D56"/>
<path d="M250.365 204.317C249.767 209.401 248.75 214.463 248.855 219.583C248.894 221.559 249.104 223.517 249.108 225.502C249.116 230.655 247.761 235.719 245.181 240.178C244.91 240.702 244.546 241.173 244.108 241.568C243.074 242.407 241.516 242.337 240.355 241.695C239.222 240.988 238.3 239.986 237.69 238.796C234.439 233.218 234.347 226.437 233.06 220.112C232.074 215.272 230.346 210.581 229.722 205.685C229.317 202.533 229.378 199.32 228.732 196.207C228.536 195.267 227.986 193.855 227.624 192.469C227.292 191.232 227.109 190.017 227.449 189.182C228.143 187.472 230.416 188.137 231.895 188.242C237.104 188.629 242.335 188.616 247.542 188.202C248.057 188.163 248.641 188.141 249.003 188.509C249.161 188.694 249.28 188.91 249.352 189.142C249.767 190.279 250.084 191.449 250.299 192.64C251.019 196.448 250.818 200.439 250.365 204.317Z" fill="#FABDBD"/>
<g opacity="0.1">
<path opacity="0.1" d="M248.358 188.201C248.089 188.173 247.819 188.173 247.55 188.201C245.055 188.402 242.555 188.503 240.059 188.516C242.825 188.522 245.591 188.417 248.358 188.201Z" fill="black"/>
<path opacity="0.1" d="M241.237 241.694C240.103 240.987 239.182 239.986 238.571 238.796C235.32 233.217 235.229 226.437 233.942 220.111C232.956 215.271 231.228 210.581 230.604 205.684C230.198 202.532 230.259 199.319 229.613 196.206C229.417 195.266 228.867 193.854 228.505 192.469C228.173 191.231 227.99 190.016 228.331 189.181C228.475 188.839 228.718 188.548 229.029 188.345C229.341 188.142 229.705 188.038 230.076 188.044C228.972 187.97 227.894 188.101 227.458 189.181C227.118 190.016 227.301 191.231 227.632 192.469C227.995 193.854 228.544 195.266 228.741 196.206C229.386 199.319 229.325 202.532 229.731 205.684C230.355 210.585 232.083 215.276 233.069 220.111C234.356 226.437 234.448 233.226 237.698 238.796C238.309 239.986 239.23 240.987 240.364 241.694C241.061 242.08 241.859 242.242 242.651 242.157C242.155 242.092 241.675 241.935 241.237 241.694Z" fill="black"/>
</g>
<path d="M266.862 231.127C264.244 236.373 264.681 243.805 264.681 243.805C265.117 261.292 258.136 298.014 258.136 298.014H252.027C252.027 298.014 251.155 257.357 252.027 253.86C252.9 250.363 251.591 238.122 250.282 221.072C249.309 208.394 251.957 196.905 253.38 191.865C253.869 190.116 254.209 189.159 254.209 189.159C254.209 189.159 264.244 174.295 269.916 181.29C271.225 182.916 271.919 186.199 272.159 190.343C272.936 204.018 268.869 227.101 266.862 231.127Z" fill="#FABDBD"/>
<path opacity="0.1" d="M272.159 190.344C271.919 186.2 271.234 182.912 269.916 181.29C268.651 179.734 267.167 179.262 265.632 179.467C266.822 179.665 267.889 180.319 268.607 181.29C269.916 182.917 270.61 186.2 270.85 190.344C271.627 204.019 267.56 227.101 265.553 231.128C262.935 236.374 263.371 243.806 263.371 243.806C263.808 261.292 256.827 298.015 256.827 298.015H258.136C258.136 298.015 265.117 261.292 264.68 243.806C264.68 243.806 264.244 236.374 266.862 231.128C268.869 227.101 272.936 204.019 272.159 190.344Z" fill="black"/>
<path d="M248.851 296.419C248.363 296.803 247.942 297.263 247.603 297.783C246.822 299.261 247.93 301.027 249.117 302.203C250.304 303.379 251.735 304.638 251.735 306.313C251.735 307.659 250.718 308.813 249.579 309.53C248.969 309.915 248.201 310.405 248.327 311.13C248.372 311.314 248.45 311.487 248.558 311.642C249.536 313.141 251.268 314.02 253.022 314.352C254.776 314.684 256.587 314.54 258.371 314.396C258.639 314.405 258.9 314.315 259.104 314.142C259.234 313.968 259.303 313.756 259.301 313.539C259.388 312.612 259.331 311.633 259.737 310.798C260.304 309.657 261.609 309.075 262.355 308.053C263.402 306.654 263.258 304.708 262.861 303.008C261.988 299.305 260.047 295.082 257.132 292.515C253.755 289.569 251.107 294.29 248.851 296.419Z" fill="#3F3D56"/>
<path d="M262.071 76.0633C264.506 72.4173 263.873 67.3199 261.386 63.6914C258.899 60.0628 254.902 57.7808 250.779 56.3076C245.22 54.3228 239.09 53.6452 233.379 55.1359C228.832 56.3207 224.748 58.7994 220.464 60.7142C212.883 64.103 204.641 65.7462 196.344 65.5231C187.133 65.2652 177.041 62.9001 169.314 67.945C155.168 77.165 161.46 102.259 148.078 112.536C144.47 115.308 139.928 116.519 135.914 118.657C131.899 120.795 128.095 124.515 128.191 129.07C128.234 131.256 129.194 133.341 130.372 135.191C135.39 143.16 144.771 148.091 154.165 148C163.559 147.908 172.726 142.902 178.141 135.199C179.498 133.271 180.693 131.125 182.661 129.84C186.588 127.26 191.763 129.066 196.449 129.451C206.881 130.303 217.318 122.456 219.395 112.16C220.267 107.767 220.115 102.516 223.644 99.7579C226.494 97.5327 230.503 98.0092 234.116 97.6289C240.722 96.9425 245.936 92.82 249.523 87.4341C251.168 84.9641 251.359 82.0132 253.602 80.0678C256.019 77.93 259.759 79.5082 262.071 76.0633Z" fill="#3F3D56"/>
<g opacity="0.1">
<path opacity="0.1" d="M187.617 66.3662C191.444 66.4714 195.27 66.1784 199.036 65.4919C197.998 65.5225 196.95 65.5225 195.908 65.4919C188.678 65.2908 180.907 63.7957 174.161 65.5968C178.612 65.6405 183.215 66.2438 187.617 66.3662Z" fill="black"/>
<path opacity="0.1" d="M173.926 130.708C171.958 131.993 170.763 134.14 169.406 136.068C165.235 141.934 159.139 146.144 152.184 147.963C152.695 147.985 153.205 147.998 153.72 147.994C163.123 147.902 172.281 142.896 177.696 135.193C179.053 133.266 180.248 131.119 182.216 129.834L182.556 129.624C179.476 129.2 176.452 129.051 173.926 130.708Z" fill="black"/>
<path opacity="0.1" d="M260.946 63.6777C258.463 60.0667 254.462 57.7671 250.339 56.2939C244.78 54.3091 238.65 53.6315 232.938 55.1223C232.807 55.1529 232.681 55.1922 232.554 55.2272C235.796 55.4083 238.995 56.0622 242.049 57.1682C246.172 58.6415 250.173 60.941 252.656 64.552C255.138 68.1631 255.775 73.2954 253.341 76.924C251.028 80.382 247.289 78.8038 244.841 80.9328C242.598 82.8782 242.406 85.8291 240.761 88.2991C237.677 92.92 233.383 96.6054 228.038 98.0043C229.875 97.7857 231.812 97.812 233.645 97.6196C240.251 96.9333 245.465 92.8107 249.052 87.4248C250.696 84.9548 250.888 82.0039 253.131 80.0585C255.579 77.9295 259.318 79.5076 261.631 76.0496C264.07 72.4036 263.437 67.2887 260.946 63.6777Z" fill="black"/>
<path opacity="0.1" d="M225.359 98.4939C221.768 98.8698 217.759 98.3977 214.888 100.623C211.358 103.381 211.528 108.632 210.638 113.025C209.106 120.706 202.884 127.041 195.498 129.397L196.017 129.446C206.449 130.298 216.886 122.451 218.963 112.155C219.835 107.762 219.683 102.511 223.213 99.7529C224.023 99.1454 224.943 98.7001 225.922 98.4414C225.726 98.4458 225.547 98.4764 225.359 98.4939Z" fill="black"/>
</g>
<path d="M330.783 60.4127C330.783 60.4127 320.311 81.3969 316.821 89.266C313.33 97.1351 281.479 108.939 277.116 109.376C275.945 109.537 274.855 110.063 274 110.88C271.535 113.066 270.135 116.808 270.135 116.808C270.135 116.808 271.88 128.611 269.698 148.284C269.655 148.664 269.615 149.045 269.58 149.412C267.678 168.132 271.662 172.547 271.662 172.547C271.662 172.547 229.339 188.722 230.648 167.738C231.058 161.132 230.997 156.306 230.591 152.271C230.147 148.14 229.308 144.062 228.086 140.091C227.052 136.467 225.818 132.493 224.539 127.081C223.924 124.381 223.113 121.729 222.113 119.147C222.083 119.068 222.052 118.989 222.026 118.915C219.844 113.49 217.663 111.737 216.415 111.168C215.237 110.655 214.114 110.022 213.064 109.28C209.032 106.364 200.38 99.828 192.675 92.1076C182.203 81.6155 171.731 56.6968 171.731 56.6968C171.731 56.6968 168.677 42.2702 175.658 30.4666C182.639 18.663 179.585 53.6366 179.585 53.6366C179.585 53.6366 192.238 70.6862 195.293 78.5553C196.863 82.6035 199.359 84.6757 201.401 85.7511C204.775 87.5107 208.005 89.5338 211.061 91.8016C213.127 93.3657 215.298 94.7855 217.558 96.0509C222.436 98.6739 228.278 101.634 233.148 102.412C233.908 102.538 234.677 102.603 235.447 102.608C235.813 102.62 236.176 102.547 236.509 102.396C236.842 102.244 237.135 102.018 237.367 101.734C238.676 100.191 238.645 96.8684 238.344 94.1361C238.183 92.7206 237.945 91.3151 237.629 89.9261C237.629 89.9261 251.809 80.9641 251.373 91.8934C251.305 93.1011 251.417 94.3121 251.704 95.4869C251.937 96.5652 252.45 97.5624 253.193 98.3766C253.936 99.1908 254.881 99.7927 255.932 100.121C257.635 100.621 259.437 100.68 261.168 100.291C261.708 100.199 262.229 100.02 262.713 99.7624C264.022 98.8881 277.111 94.9536 281.038 94.5164C284.965 94.0792 304.599 84.4615 304.599 84.4615L325.979 54.7339C325.979 54.7339 325.543 37.2471 334.269 30.2524C342.996 23.2576 330.783 60.4127 330.783 60.4127Z" fill="#FABDBD"/>
<g opacity="0.1">
<path opacity="0.1" d="M269.581 146.787C269.199 150.3 269.032 153.833 269.079 157.367C269.122 155.058 269.275 152.422 269.581 149.41C269.615 149.043 269.655 148.663 269.698 148.282C270.462 141.55 270.826 134.778 270.789 128.002C270.722 133.902 270.358 139.796 269.698 145.659C269.672 146.04 269.615 146.42 269.581 146.787Z" fill="black"/>
<path opacity="0.1" d="M238.083 89.6445C237.79 89.815 237.646 89.92 237.646 89.92C238.071 91.7901 238.351 93.6901 238.485 95.6032C238.573 93.6082 238.438 91.6096 238.083 89.6445Z" fill="black"/>
<path opacity="0.1" d="M179.79 51.2614C180.004 48.2012 180.323 42.7148 180.262 37.8359C180.188 44.3585 179.607 51.0122 179.607 51.0122L179.79 51.2614Z" fill="black"/>
<path opacity="0.1" d="M230.678 167.225C230.678 167.395 230.678 167.566 230.647 167.736C229.338 188.72 271.662 172.545 271.662 172.545C271.167 171.875 270.793 171.123 270.558 170.324C264.183 172.597 232.148 183.168 230.678 167.225Z" fill="black"/>
<path opacity="0.1" d="M330.783 57.7887C330.783 57.7887 320.311 78.7729 316.821 86.6419C313.33 94.511 281.479 106.315 277.116 106.752C275.945 106.913 274.855 107.439 274 108.256C271.535 110.441 270.135 114.184 270.135 114.184C270.135 114.184 270.239 114.896 270.366 116.251C270.854 115.128 272.111 112.549 274 110.879C274.855 110.062 275.945 109.536 277.116 109.375C281.479 108.938 313.33 97.134 316.821 89.2649C320.311 81.3959 330.783 60.4117 330.783 60.4117C330.783 60.4117 338.161 37.963 337.35 31.248C336.678 39.8516 330.783 57.7887 330.783 57.7887Z" fill="black"/>
<path opacity="0.1" d="M230.591 149.647C230.147 145.517 229.308 141.438 228.086 137.468C227.052 133.844 225.817 129.87 224.539 124.458C223.924 121.757 223.113 119.105 222.113 116.523C222.083 116.444 222.052 116.366 222.026 116.291C219.844 110.866 217.663 109.113 216.415 108.545C215.236 108.031 214.114 107.398 213.064 106.656C209.032 103.74 200.38 97.2044 192.675 89.484C182.203 78.9919 171.731 54.0732 171.731 54.0732C171.344 51.9695 171.128 49.8379 171.085 47.6992C170.979 50.7127 171.195 53.729 171.731 56.6962C171.731 56.6962 182.203 81.6149 192.675 92.107C200.38 99.8274 209.032 106.363 213.064 109.279C214.122 110.023 215.254 110.656 216.441 111.168C217.684 111.736 219.862 113.489 222.052 118.914C222.078 118.989 222.109 119.067 222.139 119.146C223.135 121.729 223.941 124.381 224.552 127.081C225.831 132.493 227.065 136.467 228.099 140.091C229.321 144.061 230.16 148.14 230.604 152.27C230.787 154.098 230.896 156.087 230.927 158.325C230.98 155.429 230.867 152.531 230.591 149.647Z" fill="black"/>
</g>
<path d="M273.804 130.658C273.138 131.761 272.554 132.913 272.059 134.103C271.4 135.939 271.395 137.937 271.273 139.882C271.099 142.612 270.685 145.321 270.034 147.978C269.929 148.468 269.783 148.947 269.598 149.412C269.467 149.725 269.296 150.019 269.087 150.287C268.855 150.572 268.581 150.821 268.276 151.025C267.807 151.338 267.312 151.609 266.797 151.834C260.723 154.676 254.1 157.185 247.472 156.206C244.67 155.715 241.959 154.801 239.431 153.495C237.031 152.328 234.317 150.942 231.83 151.913C231.448 152.107 231.037 152.236 230.613 152.293C230.531 152.295 230.449 152.287 230.368 152.271C229.548 152.114 229.548 149.342 229.36 148.525C228.645 145.386 228.536 142.842 228.108 140.114C227.881 138.605 227.529 137.118 227.057 135.668C225.311 130.378 224.783 124.738 224.783 119.195C224.783 118.92 222.82 119.195 222.165 119.169C222 119.169 221.908 119.143 221.947 119.086C221.985 119.031 222.029 118.982 222.078 118.937C222.307 118.751 222.573 118.618 222.859 118.548L223.374 118.395C226.07 117.63 229.046 117.311 231.062 115.409C233.156 113.446 233.68 110.312 233.588 107.444C233.562 106.521 233.113 104.283 233.187 102.425C233.947 102.551 234.716 102.617 235.486 102.622C235.852 102.634 236.215 102.561 236.548 102.409C236.881 102.258 237.175 102.031 237.406 101.748C238.134 103.16 238.764 104.62 239.291 106.119C240.033 107.947 240.6 109.87 241.686 111.523C243.432 114.216 246.652 115.986 249.854 115.715C253.057 115.444 256.037 112.978 256.609 109.813C257.11 107.037 255.945 103.042 255.971 100.156C257.674 100.657 259.476 100.715 261.207 100.327C261.281 100.505 261.344 100.687 261.395 100.873C262.377 104.248 263.686 108.122 266.98 109.319C269.109 110.089 271.627 109.512 273.594 110.631C273.746 110.718 273.891 110.814 274.031 110.919C274.485 111.258 274.876 111.674 275.187 112.148C275.995 113.485 276.475 114.995 276.588 116.555C277.091 121.429 276.122 126.342 273.804 130.658Z" fill="#63C1FF"/>
<path opacity="0.1" d="M251.704 95.4822C249.528 96.3228 247.184 96.6385 244.863 96.4038C242.542 96.1691 240.309 95.3907 238.344 94.1313C238.183 92.7158 237.944 91.3104 237.628 89.9214C237.628 89.9214 251.809 80.9594 251.373 91.8886C251.305 93.0963 251.417 94.3074 251.704 95.4822Z" fill="black"/>
<path d="M246.351 95.6045C254.544 95.6045 261.186 88.9498 261.186 80.7407C261.186 72.5317 254.544 65.877 246.351 65.877C238.158 65.877 231.516 72.5317 231.516 80.7407C231.516 88.9498 238.158 95.6045 246.351 95.6045Z" fill="#FABDBD"/>
<path d="M220.394 117.682C220.394 117.682 249.191 99.3207 338.636 118.993C428.082 138.666 480.004 122.928 480.004 122.928V143.475C480.004 143.475 379.651 154.404 341.254 143.475C302.858 132.546 248.2 126.242 229.059 143.165L220.394 117.682Z" fill="#F86D70"/>
<path opacity="0.1" d="M220.394 117.682C220.394 117.682 249.191 99.3207 338.636 118.993C428.082 138.666 480.004 122.928 480.004 122.928V143.475C480.004 143.475 379.651 154.404 341.254 143.475C302.858 132.546 248.2 126.242 229.059 143.165L220.394 117.682Z" fill="black"/>
<path d="M221.267 118.557C221.267 118.557 249.191 100.196 338.637 119.868C428.082 139.541 479.132 123.803 479.132 123.803L479.568 142.601C479.568 142.601 380.087 153.531 341.691 142.601C303.295 131.672 249.073 124.056 229.932 140.979L221.267 118.557Z" fill="#F8826D"/>
<path d="M210.769 146.797C210.769 146.797 181.972 165.158 92.526 145.485C3.08045 125.813 7.44365 141.551 7.44365 141.551V121.004C7.44365 121.004 51.512 110.075 89.9081 121.004C128.304 131.933 182.962 138.237 202.103 121.314L210.769 146.797Z" fill="#F86D70"/>
<path opacity="0.1" d="M210.769 146.797C210.769 146.797 181.972 165.158 92.526 145.485C3.08045 125.813 7.44365 141.551 7.44365 141.551V121.004C7.44365 121.004 51.512 110.075 89.9081 121.004C128.304 131.933 182.962 138.237 202.103 121.314L210.769 146.797Z" fill="black"/>
<path d="M209.896 145.923C209.896 145.923 181.972 164.284 92.526 144.612C3.08036 124.939 8.3162 140.677 8.3162 140.677L7.87988 121.879C7.87988 121.879 51.0756 110.95 89.4717 121.879C127.868 132.808 182.089 140.424 201.231 123.501L209.896 145.923Z" fill="#F8826D"/>
<path d="M233.593 83.2032C233.156 80.4752 232.484 77.0391 234.762 75.4784C235.574 74.9849 236.513 74.7416 237.463 74.7789C242.179 74.7308 246.686 78.0227 251.311 77.0609C252.783 76.7519 254.135 76.0234 255.203 74.9631C256.272 73.9028 257.012 72.5558 257.335 71.084C257.657 69.6123 257.549 68.0786 257.022 66.6672C256.495 65.2558 255.573 64.0269 254.366 63.1283C252.546 61.7731 250.247 61.2834 248.022 60.8244C242.171 59.6178 236.062 58.4156 230.285 59.9501C224.508 61.4845 219.229 66.6738 219.691 72.628C219.91 75.4784 221.358 78.0664 222.872 80.4971C224.024 82.342 228.509 90.9892 230.687 91.1203C233.758 91.2996 233.894 84.9868 233.593 83.2032Z" fill="#3F3D56"/>
<path d="M270.352 165.115C270.352 165.115 240.246 172.547 230.211 165.115C230.211 165.115 225.848 182.165 227.157 190.908C227.157 190.908 248.536 192.22 250.718 193.531C250.718 193.531 251.154 190.034 253.336 191.783C253.336 191.783 260.753 183.039 274.279 190.908C274.279 190.908 276.897 170.361 270.352 165.115Z" fill="#63C1FF"/>
<path opacity="0.1" d="M254.375 63.1277C254.064 62.9023 253.739 62.6978 253.402 62.5156C254.302 63.5412 254.918 64.7856 255.188 66.1244C255.458 67.4632 255.372 68.8495 254.94 70.1449C254.508 71.4402 253.743 72.5991 252.724 73.5058C251.704 74.4125 250.465 75.0352 249.13 75.3116C244.505 76.2734 239.998 72.9815 235.281 73.0296C234.332 72.9923 233.393 73.2355 232.581 73.729C230.303 75.2897 230.971 78.7259 231.407 81.4538C231.695 83.2375 231.577 89.5502 228.514 89.3797H228.462C229.304 90.4071 230.089 91.1022 230.696 91.1284C233.75 91.2989 233.876 85.008 233.588 83.2025C233.152 80.4746 232.485 77.0384 234.762 75.4777C235.574 74.9842 236.514 74.741 237.463 74.7783C242.18 74.7302 246.687 78.0221 251.312 77.0603C252.784 76.7512 254.135 76.0228 255.204 74.9624C256.272 73.9021 257.012 72.5551 257.335 71.0834C257.657 69.6117 257.549 68.0779 257.022 66.6665C256.495 65.2552 255.573 64.0263 254.366 63.1277H254.375Z" fill="black"/>
<g opacity="0.1">
<path opacity="0.1" d="M37.6806 42.3611C37.6806 42.3611 5.05696 28.6164 0.781024 53.404C0.781024 53.404 -1.44857 57.2642 1.65366 60.4555C1.65366 60.4555 2.32123 58.7462 5.47583 60.5167C6.60196 61.1371 7.79694 61.6228 9.0362 61.9638C10.7108 62.4266 12.4903 62.3315 14.1062 61.6927C14.1062 61.6927 24.8353 61.1113 33.8584 47.0475C33.8584 47.0475 37.7242 44.6518 37.9206 43.7556L31.4543 44.1928C31.4543 44.1928 31.9474 48.9361 29.2727 51.7821C29.2727 51.7821 31.6507 44.4245 30.5075 44.2147C30.2763 44.1709 27.0911 44.595 27.0911 44.595C27.0911 44.595 27.9158 52.84 23.6006 57.1068C23.6006 57.1068 27.606 48.7175 25.8607 44.7436L21.0917 45.6661C21.0917 45.6661 22.4007 54.3395 17.6797 59.3888C17.6797 59.3888 21.5586 50.4706 20.062 45.9371L15.4894 47.4759C15.4894 47.4759 16.5933 55.9658 12.6446 60.1539C12.6446 60.1539 16.0915 49.3951 14.4684 47.9131C14.4684 47.9131 10.3583 49.5831 9.47688 50.5361C9.47688 50.5361 10.1314 56.6565 7.61816 58.8424C7.61816 58.8424 9.16273 51.4105 8.39917 51.1045C8.39917 51.1045 3.62147 54.7067 2.16852 57.815C2.16852 57.815 3.98361 53.0674 7.79705 50.3831C7.79705 50.3831 4.59446 49.841 2.12489 51.1831C2.12489 51.1831 3.77854 48.0312 8.9533 49.5263C8.9533 49.5263 12.7886 46.8683 13.5565 46.9033C13.5565 46.9033 8.66096 44.7174 5.12241 44.9841C5.12241 44.9841 8.91403 42.7982 14.7564 46.453L19.3115 44.8005C19.3115 44.8005 12.9893 41.5523 9.81721 41.5654C9.81721 41.5654 14.0321 39.9348 20.4983 44.4813L25.1626 43.5239C25.1626 43.5239 19.9267 40.3107 16.3969 39.5632C16.3969 39.5632 20.6336 38.8943 26.5108 43.3053L29.7047 43.0343C29.7047 43.0343 25.8389 40.7566 24.6695 40.2014C23.5002 39.6462 23.5526 39.2834 23.5526 39.2834C26.3357 39.7675 28.9296 41.0178 31.0442 42.8944C31.0442 42.8944 37.6501 42.7676 37.6806 42.3611Z" fill="#6C63FF"/>
</g>
<g opacity="0.1">
<path opacity="0.1" d="M36.4763 17.7225C36.4763 17.7225 24.8963 -9.06289 8.27689 3.2216C8.27689 3.2216 4.75579 4.24458 4.78633 7.89932C4.78633 7.89932 6.15637 7.26542 7.02029 10.1158C7.3433 11.128 7.78256 12.0992 8.32925 13.0098C9.05231 14.2347 10.1534 15.1907 11.4664 15.7334C11.4664 15.7334 18.1683 21.5128 31.5371 18.3083C31.5371 18.3083 35.1978 19.0953 35.8261 18.6712L31.7378 15.235C31.7378 15.235 29.3381 18.3346 26.118 18.4876C26.118 18.4876 31.716 15.4711 31.1531 14.6929C31.0397 14.5356 28.9105 12.9705 28.9105 12.9705C28.9105 12.9705 24.7087 18.3389 19.7477 18.422C19.7477 18.422 26.899 15.7203 28.1207 12.3672L24.7654 10.1814C24.7654 10.1814 20.6029 16.0788 14.9351 16.3848C14.9351 16.3848 22.3089 13.3246 23.9975 9.7573L20.4066 8.06107C20.4066 8.06107 16.2354 13.7443 11.5187 13.9585C11.5187 13.9585 19.6823 9.53434 19.5558 7.72883C19.5558 7.72883 16.1656 6.37359 15.0922 6.45228C15.0922 6.45228 12.0074 10.4524 9.25425 10.3387C9.25425 10.3387 14.3985 6.80202 14.1149 6.18561C14.1149 6.18561 9.22807 5.59981 6.59706 6.62278C6.59706 6.62278 10.3756 4.83913 14.1672 5.42493C14.1672 5.42493 12.5746 3.26969 10.3538 2.67076C10.3538 2.67076 13.1288 1.73959 15.354 5.58232C15.354 5.58232 19.1413 6.18998 19.5819 6.64464C19.5819 6.64464 17.9239 2.53961 15.6551 0.690378C15.6551 0.690378 19.1456 1.56472 20.5418 7.05996L24.1851 8.68186C24.1851 8.68186 22.2784 3.1429 20.363 1.34613C20.363 1.34613 23.7968 2.78005 25.0534 9.17149L28.3651 11.2655C28.3651 11.2655 27.0779 6.36922 25.4112 3.92981C25.4112 3.92981 28.3083 5.94517 29.2944 11.9213L31.3451 13.5825C31.3451 13.5825 30.3416 10.024 29.962 9.02722C29.5824 8.03047 29.8224 7.84686 29.8224 7.84686C31.1982 9.72442 32.0273 11.9475 32.2178 14.2689C32.2178 14.2689 36.2406 17.9499 36.4763 17.7225Z" fill="#6C63FF"/>
</g>
</g>
<defs>
<clipPath id="clip0">
<rect width="480" height="320" fill="white"/>
</clipPath>
</defs>
</svg>
