<svg width="320" height="309" viewBox="0 0 320 309" fill="none" xmlns="http://www.w3.org/2000/svg">
<g opacity="0.7">
<path d="M0.39917 308.108C3.44432 302.584 9.26818 298.964 15.3966 297.555C21.5249 296.107 27.9578 296.64 34.1623 297.783C40.3668 298.926 46.4191 300.679 52.6236 301.784C59.97 303.041 67.4306 303.307 74.8532 302.622C79.1545 302.203 90.3073 302.05 91.9061 296.831C92.5151 294.888 92.0202 292.754 91.297 290.811C88.6706 283.61 83.1893 277.4 82.1996 269.819C81.5145 264.447 83.1512 259.075 84.788 253.894C86.9957 246.883 89.2035 239.911 91.4112 232.901C92.3628 229.891 93.3525 226.805 95.2557 224.329C97.1209 221.891 99.7473 220.176 102.298 218.5C103.592 217.662 104.886 216.824 106.371 216.404C109.225 215.604 112.385 217.243 114.821 218.652C116.496 219.643 122.548 221.814 122.89 223.948C123.005 224.786 122.51 225.586 121.787 226.005C121.063 226.424 120.188 226.501 119.351 226.424C118.171 226.348 117.029 226.043 115.963 225.472C114.859 224.9 113.869 224.1 112.727 223.719C111.014 223.148 109.073 223.605 107.512 224.481C105.914 225.358 104.62 226.653 103.325 227.948C107.703 226.12 113.527 226.386 117.333 229.434C118.665 230.501 124.147 236.94 119.883 237.282C117.257 237.511 115.087 233.168 112.118 232.977C111.091 232.901 110.063 233.206 109.073 233.549C106.256 234.577 103.592 236.063 101.308 238.006C104.201 236.863 108.274 234.692 111.395 235.225C114.364 235.72 117.105 237.549 118.551 240.216C118.856 240.749 119.084 241.359 119.084 241.969C119.046 242.578 118.703 243.226 118.132 243.416C117.447 243.645 116.724 243.188 116.077 242.845C112.841 241.092 108.198 241.854 104.81 242.921C101.384 244.026 98.3009 245.969 95.2557 247.912C99.6712 246.921 104.277 243.34 108.883 243.912C110.672 244.14 117.866 245.321 117.181 247.988C116.838 249.245 115.278 249.626 113.945 249.779C110.672 250.122 107.398 250.465 104.125 250.808C105.381 249.245 107.132 248.064 109.073 247.607C108.236 251.798 102.374 253.932 99.2144 255.798C103.135 259.037 104.201 264.561 104.467 269.628C104.734 274.695 104.505 279.991 106.637 284.601C108.54 288.639 112.042 291.649 115.163 294.811C118.285 298.012 121.216 301.86 121.406 306.317C118.627 307.041 116.305 304.184 115.011 301.593C110.291 292.183 99.7473 252.446 122.053 257.322C126.392 258.275 130.351 260.446 134.652 261.513C142.912 263.609 152.162 261.323 158.481 255.608C157.301 256.675 150.792 255.456 149.193 255.341C145.881 255.036 142.57 254.541 139.296 253.855C134.881 252.903 124.185 251.569 122.7 246.502C121.71 243.073 124.147 239.378 127.306 237.74C131.074 235.759 136.175 235.454 140.286 234.311C146.148 232.673 152.276 231.949 158.176 230.387C160.612 229.739 163.087 229.015 165.218 227.682C168.263 225.739 169.596 222.157 168.72 218.614C168.187 216.404 166.969 214.461 165.713 212.556C161.336 205.851 156.425 199.527 152.276 192.669C148.127 185.811 144.625 178.42 143.445 170.534C143.103 168.286 143.065 165.695 144.663 164.057C146.795 161.923 150.449 162.8 152.923 164.476C158.252 168.133 161.107 174.763 161.183 181.239C161.259 187.716 158.861 194.041 155.474 199.565C151.21 206.537 145.196 213.776 138.116 217.928C133.739 220.519 128.334 221.814 123.461 220.405C119.503 219.262 109.492 209.966 116.914 207.07C118.818 206.308 120.949 206.08 122.967 206.384C122.053 209.509 119.16 212.404 116.039 213.28C114.021 213.852 111.091 214.157 110.101 211.871C109.568 210.652 109.492 209.242 108.731 208.175C108.083 207.261 107.056 206.689 106.066 206.194C105.076 205.699 104.011 205.203 103.325 204.327C102.602 203.451 102.336 202.117 103.021 201.241C105.114 201.775 107.589 202.232 109.263 200.86C109.758 200.479 110.139 199.946 110.634 199.641C112.004 198.765 113.755 199.374 115.278 199.87C118.475 200.898 121.825 201.355 125.174 201.241C124.641 201.241 122.358 202.994 121.558 203.299C119.769 203.984 117.98 204.556 116.115 204.822C111.014 205.546 107.094 203.641 103.858 199.679C101.917 197.317 98.7577 193.431 99.8996 190.231C100.585 188.288 102.374 186.84 104.353 186.345C106.371 185.849 108.502 186.268 110.329 187.259C111.167 187.716 111.966 188.402 112.118 189.316C112.271 190.383 111.433 191.412 110.405 191.831C108.426 192.631 105.99 192.059 104.011 192.821C101.612 193.698 99.6331 197.088 96.7783 196.669C93.3906 196.212 93.5809 192.364 93.3525 189.697C92.5912 180.82 91.9822 171.943 91.297 163.104C90.9925 159.295 90.6119 155.218 88.1757 152.246C85.7396 149.275 80.5248 148.36 78.279 151.446C74.5867 156.475 84.9022 163.79 88.5564 165.809C112.575 178.953 144.549 159.866 160.727 142.036C177.399 123.672 183.946 96.2794 176.409 72.5439C176.904 74.106 174.43 79.3636 174.049 81.1542C173.364 84.3926 172.831 87.6691 172.527 90.9456C171.879 97.5367 172.032 104.204 172.907 110.757C174.582 123.139 179.568 134.95 183.413 146.646C190.95 169.581 206.67 192.364 227.149 205.432C236.475 211.375 246.942 215.261 256.421 220.938C265.899 226.615 274.729 234.692 277.584 245.359C280.439 256.027 275.186 269.323 264.49 272.181C255.164 274.695 245.23 268.485 240.548 260.065C233.43 247.226 236.741 229.891 247.209 219.643C257.677 209.394 274.159 206.27 288.128 210.728C302.098 215.185 313.365 226.539 319.113 240.064" stroke="#CBEAFF" stroke-width="0.8" stroke-miterlimit="10" stroke-linecap="round" stroke-linejoin="round"/>
<path d="M113.641 169.62C123.119 168.477 124.375 158.914 122.7 151.066C117.523 126.911 112.385 102.795 107.208 78.6401C104.619 66.5628 102.031 54.4855 99.4427 42.4464C96.9685 30.8263 93.8092 19.7015 93.6569 7.73848C93.6189 5.07157 94.0757 1.79509 96.5879 0.804524C99.5189 -0.338435 102.26 2.70946 103.896 5.37636C125.707 40.6938 139.448 80.0878 155.397 118.301C123.385 82.2594 63.4338 75.5541 24.2274 103.633C49.0074 95.0606 73.8254 86.4884 98.6053 77.9543C109.796 74.1063 120.34 69.344 131.912 66.4104C143.902 63.3625 156.159 61.4195 168.492 60.5813C168.986 60.5432 169.481 60.5051 169.976 60.5051C158.557 71.4013 144.245 78.6401 130.123 85.6121C116.001 92.5842 101.612 99.6324 89.9266 110.262C78.2408 120.853 69.448 135.75 69.8667 151.523C69.8286 150.38 77.175 146.341 78.2789 145.618C81.3621 143.598 84.4834 141.693 87.6808 139.903C93.7331 136.512 100.014 133.959 106.142 130.645C120.036 123.139 133.891 115.672 147.785 108.167C154.446 112.891 152.466 124.587 145.348 128.587C138.23 132.588 128.79 129.921 122.89 124.282C116.99 118.644 113.907 110.681 111.623 102.833C106.409 84.9264 104.315 66.2199 98.415 48.5421C92.515 30.8644 81.7808 13.6057 64.8802 5.79545C95.8647 43.9322 136.784 73.8777 182.461 91.8984C186.496 93.4986 191.178 95.7845 191.635 100.09C192.244 105.957 184.631 108.852 178.731 109.005C164.647 109.424 150.449 105.919 138.192 98.9086C135.376 97.3084 132.368 94.9082 132.559 91.7079C132.749 88.6219 135.87 86.6408 138.611 85.2692C155.854 76.6208 174.392 70.6013 193.386 67.4391C192.929 81.3832 175.305 87.5552 161.412 86.8694C145.044 86.0312 129.285 80.926 113.336 77.1542C97.3873 73.3825 80.5247 70.9441 64.766 75.4398C49.0074 79.9354 34.7332 93.0033 33.3248 109.309C31.9164 125.654 47.6751 142.532 63.586 138.531C73.9776 135.94 80.8292 126.416 87.9853 118.491C95.1795 110.567 105.723 103.176 115.849 106.643C120.416 111.214 117.676 120.015 111.776 122.644C105.876 125.273 98.6815 122.835 93.9995 118.415C89.2795 113.958 86.577 107.9 84.0647 101.918C73.026 75.7446 63.9667 45.799 74.6628 19.511C76.1473 15.8535 78.9641 11.815 82.8847 12.2722C86.9576 12.7294 88.6705 17.606 89.5079 21.5683C97.806 60.467 106.066 99.4038 114.364 138.303C115.544 143.751 116.762 149.389 119.921 153.999C123.081 158.609 128.638 162 134.119 160.933C142.113 159.333 145.501 149.694 145.653 141.541C145.881 126.797 140.286 114.491 133.472 101.804C126.583 88.9648 118.818 76.5827 110.177 64.8103C111.89 67.1724 117.904 69.1154 120.454 70.6775C124.223 72.9634 127.915 75.4017 131.493 77.9543C138.497 82.9071 145.196 88.3171 151.553 94.1081C164.228 105.728 176.752 116.967 186.534 131.254C165.104 129.159 148.965 111.062 137.393 92.9271C130.427 82.0309 124.147 70.3727 121.939 57.6477C119.731 44.9228 122.091 30.8644 130.77 21.2254C138.649 12.4627 151.363 8.42425 162.858 10.9769C174.354 13.5295 184.136 22.6351 187.562 33.9123C193.043 52.0091 182.119 71.6299 167.159 83.1738C152.2 94.7177 133.663 100.433 116.419 108.167C90.2692 119.901 66.4028 136.702 46.5332 157.352C59.2848 163.105 74.2441 162.114 87.4905 157.58C100.699 153.047 112.537 145.275 124.185 137.503C128.79 134.417 134.652 131.254 139.525 133.883C145.957 137.35 144.283 147.218 140.324 153.352C136.365 159.524 130.77 165.962 132.292 173.125C141.161 175.182 146.909 164.514 152.276 157.123C163.619 141.617 187.143 136.702 203.739 146.379C202.559 138.722 201.265 130.835 197.116 124.282C192.967 117.729 185.164 112.891 177.627 114.605C168.606 116.701 164.761 126.149 161.526 133.845C157.377 143.751 150.487 152.818 142.151 159.562C134.081 166.076 123.842 168.21 113.565 169.696C114.669 169.505 115.734 169.315 116.838 169.162" stroke="#CBEAFF" stroke-width="0.8" stroke-miterlimit="10" stroke-linecap="round" stroke-linejoin="round"/>
</g>
</svg>
