<svg width="20" height="20" viewBox="0 0 20 20" fill="none" xmlns="http://www.w3.org/2000/svg">
<path d="M15.3408 16.5195C13.5918 16.5195 11.602 15.88 9.4284 14.6198C7.68151 13.6066 5.87603 13.2839 4.28286 12.999C2.65529 12.7069 0.995456 12.4054 0.00439453 11.2793C0.109276 15.8304 5.09983 13.7829 9.88274 16.5552C15.7692 19.9679 19.376 18.0915 19.9241 14.0873C18.9713 15.6244 17.3751 16.5195 15.3408 16.5195Z" fill="#047BF8"/>
<path d="M5.03491 10.6508C6.55038 10.8962 8.26754 11.1739 9.99404 12.0796C11.7932 13.0227 13.4118 13.5012 14.8054 13.5017C16.0457 13.5017 17.0669 13.1055 17.7595 12.3573C18.4304 11.6321 18.7845 10.5947 18.7845 9.35653C18.7845 5.62072 14.7965 2.5813 9.8951 2.5813C4.3793 2.5813 1.21631 4.50482 1.21631 7.85889C1.21588 10.0321 2.73517 10.2788 5.03491 10.6508ZM6.28372 4.58423C7.66543 4.58423 8.78557 5.4513 8.78557 6.52007C8.78557 7.58926 7.66543 8.45633 6.28372 8.45633C4.90243 8.45633 3.78228 7.58926 3.78228 6.52007C3.78228 5.4513 4.90243 4.58423 6.28372 4.58423Z" fill="#047BF8"/>
<path d="M9.88302 13.8354C16.2905 17.55 20.0004 14.9997 20.0004 10.2567C20.0004 5.51375 15.4714 1.66797 9.88302 1.66797C4.29503 1.66839 0 3.67302 0 8.41645C0 13.1599 5.04872 11.0334 9.88302 13.8354ZM9.89491 2.15628C15.0311 2.15628 19.2094 5.38594 19.2094 9.35613C19.2094 10.703 18.8153 11.8406 18.0714 12.6457C17.296 13.4834 16.1674 13.9267 14.8056 13.9267C13.3428 13.9267 11.6575 13.4316 9.79682 12.4559C8.13189 11.5833 6.45082 11.3111 4.9672 11.0707C2.63434 10.6924 0.791915 10.3939 0.791915 7.85935C0.791066 4.23479 4.10947 2.15628 9.89491 2.15628Z" fill="#047BF8"/>
<path d="M6.28335 7.48007C6.96812 7.48007 7.52323 7.05043 7.52323 6.52043C7.52323 5.99044 6.96812 5.56079 6.28335 5.56079C5.59857 5.56079 5.04346 5.99044 5.04346 6.52043C5.04346 7.05043 5.59857 7.48007 6.28335 7.48007Z" fill="#047BF8"/>
</svg>
