<svg width="20" height="20" viewBox="0 0 20 20" fill="none" xmlns="http://www.w3.org/2000/svg">
<g clip-path="url(#clip0)">
<path d="M5.78291 1.11621C7.77549 1.11621 9.73499 2.88988 10.8142 5.64756C9.83092 6.17021 8.9208 6.83214 8.17767 7.57867C5.43644 10.3374 4.77011 14.2079 6.53497 16.7505C6.28426 16.7927 6.03295 16.8212 5.78291 16.8212C2.59443 16.8212 0 13.5387 0 9.50432C0 5.62592 2.52622 1.11621 5.78291 1.11621ZM7.30325 17.0385C5.41386 14.682 6.0716 10.8661 8.76179 8.16017C9.51619 7.40092 10.4497 6.72706 11.4627 6.21266L11.5531 6.16642L11.5317 6.12353C12.8696 5.45876 14.3107 5.09116 15.6015 5.09116C16.9378 5.09116 18.048 5.49239 18.812 6.25209C19.8764 7.31012 20.2427 9.00955 19.8415 11.0372C19.4573 12.9827 18.4222 14.9197 17.0005 16.3495C15.3996 17.9601 13.3342 18.8834 11.3341 18.8834C9.87192 18.8834 8.60473 18.3921 7.66918 17.4617C7.57309 17.3673 7.48011 17.2582 7.38619 17.1456L7.30325 17.0385Z" fill="#047BF8"/>
</g>
<defs>
<clipPath id="clip0">
<rect width="20" height="20" fill="white"/>
</clipPath>
</defs>
</svg>
