<svg width="20" height="20" viewBox="0 0 20 20" fill="none" xmlns="http://www.w3.org/2000/svg">
<g clip-path="url(#clip0)">
<path d="M17.466 11.6766C16.649 12.4936 15.7276 13.2007 14.7632 13.8122C14.7624 13.8162 14.7617 13.8202 14.7609 13.8243C14.7202 14.0232 14.7854 14.229 14.9332 14.3683C15.081 14.5075 15.2904 14.5603 15.4866 14.5077C16.1915 14.3188 16.8192 13.9547 17.3218 13.4521C17.5737 13.2002 17.7942 12.9135 17.9771 12.5967C18.3535 11.9448 18.5399 11.219 18.5278 10.4854C18.212 10.8843 17.8599 11.2827 17.466 11.6766Z" fill="#047BF8"/>
<path d="M5.47006 3.95626C4.52123 4.50404 3.8426 5.38849 3.55905 6.44677C3.50647 6.64295 3.55924 6.85232 3.69846 7.00013C3.83768 7.14795 4.04354 7.21314 4.24248 7.17244C4.54448 7.11064 4.84889 7.07955 5.15229 7.07783C5.78936 5.8022 6.57096 4.53545 7.52506 3.40529C6.81065 3.40337 6.10526 3.58951 5.47006 3.95626Z" fill="#047BF8"/>
<path d="M9.17987 16.6432C9.13917 16.8421 9.20437 17.0479 9.35218 17.1872C9.49999 17.3264 9.70937 17.3792 9.90554 17.3266C10.6166 17.1361 11.2418 16.7628 11.7375 16.2671C12.1003 15.9043 12.3934 15.4758 12.6002 15.0056C11.4429 15.5616 10.2877 16.001 9.23046 16.3442C9.21675 16.4444 9.20015 16.5441 9.17987 16.6432Z" fill="#047BF8"/>
<path d="M19.9174 1.85511C19.8197 1.16566 19.6716 0.717531 19.4773 0.523156C19.4773 0.523156 19.4773 0.523156 19.4772 0.523117C19.2828 0.328742 18.8347 0.180695 18.1453 0.0830391C17.6258 0.00940626 16.7878 -0.0528203 15.7456 0.068625C15.2622 0.124953 14.7123 0.224484 14.1189 0.391867C14.0703 1.81269 14.5867 3.24941 15.6689 4.33155C16.751 5.4137 18.1877 5.93015 19.6085 5.88155C19.7759 5.28808 19.8755 4.73823 19.9318 4.2548C20.0532 3.21257 19.991 2.37456 19.9174 1.85511ZM17.2269 2.57812C17.2269 2.90171 16.9646 3.16405 16.641 3.16405C16.3174 3.16405 16.0551 2.90171 16.0551 2.57812C16.0551 2.25452 16.3174 1.99218 16.641 1.99218C16.9646 1.99218 17.2269 2.25452 17.2269 2.57812Z" fill="#047BF8"/>
<path d="M14.8398 5.1602C13.632 3.95238 13.0017 2.38266 12.9479 0.796875C11.7372 1.29523 10.4211 2.09352 9.15215 3.36254C6.64066 5.87402 5.21223 9.4832 4.43305 12.2438C3.18918 12.0737 1.8543 12.1852 0.538085 12.5724L0.420585 12.607C0.182694 12.677 0.0146079 12.8891 0.000897 13.1368C-0.0127749 13.3843 0.130897 13.6138 0.359608 13.7095C1.7148 14.277 2.91223 15.075 3.91855 16.0814C4.92488 17.0877 5.72289 18.2851 6.29039 19.6403C6.38617 19.869 6.61558 20.0127 6.86316 19.999C7.11078 19.9854 7.32293 19.8173 7.39293 19.5793L7.4275 19.4618C7.81473 18.1456 7.92621 16.8107 7.75613 15.5669C10.5167 14.7877 14.1259 13.3593 16.6374 10.8478C17.9064 9.57879 18.7046 8.2627 19.203 7.05207C17.6173 6.99836 16.0477 6.36801 14.8398 5.1602ZM13.3676 9.5259C13.6356 9.70738 13.7057 10.0717 13.5242 10.3396C13.5029 10.3711 13.479 10.4 13.453 10.4259C13.2583 10.6206 12.9469 10.6563 12.7105 10.4962C11.4419 9.63707 10.363 8.55824 9.50391 7.28961C9.32242 7.02168 9.3925 6.65734 9.66051 6.47594C9.92844 6.29445 10.2927 6.36457 10.4742 6.63254C11.2495 7.77719 12.2229 8.75066 13.3676 9.5259ZM15.1646 7.88676C15.4398 8.04699 15.5567 8.39426 15.4088 8.67629C15.3804 8.73055 15.3447 8.7784 15.3038 8.81934C15.1207 9.00246 14.8309 9.04762 14.5961 8.91176C13.1421 8.07012 11.9289 6.85676 11.0876 5.40273C10.9255 5.12262 11.0212 4.7641 11.3013 4.60215C11.5814 4.44008 11.9398 4.53574 12.102 4.81586C12.8371 6.08656 13.8959 7.14805 15.1646 7.88676Z" fill="#047BF8"/>
</g>
<defs>
<clipPath id="clip0">
<rect width="20" height="20" fill="white"/>
</clipPath>
</defs>
</svg>
