<svg width="96" height="72" viewBox="0 0 96 72" fill="none" xmlns="http://www.w3.org/2000/svg">
<path d="M94.3574 34.5399H86.2357C89.6122 26.8745 89.2471 20.6692 87.9696 16.4715C85.7795 8.98862 78.3878 0.866943 67.4373 0.866943C64.5171 0.866943 61.597 1.41447 58.5855 2.50953C53.384 4.42588 49.9164 6.52474 48.365 7.61979C46.8137 6.52474 43.4373 4.42588 38.1445 2.50953C35.1331 1.41447 32.1217 0.866943 29.2928 0.866943C18.3422 0.866943 10.9506 8.98862 8.76046 16.4715C7.48289 20.943 7.02662 27.6958 11.3156 36.1825H1.46008C0.638783 36.1825 0 36.8213 0 37.6426C0 38.4639 0.638783 39.1027 1.46008 39.1027H13.0494C13.5057 39.924 14.0532 40.7453 14.692 41.5666C24.1825 55.2548 44.8061 70.1293 48.5475 71.0418V71.1331C48.5475 71.1331 48.6388 71.1331 48.73 71.0418C48.8213 71.0418 48.9125 71.0418 49.0038 71.0418V70.9506C52.1977 69.3993 72 56.6236 82.403 41.4753C83.4068 40.1065 84.2281 38.7377 84.9582 37.3688H94.5399C95.3612 37.3688 96 36.7301 96 35.9088C96 35.0875 95.1787 34.5399 94.3574 34.5399ZM79.7567 39.924C70.0836 54.0685 52.289 65.4753 48.4563 67.9392C44.5323 65.4753 26.8289 53.9772 17.0646 39.924C16.8821 39.6502 16.6996 39.3764 16.5171 39.1027H29.9316C30.4791 39.1027 31.0266 38.8289 31.3004 38.2814L37.4144 26.2358L46.9962 50.7833C47.1787 51.3308 47.8175 51.6958 48.365 51.6958C48.365 51.6958 48.365 51.6958 48.4563 51.6958C49.0951 51.6958 49.6426 51.2396 49.8251 50.6008L58.2205 21.8555L62.692 36.365C62.8745 36.9126 63.3308 37.2776 63.8783 37.3688C64.4259 37.4601 64.9734 37.1863 65.3384 36.7301L68.8973 31.5285L71.9087 36.6388C72.1825 37.0951 72.6388 37.3688 73.1863 37.3688H81.3992C80.8517 38.2814 80.3042 39.1027 79.7567 39.924ZM83.0418 34.5399H74.0989L70.3574 28.1521C70.0836 27.6958 69.6274 27.4221 69.0798 27.4221C68.5323 27.4221 68.076 27.6046 67.8023 28.0609L64.6996 32.6236L59.6806 16.289C59.4981 15.6502 58.8593 15.2852 58.2205 15.1939C57.5817 15.1939 56.943 15.6502 56.7605 16.289L48.2738 45.5818L39.057 22.038C38.8745 21.4905 38.327 21.1255 37.7795 21.1255C37.1407 21.1255 36.6844 21.3993 36.4106 21.9468L29.2015 36.0913H14.692C11.0418 29.4297 10.038 23.0418 11.6806 17.2928C13.597 10.8137 19.8935 3.87835 29.384 3.87835C31.9392 3.87835 34.5856 4.42588 37.2319 5.33843C43.8935 7.8023 47.4525 10.6312 47.5437 10.6312C48.0913 11.0875 48.8213 11.0875 49.3688 10.6312C49.3688 10.6312 52.9278 7.8023 59.6806 5.33843C62.327 4.33462 64.9734 3.87835 67.5285 3.87835C76.9278 3.87835 83.3156 10.8137 85.2319 17.2928C86.7833 22.5856 85.962 28.4259 83.0418 34.5399Z" fill="#87E29B"/>
</svg>
