<svg width="96" height="96" viewBox="0 0 96 96" fill="none" xmlns="http://www.w3.org/2000/svg">
<g clip-path="url(#clip0)">
<path d="M91.7765 93.1827H4.22335C2.72726 93.1827 1.37459 92.4167 0.60536 91.1334C-0.16387 89.8501 -0.202303 88.2961 0.502996 86.9766L5.8053 77.0531C6.17126 76.3682 7.0228 76.1095 7.70804 76.4757C8.3929 76.8416 8.65144 77.6935 8.28547 78.3784L2.98317 88.3019C2.64439 88.9358 2.8943 89.4821 3.01748 89.6876C3.14065 89.8928 3.50455 90.3707 4.22354 90.3707H61.7189V84.5939C55.3034 83.7506 50.2952 77.204 50.2952 69.2791C50.2952 68.5025 50.9248 67.873 51.7013 67.873C56.675 67.873 60.997 71.2896 63.125 76.2708C65.2531 71.2896 69.5749 67.873 74.5487 67.873C75.3253 67.873 75.9548 68.5025 75.9548 69.2791C75.9548 77.204 70.9467 83.7504 64.5311 84.5939V90.3707H91.7767C92.4955 90.3707 92.8595 89.893 92.9827 89.6876C93.1059 89.4821 93.3556 88.9359 93.017 88.3019L80.5987 65.0608H44.7586C43.982 65.0608 43.3525 64.4312 43.3525 63.6547C43.3525 62.8781 43.982 62.2486 44.7586 62.2486H79.0959L71.5828 48.1876H24.4172L16.9041 62.2486H38.9789C39.7555 62.2486 40.385 62.8781 40.385 63.6547C40.385 64.4312 39.7555 65.0608 38.9789 65.0608C36.9693 65.0608 35.2278 66.3137 34.5068 68.079C35.181 67.9644 35.9041 67.873 36.4961 67.873C41.1953 67.873 44.4775 71.415 44.4775 76.4865C44.4775 80.945 40.9908 87.5583 36.1739 87.5583C35.0659 87.5583 33.48 87.1873 32.7465 86.9993C32.0131 87.1875 30.4272 87.5583 29.3192 87.5583C24.5023 87.5583 21.0154 80.945 21.0154 76.4865C21.0154 71.415 24.2974 67.873 28.9968 67.873C29.754 67.873 30.7251 68.0222 31.5347 68.1786C31.8033 67.0175 32.3395 65.9552 33.0735 65.0608H15.4015L10.7923 73.6869C10.4263 74.3716 9.57477 74.6303 8.88953 74.2643C8.20467 73.8984 7.94614 73.0465 8.3121 72.3616L44.2796 5.0477C45.0147 3.67198 46.4403 2.81744 48.0001 2.81744C49.5599 2.81744 50.9855 3.67216 51.7206 5.0477L59.0097 18.6893C59.3756 19.3742 59.1171 20.2263 58.4322 20.592C57.7474 20.9582 56.8955 20.6995 56.5295 20.0146L49.2405 6.373C48.8818 5.70201 48.2538 5.62945 48.0003 5.62945C47.7468 5.62945 47.1186 5.70201 46.7601 6.373L34.9359 28.5022H37.7144C38.4909 28.5022 39.1205 29.1317 39.1205 29.9083C39.1205 30.6848 38.4909 31.3144 37.7144 31.3144H33.4335L25.9202 45.3754H55.1301L52.3179 42.5632H47.2759C43.3991 42.5632 40.2454 39.4094 40.2454 35.5327C40.2454 31.656 43.3991 28.5022 47.2759 28.5022H61.0646L59.1649 24.9466C58.7989 24.2618 59.0575 23.4097 59.7423 23.0439C60.4274 22.6779 61.2791 22.9365 61.6451 23.6213L95.4974 86.9766C96.2025 88.2963 96.1642 89.8501 95.395 91.1334C94.6252 92.4165 93.2727 93.1827 91.7765 93.1827ZM32.7465 84.1382C32.8737 84.1382 33.0008 84.1554 33.1243 84.1897C33.6798 84.3444 35.3116 84.746 36.1737 84.746C37.4079 84.746 38.7558 83.7617 39.8725 82.0453C40.9782 80.3454 41.6653 78.2153 41.6653 76.4865C41.6653 73.8102 40.3115 70.6852 36.4961 70.6852C35.5244 70.6852 33.7106 71.0925 33.0938 71.2497C32.8662 71.3078 32.6271 71.3078 32.3995 71.2497C31.7825 71.0927 29.9688 70.6852 28.9971 70.6852C25.1817 70.6852 23.8279 73.8102 23.8279 76.4865C23.8279 78.2155 24.5149 80.3454 25.6208 82.0453C26.7372 83.7617 28.0854 84.746 29.3196 84.746C30.1818 84.746 31.8135 84.3442 32.3695 84.1895C32.4925 84.1552 32.6194 84.1382 32.7465 84.1382ZM53.1822 70.8224C53.7293 76.4295 57.219 80.9082 61.6441 81.7362C61.0969 76.129 57.6071 71.6503 53.1822 70.8224ZM73.0677 70.8224C68.6426 71.6503 65.153 76.129 64.6058 81.7362C69.0308 80.9082 72.5206 76.4295 73.0677 70.8224ZM59.1068 45.3754H70.08L62.5669 31.3144H52.8965C53.781 32.4901 54.306 33.9513 54.306 35.5327V40.5748L59.1068 45.3754ZM47.2755 31.3144C44.9494 31.3144 43.0572 33.2066 43.0572 35.5327C43.0572 37.8587 44.9494 39.751 47.2755 39.751H51.4938V35.5327C51.4938 33.2066 49.6015 31.3144 47.2755 31.3144ZM42.6099 58.8711C41.9374 59.2594 41.0774 59.029 40.6891 58.3565L37.8769 53.4858C37.4887 52.8133 37.7191 51.9533 38.3916 51.565C39.064 51.1768 39.924 51.4072 40.3123 52.0797L43.1245 56.9504C43.513 57.6229 43.2825 58.4828 42.6099 58.8711ZM50.1091 58.8711C49.4366 59.2594 48.5766 59.029 48.1883 58.3565L45.3761 53.4858C44.9879 52.8133 45.2183 51.9533 45.8908 51.565C46.5631 51.1768 47.4232 51.4072 47.8115 52.0797L50.6237 56.9504C51.0121 57.6229 50.7817 58.4828 50.1091 58.8711ZM57.6083 58.8711C56.9358 59.2594 56.0758 59.029 55.6875 58.3565L52.8753 53.4858C52.4871 52.8133 52.7175 51.9533 53.39 51.565C54.0624 51.1768 54.9224 51.4072 55.3107 52.0797L58.1229 56.9504C58.5113 57.6229 58.2809 58.4828 57.6083 58.8711ZM47.9999 25.69C45.3158 25.69 43.1318 23.5062 43.1318 20.8219C43.1318 18.6593 45.9567 14.1667 46.8227 12.8414C47.0824 12.4438 47.525 12.2044 47.9999 12.2044C48.4748 12.2044 48.9174 12.444 49.1771 12.8414C50.0431 14.1667 52.868 18.6595 52.868 20.8219C52.868 23.5062 50.6842 25.69 47.9999 25.69ZM47.9999 16.2924C46.8771 18.224 45.944 20.1558 45.944 20.8219C45.944 21.9554 46.8662 22.8778 47.9999 22.8778C49.1334 22.8778 50.0558 21.9556 50.0558 20.8219C50.0558 20.1558 49.1229 18.224 47.9999 16.2924Z" fill="#87E29B"/>
</g>
<defs>
<clipPath id="clip0">
<rect width="96" height="96" fill="white"/>
</clipPath>
</defs>
</svg>
