<svg width="96" height="88" viewBox="0 0 96 88" fill="none" xmlns="http://www.w3.org/2000/svg">
<path d="M22.4914 8.22217C32.8791 8.22217 35.8661 15.5067 36.5426 21.6175C36.6285 22.393 37.2847 22.9668 38.0473 22.9668C38.1028 22.9668 38.1592 22.9636 38.2159 22.9572C39.048 22.8654 39.6478 22.1161 39.5556 21.284C39.2449 18.4767 38.3409 14.4329 35.7997 11.1097C32.7969 7.18192 28.3191 5.19067 22.4912 5.19067C21.6538 5.19067 20.9754 5.86924 20.9754 6.70642C20.9754 7.54342 21.6542 8.22217 22.4914 8.22217Z" fill="#87E29B"/>
<path d="M43.6656 19.2646C44.9501 19.6439 46.3084 19.8363 47.7021 19.8363H47.7024C51.5023 19.8363 55.3093 18.4181 58.4216 15.8433C62.6961 12.308 65.0447 7.00043 64.5499 1.99137C64.4893 1.37731 64.0624 0.861306 63.4706 0.686556C62.1857 0.307243 60.8274 0.114868 59.4338 0.114868C55.6343 0.114868 51.8273 1.53293 48.7151 4.10712C44.4405 7.64168 42.0919 12.9498 42.5863 17.9596C42.6471 18.5735 43.0736 19.0897 43.6656 19.2646ZM50.6473 6.44337C53.2178 4.31749 56.3379 3.14637 59.4341 3.14637C60.1686 3.14637 60.8882 3.21331 61.5844 3.34568C61.5812 7.04693 59.6919 10.8592 56.4896 13.5071C53.919 15.6335 50.7986 16.8044 47.7023 16.8044C46.9676 16.8044 46.2484 16.7375 45.5522 16.6053C45.5556 12.9037 47.4452 9.09087 50.6473 6.44337Z" fill="#87E29B"/>
<path d="M94.4842 47.8736H76.3382V40.3171C76.3382 39.48 75.6596 38.8014 74.8224 38.8014H73.2394C72.369 35.1601 70.866 31.8571 68.7592 28.9698C68.3398 28.3498 63.3401 21.2233 55.155 21.2233C53.3846 21.2233 51.5844 21.5656 49.8041 22.2406C42.5784 24.9808 39.6478 25.2766 38.7231 25.2768C38.6407 25.2768 38.5806 25.274 38.5404 25.2716C38.2065 25.1266 38.1326 25.1266 37.7983 25.2716C37.758 25.2742 37.6978 25.2768 37.6151 25.2768C36.6907 25.2768 33.7603 24.981 26.5341 22.2406C24.7537 21.5656 22.9536 21.2233 21.1832 21.2233C12.9969 21.2233 7.99819 28.35 7.57894 28.97C5.472 31.8573 3.96937 35.1603 3.09881 38.8016H1.51575C0.678375 38.8016 0 39.4803 0 40.3173V58.4617C0 59.2991 0.678562 59.9775 1.51575 59.9775H4.10512C6.414 68.4058 10.3941 75.9438 13.4417 80.2957C20.9244 90.9813 28.5992 87.653 30.7732 86.3778C32.3846 85.4327 35.8147 84.8608 37.1117 84.7051H39.2265C40.5221 84.86 43.9483 85.4296 45.5649 86.378C46.5152 86.9355 48.5162 87.8853 51.0936 87.8851C54.4117 87.885 58.6847 86.3101 62.8961 80.2957C64.7887 77.5927 67.0419 73.6608 69.0307 69.0493H83.3814C84.2188 69.0493 84.8972 68.3707 84.8972 67.5335C84.8972 66.6963 84.2188 66.0178 83.3814 66.0178H70.2602C70.2876 65.946 70.3119 65.8743 70.3387 65.8025C70.482 65.4206 70.6234 65.0356 70.7614 64.6473C70.7972 64.5468 70.8324 64.4465 70.8677 64.346C71.0096 63.941 71.1484 63.5325 71.2837 63.1211C71.3038 63.0603 71.3246 62.9994 71.3443 62.9386C71.4876 62.4995 71.6257 62.0561 71.7607 61.6106C71.7808 61.5446 71.8014 61.4782 71.8211 61.4122C71.9507 60.9793 72.0756 60.5433 72.1965 60.1051C72.2083 60.0628 72.2216 60.0198 72.2331 59.9775H74.8215C75.6589 59.9775 76.3372 59.2991 76.3372 58.4617V50.9053H79.5322V57.1908C79.5322 58.0282 80.2106 58.7066 81.048 58.7066C81.8854 58.7066 82.5637 58.028 82.5637 57.1908V50.9053H86.2969V54.4788C86.2969 55.3162 86.9752 55.9946 87.8126 55.9946C88.65 55.9946 89.3284 55.316 89.3284 54.4788V50.9053H92.9679V66.018H88.0957C87.2584 66.018 86.58 66.6963 86.58 67.5337C86.58 68.3711 87.2584 69.0495 88.0957 69.0495H94.4837C95.3211 69.0495 95.9994 68.3711 95.9994 67.5337V49.3895C96 48.552 95.3216 47.8736 94.4842 47.8736ZM10.0442 30.7342C10.0579 30.7153 10.0716 30.696 10.0845 30.6765C10.1269 30.6123 14.4169 24.2548 21.1832 24.2548C22.5849 24.2548 24.0238 24.5308 25.4591 25.0753C32.8774 27.8883 36.2593 28.3083 37.6149 28.3083C37.8375 28.3083 38.0201 28.2975 38.169 28.2815C38.3177 28.2975 38.5009 28.3083 38.7232 28.3083C40.0792 28.3081 43.4614 27.8881 50.8791 25.0753C52.3146 24.531 53.7534 24.2548 55.155 24.2548C61.8808 24.2548 66.2126 30.6151 66.2539 30.6766C66.2666 30.6963 66.2801 30.7153 66.2938 30.7342C68.0347 33.114 69.3159 35.8211 70.1145 38.8012H6.22369C7.02206 35.8211 8.30325 33.1141 10.0442 30.7342ZM73.3071 49.3893V56.9458H73.3067H71.0661H67.2124H62.4984C61.6611 56.9458 60.9827 57.6241 60.9827 58.4615C60.9827 59.2989 61.6611 59.9773 62.4984 59.9773H67.2124H69.0829C69.0619 60.0502 69.0422 60.1228 69.0208 60.1957C69.0021 60.26 68.9829 60.324 68.964 60.3881C68.7619 61.0698 68.5466 61.7538 68.3177 62.4401C68.3055 62.4763 68.2937 62.5123 68.2815 62.5485C67.7901 64.0123 67.2382 65.4836 66.6289 66.9525C66.6266 66.9579 66.6253 66.9635 66.6232 66.9691C64.6416 71.7435 62.3325 75.8161 60.4136 78.5565C54.5822 86.8831 49.1599 84.971 47.0992 83.7628C44.6032 82.2988 40.0027 81.7417 39.4862 81.6828C39.4294 81.6765 39.3724 81.6731 39.315 81.6731H37.0236C36.9664 81.6731 36.9094 81.6763 36.8522 81.6828C36.3358 81.7417 31.7357 82.2986 29.2399 83.7626C27.1794 84.9712 21.7567 86.883 15.9253 78.5565C13.1211 74.5518 9.48337 67.7034 7.25306 59.9769H38.9192H57.3107C58.1481 59.9769 58.8264 59.2985 58.8264 58.4611C58.8264 57.6238 58.1481 56.9454 57.3107 56.9454H38.9192H5.27175H3.0315V41.8325H4.31756H5.95762V47.75C5.95762 48.5872 6.63619 49.2658 7.47337 49.2658C8.31056 49.2658 8.98912 48.587 8.98912 47.75V41.8327H12.7222V45.038C12.7222 45.8754 13.4006 46.5538 14.238 46.5538C15.0754 46.5538 15.7537 45.8754 15.7537 45.038V41.8327H19.4865V47.75C19.4865 48.5872 20.1649 49.2658 21.0022 49.2658C21.8396 49.2658 22.518 48.587 22.518 47.75V41.8327H26.2511V45.038C26.2511 45.8754 26.9295 46.5538 27.7669 46.5538C28.6042 46.5538 29.2826 45.8754 29.2826 45.038V41.8327H33.0157V47.75C33.0157 48.5872 33.6941 49.2658 34.5315 49.2658C35.3689 49.2658 36.0472 48.587 36.0472 47.75V41.8327H39.78V45.038C39.78 45.8754 40.4584 46.5538 41.2957 46.5538C42.1331 46.5538 42.8115 45.8754 42.8115 45.038V41.8327H46.5446V47.75C46.5446 48.5872 47.223 49.2658 48.0604 49.2658C48.8977 49.2658 49.5761 48.587 49.5761 47.75V41.8327H53.3092V45.038C53.3092 45.8754 53.9878 46.5538 54.825 46.5538C55.6622 46.5538 56.3407 45.8754 56.3407 45.038V41.8327H60.0729V47.75C60.0729 48.5872 60.7515 49.2658 61.5887 49.2658C62.4259 49.2658 63.1044 48.587 63.1044 47.75V41.8327H66.8376V45.038C66.8376 45.8754 67.5159 46.5538 68.3533 46.5538C69.1907 46.5538 69.8691 45.8754 69.8691 45.038V41.8327H72.0204H73.3065V49.3893H73.3071Z" fill="#87E29B"/>
</svg>
