<svg width="24" height="24" viewBox="0 0 24 24" fill="none" xmlns="http://www.w3.org/2000/svg">
<path d="M23.9374 9.20646C23.7803 8.72049 23.3493 8.37532 22.8393 8.32936L15.9123 7.70038L13.1731 1.28914C12.9712 0.819283 12.5112 0.515137 12.0001 0.515137C11.4891 0.515137 11.0291 0.819283 10.8271 1.29024L8.08797 7.70038L1.15982 8.32936C0.65077 8.37642 0.220828 8.72049 0.0628038 9.20646C-0.0952203 9.69244 0.0507185 10.2255 0.435799 10.5615L5.67183 15.1535L4.12785 21.9548C4.01487 22.4548 4.20897 22.9718 4.62389 23.2717C4.84692 23.4328 5.10785 23.5149 5.37098 23.5149C5.59786 23.5149 5.8229 23.4537 6.02487 23.3329L12.0001 19.7617L17.9732 23.3329C18.4103 23.5958 18.9612 23.5718 19.3752 23.2717C19.7904 22.9709 19.9843 22.4537 19.8713 21.9548L18.3273 15.1535L23.5633 10.5624C23.9484 10.2255 24.0955 9.69335 23.9374 9.20646Z" fill="#FFC107"/>
</svg>
