<svg width="1202" height="629" viewBox="0 0 1202 629" fill="none" xmlns="http://www.w3.org/2000/svg">
<path d="M1201 199.365C1119.62 191.912 1046.27 160.199 993.524 96.1891C976.721 75.7292 962.257 47.3776 974.238 23.7026C982.858 6.75011 1004.19 -1.72613 1022.89 1.78128C1041.59 5.28869 1057.37 19.026 1066.43 35.8324C1075.49 52.6387 1078.41 72.0756 1078.27 91.2202C1077.98 128.925 1065.7 167.068 1041.3 195.858C1016.9 224.648 980.082 243.354 942.386 243.062C916.378 242.916 889.786 234.147 865.094 242.039C835.287 251.392 817.754 281.497 804.896 309.995C787.801 347.992 762.232 407.618 709.633 394.757C691.953 390.519 678.219 377.22 663.17 367.136C648.12 357.053 628.25 349.746 612.177 358.222C595.667 366.99 584.27 391.25 566.445 386.135C554.464 382.774 548.62 366.844 536.346 364.944C516.037 361.875 512.969 394.319 497.92 408.202C471.62 432.462 439.183 399.726 416.39 388.473C385.561 373.42 350.641 365.237 316.743 362.46C217.681 354.276 127.239 391.981 73.1783 476.743C44.1024 522.339 27.5921 574.95 17.3644 628C78.2922 581.381 125.047 516.201 149.448 443.569C173.41 372.544 180.861 281.205 153.831 209.888C130.6 148.654 73.3243 94.4353 14.1499 68.5682C9.76657 66.6683 5.38328 64.9147 0.999982 63.3071" stroke="#CBEAFF" stroke-width="1.5" stroke-miterlimit="10" stroke-linecap="round" stroke-linejoin="round"/>
</svg>
