<svg width="1202" height="629" viewBox="0 0 1202 629" fill="none" xmlns="http://www.w3.org/2000/svg">
<path d="M1 199.365C82.3832 191.912 155.73 160.199 208.476 96.1891C225.279 75.7292 239.743 47.3776 227.762 23.7026C219.142 6.75011 197.81 -1.72613 179.108 1.78128C160.406 5.28869 144.626 19.026 135.567 35.8324C126.508 52.6387 123.586 72.0756 123.732 91.2202C124.024 128.925 136.298 167.068 160.698 195.858C185.098 224.648 221.918 243.354 259.614 243.062C285.622 242.916 312.214 234.147 336.906 242.039C366.713 251.392 384.246 281.497 397.104 309.995C414.199 347.992 439.768 407.618 492.367 394.757C510.047 390.519 523.781 377.22 538.83 367.136C553.88 357.053 573.75 349.746 589.823 358.222C606.333 366.99 617.73 391.25 635.555 386.135C647.536 382.774 653.38 366.844 665.654 364.944C685.963 361.875 689.031 394.319 704.08 408.202C730.38 432.462 762.817 399.726 785.61 388.473C816.439 373.42 851.359 365.237 885.257 362.46C984.319 354.276 1074.76 391.981 1128.82 476.743C1157.9 522.339 1174.41 574.95 1184.64 628C1123.71 581.381 1076.95 516.201 1052.55 443.569C1028.59 372.544 1021.14 281.205 1048.17 209.888C1071.4 148.654 1128.68 94.4353 1187.85 68.5682C1192.23 66.6683 1196.62 64.9147 1201 63.3071" stroke="#CBEAFF" stroke-width="1.5" stroke-miterlimit="10" stroke-linecap="round" stroke-linejoin="round"/>
</svg>
