<svg width="40" height="40" viewBox="0 0 40 40" fill="none" xmlns="http://www.w3.org/2000/svg">
<g clip-path="url(#clip0)">
<path d="M39.4137 33.1463C39.4135 33.1463 39.4132 33.1463 39.413 33.1463L37.1707 33.1489L37.1683 31.2575C37.1679 30.9339 36.9054 30.6719 36.5819 30.6719C36.5817 30.6719 36.5814 30.6719 36.5812 30.6719C36.2573 30.6723 35.9951 30.9351 35.9955 31.259L35.998 33.1502L27.2256 33.1604L27.2169 25.6462L33.2881 25.6391C33.598 25.6388 33.889 25.5179 34.1078 25.2987C34.3266 25.0794 34.4468 24.788 34.4464 24.4783L34.4394 18.3519C34.439 18.0422 34.318 17.751 34.0988 17.5323C33.8799 17.314 33.5891 17.1937 33.2798 17.1937C33.2794 17.1937 33.2789 17.1937 33.2784 17.1937L27.207 17.2007L27.2042 14.7757L35.9766 14.7657L35.9923 28.6006C35.9927 28.9242 36.2551 29.1863 36.5787 29.1863H36.5794C36.9033 29.1859 37.1655 28.9231 37.1652 28.5993L37.1494 14.7644L38.3036 14.7631C39.1946 14.7618 39.9184 14.0361 39.9172 13.1456L39.9156 11.6076C39.9145 10.7169 39.1896 9.99313 38.2997 9.99313C38.299 9.99313 38.2981 9.99313 38.2975 9.99313L34.5416 9.99703C34.2177 9.99735 33.9554 10.2602 33.9558 10.584C33.9561 10.9077 34.2186 11.1698 34.5422 11.1698H34.5428L38.2989 11.1659H38.2994C38.5437 11.1659 38.7426 11.3646 38.7429 11.609L38.7445 13.147C38.7448 13.3911 38.5463 13.59 38.3021 13.5903L27.2029 13.6029L27.2001 11.1785L31.8846 11.1729C32.2084 11.1725 32.4706 10.9097 32.4703 10.5858C32.4699 10.2622 32.2074 10.0002 31.8839 10.0002C31.8836 10.0002 31.8834 10.0002 31.8832 10.0002L27.1988 10.0057L27.1956 7.25241C27.1951 6.82006 27.0262 6.41374 26.7201 6.10844C26.4145 5.80352 26.0086 5.63574 25.5769 5.63574C25.5763 5.63574 25.5756 5.63574 25.575 5.63574L14.3596 5.64872C13.9272 5.64919 13.5209 5.81807 13.2156 6.12415C12.9103 6.43024 12.7424 6.83687 12.7429 7.26922L12.7461 10.0226L1.64669 10.0355C1.21505 10.036 0.809431 10.2047 0.504595 10.5105C0.199993 10.8162 0.0325246 11.2222 0.0330719 11.6537L0.034792 13.1919C0.035261 13.6235 0.203824 14.029 0.509207 14.3337C0.8142 14.638 1.21935 14.8055 1.65013 14.8055H1.65217L2.81295 14.8041V16.5598C2.81295 16.8836 3.07549 17.1462 3.39933 17.1462C3.72316 17.1462 3.9857 16.8836 3.9857 16.5598V14.8027L12.7515 14.7926L12.7543 17.2173L6.68341 17.2244C6.37357 17.2247 6.0825 17.3456 5.86374 17.5649C5.64498 17.7841 5.52474 18.0755 5.52513 18.3853L5.53216 24.5117C5.53256 24.8214 5.6535 25.1126 5.87273 25.3313C6.09164 25.5496 6.38241 25.6699 6.6917 25.6699H6.69318L12.7642 25.6629L12.7729 33.1771L3.98578 33.1873V19.2181C3.98578 18.8943 3.72324 18.6317 3.39941 18.6317C3.07557 18.6317 2.81303 18.8943 2.81303 19.2181V33.1887L0.585749 33.1912C0.261836 33.1916 -0.000390479 33.4545 4.36503e-07 33.7783C0.000391352 34.1019 0.262774 34.364 0.586374 34.364H0.587078L39.4143 34.319C39.7382 34.3187 40.0004 34.0558 40 33.732C39.9996 33.4084 39.7372 33.1463 39.4137 33.1463ZM33.2666 18.3665L33.2736 24.4665L27.2155 24.4735L27.2085 18.3735L33.2666 18.3665ZM1.65084 13.6328C1.65068 13.6328 1.65053 13.6328 1.65029 13.6328C1.53216 13.6328 1.42114 13.5869 1.33756 13.5036C1.2539 13.4201 1.2077 13.309 1.20754 13.1906L1.20582 11.6523C1.20566 11.5338 1.25164 11.4224 1.33529 11.3384C1.41879 11.2546 1.52989 11.2084 1.6481 11.2082L12.7475 11.1954L12.7503 13.62L1.65084 13.6328ZM6.70499 24.4973L6.69795 18.3973L12.7557 18.3902L12.7628 24.4902L6.70499 24.4973ZM13.9156 7.26789C13.9154 7.14882 13.9617 7.03679 14.0458 6.9525C14.13 6.86822 14.2418 6.8217 14.3609 6.82155L25.5764 6.80857H25.5769C25.8225 6.80857 26.0225 7.00825 26.0228 7.2539L26.0527 33.1619L24.5873 33.1636L24.5753 22.8228C24.5748 22.3285 24.3849 21.8634 24.0409 21.5133C23.6943 21.1607 23.233 20.9665 22.7417 20.9665C22.741 20.9665 22.7402 20.9665 22.7395 20.9665L17.2308 20.9729C16.7387 20.9735 16.277 21.1688 15.9307 21.5228C15.5875 21.8737 15.3987 22.3391 15.3994 22.8335L15.4113 33.1743L13.9455 33.176L13.9156 7.26789ZM16.5721 22.832C16.5719 22.6465 16.6418 22.4727 16.769 22.3427C16.8932 22.2157 17.0577 22.1457 17.2322 22.1455L22.7409 22.1391H22.7417C22.9159 22.1391 23.0802 22.2088 23.2045 22.3352C23.332 22.465 23.4023 22.6386 23.4026 22.824L23.4145 33.1647L16.5841 33.1726L16.5721 22.832Z" fill="#292929"/>
<path d="M16.1847 15.6493H16.1861L18.1414 15.6471L18.1436 17.6023C18.1443 18.2055 18.6353 18.6957 19.2382 18.6957H19.2396L20.7254 18.694C21.0178 18.6936 21.2926 18.5795 21.4991 18.3725C21.7056 18.1655 21.8192 17.8904 21.8188 17.598L21.8165 15.6428L23.7716 15.6405C24.3752 15.6399 24.8657 15.1483 24.8651 14.5445L24.8634 13.0587C24.8631 12.7663 24.7488 12.4915 24.5418 12.285C24.3351 12.0787 24.0607 11.9653 23.7687 11.9653C23.7684 11.9653 23.7678 11.9653 23.7673 11.9653L21.8121 11.9675L21.8099 10.0124C21.8096 9.72001 21.6954 9.44527 21.4884 9.23871C21.2817 9.03247 21.0072 8.91895 20.7153 8.91895C20.7149 8.91895 20.7144 8.91895 20.7139 8.91895L19.228 8.92067C18.9356 8.92098 18.6609 9.0352 18.4543 9.24223C18.2478 9.44918 18.1343 9.72431 18.1346 10.0166L18.1369 11.9718L16.1818 11.9741C15.8894 11.9744 15.6146 12.0886 15.4081 12.2956C15.2015 12.5026 15.088 12.7777 15.0884 13.0701L15.0901 14.5559C15.0904 14.8483 15.2046 15.1231 15.4116 15.3296C15.6184 15.5359 15.8929 15.6493 16.1847 15.6493ZM18.7248 13.144C19.0487 13.1436 19.3109 12.8807 19.3105 12.5569L19.3076 10.0934L20.6373 10.0918L20.6402 12.5554C20.6402 12.5757 20.6413 12.5956 20.6433 12.6153C20.6736 12.9107 20.9232 13.1411 21.2265 13.1411H21.2272L23.6907 13.1382L23.6923 14.4678L21.2287 14.4707C20.9049 14.4711 20.6427 14.734 20.6431 15.0578L20.646 17.5213L19.3162 17.5228L19.3133 15.0593C19.3129 14.7357 19.0505 14.4736 18.7269 14.4736C18.7268 14.4736 18.7265 14.4736 18.7262 14.4736L16.2628 14.4765L16.2612 13.1469L18.7248 13.144Z" fill="#292929"/>
</g>
<defs>
<clipPath id="clip0">
<rect width="40" height="40" fill="white"/>
</clipPath>
</defs>
</svg>
