<svg width="40" height="38" viewBox="0 0 40 38" fill="none" xmlns="http://www.w3.org/2000/svg">
<path d="M36.7445 29.7959L36.3093 29.6961C40.5268 26.2409 41.4256 18.5687 37.4531 14.5712C35.9245 13.0338 35.0114 10.6006 35.0114 8.06181C35.0114 4.38199 32.5907 1.38759 29.6146 1.38759C26.6395 1.38759 24.2179 4.38199 24.2179 8.06181C24.2179 8.898 24.119 9.72197 23.931 10.5063C21.1585 7.30619 16.7557 6.93937 13.8117 8.98497V1.47884C13.8117 1.15352 13.5477 0.889545 13.2227 0.889545C12.8973 0.889545 12.6334 1.15352 12.6334 1.47884V3.79269C10.8734 0.617632 7.67088 -0.231675 4.08444 0.490373C3.7222 0.563616 3.51559 0.949359 3.65536 1.29177C3.68832 1.37203 4.48209 3.28518 6.0156 4.9603C7.83049 6.94303 10.083 7.92753 12.6334 7.22135V8.98497C9.17235 6.58018 3.37735 7.44352 0.996663 12.9269C0.867268 13.2254 1.0046 13.5718 1.30306 13.7015C1.60183 13.8312 1.9482 13.6945 2.0779 13.3957C4.25656 8.37858 9.46624 7.97331 12.2293 10.1495C12.8046 10.6335 13.6435 10.6311 14.2157 10.1495C17.3612 7.6721 22.8028 8.75029 24.6674 14.1711C25.6699 17.0908 25.4694 20.1441 23.7293 23.3023C23.0371 24.5404 22.4683 25.5698 21.9983 26.427C18.349 25.6409 17.8281 25.3534 16.586 25.3803C16.2607 25.3867 16.0022 25.6553 16.0092 25.9806C16.0156 26.3068 16.2836 26.5659 16.6104 26.558C16.8241 26.5534 17.0667 26.5644 17.3227 26.5958L16.9693 29.7696C16.9333 30.0928 17.1662 30.3843 17.4896 30.4203C17.8144 30.4563 18.1046 30.2222 18.1406 29.9L18.4824 26.8317C20.8362 27.3691 22.3682 27.7195 24.1935 28.137L24.025 29.6503C23.989 29.9738 24.2218 30.2653 24.5453 30.3013C24.87 30.3373 25.1603 30.1032 25.1963 29.7806L25.3498 28.4009C25.7139 28.4842 34.0775 30.3947 34.1822 30.4188L33.7272 34.5042C33.6912 34.8277 33.9243 35.1191 34.2475 35.1551C34.5725 35.1911 34.8624 34.957 34.8985 34.6348L35.3388 30.683L36.4823 30.9446C37.8999 31.2681 38.8362 32.5849 38.6744 34.0305C38.5142 35.4682 37.3017 36.555 35.8555 36.558L29.824 36.5696L30.0382 34.6482C30.0742 34.3247 29.8414 34.0333 29.5179 33.9973C29.1941 33.9616 28.903 34.1941 28.8669 34.5176L28.6381 36.572L22.8574 36.583L23.0585 34.7767C23.0945 34.4535 22.8617 34.1621 22.5382 34.126C22.2156 34.0897 21.9233 34.3229 21.8872 34.6464C21.8372 35.0965 21.6764 36.5376 21.6715 36.5855L18.9038 36.5907L19.2542 33.4464C19.2902 33.1232 19.0573 32.8318 18.7338 32.7958C18.4101 32.7595 18.1189 32.9926 18.0829 33.3161L17.7176 36.5931C17.7118 36.5931 17.7075 36.5931 17.7042 36.5931C17.7039 36.5931 17.7033 36.5931 17.703 36.5931C17.702 36.5931 17.7011 36.5931 17.7002 36.5931C17.7002 36.5931 17.6999 36.5931 17.6996 36.5931C17.6984 36.5931 17.6978 36.5931 17.6966 36.5931C17.6584 36.5931 17.4735 36.5934 16.7206 36.5949C14.4077 36.5949 12.4249 35.0172 11.8613 32.837C11.283 30.6101 12.2955 28.1235 14.5749 27.0405C14.8688 26.9007 14.9942 26.5494 14.8544 26.2555C14.7147 25.9617 14.3634 25.8359 14.0695 25.976C12.9208 26.521 11.994 27.3807 11.3773 28.4318C10.1846 27.837 8.82048 26.9013 8.09294 25.5234C7.15269 23.7372 4.44089 24.408 4.43173 26.4246L2.58541 23.068C1.31985 20.7685 0.856281 18.1876 1.40713 15.524C1.47304 15.2051 1.26796 14.8932 0.949055 14.8273C0.630145 14.7614 0.318865 14.9664 0.252947 15.2853C-0.337876 18.1436 0.110734 21.015 1.55239 23.6362L4.06979 28.2117L2.225 28.006C1.15749 27.8873 0.197099 28.6545 0.0783854 29.7227C-0.0400232 30.7874 0.729023 31.7506 1.7944 31.8693L4.84891 32.2092C4.09146 32.8873 3.48172 33.502 3.55832 34.4712C3.69076 36.1845 5.84623 36.8983 6.97264 35.583C7.89976 34.4981 9.34844 33.8279 10.8169 33.4663C11.6153 35.9617 13.9597 37.7735 16.7206 37.7735C17.6184 37.7717 34.7727 37.7387 35.857 37.7366C38.0845 37.7323 39.871 35.9272 39.871 33.7122C39.8707 31.8268 38.5853 30.2161 36.7445 29.7959ZM5.06803 1.51821C8.98619 0.983234 11.4569 2.85061 12.2821 6.09556C9.08995 6.95493 6.57957 4.43143 5.06803 1.51821ZM34.7724 29.3448L23.1974 26.7002C23.5318 26.0874 23.9029 25.4111 24.3161 24.6671C25.4075 26.547 27.4421 27.8135 29.7669 27.8135C32.7579 27.8135 35.3547 25.6876 35.9406 22.7585C36.0044 22.4396 35.7969 22.1292 35.478 22.0658C35.1582 22.002 34.8487 22.2086 34.7849 22.5275C34.3089 24.9073 32.1986 26.6352 29.7669 26.6352C27.6142 26.6352 25.7679 25.2988 25.0129 23.4122C25.9919 21.5488 26.4609 19.5798 26.4451 17.6267C29.4016 15.0986 33.96 16.6931 34.7685 20.4282C34.8377 20.7465 35.1502 20.9485 35.4694 20.8792C35.7874 20.8103 35.9895 20.4965 35.9202 20.1786C35.6211 18.7949 34.8478 17.5369 33.7455 16.6367C31.6511 14.9274 28.6573 14.7345 26.3517 16.2299C26.1554 14.6811 25.6406 13.067 24.8182 11.7224C25.196 10.5832 25.3965 9.34325 25.3965 8.06181C25.3965 5.34299 27.0899 2.56619 29.6146 2.56619C32.1125 2.56619 33.8328 5.30576 33.8328 8.06181C33.8328 10.947 34.8478 13.6221 36.6172 15.4025C39.6861 18.4885 39.3891 24.2179 36.7234 27.5928C36.1442 28.3259 35.485 28.9152 34.7724 29.3448ZM10.5661 32.306C8.88732 32.7143 7.1887 33.5169 6.07694 34.817C5.80259 35.1377 5.31858 35.1752 4.99814 34.9012C4.67679 34.6256 4.63925 34.1434 4.91422 33.823C5.42722 33.2233 6.04185 32.7015 6.69584 32.2816C7.15971 31.9816 6.99156 31.2623 6.44132 31.2015C5.93107 31.1445 2.31075 30.7407 1.92471 30.6977C1.506 30.6513 1.20266 30.272 1.24904 29.8533C1.29543 29.4391 1.66622 29.1312 2.09438 29.1776C2.09683 29.1779 2.09927 29.1779 2.1014 29.1782C2.10018 29.1782 2.09896 29.1779 2.09805 29.1779C2.10079 29.1782 2.10537 29.1788 2.11208 29.1794C2.11178 29.1794 2.11147 29.1794 2.11086 29.1794C2.11727 29.18 2.12185 29.1804 2.1246 29.181C2.12246 29.1807 2.11941 29.1804 2.11605 29.1797C2.2366 29.1932 2.94064 29.2716 6.19779 29.6348C6.38517 29.6229 6.95616 29.8655 7.20579 29.3534C7.31504 29.1288 7.2711 28.8608 7.09654 28.6826C6.52464 28.0994 6.05405 27.4616 5.69822 26.7875C5.50107 26.4142 5.64481 25.9507 6.01713 25.7535H6.01804C6.39463 25.5555 6.85362 25.701 7.05107 26.0733C7.91929 27.7186 9.51171 28.8129 10.882 29.4941C10.5691 30.3763 10.4523 31.3566 10.5661 32.306Z" fill="#292929"/>
</svg>
