<svg width="40" height="40" viewBox="0 0 40 40" fill="none" xmlns="http://www.w3.org/2000/svg">
<path d="M38.1616 11.899H31.899C31.5754 11.899 31.313 12.1613 31.313 12.4849C31.313 12.8085 31.5754 13.0709 31.899 13.0709H38.1616C38.5291 13.0709 38.8281 13.3699 38.8281 13.7374V26.2626C38.8281 26.6302 38.5291 26.9291 38.1616 26.9291H27.5151C27.1915 26.9291 26.9291 27.1915 26.9291 27.5151V38.1615C26.9291 38.5291 26.6301 38.828 26.2626 38.828H20.5859V20.5957C22.9538 20.5497 25.3341 19.4863 27.2002 17.6202C29.2292 15.5912 30.3099 12.9548 30.1652 10.387C30.1484 10.0893 29.9108 9.85172 29.6131 9.83492C27.0455 9.69117 24.409 10.7708 22.3799 12.7998C20.3567 14.823 19.2767 17.4502 19.4141 20.0109V26.6545L12.9355 20.1758C12.7066 19.947 12.3356 19.947 12.1069 20.1758C11.878 20.4046 11.878 20.7756 12.1069 21.0044L15.2969 24.1945C13.826 23.9209 12.368 23.1444 11.2055 21.9818C9.7932 20.5696 8.95062 18.7217 8.88703 16.9438C10.6648 17.0075 12.5129 17.8502 13.925 19.2623C14.4291 19.7665 14.8638 20.3252 15.2169 20.9232C15.3814 21.2019 15.7407 21.2944 16.0193 21.1298C16.2979 20.9653 16.3905 20.606 16.2259 20.3274C15.8228 19.6447 15.3275 19.0075 14.7536 18.4338C12.937 16.6171 10.5763 15.6501 8.27437 15.7793C7.97672 15.7961 7.73914 16.0337 7.72234 16.3313C7.59266 18.6323 8.56015 20.994 10.3768 22.8105C12.0853 24.5191 14.2758 25.4766 16.4446 25.4766C16.4887 25.4766 16.5328 25.4755 16.5769 25.4747L18.6606 27.5584C19.0992 27.997 19.3617 28.5645 19.4141 29.1753V38.8281H13.7374C13.3698 38.8281 13.0709 38.5291 13.0709 38.1616V27.5151C13.0709 27.1915 12.8085 26.9291 12.4849 26.9291H1.83844C1.47086 26.9291 1.17187 26.6301 1.17187 26.2626V13.7374C1.17187 13.3698 1.47094 13.0709 1.83844 13.0709H12.4848C12.8084 13.0709 13.0708 12.8085 13.0708 12.4849V1.83844C13.0708 1.47086 13.3698 1.17188 13.7373 1.17188H26.2625C26.6301 1.17188 26.9291 1.47094 26.9291 1.83844V8.10078C26.9291 8.42438 27.1914 8.68672 27.515 8.68672C27.8386 8.68672 28.1009 8.42438 28.1009 8.10078V1.83844C28.101 0.824766 27.2763 0 26.2626 0H13.7374C12.7237 0 11.899 0.824766 11.899 1.83844V11.8989H1.83844C0.824766 11.899 0 12.7237 0 13.7374V26.2626C0 27.2763 0.824766 28.101 1.83844 28.101H11.8989V38.1615C11.8989 39.1752 12.7237 39.9999 13.7373 39.9999H26.2625C27.2762 39.9999 28.1009 39.1752 28.1009 38.1615V28.101H38.1614C39.1752 28.101 39.9998 27.2763 39.9998 26.2626V13.7374C40 12.7237 39.1752 11.899 38.1616 11.899ZM23.2085 13.6284C24.8309 12.0062 26.9612 11.0466 29.0035 10.9965C28.9534 13.0388 27.9938 15.1692 26.3716 16.7915C24.9892 18.1737 23.238 19.0745 21.4868 19.3418L24.7981 16.0305C25.0269 15.8016 25.0269 15.4306 24.7981 15.2019C24.5693 14.973 24.1983 14.973 23.9695 15.2019L20.6582 18.5132C20.9255 16.762 21.8262 15.0107 23.2085 13.6284Z" fill="#292929"/>
</svg>
