<svg width="880" height="880" fill="none" xmlns="http://www.w3.org/2000/svg"><circle cx="440" cy="440" r="439" fill="#F8FBF9" stroke="#87E29B" stroke-width="2"/><path d="M99 660.296c4.879-22.328 22.845-39.406 41.771-52.196 6.21-4.214 13.455-8.28 20.775-6.727 7.984 1.7 13.159 9.463 20.626 12.716 6.728 2.883 14.713 1.774 21.218-1.627 6.506-3.401 11.829-8.724 16.561-14.268a160 160 0 0028.463-48.943c4.954-13.603 7.467-28.389 4.954-42.658-1.996-11.459-7.172-22.327-8.059-33.934-.961-12.864 3.327-27.724 13.382-36.3a113.14 113.14 0 01-5.989 22.992c4.658-4.066 5.989-10.72 6.506-16.93.518-6.136.518-12.642 3.401-18.113 2.144-3.992 5.619-7.023 9.463-9.389 3.993-2.366 8.502-4.436 13.012-5.545-.296 4.066-.591 8.133-.887 12.273a41.56 41.56 0 00-11.755 8.058c2.514-.443 4.805-1.257 7.245-1.848-1.405 6.875-2.735 14.047-.665 20.7 1.109 3.623 3.179 6.876 4.731 10.351 1.405 3.179 2.292 6.506 3.179 9.759 1.035 3.844 2.07 7.689 3.179 11.533 2.736-8.206.444-17.078-2.218-25.284-1.922-5.693-3.918-11.46-5.249-17.3-1.256-5.619.148-11.46 1.109-17.004 1.331-7.32 1.996-14.713 2.292-22.18.37-9.463.74-19.296 0-28.759-.739-9.315-3.179-18.704-6.654-27.354-6.21-15.526-5.101-36.448 3.032-51.013-1.405 11.46-1.183 23.067-1.035 34.526 0 .592-.074 3.401 1.035 3.179 1.035-.222 1.404-2.735 1.478-3.475.148-3.474.518-6.801.592-10.276.074-4.066.369-8.206.443-12.199.074-4.14.813-8.206 2.218-12.05.444 5.323 1.109 10.572 1.331 15.895.222 5.545.222 11.163.074 16.708 0 .887-.074 1.849.074 2.736.222 1.109 1.109 3.031 2.513 2.292 1.109-.592 1.405-2.292 1.405-3.401.296-5.841-.813-11.533-.961-17.374-.074-2.735-.148-5.545.148-8.28.296-2.81 1.478-5.693 2.218-8.428a99.349 99.349 0 011.996 17.447c.148 5.767-.222 11.46 0 17.226 0 .666.074 1.405.444 1.922.369.518 1.108.962 1.7.592.517-.296.665-1.035.739-1.627 1.183-11.681.37-23.214.518-34.821 5.988 14.343 7.615 32.382 2.587 47.316-3.77 11.163-6.21 21.883-7.467 33.564-.887 8.059-1.478 16.117-1.922 24.25-.37 7.319.37 15.303-1.035 22.475-2.661 0-5.101 1.257-5.914 3.992-1.479 4.805 1.848 15.969 8.058 15.895 2.588 0 4.953-2.07 5.693-4.584 1.626-5.397-1.553-13.677-7.024-15.599v-9.241c4.362 2.587 7.172 7.097 9.833 11.385.813 1.257 1.553 2.588 1.774 4.066.222 1.479-.369 3.179-1.7 3.845-1.331.665-3.327-.37-3.179-1.849 1.848 5.397 3.623 10.72 5.471 16.117-.222-.443-.518-.887-.739-1.331-2.958-1.33-6.285 1.109-8.207 3.697a18.642 18.642 0 017.837-.591c-5.175 2.07-9.094 6.949-10.129 12.42 3.032-4.288 7.024-7.837 11.608-10.276-.148.073 1.182 8.132 1.404 9.093.666 3.771 2.218 7.467 3.105 11.238 1.701 7.467 2.514 15.303.444 22.77-1.848 6.58-5.767 12.273-9.168 18.187a142.701 142.701 0 00-14.49 34.896c-3.253 12.346-6.062 24.914-4.584 37.704 17.226-24.988 45.542-39.553 75.706-39.848 15.155-.148 30.163 2.07 45.245 3.031 30.977 1.848 62.324-2.07 91.896-11.459 21.219-6.728 42.215-16.783 56.262-34.009 11.459-14.047 17.521-32.012 19.665-50.051 5.028-41.401-10.35-84.873-40.218-113.927-34.747-33.787-88.717-46.799-134.628-31.273-45.911 15.525-81.176 59.514-85.169 107.791-3.253 39.701 14.417 80.585 45.616 105.278 19.813 15.673 44.358 24.914 69.421 28.241 29.35 3.919 60.401-.295 85.612-15.821 24.767-15.23 42.436-40.44 51.825-67.942 15.6-45.616 7.467-100.546-26.689-134.555-27.872-27.724-70.456-38.813-108.9-30.607-38.444 8.206-72.082 34.452-91.748 68.46-12.273 21.292-19.444 46.133-16.561 70.53 1.331 11.016 6.876 23.806 17.892 25.063 6.58.739 12.938-3.179 17.3-8.133 4.361-4.953 7.393-11.015 11.163-16.412 6.876-9.833 16.635-17.67 27.798-22.254-.887 2.514.592 5.028 3.031 5.915-3.105-2.144-7.171-2.883-9.241 1.109-1.109 2.07-.813 4.731.665 6.506-1.552-1.183-3.548-1.923-5.397-1.405-1.848.518-3.253 2.662-2.587 4.436.443 1.183 1.626 1.922 2.809 2.366 1.183.443 2.44.591 3.623.961 4.214 1.331 7.245 5.914 6.727 10.35-1.33-2.514-3.548-4.658-6.136-5.914-1.183-.592-2.513-1.035-3.844-.74-2.81.592-2.588 3.401-1.035 5.175.961 1.109 2.439 1.701 3.844 1.997-.961-1.627-1.996-3.253-3.475-4.362-1.478-1.183-3.474-1.775-5.249-1.109-1.774.665-3.031 2.661-2.365 4.436.591 1.478 2.217 2.291 3.77 2.513 1.553.222 3.179.148 4.732.518 1.552.369 3.031 1.478 3.179 3.105-1.331-.666-2.662-1.331-4.141-1.627-1.478-.295-3.105-.148-4.288.74-1.182.887-1.922 2.513-1.33 3.918.591 1.405 2.587 2.07 3.696 1.035-4.214 3.623-1.183 10.868 3.105 12.642.444.222 5.989.592 5.545-.517-.591-1.331-1.109-2.662-1.7-3.993-.444-1.035-.887-2.07-.961-3.179-.074-1.109.369-2.291 1.33-2.883 1.553-.887 3.549.296 4.51 1.848 1.627 2.662 1.257 6.284-.813 8.576-1.109 1.257-2.735 2.218-3.253 3.771-.739 2.44 1.331 4.805 3.697 5.027 1.922.222 3.844-.887 4.657-2.587 0 1.109 0 2.291.444 3.326.443 1.035 1.257 1.997 2.44 2.218 1.182.222 2.513-.443 3.031-1.552.517-1.109.074-2.588-.961-3.253 1.404 1.626 3.4 2.735 5.544 2.661 2.144 0 4.288-1.33 4.954-3.327 1.626-4.583-4.732-7.54-8.28-7.984 3.326 1.109 7.097-.665 8.428-3.918.221-.592.443-1.257.295-1.849-.147-.591-.591-1.257-1.183-1.33-3.622-.74-1.922 6.358-.295 7.541 5.471 3.992 11.311-4.732 6.284-8.798 3.549-.074 7.097-.222 10.646-.296 1.7-.074 3.549 0 4.658 1.257.887 1.035.887 2.809-.148 3.844-.961 1.035-2.736 1.109-3.845.222 1.109.887.37 3.992-.074 5.027-.739 1.701-1.922 3.253-3.918 3.327-1.774.074-3.623-1.7-3.031-3.475-.37 1.701-2.144 2.884-3.845 2.662-1.7-.222-3.031-1.996-2.809-3.697 1.996-.221 3.697-1.774 4.14-3.696.444-1.922-.517-4.066-2.218-5.101l17.004-.222c-2.07-1.627-3.696-3.179-6.21-3.327-3.105-.148-6.58.591-9.685.887 1.035-.148 1.996-1.035 2.218-2.07.222-1.035-.148-2.218-1.035-2.883 5.027-1.848 10.942-.813 13.16 4.14 2.661 5.914 5.175 11.829 7.023 18.039 1.331 4.436 1.257 9.167 1.553 13.751.074.518.074 1.109.443 1.479.37.369.888.443 1.405.517 1.7.222 12.494 0 12.79-1.7.074-.592-.222-1.183-.591-1.7-1.627-2.736-2.144-6.137-1.405-9.242 1.479 3.327 2.957 6.654 4.436 10.055 1.7.443 3.622 0 4.879-1.257-3.474-3.475-4.509-8.65-4.731-13.603-.222-4.954 0-9.981-1.553-14.565-.296 1.922 1.405 3.993 3.401 3.993 1.996 0 3.697-1.997 3.401-3.993 1.257 1.109 3.253 1.257 4.584.222 1.33-.961 1.848-2.957 1.109-4.51.517 1.701 2.957 2.662 4.657 2.07 2.588-.813 3.031-4.288.739-5.84.888.591 2.144.369 2.958-.296.813-.739 1.183-1.774 1.404-2.809.222-1.183.296-2.514-.295-3.549-.592-1.035-2.07-1.7-3.105-1.035-.666.37-.962 1.183-1.035 1.922 0 .739.221 1.479.517 2.144 1.479 2.957 6.358 6.654 9.685 4.584 1.626-.961 2.44-3.179 1.848-4.953.592.517 1.553.739 2.292.369.739-.296 1.257-1.109 1.331-1.922 0-1.109-.813-2.07-1.701-2.735-.887-.666-1.848-1.331-2.439-2.292-.518-.961-.518-2.292.443-2.958.961 3.549 8.355 2.07 6.211-1.774-.222-.444-.666-.813-1.036-1.109-.887-.665-1.774-.961-2.809-1.183-.961-.222-1.848.074-2.809.222.887-.444 1.552-1.405 1.626-2.366.074-1.035-.517-2.07-1.404-2.439-.888-.444-2.144-.074-2.662.739-.074-1.331-1.183-2.588-2.514-2.883.74 1.552.666 3.548-.295 5.027-1.405 2.292-4.436 3.179-6.802 1.996-1.848-.887-3.179-2.735-3.401-4.732-.074-.591-.074-1.256-.591-1.7-.592-.518-1.553-.148-2.144.37-1.183.961-1.922 2.513-1.996 4.066-.074 1.552.665 3.105 1.774 4.14-.813-.961-1.996-1.627-3.327-1.7-1.848 0-2.957 1.404-3.031 3.105 0 1.035.222 1.996.222 3.031 0 1.035-.296 2.07-1.183 2.661-.813.518-2.07.444-2.588 1.257-.296.518-.148 1.257.148 1.774.37.518.887.888 1.331 1.331 1.552 1.331 2.735 3.327 2.513 5.397-.221 1.775-1.478 3.327-3.179 3.919-1.7.517-3.622.073-4.879-1.257-1.183-1.331-1.553-3.327-.887-4.954.222-.591.665-1.183 1.183-1.478.517-.37 1.257-.518 1.848-.296.887.296 1.479 1.257 1.774 2.144.518 1.553.444 3.401-.443 4.806-.887 1.404-2.514 2.439-4.14 2.217-1.405-.147-2.662-1.182-3.401-2.365-.592-.888-.961-1.923-1.257-2.958-.444-1.552-.296-1.478.665-2.439 1.109-1.035 2.07-2.07 2.958-3.401 2.513-3.697 3.77-7.763 4.731-12.125 1.775.961 4.214.296 5.323-1.404 1.257-1.923.813-4.584-1.405-5.619 1.257-.592 2.588-1.183 3.845-1.849-.592-.739-.296-1.922.37-2.661.887-1.035 2.291-1.553 3.696-1.405 1.035.148 2.514.518 3.179 1.405.444.591.739 1.331 1.183 1.996.444.665 1.109 1.257 1.848 1.257.592 0 1.183-.37 1.479-.813.37-.444.517-1.109.517-1.701 1.036.961 2.144 1.996 3.549 2.292 1.479.296 3.179.074 4.51-.739 1.848-1.109 3.031-3.253 3.031-5.471 0-1.035-.296-2.144-.961-2.957-.813-1.035-2.218-1.701-3.549-1.553-1.33.074-2.587.887-3.253 2.07-.221.444-.369.961-.074 1.331.222.222.518.222.814.296 2.144.148 4.435-.814 5.84-2.44 3.031-3.475 1.701-11.533-3.918-11.311-1.774.073-3.475 1.256-4.214 2.883-.518-1.035-1.035-2.144-1.553-3.179.74-.296 1.331-1.035 1.405-1.848.443-3.106-3.549-1.923-3.179-.444-.296-1.035-1.479-1.626-2.514-1.405-1.035.222-1.848 1.109-2.218 2.07-.369.961-.443 2.07-.443 3.179-.074-1.552-1.849-2.661-3.401-2.365-1.553.295-2.662 1.774-2.883 3.326-.222 1.553.369 3.106 1.183 4.436-1.701-2.587-2.588-5.544-6.063-5.988-4.214-.518-7.689 2.366-6.949 6.728.369 2.144 1.848 4.066 3.77 5.027-1.922-1.257-4.879-.37-5.693 1.774-.813 2.144.74 4.806 3.032 5.175-2.292.074-4.214 2.366-3.919 4.658.222 1.627 1.701 3.031 3.253 3.327 1.922.37 3.401-.665 4.436-2.292a2.59 2.59 0 00.444-1.035.962.962 0 00-.37-.961c-.37-.296-.887-.222-1.257 0-.369.222-.591.665-.813 1.035-.739 1.7-.887 3.549-1.109 5.397-.222 1.774-.665 3.327-1.7 4.805-.444.666-.888 1.405-1.405 2.071-1.035 1.478-2.514 2.957-3.253 4.583v.074c-1.7-3.77-1.183-8.576 1.405-11.829-1.109.222-2.366-.295-2.958-1.257-.591-.961-.443-2.291.222-3.179.222 1.109-.739 2.218-1.848 2.218s-2.07-1.035-1.922-2.144c0 3.105-.148 6.063.074 9.094.148 1.405-.148 3.918.443 5.175-2.957-6.432-4.583-15.23-3.031-22.179.592 1.848 2.883 2.957 4.658 2.366 1.848-.666 2.883-2.958 2.144-4.806 1.109 0 1.848-1.257 1.626-2.366-.148-1.035-.961-1.922-1.7-2.735 1.331 1.404 5.027-.592 4.583-2.514-.443-1.922-2.957-2.587-4.583-2.883 1.626.887 3.031-1.331 3.105-2.736.074-1.109-.296-2.218 0-3.253.37-1.626 2.292-2.661 3.918-2.144 1.627.518 2.514 2.514 1.922 4.067.148-1.331.37-2.662.518-3.993 2.366.814 5.175-.074 6.654-2.07 1.035-1.404 1.257-3.548 0-4.805-1.331-1.257-3.771-.74-4.806.887-1.035 1.626-.813 3.697.074 5.323.813 1.626 2.218 2.957 3.549 4.14.148-2.514 3.622-2.587 5.545-2.957.295-.074.665-.148.961-.222 1.774-.517 2.883-2.587 2.439-4.362-.443-1.774-2.365-3.031-4.214-2.735.962-1.183 1.331-2.884.814-4.362-1.183-3.549-5.767-3.549-7.911-.887 1.035-1.479.887-3.697-.296-5.028-1.183-1.33-3.327-1.848-4.953-1.109-.739.37-1.405.961-1.479 1.775-.074.813.814 1.626 1.553 1.33.517-.221.739-.887.813-1.478.222-2.144-1.331-5.027-3.475-5.545-1.7-.444-4.953 1.109-5.101 3.105.074-1.183-.887-2.292-1.996-2.661-1.183-.296-2.44.074-3.401.813-.961.739-1.552 1.848-1.922 2.957-.296.739-.444 1.479-.37 2.292.074.739.518 1.552 1.257 1.848.887.444 1.996 0 2.662-.665.665-.739.961-1.701 1.183-2.662.369-1.7.517-3.622-.074-5.249-.814-2.439-3.253-4.288-5.841-3.327-2.514.961-3.549 4.288-2.514 6.728-.813-2.661-4.879-4.14-7.023-2.144-2.292 2.07-1.035 6.432 1.553 7.615-3.106-1.479-4.732 4.362-.814 4.953 1.405.222 2.81-.369 4.14-.887-1.922.666-3.4 2.514-3.696 4.51 1.035-1.848 3.475-2.809 5.471-2.07 4.288 1.552 2.957 7.689 1.7 10.868-1.626 4.066-4.436 7.689-7.984 10.202-1.405.961-3.179 1.775-4.732 1.109-1.035-.443-1.626-1.552-1.774-2.661-.148-1.109.148-2.218.591-3.253 1.331-3.105 4.214-5.545 7.541-6.284 3.179-.74 7.171.221 8.133 3.844.221-1.627 1.035-3.327 2.513-3.844 1.331-.444 3.031.369 3.475 1.7.443 1.331-.296 3.031-1.7 3.475 1.108-.592 2.661.074 3.179 1.257.517 1.182 0 2.661-1.035 3.4-2.366 1.849-6.285.814-6.802-2.218-1.183 8.576-1.996 16.783.517 25.211-4.362-5.545-5.766-13.234-3.77-20.035-.739 1.109-2.07 2.883-3.401 3.4-1.552.518-1.996-.443-3.031-1.109 1.922 1.479 2.07 4.806.148 6.211-1.922 1.478-5.249.147-5.471-2.218 2.957 3.327 5.323 7.097 7.171 11.163.887 1.922 1.627 3.697 2.144 5.693.518 2.144 1.701 4.805 1.701 6.949-2.884-5.101-5.693-10.128-8.576-15.229-1.109-1.923-1.775-4.14-1.997-6.358-.665.813-1.404 1.626-2.07 2.513-.443 3.105.592 6.284 1.923 9.094.443.961 4.879 9.167 2.957 9.167-.813 0-3.179-3.327-3.697-3.992-1.109-1.405-2.07-2.957-2.661-4.584-1.257-3.401-1.553-7.171-.592-10.646-.517 1.405-2.144 2.292-3.548 1.996-1.479-.295-2.514-1.774-2.44-3.253.074-.961.37-2.365-.592-2.587-.887-.148-1.256.961-1.626 1.7-.961 1.848-3.992 2.218-5.323.592.591-1.331 0-3.032-1.331-3.623-1.257-.591-3.031 0-3.696 1.257 1.404 1.478 4.066 1.552 5.544.074 3.401-3.327-.887-9.02-4.066-10.646-.665-.37-1.478-.666-2.218-.592-.739.074-1.552.444-1.848 1.183-.296.666 0 1.553.444 2.07.517.592 1.183.961 1.848 1.257a16.967 16.967 0 009.167 1.257c.444-.074.888-.148 1.109-.518.296-.517-.147-1.183-.443-1.7-1.479-2.514 1.552-7.837 4.362-5.323-2.07-1.183-2.44-4.51-.74-6.136 1.701-1.627 4.954-1.109 6.063.961-.296-1.257.369-2.662 1.552-3.253 1.183-.592 2.588-.148 3.475.739.296-.961.37-1.774 1.257-2.292.739-.443 2.587-.443 3.179.296-1.035-1.331-1.035-3.401 0-4.732-1.627 1.109-4.51.962-4.732-1.478-1.626.739-3.696-.518-4.066-2.292-.37-1.774.813-3.623 2.366-4.436 1.552-.887 3.475-.887 5.249-.517-.518-.962-.961-1.923-1.7-2.662-.74-.813-1.775-1.331-2.81-1.331-1.035 0-2.144.74-2.366 1.849.222-1.923-1.626-3.697-3.548-3.771-1.922-.074-3.771 1.331-4.51 3.105-.887 2.218-.296 5.101.887 7.098 1.331 2.291 3.918 6.062 6.58 7.023-2.883-1.035-6.358.296-7.837 2.957-.074-3.105-3.031-8.28-6.727-6.136-1.553.887-2.144 3.031-1.331 4.584.591 1.109 1.922 1.848 3.179 1.922 1.257.074 2.587-.37 3.622-1.109 1.701-1.109 2.958-3.179 2.514-5.175-.443-1.996-2.957-3.401-4.584-2.218 1.035-1.701 1.849-3.549 1.997-5.545.147-1.996-.37-4.066-1.849-5.397-1.478-1.331-3.844-1.7-5.471-.517-1.183.887-1.7 2.365-1.552 3.844.148 1.405.961 2.735 2.07 3.696.665-2.513-.739-5.396-3.105-6.431-2.366-1.036-5.471-.074-6.876 2.143-1.404 2.218-.887 5.397 1.109 7.098-1.922.296-3.548 1.996-3.77 3.918-.296 2.81 2.809 5.323 4.657 7.172-2.144-.592-4.583-.518-6.506.591-1.922 1.109-3.326 3.401-2.957 5.619.296 2.218 2.514 4.14 4.732 3.77-.887-2.735-1.405-7.319-4.14-8.724-2.514-1.257-5.841-.887-7.837 1.257-1.996 2.144-2.218 5.693-.591 8.133 1.33 1.848 3.548 2.883 5.766 3.253 1.848.295 5.249-.74 6.802 0 .517.221 1.996 3.548 2.735 2.217.222-.369.37-.887.74-1.035.591-.221 1.108.518 1.108 1.109 0 .592-.369 1.183-.517 1.775-.222 1.109.37 2.366 1.405 2.809 1.035.444 2.365.148 3.105-.813-3.771 1.996-5.323 7.319-3.623 11.163.666 1.479 1.848 2.884 3.401 3.401 3.031 1.035 7.615-2.218 7.763-5.397-.592 1.109.591 2.366 1.848 2.588 1.257.222 2.514 0 3.697.443 1.256.444 2.217 1.775 2.217 3.179 0 2.662-3.4 4.51-5.692 3.623 3.622 1.405 1.774 9.168.222 11.238-1.701 2.218-4.584 3.548-7.394 3.4-1.552-.074-3.179-.739-3.844-2.144-.739-1.774.592-3.844 2.218-4.879 2.588-1.553 5.914-1.553 8.946-1.035 2.365.37 4.805 1.183 7.245 1.183 2.07.074 3.844-1.331 5.84-1.774 8.059-1.997 11.681 6.875 13.973 12.494 3.327 8.058 5.471 16.56 6.506 25.21 1.109-.222 2.218-.443 3.327-.739-3.031-12.273-6.062-24.545-9.093-36.892 6.875 9.685 12.124 21.588 24.175 25.359 7.245 2.218 15.156 3.253 20.996 7.984 7.098 5.767 9.316 15.304 11.903 24.028 9.833 33.195 27.872 64.837 62.102 76.518 6.21 2.144 12.864 3.623 19.444 2.662 6.506-.961 12.938-4.806 15.599-10.794 5.619-12.716-2.587-24.915-7.614-36.374-4.214-9.685-8.502-19.592-9.242-30.164-.813-10.646 2.144-21.144 5.989-30.977 1.848-4.732 3.918-9.685 5.249-14.638 1.552-5.915 1.404-12.864 2.07-19.001.591 2.366 2.587 4.362 5.027 4.88 2.44.517 5.101-.444 6.58-2.366 1.479-1.848 1.848-4.288 1.922-6.654.148-4.362-.296-12.346-5.692-13.603-2.514-.591-5.102.961-6.506 3.105-1.405 2.144-1.775 4.806-1.997 7.393-.369 5.101-.147 10.277-.591 15.452-.222 3.179-.961 6.58-2.144 9.537-.961 2.366-3.327 3.696-5.545 1.774-2.144-1.922-2.07-5.988-1.405-8.502.814-2.957 2.662-5.693 4.436-8.206 1.553-2.218 3.771-4.214 3.845-7.098-2.07 2.366-4.288 4.584-6.58 6.802-.444.444-.961.961-1.627 1.035-1.109.222-2.144-.739-2.439-1.848-.296-1.109-.074-2.218.222-3.253 1.848-7.763 6.579-14.269 14.342-17.004.739-.222-.37-11.829-.443-13.086-1.553-27.133-10.868-52.861-13.456-79.919-1.479-15.674-1.552-31.051 5.693-45.616 1.109-2.218 2.809-4.657 5.249-4.731 1.848-.074 3.401 1.331 4.214 2.957.813 1.627.961 3.475 1.183 5.323 1.626 18.483 2.44 37.113 2.809 55.67.444 18.705 7.171 94.188 7.467 101.803.592 15.599-.591 31.199-1.109 46.798 3.623-3.401 3.327-9.167 3.031-14.195-.295-4.953.074-10.941 4.288-13.603-1.035.665-4.14-11.755-4.214-12.864-.369-4.51.444-8.28 2.44-12.272-3.031-4.584-5.101-9.833-5.84-15.23 5.84-.887 11.681 2.883 14.934 7.837 3.253 4.953 4.435 10.941 5.618 16.782 2.662 13.529 5.323 27.059 7.985 40.514 2.366 11.903-2.07 23.436-1.553 35.413.592 14.638 2.81 29.277 6.358 43.545 6.95 27.724 19.296 54.192 36.374 77.11 4.436 5.989 10.573 12.347 17.966 11.533 10.276-1.109 13.751-14.12 14.712-24.397.665-6.802 1.257-13.899-1.109-20.331-2.366-6.432-8.724-11.903-15.526-10.942-6.062.888-10.572 6.654-11.755 12.716-1.183 6.063.296 12.273 1.997 18.114 10.867 37.409 33.047 71.491 62.989 96.405" stroke="#87E29B" stroke-width="2" stroke-miterlimit="10" stroke-linecap="round" stroke-linejoin="round"/></svg>