<svg width="236" height="70" fill="none" xmlns="http://www.w3.org/2000/svg"><path d="M227.259 0H8.741C3.913 0 0 3.918 0 8.75v52.5C0 66.082 3.913 70 8.74 70h218.52c4.828 0 8.741-3.918 8.741-8.75V8.75c0-4.832-3.913-8.75-8.741-8.75z" fill="#000"/><path d="M83.953 48.703H76.4l-1.764 5.255h-3.713l7.284-20.55h4.125l7.299 20.55H85.69l-1.736-5.255zm-6.7-2.905H83.1l-2.789-8.474h-.242l-2.817 8.474zm24.305-7.676c1.973 0 3.533.717 4.681 2.15 1.157 1.434 1.735 3.4 1.735 5.896 0 2.488-.569 4.448-1.707 5.882-1.148 1.443-2.703 2.165-4.666 2.165-2.324 0-3.908-.874-4.752-2.62h-.242v7.348H93.08V38.378h3.4v2.578h.242a4.963 4.963 0 011.95-2.08c.862-.503 1.825-.754 2.887-.754zm-1.109 13.088c1.223 0 2.181-.447 2.873-1.339.683-.892 1.024-2.127 1.024-3.703s-.346-2.81-1.038-3.703c-.683-.892-1.631-1.338-2.845-1.338-1.205 0-2.158.45-2.86 1.353-.702.902-1.057 2.131-1.067 3.688.01 1.557.365 2.787 1.067 3.689.693.902 1.64 1.353 2.846 1.353zm19.838-13.088c1.973 0 3.533.717 4.68 2.15 1.158 1.434 1.736 3.4 1.736 5.896 0 2.488-.569 4.448-1.707 5.882-1.148 1.443-2.703 2.165-4.666 2.165-2.324 0-3.908-.874-4.752-2.62h-.242v7.348h-3.528V38.378h3.4v2.578h.242a4.968 4.968 0 011.949-2.08c.863-.503 1.826-.754 2.888-.754zm-1.11 13.088c1.224 0 2.182-.447 2.874-1.339.683-.892 1.024-2.127 1.024-3.703s-.346-2.81-1.038-3.703c-.683-.892-1.631-1.338-2.845-1.338-1.205 0-2.158.45-2.86 1.353-.702.902-1.057 2.131-1.067 3.688.01 1.557.365 2.787 1.067 3.689.692.902 1.641 1.353 2.845 1.353zm22.435-2.834c.114.92.593 1.652 1.437 2.193.844.55 1.916.826 3.216.826 1.213 0 2.208-.28 2.986-.84.788-.551 1.181-1.258 1.181-2.122 0-.741-.298-1.344-.895-1.81-.589-.464-1.542-.849-2.86-1.153l-2.661-.612c-3.651-.826-5.477-2.744-5.477-5.753 0-1.871.697-3.371 2.091-4.5 1.404-1.14 3.253-1.71 5.549-1.71 2.153 0 3.936.56 5.349 1.68 1.413 1.12 2.162 2.564 2.248 4.33h-3.514a3.057 3.057 0 00-1.295-2.15c-.74-.532-1.674-.798-2.803-.798-1.185 0-2.134.261-2.845.783-.721.532-1.081 1.235-1.081 2.108 0 .693.28 1.253.839 1.68.56.437 1.475.803 2.746 1.097l2.362.541c2.077.466 3.585 1.159 4.523 2.08.929.92 1.394 2.164 1.394 3.73 0 2.004-.72 3.585-2.162 4.743-1.451 1.168-3.419 1.752-5.904 1.752-2.352 0-4.253-.55-5.704-1.652-1.442-1.101-2.21-2.583-2.305-4.443h3.585zm21.176-13.715v3.817h3.414v2.82h-3.414v7.647c0 1.481.71 2.222 2.134 2.222.322 0 .711-.024 1.167-.071v2.763c-.57.114-1.177.17-1.821.17-1.783 0-3.064-.327-3.842-.982-.768-.655-1.152-1.738-1.152-3.247v-8.502h-2.532v-2.82h2.532V34.66h3.514zm13.721 16.648c1.232 0 2.181-.45 2.845-1.352.673-.893 1.01-2.156 1.01-3.789 0-1.623-.337-2.886-1.01-3.788-.673-.902-1.621-1.353-2.845-1.353-1.232 0-2.187.451-2.86 1.353-.673.902-1.009 2.165-1.009 3.788 0 1.633.336 2.896 1.009 3.788.673.902 1.628 1.353 2.86 1.353zm0 2.963c-2.334 0-4.163-.717-5.492-2.15-1.327-1.444-1.992-3.428-1.992-5.954 0-2.506.669-4.486 2.006-5.939 1.338-1.443 3.163-2.164 5.478-2.164 2.324 0 4.149.721 5.478 2.164 1.337 1.444 2.006 3.423 2.006 5.94 0 2.525-.665 4.51-1.993 5.952-1.338 1.434-3.167 2.15-5.491 2.15zm11.331-15.894h3.4V40.8h.242c.218-.778.702-1.42 1.451-1.922.768-.504 1.646-.755 2.632-.755.606 0 1.09.052 1.451.156v3.276c-.361-.133-.958-.2-1.793-.2-1.138 0-2.063.328-2.774.983-.721.665-1.081 1.538-1.081 2.62v9.001h-3.528v-15.58zm18.487 2.492c-1.052 0-1.92.347-2.604 1.04-.683.693-1.062 1.61-1.137 2.749h7.326c-.038-1.159-.379-2.08-1.024-2.763-.646-.684-1.499-1.026-2.561-1.026zm6.957 8.802c-.332 1.424-1.11 2.544-2.334 3.36-1.232.827-2.759 1.24-4.58 1.24-2.285 0-4.083-.717-5.393-2.15-1.299-1.425-1.949-3.39-1.949-5.897 0-2.506.656-4.495 1.964-5.967 1.309-1.462 3.093-2.193 5.349-2.193 2.219 0 3.96.698 5.221 2.093 1.252 1.386 1.878 3.31 1.878 5.768v1.14h-10.869v.185c.048 1.3.418 2.326 1.11 3.076.702.76 1.632 1.14 2.788 1.14 1.783 0 2.94-.599 3.472-1.795h3.343zM74.912 14.516c1.523 0 2.708.447 3.557 1.34.849.896 1.273 2.152 1.273 3.766 0 1.643-.422 2.915-1.266 3.817-.844.902-2.032 1.353-3.564 1.353h-3.706V14.516h3.706zM72.8 23.34h1.934c1.077 0 1.91-.32 2.497-.961.593-.646.89-1.557.89-2.735 0-1.158-.3-2.06-.897-2.706-.593-.645-1.422-.968-2.49-.968H72.8v7.37zm12.185.242c.659 0 1.171-.235 1.536-.705.36-.465.54-1.12.54-1.965 0-.84-.18-1.495-.54-1.966-.365-.465-.877-.697-1.536-.697-.664 0-1.176.232-1.537.697-.36.466-.54 1.12-.54 1.966 0 .85.18 1.507.54 1.972.36.466.873.698 1.537.698zm0 1.36c-1.138 0-2.032-.358-2.682-1.075-.65-.717-.975-1.702-.975-2.955 0-1.249.328-2.231.982-2.948.65-.717 1.541-1.075 2.675-1.075 1.128 0 2.017.358 2.667 1.075.654.717.982 1.7.982 2.948 0 1.253-.325 2.238-.975 2.955-.65.717-1.541 1.075-2.674 1.075zm13.152-.15h-1.586l-1.6-5.71h-.122l-1.593 5.71h-1.572l-2.134-7.754h1.55l1.388 5.918h.114l1.593-5.918h1.465l1.594 5.918h.12l1.38-5.918h1.53l-2.127 7.755zm3.706-7.754h1.472v1.232h.114c.19-.432.498-.769.925-1.011.431-.247.939-.37 1.522-.37.863 0 1.529.249 1.999.747.47.503.704 1.216.704 2.136v5.02h-1.529v-4.635c0-1.244-.564-1.866-1.693-1.866-.617 0-1.1.176-1.451.527-.356.352-.534.831-.534 1.439v4.536h-1.529v-7.755zm8.963-3.026h1.529v10.78h-1.529v-10.78zm7.099 9.57c.659 0 1.171-.235 1.536-.705.361-.465.541-1.12.541-1.965 0-.84-.18-1.495-.541-1.966-.365-.465-.877-.697-1.536-.697-.664 0-1.176.232-1.537.697-.36.466-.54 1.12-.54 1.966 0 .85.18 1.507.54 1.972.361.466.873.698 1.537.698zm0 1.36c-1.138 0-2.032-.358-2.682-1.075-.65-.717-.975-1.702-.975-2.955 0-1.249.328-2.231.982-2.948.65-.717 1.541-1.075 2.675-1.075 1.128 0 2.018.358 2.667 1.075.655.717.982 1.7.982 2.948 0 1.253-.325 2.238-.975 2.955-.649.717-1.541 1.075-2.674 1.075zm8.023-1.31c.574 0 1.053-.161 1.437-.484.38-.323.569-.727.569-1.21v-.649l-1.892.121c-1.034.072-1.55.444-1.55 1.118 0 .342.135.613.405.812.261.195.605.292 1.031.292zm-.391 1.289c-.759 0-1.375-.209-1.849-.627-.489-.432-.733-.997-.733-1.694 0-.694.249-1.24.747-1.638.498-.394 1.209-.62 2.134-.677l2.098-.12v-.67c0-.855-.528-1.282-1.586-1.282-.896 0-1.434.287-1.615.862h-1.479c.076-.665.403-1.197.981-1.595.574-.394 1.302-.591 2.184-.591.968 0 1.717.23 2.248.69.526.456.79 1.095.79 1.916v5.298h-1.473v-1.09h-.121c-.483.812-1.259 1.218-2.326 1.218zm8.927 0c-.986 0-1.768-.36-2.347-1.083-.579-.721-.868-1.697-.868-2.926 0-1.225.292-2.198.875-2.92.579-.721 1.359-1.082 2.34-1.082a2.87 2.87 0 011.43.356c.422.242.737.577.946 1.004h.114v-4.258h1.529v10.78h-1.465v-1.224h-.121c-.493.902-1.304 1.353-2.433 1.353zm.434-6.637c-.645 0-1.15.235-1.515.705-.37.465-.555 1.106-.555 1.923 0 .821.183 1.467.548 1.937.37.465.877.698 1.522.698s1.153-.235 1.522-.705c.375-.47.562-1.111.562-1.923 0-.807-.187-1.448-.562-1.923-.374-.474-.882-.712-1.522-.712zm13.138 5.298c.66 0 1.171-.235 1.537-.705.36-.465.54-1.12.54-1.965 0-.84-.18-1.495-.54-1.966-.366-.465-.877-.697-1.537-.697-.664 0-1.176.232-1.537.697-.36.466-.54 1.12-.54 1.966 0 .85.18 1.507.54 1.972.361.466.873.698 1.537.698zm0 1.36c-1.138 0-2.032-.358-2.681-1.075-.65-.717-.975-1.702-.975-2.955 0-1.249.327-2.231.982-2.948.649-.717 1.541-1.075 2.674-1.075 1.129 0 2.018.358 2.667 1.075.655.717.982 1.7.982 2.948 0 1.253-.325 2.238-.974 2.955-.65.717-1.542 1.075-2.675 1.075zm5.492-7.904H155v1.232h.115c.189-.432.496-.769.923-1.011.433-.247.94-.37 1.523-.37.863 0 1.529.249 1.998.747.471.503.705 1.216.705 2.136v5.02h-1.529v-4.635c0-1.244-.564-1.866-1.693-1.866-.616 0-1.1.176-1.451.527-.355.352-.533.831-.533 1.439v4.536h-1.53v-7.755zm14.944-1.88v1.916h1.736v1.289h-1.736v3.987c0 .404.089.7.264.89.176.185.453.278.831.278.143 0 .333-.012.57-.035v1.274a4.7 4.7 0 01-.817.078c-.85 0-1.458-.161-1.828-.484-.366-.323-.548-.859-.548-1.609v-4.38h-1.273v-1.288h1.273v-1.916h1.528zm3.55-1.146h1.515v4.272h.121c.19-.437.498-.776.925-1.018.427-.247.931-.37 1.515-.37.873 0 1.546.251 2.021.755.478.503.718 1.215.718 2.136v5.006h-1.53v-4.629c0-1.244-.577-1.865-1.729-1.865-.62 0-1.114.18-1.478.54-.366.357-.548.831-.548 1.425v4.529h-1.53V14.01zm12.157 4.18c-.565 0-1.03.183-1.394.548-.366.366-.57.852-.612 1.46h3.912c-.019-.613-.199-1.1-.541-1.46-.345-.365-.801-.548-1.365-.548zm3.371 4.507a2.718 2.718 0 01-1.145 1.645c-.593.399-1.33.598-2.211.598-1.11 0-1.983-.358-2.618-1.075-.641-.712-.962-1.688-.962-2.927s.324-2.224.969-2.955c.644-.73 1.512-1.096 2.603-1.096 1.077 0 1.923.346 2.54 1.04.611.692.917 1.649.917 2.869v.534h-5.47v.085c.023.684.22 1.225.59 1.624s.861.598 1.473.598c.934 0 1.548-.313 1.841-.94h1.473zM51.362 42.952a.85.85 0 00-.6-.381 5.914 5.914 0 01-5.094-6.632 5.914 5.914 0 014.1-4.881.85.85 0 00.457-1.268 9.917 9.917 0 00-7.153-4.998 13.99 13.99 0 00-4.451.954c-1.021.411-2.1.663-3.197.747a10.735 10.735 0 01-3.197-.747 13.99 13.99 0 00-4.451-.954c-3.173 0-9.348 4.503-9.348 12.76 0 7.846 5.717 17.864 10.198 17.864 1.71.016 3.398-.374 4.928-1.136a4.663 4.663 0 011.87-.565 4.664 4.664 0 011.87.565 10.829 10.829 0 004.928 1.136c3.553 0 7.562-6.104 9.24-11.761a.852.852 0 00-.1-.703zM34.574 24.791c5.16-.005 9.342-4.191 9.348-9.357a.85.85 0 00-.85-.85c-5.16.005-9.342 4.191-9.348 9.357 0 .47.38.85.85.85z" fill="#fff"/></svg>