<svg width="135" height="40" fill="none" xmlns="http://www.w3.org/2000/svg"><path d="M130 0H5a5 5 0 00-5 5v30a5 5 0 005 5h125a5 5 0 005-5V5a5 5 0 00-5-5z" fill="#fff"/><path d="M48.024 27.83h-4.321l-1.01 3.004H40.57l4.166-11.744h2.36l4.175 11.744h-2.254l-.993-3.003zm-3.833-1.66h3.345l-1.595-4.842h-.139l-1.61 4.842zm13.904-4.386c1.128 0 2.02.41 2.677 1.229.662.82.993 1.942.993 3.369 0 1.421-.325 2.542-.977 3.361-.656.825-1.546 1.237-2.669 1.237-1.33 0-2.235-.5-2.718-1.497h-.138v4.199h-2.018V21.93h1.945v1.474h.138a2.841 2.841 0 011.115-1.189 3.223 3.223 0 011.652-.431zm-.635 7.479c.7 0 1.248-.255 1.644-.765.39-.51.586-1.215.586-2.116 0-.9-.198-1.606-.594-2.116-.39-.51-.933-.765-1.628-.765-.689 0-1.234.258-1.636.773-.401.516-.605 1.218-.61 2.108.005.89.209 1.592.61 2.108.396.515.939.773 1.628.773zm11.348-7.479c1.129 0 2.021.41 2.678 1.229.662.82.992 1.942.992 3.369 0 1.421-.325 2.542-.976 3.361-.656.825-1.546 1.237-2.67 1.237-1.328 0-2.234-.5-2.717-1.497h-.139v4.199h-2.018V21.93h1.945v1.474h.138a2.841 2.841 0 011.115-1.189 3.223 3.223 0 011.652-.431zm-.635 7.479c.7 0 1.248-.255 1.644-.765.391-.51.586-1.215.586-2.116 0-.9-.198-1.606-.594-2.116-.39-.51-.933-.765-1.627-.765-.69 0-1.235.258-1.636.773-.402.516-.605 1.218-.61 2.108.005.89.208 1.592.61 2.108.396.515.938.773 1.627.773zm12.834-1.62c.065.527.339.944.822 1.254.483.314 1.096.472 1.84.472.694 0 1.263-.16 1.708-.48.45-.315.675-.72.675-1.213 0-.423-.17-.768-.512-1.034-.337-.265-.882-.485-1.636-.659l-1.522-.35c-2.089-.472-3.133-1.568-3.133-3.287 0-1.07.399-1.926 1.196-2.572.803-.651 1.861-.977 3.174-.977 1.232 0 2.252.32 3.06.96.808.64 1.237 1.465 1.286 2.475h-2.01a1.746 1.746 0 00-.74-1.23c-.424-.303-.958-.455-1.604-.455-.678 0-1.22.15-1.627.448-.413.303-.619.705-.619 1.204 0 .396.16.716.48.96.32.25.844.459 1.57.627l1.352.31c1.188.265 2.05.661 2.587 1.187.532.527.798 1.237.798 2.133 0 1.144-.412 2.048-1.237 2.71-.83.667-1.956 1-3.378 1-1.345 0-2.433-.314-3.263-.944-.824-.629-1.264-1.475-1.318-2.539h2.05zm12.113-7.837v2.181h1.953V23.6H93.12v4.37c0 .846.407 1.27 1.22 1.27.185 0 .407-.014.668-.041v1.578a5.307 5.307 0 01-1.041.098c-1.02 0-1.753-.187-2.198-.561-.439-.375-.659-.993-.659-1.856V23.6h-1.448v-1.611h1.448v-2.181h2.01zm7.849 9.514c.705 0 1.248-.258 1.628-.773.385-.51.577-1.232.577-2.165 0-.928-.192-1.65-.577-2.165-.385-.515-.928-.773-1.628-.773-.705 0-1.25.258-1.636.773-.385.516-.577 1.237-.577 2.165 0 .933.192 1.655.577 2.165.385.515.931.773 1.636.773zm0 1.692c-1.335 0-2.381-.41-3.141-1.228-.76-.825-1.14-1.959-1.14-3.402 0-1.432.383-2.564 1.148-3.394.765-.824 1.809-1.236 3.133-1.236 1.329 0 2.374.412 3.134 1.236.765.825 1.147 1.956 1.147 3.394 0 1.443-.38 2.577-1.14 3.402-.765.819-1.812 1.229-3.141 1.229zm6.482-9.082h1.945v1.384h.138c.125-.445.402-.811.83-1.099a2.69 2.69 0 011.506-.431c.347 0 .623.03.83.09v1.871c-.207-.076-.548-.114-1.026-.114-.651 0-1.18.188-1.586.562-.413.38-.619.879-.619 1.497v5.143h-2.018v-8.902zm10.575 1.425c-.602 0-1.098.198-1.489.594-.391.396-.608.92-.651 1.57h4.191c-.022-.661-.217-1.188-.586-1.578-.369-.391-.858-.586-1.465-.586zm3.98 5.029a3.071 3.071 0 01-1.335 1.92c-.705.473-1.578.709-2.62.709-1.308 0-2.336-.41-3.085-1.23-.743-.813-1.115-1.936-1.115-3.368 0-1.433.375-2.57 1.123-3.41.749-.836 1.769-1.253 3.06-1.253 1.269 0 2.265.398 2.987 1.196.716.792 1.074 1.89 1.074 3.296v.65h-6.217v.107c.027.743.239 1.329.635 1.757.401.434.933.651 1.595.651 1.02 0 1.681-.341 1.985-1.025h1.913zM42.852 8.295c.871 0 1.55.255 2.035.765.485.513.728 1.23.728 2.153 0 .938-.241 1.665-.724 2.18-.483.516-1.162.774-2.039.774h-2.12V8.295h2.12zm-1.208 5.042h1.107c.615 0 1.092-.183 1.428-.55.339-.369.508-.89.508-1.562 0-.662-.17-1.177-.512-1.546-.34-.37-.814-.554-1.424-.554h-1.107v4.212zm6.97.138c.377 0 .67-.134.879-.403.206-.266.31-.64.31-1.123 0-.48-.104-.854-.31-1.123-.209-.266-.502-.399-.879-.399-.38 0-.673.133-.879.4-.206.265-.31.64-.31 1.122 0 .486.104.861.31 1.127.206.266.5.4.88.4zm0 .777c-.65 0-1.162-.205-1.534-.614-.372-.41-.557-.973-.557-1.689 0-.713.187-1.275.561-1.684.372-.41.882-.615 1.53-.615.646 0 1.154.205 1.526.615.374.41.562.97.562 1.684 0 .716-.186 1.28-.558 1.689-.372.41-.882.614-1.53.614zm7.524-.085h-.908l-.915-3.264h-.07l-.91 3.264h-.9l-1.22-4.431h.886l.794 3.381h.065l.911-3.381h.838l.912 3.381h.07l.788-3.381h.875l-1.216 4.43zm2.12-4.431h.842v.704h.065c.109-.247.285-.44.529-.578.247-.141.537-.212.87-.212.495 0 .876.143 1.144.428.269.287.403.694.403 1.22v2.869h-.875v-2.65c0-.71-.323-1.065-.968-1.065-.353 0-.63.1-.83.3-.204.202-.306.476-.306.823v2.592h-.874V9.736zm5.127-1.73h.874v6.16h-.874v-6.16zm4.06 5.47c.378 0 .67-.135.88-.404.206-.266.309-.64.309-1.123 0-.48-.103-.854-.31-1.123-.209-.266-.501-.399-.879-.399-.38 0-.672.133-.878.4-.207.265-.31.64-.31 1.122 0 .486.103.861.31 1.127.206.266.499.4.879.4zm0 .776c-.65 0-1.162-.205-1.533-.614-.372-.41-.558-.973-.558-1.689 0-.713.187-1.275.561-1.684.372-.41.882-.615 1.53-.615.646 0 1.155.205 1.526.615.375.41.562.97.562 1.684 0 .716-.186 1.28-.558 1.689-.371.41-.881.614-1.53.614zm4.59-.748c.329 0 .603-.093.822-.277a.871.871 0 00.326-.692v-.37l-1.083.07c-.59.04-.887.253-.887.638 0 .195.078.35.232.464.15.111.346.167.59.167zm-.224.736c-.434 0-.786-.12-1.057-.358-.28-.247-.42-.57-.42-.968 0-.396.143-.708.428-.936.285-.225.691-.354 1.22-.387l1.2-.069v-.383c0-.488-.302-.732-.907-.732-.512 0-.82.164-.923.492h-.847c.044-.38.23-.683.562-.911.328-.225.745-.338 1.25-.338.553 0 .981.132 1.285.395.301.26.452.625.452 1.095v3.027h-.843v-.623h-.069c-.277.464-.72.696-1.33.696zm5.107 0c-.564 0-1.012-.206-1.343-.618-.33-.413-.496-.97-.496-1.673 0-.7.167-1.256.5-1.668.331-.412.778-.619 1.34-.619.303 0 .576.068.817.204.241.138.422.33.541.574h.065V8.006h.875v6.16h-.838v-.699h-.07c-.281.515-.745.773-1.39.773zm.248-3.792c-.369 0-.657.134-.866.403-.212.265-.318.632-.318 1.098 0 .47.105.838.314 1.107.211.266.501.399.87.399.37 0 .66-.135.871-.403.214-.269.322-.635.322-1.099 0-.46-.108-.827-.322-1.098-.214-.272-.504-.407-.87-.407zm7.516 3.027c.377 0 .67-.134.879-.403.206-.266.309-.64.309-1.123 0-.48-.103-.854-.31-1.123-.208-.266-.5-.399-.878-.399-.38 0-.673.133-.88.4-.205.265-.309.64-.309 1.122 0 .486.104.861.31 1.127.206.266.499.4.879.4zm0 .777c-.651 0-1.163-.205-1.534-.614-.372-.41-.558-.973-.558-1.689 0-.713.188-1.275.562-1.684.371-.41.881-.615 1.53-.615.645 0 1.154.205 1.525.615.375.41.562.97.562 1.684 0 .716-.186 1.28-.557 1.689-.372.41-.882.614-1.53.614zm3.141-4.516h.842v.704h.066a1.21 1.21 0 01.528-.578c.248-.141.538-.212.871-.212.494 0 .875.143 1.143.428.27.287.404.694.404 1.22v2.869h-.875v-2.65c0-.71-.323-1.065-.969-1.065-.352 0-.629.1-.83.3-.203.202-.305.476-.305.823v2.592h-.875V9.736zm8.549-1.075v1.095h.993v.736h-.993v2.28c0 .23.05.4.15.508.101.106.26.159.476.159.082 0 .19-.007.326-.02v.727c-.168.03-.324.045-.467.045-.486 0-.835-.092-1.046-.276-.21-.185-.314-.491-.314-.92v-2.502h-.728v-.737h.728V8.661h.875zm2.03-.655h.867v2.442h.07a1.2 1.2 0 01.529-.582 1.7 1.7 0 01.866-.212c.499 0 .884.144 1.156.432.273.287.411.694.411 1.22v2.86h-.875v-2.644c0-.71-.33-1.066-.989-1.066-.355 0-.638.103-.846.31-.21.203-.313.474-.313.813v2.588h-.876v-6.16zm6.955 2.389a1.08 1.08 0 00-.798.313c-.209.21-.326.487-.35.834h2.238c-.011-.35-.114-.628-.31-.834-.197-.209-.458-.313-.78-.313zm1.928 2.576c-.1.398-.318.712-.655.94-.339.227-.761.341-1.265.341-.635 0-1.134-.205-1.497-.614-.367-.407-.55-.964-.55-1.672s.185-1.271.554-1.69c.368-.417.865-.626 1.489-.626.616 0 1.1.198 1.452.594.35.396.525.943.525 1.64v.305h-3.129v.05c.014.39.126.699.338.927.211.228.492.342.842.342.534 0 .886-.18 1.054-.537h.842zM29.381 24.544a.487.487 0 00-.343-.218 3.38 3.38 0 01-.569-6.579.486.486 0 00.262-.724 5.673 5.673 0 00-4.092-2.857 8.009 8.009 0 00-2.546.546 6.15 6.15 0 01-1.83.427 6.15 6.15 0 01-1.828-.427 8.009 8.009 0 00-2.546-.546c-1.815 0-5.347 2.574-5.347 7.292 0 4.484 3.27 10.208 5.833 10.208a6.203 6.203 0 002.82-.65 2.67 2.67 0 011.069-.322c.375.031.74.141 1.07.323a6.203 6.203 0 002.819.65c2.032 0 4.325-3.489 5.286-6.722a.486.486 0 00-.058-.401z" fill="#292929"/><path d="M19.778 14.167a5.353 5.353 0 005.347-5.347.486.486 0 00-.486-.486 5.353 5.353 0 00-5.348 5.347c0 .268.218.486.487.486z" fill="#292929"/></svg>