<svg viewBox="0 0 42 42" fill="none" xmlns="http://www.w3.org/2000/svg"><rect x=".35" y=".35" width="41.3" height="41.3" rx="7.65" stroke="#292929" stroke-width=".7"/><g clip-path="url(#clip0)"><path d="M31.33 25.931v-.504l-.211-.127c-1.893-1.01-2.777-2.44-2.777-4.376 0-1.64.715-3.029 2.02-3.954l.505-.253-.337-.42c-.841-1.053-2.272-2.483-4.502-2.483-.425 0-.82.104-1.212.26.923-1 1.422-2.267 1.422-3.71 0-.253 0-.505-.042-.8v-.126l-.042-.126c-.042-.084-.084-.21-.21-.252-.126-.043-.21-.085-.337-.043-2.23.632-4.586 2.399-4.586 5.512 0 .18 0 .36.02.558-.367-.096-.69-.275-1.03-.474-.589-.336-1.22-.715-2.188-.715-4.25 0-7.194 3.871-7.194 7.321 0 1.893.589 5.175 2.272 8.205C14.205 31.78 15.72 33 17.319 33c.589 0 1.178-.21 1.85-.42.674-.295 1.431-.548 2.189-.548.63 0 1.262.253 1.893.463.631.21 1.304.463 1.978.463 3.323 0 6.143-4.165 6.143-6.774 0-.084-.043-.168-.043-.253zM25.354 9.985a.713.713 0 010 .42c0 2.862-2.146 4.124-3.492 4.63-.042-.211-.042-.38-.042-.506 0-2.44 1.767-3.913 3.534-4.544zm5.175 16.03v.127c0 3.155-3.282 5.932-5.301 5.932-.547 0-1.136-.21-1.726-.42-.715-.253-1.43-.505-2.187-.505-.926 0-1.767.294-2.483.589-.547.21-1.094.42-1.514.42-1.6 0-2.904-1.683-3.66-3.113-1.6-2.903-2.189-6.017-2.189-7.826 0-3.829 3.366-6.48 6.353-6.48.716 0 1.22.295 1.81.632.589.336 1.178.673 2.02.673 1.093 0 1.977-.42 2.734-.8.631-.294 1.136-.546 1.683-.546 1.641 0 2.777.883 3.576 1.809-1.346 1.052-2.103 2.608-2.103 4.418 0 2.188.968 3.828 2.987 4.964v.127z" fill="#292929"/></g><defs><clipPath id="clip0"><path fill="#fff" transform="translate(9 9)" d="M0 0h24v24H0z"/></clipPath></defs></svg>