<svg width="20" height="20" fill="none" xmlns="http://www.w3.org/2000/svg"><g clip-path="url(#clip0)" fill="#292929"><path d="M13.68 7.28l.466-.467.467.467-.467.467-.467-.467zm-.935-.935l.467-.466.467.466-.467.467-.467-.467zm-.935-.933l.468-.467.467.467-.467.467-.467-.467zm3.737 3.736l.467-.467.467.467-.467.466-.467-.466zm-.934-.934l.467-.468.467.467-.467.467-.467-.466zm-3.909 5.283a.33.33 0 01-.293-.18l-.597-1.17-1.296.205a.33.33 0 01-.286-.561l.929-.928-.595-1.17a.33.33 0 01.444-.444l1.17.594.928-.928a.33.33 0 01.562.285l-.21 1.3 1.17.596a.33.33 0 01-.1.62l-1.296.206-.203 1.296a.33.33 0 01-.327.279zM10 11.452a.33.33 0 01.294.18l.243.478.084-.528a.33.33 0 01.275-.275l.528-.084-.478-.243a.33.33 0 01-.176-.346l.084-.53-.378.38a.33.33 0 01-.384.06l-.478-.244.244.478a.33.33 0 01-.06.383l-.38.38.53-.084a.31.31 0 01.052-.005z"/><path d="M19.71 6.386L18.075 4.75l-.233.234a.99.99 0 11-1.4-1.401l.233-.234-1.635-1.634a.99.99 0 00-1.401 0l-1.167 1.167-.7-.7a.99.99 0 00-1.402 0L.29 12.263a.99.99 0 000 1.4L1.925 15.3l.233-.234a1.014 1.014 0 011.401 0 .99.99 0 010 1.401l-.233.233 1.634 1.635a.99.99 0 001.401 0l1.167-1.167.701.7a.99.99 0 001.4 0l10.08-10.08a.99.99 0 000-1.402zM5.894 17.866a.33.33 0 01-.467 0l-1.19-1.19a1.651 1.651 0 00-2.29-2.289l-1.19-1.19a.33.33 0 010-.467l10.08-10.08a.33.33 0 01.467 0l.7.7-8.445 8.446a.99.99 0 000 1.401l1.634 1.635.234-.234A.99.99 0 116.827 16l-.233.234.467.466-1.167 1.168zM19.243 7.32L9.163 17.4a.33.33 0 01-.467 0l-1.191-1.19a1.651 1.651 0 00-2.288-2.289l-1.191-1.19a.33.33 0 010-.468l10.08-10.08a.33.33 0 01.467 0l1.19 1.189a1.651 1.651 0 002.289 2.288l1.191 1.191a.33.33 0 010 .467v.002z"/></g><defs><clipPath id="clip0"><path fill="#fff" d="M0 0h20v20H0z"/></clipPath></defs></svg>