<svg width="192" height="60" fill="none" xmlns="http://www.w3.org/2000/svg"><path d="M.25 7.987C.25 3.707 3.72.25 8 .25h176A7.75 7.75 0 01191.75 8v30.028c0 4.273-3.377 7.735-7.644 7.749-30.611.104-141.373.473-173.44.473-.652 0-1.302.331-1.924.841-.625.512-1.251 1.229-1.864 2.052-1.224 1.646-2.423 3.761-3.47 5.639l-.225.403c-.44.79-.85 1.526-1.224 2.159-.438.743-.816 1.326-1.122 1.68-.156.181-.273.279-.353.318a.179.179 0 01-.04.014c-.028-.027-.084-.122-.128-.364A5.82 5.82 0 01.25 58V7.987z" fill="#F8FBF9" stroke="#666" stroke-width=".5"/></svg>