<svg width="184" height="53" fill="none" xmlns="http://www.w3.org/2000/svg"><path d="M99.024 41.522H7.984c-4.28 0-7.734-3.47-7.734-7.75V8A7.75 7.75 0 018 .25h168A7.75 7.75 0 01183.75 8v25.443c0 4.234-3.395 7.682-7.629 7.732-11.115.133-32.823.346-57.475.346-1.194 0-2.37.763-3.44 1.828-1.078 1.072-2.092 2.495-2.962 3.905a45.546 45.546 0 00-2.118 3.882 48.76 48.76 0 00-.592 1.26 37.154 37.154 0 00-2.889-4.944c-.963-1.378-2.114-2.782-3.395-3.88-1.28-1.096-2.709-1.903-4.226-2.05z" fill="#F8FBF9" stroke="#666" stroke-width=".5"/></svg>