<svg width="641" height="586" fill="none" xmlns="http://www.w3.org/2000/svg"><path d="M193.541 583.33c102.669 9.428 208.609-21.378 290.165-84.484 81.556-63.106 137.889-157.858 154.518-259.518 3.924-23.992 2.803-53.958-18.591-65.44-11.957-6.441-27.092-4.481-39.236 1.68-12.145 6.161-21.954 15.963-31.67 25.485-39.891 39.302-81.463 77.389-128.36 108.009-46.898 30.619-99.68 53.584-155.359 60.118-10.464 1.214-21.3 1.867-31.296-1.493-9.996-3.361-18.965-11.389-20.646-21.751-2.523-15.777 11.771-28.846 25.036-37.715 66.236-44.622 146.204-73.561 194.503-137.134 4.017-5.321 7.941-11.482 7.193-18.11-1.401-11.482-16.349-16.523-27.279-12.976-10.93 3.548-19.244 12.416-28.493 19.231-9.249 6.814-21.861 11.855-32.137 6.534-14.76-7.655-12.799-30.059-3.924-43.968 8.969-14.003 22.795-25.392 26.906-41.542 5.698-22.031-10.09-45.276-30.829-54.518-20.74-9.335-44.749-7.468-66.89-2.707-33.818 7.282-65.768 21.004-98.746 31.273-32.977 10.269-68.197 17.083-102.109 10.175C42.48 57.478 10.25 34.233 1 1" stroke="#C7FBD2" stroke-width="1.5" stroke-miterlimit="10" stroke-linecap="round" stroke-linejoin="round"/></svg>