<svg width="1210" height="633" fill="none" xmlns="http://www.w3.org/2000/svg"><path d="M1209 200.631c-81.93-7.501-155.76-39.416-208.86-103.835-16.914-20.59-31.475-49.123-19.414-72.949 8.678-17.06 30.154-25.59 48.974-22.06 18.83 3.529 34.72 17.354 43.84 34.268 9.11 16.913 12.06 36.474 11.91 55.74-.29 37.946-12.65 76.332-37.21 105.306-24.57 28.974-61.631 47.799-99.578 47.505-26.181-.147-52.951-8.971-77.808-1.029-30.005 9.412-47.655 39.71-60.598 68.389-17.209 38.239-42.949 98.246-95.899 85.303-17.797-4.265-31.623-17.649-46.773-27.797-15.149-10.148-35.153-17.502-51.332-8.971-16.62 8.824-28.093 33.238-46.037 28.091-12.061-3.383-17.945-19.414-30.3-21.326-20.444-3.088-23.533 29.562-38.683 43.534-26.475 24.414-59.127-8.53-82.072-19.855-31.035-15.149-66.188-23.385-100.312-26.179-99.722-8.236-190.767 29.709-245.189 115.012C44.39 525.665 27.77 578.612 17.473 632c61.335-46.917 108.401-112.512 132.964-185.608 24.122-71.478 31.623-163.4 4.413-235.172C131.464 149.596 73.807 95.031 14.238 69A248.09 248.09 0 001 63.704" stroke="#C7FBD2" stroke-width="1.5" stroke-miterlimit="10" stroke-linecap="round" stroke-linejoin="round"/></svg>