<svg width="663" height="661" fill="none" xmlns="http://www.w3.org/2000/svg"><path d="M251.947 102.551c-62.161 47.857-105.315 119.869-118.141 197.298-12.827 77.43 4.805 159.478 48.165 224.841 10.233 15.425 26.374 31.576 44.255 26.918 10.006-2.591 17.435-11.516 21.02-21.239 3.586-9.724 3.983-20.272 4.473-30.615 1.907-42.582 5.379-85.356 15.69-126.716 10.31-41.359 27.867-81.49 55.548-113.946 5.209-6.092 10.916-12.063 18.233-15.359 7.317-3.295 16.478-3.453 22.781 1.462 9.576 7.503 8.368 22.195 5.559 34.01-13.849 59.184-43.48 116.716-37.51 177.199.514 5.049 1.515 10.519 5.364 13.833 6.727 5.686 17.677.767 21.938-6.869 4.261-7.636 4.308-16.889 5.939-25.479 1.632-8.59 6.058-17.93 14.546-20.276 12.199-3.363 22.705 10.161 24.955 22.519 2.247 12.458.43 25.97 6.499 37.114 8.228 15.249 29.071 20.058 45.427 14.487 16.404-5.518 28.833-18.983 38.72-33.096 15.097-21.563 25.817-45.755 38.899-68.551 13.081-22.795 29.202-44.823 51.699-58.511 22.492-13.589 52.509-17.287 74.876-3.517" stroke="#C7FBD2" stroke-width="2" stroke-miterlimit="10" stroke-linecap="round" stroke-linejoin="round"/></svg>