<svg width="1202" height="629" fill="none" xmlns="http://www.w3.org/2000/svg"><path d="M1 199.365c81.383-7.453 154.73-39.166 207.476-103.176 16.803-20.46 31.267-48.811 19.286-72.486-8.62-16.953-29.952-25.43-48.654-21.922-18.702 3.508-34.482 17.245-43.541 34.051-9.059 16.807-11.981 36.244-11.835 55.388.292 37.705 12.566 75.848 36.966 104.638 24.4 28.79 61.22 47.496 98.916 47.204 26.008-.146 52.6-8.915 77.292-1.023 29.807 9.353 47.34 39.458 60.198 67.956 17.095 37.997 42.664 97.623 95.263 84.762 17.68-4.238 31.414-17.537 46.463-27.621 15.05-10.083 34.92-17.39 50.993-8.914 16.51 8.768 27.907 33.028 45.732 27.913 11.981-3.361 17.825-19.291 30.099-21.191 20.309-3.069 23.377 29.375 38.426 43.258 26.3 24.26 58.737-8.476 81.53-19.729 30.829-15.053 65.749-23.236 99.647-26.013 99.062-8.184 189.503 29.521 243.563 114.283 29.08 45.596 45.59 98.207 55.82 151.257-60.93-46.619-107.69-111.799-132.09-184.431-23.96-71.025-31.41-162.364-4.38-233.681 23.23-61.234 80.51-115.453 139.68-141.32 4.38-1.9 8.77-3.653 13.15-5.26" stroke="#C7FBD2" stroke-width="1.5" stroke-miterlimit="10" stroke-linecap="round" stroke-linejoin="round"/></svg>