<svg width="220" height="178" fill="none" xmlns="http://www.w3.org/2000/svg"><g opacity=".7" clip-path="url(#clip0)"><path d="M.43 177.65c7.934.727 16.756-6.059 21.382-11.957 2.608-3.312 4.383-7.459 4.034-11.66-.35-4.201-3.174-8.321-7.262-9.344 3.012 8.698 12.614 14.595 21.704 13.356 6.374-.861 12.05-5.143 15.062-10.771 3.819-7.082 1.237-14.973-.834-22.27-2.878-10.126-6.643-20.009-10.839-29.65-2.447-5.654-5.271-11.12-7.692-16.803-1.721-3.985-3.657-8.267-4.599-12.522-.269-1.238-.242-2.881.942-3.312 1.075-.404 2.124.593 2.85 1.481C41.66 72.25 47.9 81.271 48.814 91.585c.215 2.343.135 4.686.377 7.001.672 6.436 3.711 12.28 7.046 17.693 3.55 5.735 7.073 11.364 11 16.857.538.754 1.103 1.535 1.91 1.966.806.431 1.936.431 2.555-.269.51-.593.484-1.481.403-2.262-.78-7.163-3.416-14.084-5.917-20.816-2.878-7.729-5.89-15.404-8.821-23.105-.753-1.966-1.318-3.824-2.636-5.467-1.291-1.616-2.743-3.097-4.088-4.659-3.927-4.605-5.11-10.26-6.051-16.13-.054-.377-.054-.916.322-1.023.404-.135.7.377.834.78.619 1.913 1.21 3.851 1.829 5.763.484 1.508.887 3.016 1.372 4.498.134.43.215.834.591 1.13.565.431 1.21.135 1.372-.565.107-.404 0-.835-.108-1.266-.242-.888-.538-1.75-.834-2.612-.86-2.423-1.694-4.847-2.554-7.27-.108-.27-.189-.566-.162-.862.054-.297.27-.593.565-.566.377 0 .565.404.7.754 1.29 3.528 2.85 6.867 4.114 10.422.108.269.242.592.538.646.269.027.511-.216.565-.485.054-.269-.027-.538-.135-.808-1.156-3.447-2.151-6.893-3.308-10.34-.161-.458-.242-1.131.215-1.32.242-.108.538 0 .727.216.188.188.269.457.376.727 1.184 3.393 2.367 6.786 3.523 10.179.135.43.404.915.834.889.296-.028.538-.324.592-.62.053-.296-.027-.592-.108-.889-.457-1.588-1.21-3.096-1.748-4.658-.619-1.805-1.237-3.636-1.883-5.44-.08-.242-.161-.485-.161-.727s.135-.512.377-.592c.43-.162.806.323 1.022.727.887 1.777 1.425 3.662 2.205 5.466 1.56 3.609 2.985 6.679 3.066 10.718.054 2.908-.215 5.843.108 8.725 1.99 17.288 15.33 31.722 32.112 35.95 14.093 3.555 29.638-.081 41.257-8.806 11.618-8.725 19.337-22.243 21.892-36.596 1.479-8.348 1.237-17.18-2.151-24.963-5.137-11.795-17.24-18.312-28.805-22.351-11.807-4.12-25.55-2.693-36.039 4.2-23.587 15.512-22.968 49.415-3.63 68.05 13.796 13.303 34.559 16.319 52.471 10.664 11.699-3.716 22.027-12.71 25.631-24.452 2.689-8.832 1.506-18.5-1.668-27.17-5.298-14.408-16.728-27.064-31.52-31.077-11.807-3.204-24.932-.511-34.964 6.517-10.031 7.028-16.917 18.204-19.39 30.187-2.18 10.583-.942 22.055 4.464 31.426 8.014 13.896 25.066 21.732 40.934 19.47 15.868-2.235 29.826-14.03 35.447-29.083 5.621-15.027 3.039-32.692-5.971-45.968-5.136-7.54-12.344-13.814-20.951-16.857-12.022-4.255-26.061-1.616-36.2 6.112-10.14 7.729-16.38 20.143-17.32 32.88-.942 12.738 3.254 25.637 10.811 35.924 8.66 11.795 23.13 20.52 37.546 18.123 9.171-1.508 17.132-7.19 23.721-13.734 7.396-7.351 13.635-16.157 16.433-26.229 3.55-12.845.968-27.279-6.912-38.05-7.881-10.772-20.844-17.612-34.184-17.962-13.313-.35-26.653 5.87-34.936 16.346-9.656 12.199-12.399 29.46-5.406 43.625 7.45 15.08 25.577 24.667 42.171 20.574 3.846-.943 7.504-2.559 10.731-4.847 11.915-8.456 16.782-23.671 19.902-37.97 3.12-14.3 5.487-29.514 14.577-40.96C180.949 2.532 201.792-2.72 219.489 2.397" stroke="#C7FBD2" stroke-width=".8" stroke-miterlimit="10" stroke-linecap="round" stroke-linejoin="round"/></g><defs><clipPath id="clip0"><path fill="#fff" d="M0 0h220v178H0z"/></clipPath></defs></svg>