<svg width="690" height="484" fill="none" xmlns="http://www.w3.org/2000/svg"><path d="M.952 413.78c5.234-23.962 24.507-42.29 44.81-56.017 6.662-4.522 14.434-8.886 22.286-7.22 8.566 1.825 14.117 10.156 22.128 13.647 7.217 3.095 15.783 1.904 22.762-1.745 6.979-3.65 12.69-9.363 17.765-15.314a171.695 171.695 0 0030.535-52.526c5.314-14.599 8.01-30.468 5.314-45.781-2.142-12.299-7.693-23.962-8.645-36.419-1.031-13.806 3.569-29.755 14.355-38.958a121.513 121.513 0 01-6.424 24.676c4.996-4.364 6.424-11.505 6.979-18.17.555-6.586.555-13.568 3.648-19.44 2.3-4.284 6.028-7.537 10.152-10.076 4.283-2.539 9.121-4.761 13.959-5.951-.317 4.364-.635 8.728-.952 13.171a44.573 44.573 0 00-12.61 8.649c2.696-.477 5.155-1.349 7.772-1.984-1.507 7.379-2.934 15.075-.714 22.216 1.19 3.888 3.411 7.379 5.076 11.108 1.507 3.412 2.459 6.983 3.411 10.474 1.11 4.126 2.22 8.252 3.41 12.378 2.934-8.808.476-18.329-2.379-27.136-2.062-6.11-4.204-12.298-5.631-18.567-1.349-6.03.158-12.298 1.189-18.249 1.428-7.855 2.142-15.789 2.459-23.803.396-10.156.793-20.709 0-30.865-.793-9.997-3.41-20.074-7.138-29.357-6.662-16.663-5.473-39.117 3.252-54.748-1.507 12.298-1.269 24.756-1.111 37.054 0 .635-.079 3.65 1.111 3.412 1.11-.238 1.507-2.936 1.586-3.73.158-3.729.555-7.3.634-11.028.08-4.364.397-8.808.476-13.092.08-4.444.873-8.807 2.38-12.933.475 5.713 1.189 11.346 1.427 17.059.238 5.95.238 11.98.079 17.931 0 .953-.079 1.984.08 2.936.238 1.19 1.189 3.253 2.696 2.46 1.19-.635 1.507-2.46 1.507-3.65.317-6.268-.872-12.378-1.031-18.646-.079-2.936-.159-5.95.159-8.886.317-3.015 1.586-6.11 2.379-9.046a106.609 106.609 0 012.141 18.726c.159 6.188-.238 12.298 0 18.487 0 .714.08 1.507.476 2.063.397.555 1.19 1.031 1.824.635.556-.318.714-1.111.794-1.746 1.268-12.536.396-24.914.555-37.371 6.424 15.393 8.169 34.753 2.776 50.78-4.045 11.981-6.663 23.486-8.011 36.022-.952 8.649-1.586 17.297-2.062 26.025-.396 7.855.397 16.425-1.11 24.121-2.855 0-5.473 1.349-6.345 4.285-1.586 5.157 1.983 17.138 8.645 17.059 2.776 0 5.314-2.222 6.107-4.92 1.745-5.792-1.666-14.678-7.535-16.741v-9.918c4.68 2.777 7.693 7.617 10.548 12.219.873 1.348 1.666 2.777 1.904 4.364.238 1.586-.397 3.411-1.824 4.125-1.428.715-3.569-.396-3.411-1.983 1.983 5.792 3.887 11.505 5.869 17.297-.238-.476-.555-.952-.793-1.428-3.172-1.428-6.741 1.19-8.803 3.967a19.976 19.976 0 018.407-.635c-5.552 2.222-9.755 7.459-10.866 13.33 3.252-4.602 7.535-8.411 12.452-11.029-.159.079 1.269 8.728 1.507 9.76.714 4.046 2.379 8.013 3.331 12.06 1.824 8.014 2.696 16.424.476 24.438-1.983 7.062-6.186 13.171-9.835 19.519a153.217 153.217 0 00-15.545 37.45c-3.489 13.251-6.503 26.739-4.917 40.466 18.48-26.819 48.855-42.45 81.214-42.767 16.259-.159 32.359 2.222 48.538 3.253 33.231 1.984 66.859-2.221 98.583-12.298 22.762-7.22 45.286-18.011 60.355-36.499 12.293-15.075 18.796-34.356 21.096-53.716 5.394-44.432-11.103-91.087-43.144-122.27-37.276-36.26-95.173-50.224-144.425-33.562-49.251 16.662-87.082 63.872-91.365 115.684-3.49 42.608 15.465 86.485 48.934 112.986 21.256 16.821 47.587 26.739 74.473 30.31 31.486 4.205 64.796-.317 91.841-16.98 26.569-16.345 45.524-43.401 55.597-72.917 16.734-48.956 8.01-107.908-28.631-144.407-29.9-29.754-75.583-41.655-116.824-32.848-41.242 8.807-77.328 36.974-98.425 73.473-13.165 22.851-20.858 49.51-17.765 75.694 1.428 11.822 7.376 25.549 19.193 26.898 7.059.793 13.879-3.412 18.559-8.728 4.679-5.316 7.931-11.822 11.976-17.615 7.375-10.552 17.844-18.963 29.82-23.882-.952 2.698.635 5.395 3.252 6.347-3.331-2.301-7.693-3.094-9.914 1.191-1.19 2.221-.872 5.078.714 6.982-1.666-1.27-3.807-2.063-5.79-1.508-1.982.556-3.489 2.857-2.776 4.761.476 1.269 1.745 2.063 3.014 2.539 1.269.476 2.617.635 3.886 1.031 4.521 1.429 7.773 6.348 7.218 11.109-1.428-2.698-3.807-4.999-6.583-6.348-1.269-.635-2.697-1.111-4.124-.793-3.014.634-2.776 3.649-1.111 5.554 1.031 1.19 2.618 1.825 4.125 2.142-1.031-1.746-2.142-3.491-3.728-4.681-1.586-1.27-3.728-1.905-5.631-1.19-1.904.714-3.252 2.856-2.538 4.76.634 1.587 2.379 2.46 4.045 2.698 1.665.238 3.41.159 5.076.555 1.665.397 3.251 1.587 3.41 3.333-1.428-.714-2.855-1.428-4.441-1.746-1.587-.317-3.331-.158-4.6.794-1.269.952-2.062 2.697-1.428 4.205.635 1.507 2.776 2.221 3.966 1.111-4.521 3.888-1.269 11.663 3.331 13.568.475.238 6.424.634 5.948-.556-.635-1.428-1.19-2.856-1.824-4.284-.476-1.111-.952-2.222-1.031-3.412-.08-1.19.396-2.46 1.427-3.095 1.666-.952 3.807.318 4.838 1.984 1.745 2.856 1.349 6.744-.872 9.204-1.19 1.349-2.935 2.38-3.49 4.046-.793 2.619 1.428 5.158 3.966 5.396 2.062.238 4.124-.952 4.996-2.777 0 1.19 0 2.459.476 3.57.476 1.111 1.348 2.143 2.617 2.381s2.697-.476 3.252-1.667c.555-1.19.079-2.777-1.031-3.491 1.507 1.746 3.648 2.936 5.948 2.857 2.3 0 4.6-1.429 5.314-3.571 1.745-4.919-5.076-8.093-8.883-8.569 3.569 1.19 7.614-.714 9.042-4.205.238-.635.476-1.349.317-1.984-.159-.635-.635-1.349-1.269-1.428-3.886-.794-2.062 6.824-.317 8.093 5.869 4.285 12.134-5.078 6.741-9.442 3.807-.079 7.614-.238 11.421-.317 1.824-.08 3.807 0 4.996 1.349.952 1.11.952 3.015-.158 4.125-1.031 1.111-2.935 1.191-4.124.238 1.189.953.396 4.285-.08 5.396-.793 1.825-2.062 3.491-4.203 3.57-1.904.08-3.886-1.825-3.252-3.729-.396 1.825-2.3 3.095-4.124 2.857-1.824-.238-3.252-2.143-3.014-3.968 2.142-.238 3.966-1.904 4.442-3.967.475-2.063-.556-4.364-2.38-5.475 6.107-.079 12.214-.158 18.242-.238-2.221-1.745-3.966-3.411-6.662-3.57-3.331-.159-7.059.635-10.39.952 1.11-.159 2.141-1.111 2.379-2.222.238-1.11-.158-2.38-1.11-3.094 5.393-1.984 11.738-.873 14.117 4.443 2.855 6.348 5.552 12.695 7.535 19.36 1.427 4.761 1.348 9.839 1.665 14.758.079.556.079 1.19.476 1.587.397.397.952.476 1.507.556 1.824.238 13.403 0 13.721-1.825.079-.635-.238-1.27-.635-1.825-1.745-2.936-2.3-6.586-1.507-9.918 1.586 3.57 3.173 7.141 4.759 10.791 1.824.476 3.886-.001 5.234-1.349-3.727-3.73-4.838-9.284-5.076-14.6-.237-5.316 0-10.711-1.665-15.631-.317 2.063 1.507 4.285 3.648 4.285 2.142 0 3.966-2.142 3.648-4.285 1.349 1.191 3.49 1.349 4.918.239 1.427-1.032 1.982-3.174 1.189-4.84.556 1.824 3.173 2.856 4.997 2.221 2.776-.873 3.252-4.602.793-6.268.952.635 2.3.397 3.172-.317.873-.794 1.269-1.905 1.507-3.016.238-1.269.318-2.697-.317-3.808-.634-1.111-2.221-1.825-3.331-1.111-.714.397-1.031 1.27-1.11 2.063 0 .794.238 1.587.555 2.301 1.586 3.174 6.821 7.141 10.39 4.919 1.744-1.031 2.617-3.411 1.982-5.316.635.556 1.666.794 2.459.397.793-.317 1.348-1.19 1.427-2.063 0-1.19-.872-2.222-1.824-2.936-.951-.714-1.982-1.428-2.617-2.459-.555-1.032-.555-2.46.476-3.174 1.031 3.808 8.962 2.222 6.662-1.904-.238-.476-.714-.873-1.11-1.19-.952-.715-1.904-1.032-3.014-1.27-1.031-.238-1.983.079-3.014.238.952-.476 1.666-1.507 1.745-2.539.079-1.111-.555-2.222-1.507-2.618-.952-.476-2.3-.08-2.855.793-.079-1.428-1.269-2.777-2.697-3.094.793 1.666.714 3.808-.317 5.395-1.507 2.46-4.759 3.412-7.296 2.142-1.983-.952-3.411-2.935-3.649-5.078-.079-.634-.079-1.348-.634-1.825-.635-.555-1.666-.158-2.3.397-1.269 1.032-2.062 2.698-2.142 4.364-.079 1.666.714 3.333 1.904 4.443-.873-1.031-2.142-1.745-3.569-1.825-1.983 0-3.173 1.508-3.252 3.333 0 1.111.238 2.142.238 3.253 0 1.111-.317 2.222-1.269 2.856-.872.556-2.221.476-2.776 1.349-.317.556-.158 1.349.159 1.905.396.555.952.952 1.427 1.428 1.666 1.428 2.935 3.57 2.697 5.792-.238 1.904-1.586 3.57-3.41 4.205-1.824.556-3.887.079-5.235-1.349-1.269-1.428-1.665-3.57-.952-5.316.238-.635.714-1.269 1.269-1.587.556-.396 1.349-.555 1.983-.317.952.317 1.586 1.349 1.904 2.301.555 1.666.476 3.65-.476 5.157-.952 1.508-2.697 2.619-4.442 2.381-1.506-.159-2.855-1.27-3.648-2.539-.634-.953-1.031-2.063-1.348-3.174-.476-1.666-.317-1.587.714-2.619 1.189-1.11 2.22-2.221 3.172-3.649 2.697-3.968 4.045-8.331 5.076-13.013 1.903 1.032 4.521.318 5.71-1.507 1.349-2.063.873-4.92-1.507-6.031 1.349-.634 2.776-1.269 4.125-1.983-.635-.794-.318-2.063.396-2.857.952-1.11 2.459-1.666 3.966-1.507 1.11.159 2.696.555 3.41 1.507.476.635.793 1.429 1.269 2.143.476.714 1.19 1.349 1.983 1.349.634 0 1.269-.397 1.586-.873.396-.476.555-1.19.555-1.825 1.11 1.031 2.3 2.142 3.807 2.46 1.586.317 3.41.079 4.838-.794 1.983-1.19 3.252-3.491 3.252-5.871 0-1.111-.318-2.301-1.031-3.174-.873-1.111-2.38-1.825-3.807-1.666-1.428.079-2.776.952-3.49 2.221-.238.476-.397 1.032-.079 1.429.238.238.555.238.872.317 2.3.159 4.759-.873 6.266-2.618 3.251-3.73 1.824-12.378-4.204-12.14-1.903.079-3.727 1.349-4.521 3.094-.555-1.111-1.11-2.301-1.665-3.412.793-.317 1.428-1.11 1.507-1.983.476-3.333-3.807-2.063-3.41-.476-.318-1.111-1.587-1.746-2.697-1.508s-1.983 1.19-2.379 2.222c-.397 1.031-.476 2.222-.476 3.412-.08-1.667-1.983-2.857-3.648-2.539-1.666.317-2.856 1.904-3.094 3.57s.397 3.333 1.269 4.761c-1.824-2.777-2.775-5.951-6.503-6.427-4.521-.555-8.248 2.539-7.455 7.22.396 2.301 1.983 4.364 4.045 5.396-2.062-1.349-5.235-.397-6.107 1.904-.873 2.301.793 5.157 3.251 5.554-2.458.079-4.52 2.539-4.203 4.999.238 1.745 1.824 3.253 3.49 3.57 2.062.397 3.648-.714 4.758-2.459.238-.318.397-.715.476-1.111a1.035 1.035 0 00-.396-1.032c-.397-.317-.952-.238-1.349 0-.396.238-.634.714-.872 1.111-.793 1.825-.952 3.809-1.19 5.792-.238 1.904-.714 3.571-1.824 5.158-.476.714-.952 1.507-1.507 2.221-1.11 1.587-2.696 3.174-3.49 4.92v.079c-1.824-4.047-1.268-9.204 1.507-12.695-1.189.238-2.538-.318-3.172-1.349-.634-1.031-.476-2.46.238-3.412.238 1.19-.793 2.381-1.983 2.381-1.189 0-2.221-1.111-2.062-2.301 0 3.332-.159 6.506.079 9.759.159 1.507-.158 4.205.476 5.554-3.172-6.903-4.917-16.345-3.251-23.803.634 1.983 3.093 3.173 4.996 2.539 1.983-.714 3.093-3.174 2.3-5.158 1.19 0 1.983-1.349 1.745-2.539-.159-1.111-1.031-2.063-1.824-2.935 1.427 1.507 5.393-.635 4.917-2.698-.476-2.063-3.172-2.777-4.917-3.095 1.745.953 3.251-1.428 3.331-2.935.079-1.19-.317-2.381 0-3.491.396-1.746 2.458-2.857 4.203-2.301 1.745.555 2.697 2.697 2.062 4.364.159-1.429.397-2.857.556-4.285 2.537.873 5.551-.079 7.137-2.222 1.111-1.507 1.349-3.808 0-5.157-1.427-1.349-4.044-.794-5.155.952-1.11 1.746-.872 3.967.08 5.713.872 1.745 2.379 3.174 3.806 4.443.159-2.698 3.887-2.777 5.949-3.174.317-.079.714-.158 1.031-.238 1.903-.555 3.093-2.777 2.617-4.681s-2.538-3.253-4.521-2.936c1.031-1.269 1.428-3.094.873-4.681-1.269-3.809-6.186-3.809-8.486-.952 1.11-1.587.951-3.967-.318-5.396-1.269-1.428-3.569-1.983-5.313-1.19-.794.397-1.507 1.032-1.587 1.905-.079.872.873 1.745 1.666 1.428.555-.238.793-.952.872-1.587.238-2.301-1.427-5.396-3.727-5.951-1.824-.476-5.314 1.19-5.473 3.332.08-1.269-.951-2.459-2.141-2.856-1.269-.317-2.617.079-3.648.873-1.031.793-1.666 1.983-2.062 3.174-.318.793-.476 1.586-.397 2.459.079.794.555 1.667 1.348 1.984.952.476 2.142 0 2.855-.714.714-.794 1.031-1.825 1.269-2.857.397-1.825.556-3.887-.079-5.633-.872-2.618-3.49-4.602-6.265-3.571-2.697 1.032-3.807 4.602-2.697 7.221-.872-2.857-5.234-4.443-7.534-2.301-2.459 2.221-1.111 6.903 1.665 8.172-3.331-1.587-5.076 4.682-.872 5.316 1.507.238 3.013-.396 4.441-.952-2.062.714-3.648 2.698-3.966 4.84 1.111-1.983 3.728-3.015 5.869-2.221 4.6 1.666 3.173 8.251 1.825 11.663-1.745 4.364-4.759 8.252-8.566 10.95-1.507 1.031-3.41 1.904-5.076 1.19-1.11-.476-1.745-1.666-1.903-2.857-.159-1.19.158-2.38.634-3.491 1.428-3.332 4.521-5.951 8.09-6.744 3.41-.793 7.693.238 8.724 4.126.238-1.746 1.11-3.571 2.697-4.126 1.427-.476 3.251.397 3.727 1.825s-.317 3.253-1.824 3.729c1.19-.635 2.855.079 3.41 1.349.556 1.27 0 2.856-1.11 3.65-2.538 1.983-6.741.873-7.297-2.381-1.268 9.204-2.141 18.012.556 27.057-4.68-5.951-6.187-14.203-4.045-21.502-.793 1.19-2.221 3.094-3.648 3.649-1.666.556-2.142-.476-3.252-1.19 2.062 1.587 2.221 5.158.158 6.665-2.062 1.587-5.631.159-5.869-2.38 3.173 3.57 5.711 7.617 7.694 11.981.951 2.063 1.744 3.967 2.3 6.109.555 2.301 1.824 5.158 1.824 7.459-3.093-5.475-6.107-10.87-9.2-16.345-1.19-2.063-1.904-4.443-2.142-6.824-.713.873-1.507 1.746-2.22 2.698-.476 3.332.634 6.744 2.062 9.759.476 1.032 5.234 9.839 3.172 9.839-.872 0-3.41-3.571-3.965-4.285-1.19-1.507-2.221-3.173-2.856-4.919-1.348-3.65-1.665-7.696-.634-11.426-.555 1.508-2.3 2.46-3.807 2.143-1.586-.318-2.696-1.905-2.617-3.491.079-1.032.396-2.539-.635-2.777-.951-.159-1.348 1.031-1.744 1.824-1.032 1.984-4.283 2.381-5.711.635.635-1.428 0-3.253-1.427-3.888-1.349-.634-3.252 0-3.966 1.349 1.507 1.587 4.362 1.666 5.948.08 3.649-3.571-.951-9.68-4.362-11.426-.714-.397-1.586-.714-2.379-.635-.793.08-1.666.476-1.983 1.27-.317.714 0 1.666.476 2.221.555.635 1.269 1.032 1.983 1.349a18.19 18.19 0 009.834 1.349c.476-.079.952-.159 1.19-.555.317-.556-.159-1.27-.476-1.825-1.586-2.698 1.666-8.411 4.679-5.713-2.22-1.27-2.617-4.84-.793-6.586 1.824-1.745 5.314-1.19 6.504 1.032-.317-1.349.396-2.857 1.665-3.491 1.269-.635 2.776-.159 3.728.793.317-1.031.396-1.904 1.348-2.46.793-.476 2.776-.476 3.41.318-1.11-1.428-1.11-3.65 0-5.078-1.744 1.19-4.837 1.031-5.075-1.587-1.745.793-3.966-.555-4.362-2.46-.397-1.904.872-3.888 2.537-4.76 1.666-.953 3.728-.953 5.632-.556-.556-1.031-1.032-2.063-1.825-2.856-.793-.873-1.903-1.428-3.013-1.428-1.111 0-2.3.793-2.538 1.983.238-2.063-1.745-3.967-3.807-4.046-2.062-.08-4.045 1.428-4.838 3.332-.952 2.38-.317 5.475.952 7.617 1.427 2.46 4.203 6.506 7.058 7.538-3.093-1.111-6.821.317-8.407 3.174-.079-3.333-3.251-8.887-7.217-6.586-1.665.952-2.3 3.253-1.428 4.919.635 1.191 2.063 1.984 3.411 2.063 1.348.08 2.776-.396 3.886-1.19 1.824-1.19 3.172-3.412 2.697-5.554-.476-2.142-3.173-3.65-4.918-2.38 1.111-1.825 1.983-3.809 2.142-5.951.158-2.142-.397-4.364-1.983-5.792s-4.124-1.825-5.869-.556c-1.269.953-1.824 2.539-1.666 4.126.159 1.508 1.031 2.936 2.221 3.967.714-2.697-.793-5.792-3.331-6.902-2.538-1.111-5.869-.08-7.376 2.301-1.507 2.38-.951 5.792 1.19 7.617-2.062.317-3.807 2.142-4.045 4.205-.317 3.015 3.014 5.713 4.997 7.696-2.3-.635-4.918-.555-6.98.635-2.062 1.19-3.569 3.65-3.172 6.03.317 2.38 2.696 4.443 5.076 4.047-.952-2.936-1.507-7.855-4.442-9.363-2.696-1.349-6.265-.952-8.407 1.349-2.141 2.301-2.379 6.109-.634 8.728 1.428 1.983 3.807 3.094 6.186 3.491 1.983.317 5.631-.794 7.297 0 .555.238 2.141 3.808 2.934 2.38.238-.396.397-.952.793-1.111.635-.238 1.19.556 1.19 1.191 0 .634-.397 1.269-.555 1.904-.238 1.19.396 2.539 1.507 3.015 1.11.476 2.538.159 3.331-.873-4.045 2.142-5.711 7.855-3.886 11.981.713 1.587 1.982 3.095 3.648 3.65 3.252 1.111 8.169-2.38 8.327-5.792-.634 1.19.635 2.539 1.983 2.777s2.697 0 3.966.476c1.348.476 2.379 1.904 2.379 3.412 0 2.856-3.648 4.84-6.107 3.888 3.886 1.507 1.904 9.838.238 12.06-1.824 2.38-4.917 3.808-7.931 3.65-1.666-.08-3.41-.794-4.124-2.301-.793-1.904.634-4.126 2.379-5.237 2.776-1.666 6.345-1.666 9.597-1.111 2.538.397 5.155 1.27 7.772 1.27 2.221.079 4.124-1.428 6.266-1.904 8.644-2.143 12.531 7.379 14.989 13.409 3.569 8.648 5.869 17.773 6.98 27.056 1.189-.238 2.379-.476 3.569-.793a29324.68 29324.68 0 01-9.756-39.593c7.376 10.394 13.007 23.168 25.935 27.215 7.772 2.38 16.258 3.491 22.524 8.569 7.614 6.189 9.993 16.424 12.769 25.787 10.548 35.626 29.9 69.585 66.621 82.121 6.662 2.301 13.8 3.888 20.858 2.857 6.98-1.032 13.88-5.158 16.735-11.585 6.027-13.647-2.776-26.739-8.169-39.037-4.521-10.394-9.121-21.026-9.914-32.372-.872-11.426 2.3-22.693 6.424-33.246 1.983-5.078 4.204-10.394 5.631-15.71 1.666-6.347 1.507-13.806 2.221-20.391.634 2.539 2.776 4.681 5.393 5.236 2.617.556 5.472-.476 7.059-2.539 1.586-1.983 1.982-4.602 2.062-7.141.158-4.681-.318-13.25-6.107-14.599-2.697-.635-5.473 1.032-6.98 3.333-1.506 2.301-1.903 5.157-2.141 7.934-.396 5.475-.159 11.029-.634 16.583-.238 3.412-1.031 7.062-2.3 10.235-1.031 2.539-3.569 3.968-5.949 1.905-2.3-2.063-2.22-6.427-1.507-9.125.873-3.174 2.856-6.109 4.759-8.807 1.666-2.38 4.045-4.523 4.124-7.617-2.22 2.539-4.6 4.919-7.058 7.299-.476.477-1.031 1.032-1.745 1.111-1.19.238-2.3-.793-2.618-1.983-.317-1.19-.079-2.381.238-3.491 1.983-8.332 7.059-15.314 15.387-18.25.793-.238-.397-12.695-.476-14.044-1.666-29.119-11.659-56.73-14.435-85.77-1.586-16.822-1.665-33.325 6.107-48.956 1.19-2.38 3.014-4.999 5.631-5.078 1.983-.08 3.649 1.428 4.521 3.174.872 1.745 1.031 3.729 1.269 5.712 1.745 19.836 2.617 39.831 3.014 59.747.476 20.074 7.693 101.084 8.01 109.257.635 16.741-.634 33.483-1.19 50.225 3.887-3.65 3.569-9.839 3.252-15.235-.317-5.316.079-11.743 4.6-14.599-1.11.714-4.441-12.616-4.521-13.806-.396-4.84.476-8.886 2.618-13.171-3.252-4.919-5.473-10.553-6.266-16.345 6.266-.952 12.531 3.095 16.021 8.411 3.489 5.316 4.758 11.743 6.027 18.011 2.856 14.52 5.711 29.04 8.566 43.48 2.538 12.775-2.221 25.153-1.666 38.006.635 15.711 3.014 31.421 6.821 46.734 7.455 29.754 20.7 58.159 39.021 82.756 4.758 6.427 11.341 13.251 19.272 12.378 11.024-1.19 14.752-15.155 15.783-26.184.714-7.299 1.348-14.916-1.19-21.819-2.538-6.903-9.358-12.775-16.655-11.743-6.503.952-11.341 7.141-12.61 13.647-1.269 6.506.317 13.171 2.141 19.439 11.659 40.148 35.452 76.726 67.573 103.465" stroke="#C7FBD2" stroke-width="2.5" stroke-miterlimit="10" stroke-linecap="round" stroke-linejoin="round"/></svg>