<svg width="720" height="745" fill="none" xmlns="http://www.w3.org/2000/svg"><path d="M463.557 115.578c70.161 54.015 118.867 135.293 133.344 222.687 14.477 87.393-5.424 179.999-54.363 253.772-11.55 17.41-29.768 35.639-49.95 30.382-11.294-2.924-19.678-12.998-23.725-23.972-4.047-10.975-4.496-22.88-5.049-34.554-2.151-48.061-6.071-96.34-17.708-143.022-11.637-46.681-31.454-91.976-62.696-128.609-5.879-6.875-12.321-13.615-20.58-17.335-8.258-3.719-18.597-3.898-25.712 1.65-10.808 8.469-9.445 25.052-6.274 38.387 15.631 66.799 49.074 131.734 42.336 200-.58 5.699-1.71 11.873-6.054 15.614-7.593 6.417-19.951.865-24.761-7.754-4.809-8.618-4.862-19.062-6.703-28.757-1.842-9.695-6.838-20.237-16.418-22.885-13.768-3.796-25.626 11.468-28.166 25.416-2.536 14.062-.485 29.313-7.335 41.89-9.287 17.211-32.812 22.639-51.273 16.352-18.515-6.229-32.543-21.426-43.702-37.355-17.04-24.338-29.14-51.643-43.904-77.372-14.765-25.729-32.961-50.591-58.352-66.041-25.387-15.337-59.266-19.51-84.512-3.969" stroke="#C7FBD2" stroke-width="2" stroke-miterlimit="10" stroke-linecap="round" stroke-linejoin="round"/></svg>