<svg width="1917" height="492" viewBox="0 0 1917 492" fill="none" xmlns="http://www.w3.org/2000/svg">
<g opacity="0.15">
<path d="M162.159 240.592C175.561 238.977 177.337 225.461 174.969 214.369C167.649 180.231 160.383 146.146 153.062 112.008C149.402 94.9383 145.742 77.8691 142.082 60.8537C138.583 44.4306 134.116 28.7075 133.901 11.7998C133.847 8.03062 134.493 3.39984 138.045 1.99984C142.19 0.384457 146.065 4.69215 148.38 8.46138C179.221 58.3768 198.652 114.054 221.205 168.061C175.938 117.123 91.1636 107.646 35.7239 147.331C70.764 135.215 105.858 123.1 140.898 111.038C156.722 105.6 171.632 98.8691 187.995 94.7229C204.95 90.4152 222.281 87.6691 239.721 86.4845C240.42 86.4306 241.12 86.3768 241.82 86.3768C225.672 101.777 205.434 112.008 185.465 121.861C165.496 131.715 145.15 141.677 128.626 156.7C112.209 171.615 99.7218 192.615 100.314 214.908C100.26 213.292 110.648 207.585 112.209 206.561C116.569 203.708 120.983 201.015 125.504 198.485C134.062 193.692 142.943 190.084 151.609 185.4C171.255 174.792 190.848 164.238 210.494 153.631C219.913 160.308 217.114 176.838 207.049 182.492C196.984 188.146 183.635 184.377 175.292 176.408C166.949 168.438 162.589 157.184 159.36 146.092C151.986 120.784 149.026 94.346 140.683 69.3614C132.34 44.3768 117.161 19.9845 93.2628 8.94599C137.076 62.846 194.938 105.169 259.528 130.638C265.234 132.9 271.854 136.131 272.5 142.215C273.361 150.508 262.596 154.6 254.253 154.815C234.338 155.408 214.261 150.454 196.93 140.546C192.947 138.284 188.695 134.892 188.964 130.369C189.233 126.008 193.646 123.208 197.522 121.269C221.905 109.046 248.117 100.538 274.976 96.0691C274.33 115.777 249.409 124.5 229.763 123.531C206.618 122.346 184.335 115.131 161.782 109.8C139.229 104.469 115.385 101.023 93.1013 107.377C70.8178 113.731 50.6334 132.2 48.6419 155.246C46.6504 178.346 68.9339 202.2 91.4328 196.546C106.127 192.884 115.815 179.423 125.935 168.223C136.108 157.023 151.017 146.577 165.334 151.477C171.793 157.938 167.918 170.377 159.575 174.092C151.232 177.808 141.059 174.361 134.439 168.115C127.765 161.815 123.943 153.254 120.391 144.8C104.781 107.808 91.971 65.4845 107.096 28.3306C109.195 23.1614 113.178 17.4537 118.722 18.0998C124.481 18.746 126.903 25.6383 128.088 31.2383C139.821 86.2152 151.501 141.246 163.235 196.223C164.904 203.923 166.626 211.892 171.094 218.408C175.561 224.923 183.42 229.715 191.17 228.208C202.474 225.946 207.264 212.323 207.479 200.8C207.802 179.961 199.89 162.569 190.255 144.638C180.513 126.492 169.533 108.992 157.315 92.3537C159.737 95.6922 168.241 98.4383 171.847 100.646C177.176 103.877 182.397 107.323 187.457 110.931C197.36 117.931 206.834 125.577 215.822 133.761C233.746 150.184 251.455 166.069 265.288 186.261C234.984 183.3 212.162 157.723 195.799 132.092C185.896 116.692 177.068 100.215 173.946 82.2306C170.825 64.246 174.162 44.3768 186.434 30.7537C197.576 18.3691 215.553 12.6614 231.808 16.2691C248.064 19.8768 261.897 32.746 266.741 48.6845C274.492 74.2614 259.044 101.992 237.891 118.308C216.737 134.623 190.525 142.7 166.142 153.631C129.164 170.215 95.4158 193.961 67.3192 223.146C85.3505 231.277 106.504 229.877 125.235 223.469C143.912 217.061 160.652 206.077 177.122 195.092C183.635 190.731 191.924 186.261 198.814 189.977C207.91 194.877 205.542 208.823 199.944 217.492C194.346 226.215 186.434 235.315 188.587 245.438C201.128 248.346 209.256 233.269 216.845 222.823C232.885 200.908 266.149 193.961 289.616 207.638C287.948 196.815 286.118 185.669 280.251 176.408C274.384 167.146 263.35 160.308 252.692 162.731C239.936 165.692 234.5 179.046 229.925 189.923C224.058 203.923 214.315 216.738 202.528 226.269C191.117 235.477 176.638 238.492 162.105 240.592C163.666 240.323 165.173 240.054 166.734 239.838" stroke="#535353" stroke-width="1.9634" stroke-miterlimit="10" stroke-linecap="round" stroke-linejoin="round"/>
<path d="M1.97559 436.377C6.28159 428.569 14.5168 423.454 23.1826 421.461C31.8485 419.415 40.9449 420.169 49.7184 421.784C58.4918 423.4 67.05 425.877 75.8235 427.438C86.2117 429.215 96.7614 429.592 107.257 428.623C113.34 428.031 129.11 427.815 131.371 420.438C132.232 417.692 131.532 414.677 130.51 411.931C126.796 401.754 119.045 392.977 117.646 382.261C116.677 374.669 118.991 367.077 121.306 359.754C124.427 349.846 127.549 339.992 130.671 330.084C132.017 325.831 133.416 321.469 136.107 317.969C138.745 314.523 142.459 312.1 146.065 309.731C147.895 308.546 149.725 307.361 151.824 306.769C155.861 305.638 160.329 307.954 163.774 309.946C166.142 311.346 174.7 314.415 175.184 317.431C175.346 318.615 174.646 319.746 173.624 320.338C172.601 320.931 171.363 321.038 170.179 320.931C168.51 320.823 166.895 320.392 165.388 319.584C163.827 318.777 162.428 317.646 160.813 317.107C158.391 316.3 155.646 316.946 153.439 318.184C151.179 319.423 149.348 321.254 147.518 323.084C153.708 320.5 161.944 320.877 167.326 325.184C169.21 326.692 176.961 335.792 170.932 336.277C167.218 336.6 164.15 330.461 159.952 330.192C158.499 330.084 157.045 330.515 155.646 331C151.663 332.454 147.895 334.554 144.666 337.3C148.756 335.684 154.516 332.615 158.929 333.369C163.128 334.069 167.003 336.654 169.048 340.423C169.479 341.177 169.802 342.038 169.802 342.9C169.748 343.761 169.264 344.677 168.456 344.946C167.487 345.269 166.465 344.623 165.55 344.138C160.975 341.661 154.408 342.738 149.618 344.246C144.773 345.807 140.413 348.554 136.107 351.3C142.351 349.9 148.864 344.838 155.377 345.646C157.907 345.969 168.08 347.638 167.111 351.407C166.626 353.184 164.419 353.723 162.536 353.938C157.907 354.423 153.278 354.907 148.649 355.392C150.425 353.184 152.901 351.515 155.646 350.869C154.462 356.792 146.173 359.807 141.705 362.446C147.249 367.023 148.756 374.831 149.133 381.992C149.51 389.154 149.187 396.638 152.201 403.154C154.892 408.861 159.844 413.115 164.258 417.584C168.672 422.107 172.816 427.546 173.085 433.846C169.156 434.869 165.873 430.831 164.043 427.169C157.368 413.869 142.459 357.707 174 364.6C180.136 365.946 185.734 369.015 191.816 370.523C203.496 373.484 216.576 370.254 225.511 362.177C223.842 363.684 214.638 361.961 212.378 361.8C207.695 361.369 203.012 360.669 198.383 359.7C192.139 358.354 177.014 356.469 174.915 349.307C173.516 344.461 176.961 339.238 181.428 336.923C186.757 334.123 193.969 333.692 199.782 332.077C208.072 329.761 216.737 328.738 225.08 326.531C228.525 325.615 232.024 324.592 235.038 322.707C239.344 319.961 241.228 314.9 239.99 309.892C239.236 306.769 237.514 304.023 235.738 301.331C229.548 291.854 222.604 282.915 216.737 273.223C210.817 263.584 205.919 253.084 204.25 241.938C203.766 238.761 203.712 235.1 205.972 232.784C208.987 229.769 214.154 231.007 217.652 233.377C225.188 238.546 229.225 247.915 229.332 257.069C229.44 266.223 226.049 275.161 221.259 282.969C215.23 292.823 206.726 303.054 196.714 308.923C190.525 312.584 182.881 314.415 175.992 312.423C170.394 310.807 156.238 297.669 166.734 293.577C169.425 292.5 172.439 292.177 175.292 292.607C174 297.023 169.91 301.115 165.496 302.354C162.643 303.161 158.499 303.592 157.099 300.361C156.346 298.638 156.238 296.646 155.162 295.138C154.247 293.846 152.793 293.038 151.394 292.338C149.994 291.638 148.487 290.938 147.518 289.7C146.55 288.461 146.119 286.577 147.088 285.338C150.048 286.092 153.547 286.738 155.915 284.8C156.615 284.261 157.153 283.507 157.853 283.077C159.79 281.838 162.266 282.7 164.419 283.4C168.941 284.854 173.677 285.5 178.414 285.338C177.66 285.338 174.431 287.815 173.301 288.246C170.771 289.215 168.241 290.023 165.604 290.4C158.391 291.423 152.847 288.731 148.272 283.131C145.527 279.792 141.059 274.3 142.674 269.777C143.643 267.031 146.173 264.984 148.972 264.284C151.824 263.584 154.839 264.177 157.422 265.577C158.606 266.223 159.737 267.192 159.952 268.484C160.167 269.992 158.983 271.446 157.53 272.038C154.731 273.169 151.286 272.361 148.487 273.438C145.096 274.677 142.297 279.469 138.26 278.877C133.47 278.231 133.739 272.792 133.416 269.023C132.34 256.477 131.479 243.931 130.51 231.438C130.079 226.054 129.541 220.292 126.096 216.092C122.651 211.892 115.277 210.6 112.102 214.961C106.881 222.069 121.467 232.407 126.634 235.261C160.598 253.838 205.811 226.861 228.687 201.661C252.262 175.707 261.52 136.992 250.862 103.446C251.562 105.654 248.064 113.084 247.525 115.615C246.556 120.192 245.803 124.823 245.372 129.454C244.457 138.769 244.673 148.192 245.911 157.454C248.279 174.954 255.33 191.646 260.766 208.177C272.123 242.638 293.653 269.992 322.611 291.261C347.155 309.3 373.53 332.023 384.833 361.207C393.606 383.769 394.252 409.4 386.663 432.338C384.456 439.069 381.442 445.692 376.544 450.754C371.646 455.815 364.487 459.154 357.544 458.077C349.308 456.838 343.065 450 338.382 443.054C317.229 411.607 314.484 368.638 331.546 334.823C345.864 306.446 377.513 288.731 408.839 298.746C426.332 304.346 437.312 320.715 432.576 339.723C425.255 324.646 428 305.207 439.142 292.715L437.743 295.3C442.91 287.169 452.222 283.669 460.403 287.169C468.585 290.669 470.899 302.354 480.211 304.669C494.205 308.169 508.2 297.669 509.33 283.669C509.33 283.669 519.019 135.484 519.234 130.746L540.064 388.507C540.064 388.507 544.209 310.377 553.09 299.877C557.988 294.061 563.747 295.407 569.506 298.854C572.144 300.415 575.858 303.215 579.033 301.331C583.555 298.638 582.209 291.207 586.031 287.869C588.883 285.392 592.49 287.331 595.396 288.731C601.209 291.477 606.753 292.715 610.79 286.307C614.989 279.631 613.266 262.023 622.578 259.169C630.652 256.692 633.72 274.138 635.227 279.146C637.272 286.146 638.941 293.254 641.47 300.092C642.87 303.861 645.884 313.446 650.836 307.9C655.842 302.354 656.864 285.715 667.576 288.407C677.964 291.046 678.287 304.292 684.961 310.861C687.222 313.069 690.128 314.415 693.358 314.307C690.559 301.654 705.092 291.207 716.126 298.584C722.692 304.507 732.058 310.377 740.186 305.692C745.999 301.007 748.367 283.507 748.367 283.507L770.758 132.684L788.413 378.815L797.348 312.692C798.532 306.877 799.662 301.007 804.345 298.692C810.158 296.377 816.025 301.007 821.838 297.507C827.651 295.192 830.019 288.192 838.147 287.007L874.102 288.3C857.524 276.884 874.102 288.3 874.102 288.3C857.524 276.884 837.178 266.007 828.997 246.515C824.906 236.823 824.206 223.954 831.473 215.554C837.878 208.123 848.535 207.046 857.04 211.246C866.89 216.092 873.079 226.431 876.793 236.392C880.615 227.4 884.544 217.438 892.564 211.3C898.754 206.507 908.066 205.377 915.063 207.692C925.559 212.377 933.74 222.877 931.372 235.692C925.559 261.323 903.383 274.192 884.437 288.3C884.867 288.3 884.867 288.3 884.437 288.3L930.188 287.007C936.001 285.823 937.185 275.323 944.182 277.692C951.18 280.007 953.494 289.377 956.993 296.377C960.491 303.377 965.174 309.192 974.486 308.061C982.667 306.877 988.48 302.246 993.163 295.246C995.477 290.561 997.846 278.931 997.846 278.931L1009.9 130.261C1010.01 131.823 1009.79 131.823 1009.9 130.261C1009.9 131.823 1029.33 388.507 1029.33 388.507L1046.99 304.184C1048.39 299.661 1048.6 293.9 1054.42 296C1058.18 297.346 1061.95 300.792 1066.2 300.415C1070.99 299.931 1071.96 294.869 1073.25 291.154C1075.41 285.015 1081.38 287.977 1085.9 289.646C1090.96 291.531 1097.53 292.607 1100.81 287.277C1103.61 282.754 1104.47 277.746 1105.6 272.684C1106.57 268.377 1107.76 263.1 1111.52 260.3C1113.95 258.469 1115.56 260.784 1117.34 262.831C1118.95 264.661 1120.24 266.761 1121.27 268.969C1125.63 278.069 1125.95 288.515 1129.02 297.992C1129.99 301.061 1130.15 305.907 1133.92 306.931C1138.17 308.061 1141.24 305.207 1142.85 301.707C1144.47 298.154 1144.95 293.738 1147.86 290.992C1150.82 288.192 1154.58 287.815 1157.92 290.023C1168.52 297.077 1168.58 312.961 1181.66 316.892C1180.2 316.461 1181.28 308.654 1181.5 307.523C1182.14 304.615 1184.03 302.084 1186.13 299.931C1190.05 296 1195.71 294.815 1200.66 297.561C1208.84 302.246 1216.97 308.061 1226.28 302.246C1229.78 299.931 1257.77 136.669 1258.68 132.738C1258.57 133.438 1258.57 133.438 1258.68 132.738C1258.68 134.354 1269.45 297.561 1276.34 378.869C1276.44 377.254 1276.44 377.254 1276.34 378.869C1278.44 358.461 1280.86 337.461 1286.02 317.538C1288.39 308.546 1289.68 295.192 1300.61 294.815C1308.58 294.546 1310.03 302.892 1321.44 301.438C1340.87 298.961 1344.42 300.577 1354.87 316.946C1365.9 334.284 1374.62 352 1379.47 372.084C1388.99 411.392 1384.58 454.361 1365.31 490.061C1349.16 463.892 1344.05 431.154 1351.48 401.323C1367.09 338.215 1424.52 316.031 1484.59 318.831C1467.95 305.154 1456.65 288.246 1447.77 268.754C1444 260.138 1441.31 251.523 1439.16 241.831C1437 229.446 1435.39 218.138 1436.47 205.754C1437 198.215 1438.08 190.677 1439.7 183.138C1441.85 174.523 1445.08 166.984 1448.31 158.907C1449.38 156.215 1451 152.984 1452.61 150.292C1454.77 147.6 1455.84 144.907 1457.46 142.215C1477.37 112.6 1504.29 92.6767 1538.19 83.5228C1565.65 76.5228 1593.63 78.6767 1620.01 88.9074C1653.92 101.831 1681.37 127.677 1695.9 161.061C1696.98 164.292 1698.59 166.984 1699.67 170.215C1703.44 182.6 1706.67 194.446 1707.21 207.369C1707.21 215.984 1707.74 224.6 1706.67 233.215C1704.51 253.138 1697.52 270.907 1687.83 288.138C1687.29 288.677 1686.75 289.215 1686.21 289.754C1669.53 318.831 1643.15 339.831 1611.94 351.138C1582.87 361.369 1552.19 362.446 1522.05 354.369C1511.82 351.677 1502.13 348.984 1492.44 343.6C1478.45 335.523 1466.07 326.369 1455.3 313.984C1433.77 288.138 1425.16 256.369 1427.32 224.061C1432.16 163.215 1475.22 108.292 1536.04 93.2151C1536.58 93.2151 1537.66 92.1382 1538.19 92.1382C1583.41 81.369 1628.62 92.6767 1664.68 121.215C1666.84 123.369 1668.99 124.984 1671.68 127.138C1696.98 149.754 1711.51 179.907 1715.28 213.292C1715.82 221.907 1716.36 230.523 1715.82 239.138C1715.28 245.061 1714.74 250.446 1713.66 256.369C1712.1 264.392 1709.95 272.307 1706.94 279.9C1702.58 290.938 1694.29 302.192 1686.75 311.292C1681.91 316.677 1677.06 320.984 1671.68 326.369C1650.69 346.831 1627.01 361.907 1597.94 368.907C1580.18 372.677 1562.95 373.215 1545.19 370.523C1529.58 367.831 1515.59 362.984 1502.13 354.369C1501.06 353.292 1499.98 352.754 1498.36 351.677C1491.37 346.831 1485.98 341.446 1480.06 335.523C1464.4 317.215 1454.23 296.484 1447.34 273.331C1434.1 228.854 1436.79 177.969 1469.3 142.215C1469.84 141.677 1469.84 140.6 1470.38 140.061C1495.13 114.215 1528.51 101.292 1563.49 100.215C1592.56 99.1382 1620.01 106.677 1645.31 122.292C1670.6 138.446 1689.44 160.523 1701.28 186.907C1709.9 207.369 1715.28 228.369 1716.36 250.446C1717.43 273.6 1713.66 296.215 1699.67 316.677C1689.98 330.138 1679.75 340.907 1664.68 346.831C1652.84 351.677 1639.39 352.754 1627.01 347.907C1625.93 347.369 1624.85 346.831 1623.24 346.292C1617.86 344.138 1614.09 339.831 1610.32 335.523C1604.4 327.446 1601.71 318.831 1600.09 309.138C1598.48 294.061 1597.94 278.984 1601.17 264.446C1607.09 250.446 1615.16 237.523 1617.86 221.907C1618.39 217.061 1618.93 211.677 1618.39 206.831C1617.53 198.7 1615.97 190.623 1613.07 182.977C1611.02 177.592 1606.82 169.515 1601.71 166.446C1599.02 164.831 1596.33 164.292 1593.63 164.292C1588.25 164.831 1583.95 168.6 1580.72 172.907C1573.18 185.831 1569.95 199.292 1570.49 213.831C1571.57 224.6 1573.72 234.831 1580.18 244.523C1583.41 248.831 1586.1 253.677 1587.71 258.523C1593.1 274.677 1592.02 291.907 1590.41 308.6C1589.87 314.523 1589.87 320.446 1587.18 325.831C1584.48 331.215 1580.18 336.061 1574.8 338.215C1567.8 340.907 1559.72 340.907 1552.73 338.215C1541.8 333.854 1539.49 323.192 1538.57 312.692C1537.5 300.092 1538.95 287.438 1541.32 275.107C1543.85 262.131 1547.4 249.423 1550.36 236.554C1553.1 224.492 1553.86 211.677 1553.27 199.238C1553 194.177 1552.62 189.277 1551.33 184.377C1550.63 181.792 1549.77 179.207 1548.74 176.731C1548.1 175.169 1545.73 172.154 1545.73 170.538C1545.89 180.284 1545.73 190.138 1546.38 199.884C1546.97 208.715 1547.18 217.277 1545.57 226.107C1545.35 227.238 1545.08 228.477 1544.33 229.338C1543.58 230.254 1542.12 230.684 1541.21 229.984C1540.35 229.338 1540.24 228.154 1540.19 227.131C1539.7 217.331 1540.29 207.261 1540.99 197.407C1541.32 192.938 1541.1 188.361 1540.35 183.946C1539.97 181.631 1539.43 179.315 1538.79 177.054C1538.52 176.084 1536.58 172.315 1536.9 171.507C1530.23 189.438 1538.03 209.792 1533.89 228.477C1533.67 229.392 1533.4 230.361 1532.6 230.846C1531.52 231.546 1530.01 230.9 1529.31 229.823C1528.61 228.746 1528.51 227.4 1528.45 226.161C1527.75 208.015 1531.52 189.492 1526.84 171.992C1524.04 181.307 1522.1 189.654 1522.16 199.507C1522.21 208.715 1523.29 217.869 1523.82 227.023C1523.88 227.884 1523.93 228.8 1523.61 229.661C1523.29 230.469 1522.48 231.223 1521.62 231.115C1520.43 231.007 1519.79 229.715 1519.41 228.584C1513.27 210.223 1517.36 189.707 1517.36 170.7C1509.72 188.038 1507.46 207.692 1510.85 226.269C1513.38 239.946 1519.14 252.438 1522.59 265.9C1525.6 277.638 1527.43 289.646 1528.08 301.707C1528.72 313.984 1527.32 326.207 1527.32 338.484C1517.8 335.038 1508.81 330.138 1500.79 323.946C1475.17 304.184 1459.56 272.954 1457.4 240.646C1456.87 227.184 1457.4 214.261 1461.17 201.338C1462.79 196.492 1463.86 191.646 1466.02 187.338C1468.71 181.415 1471.4 176.031 1474.63 170.107C1495.62 136.184 1529.53 114.646 1568.82 110.338C1605.42 106.569 1642.02 121.107 1665.17 151.261C1669.47 157.723 1673.24 163.646 1676.47 170.646C1682.39 183.569 1684.55 197.031 1685.08 211.031C1686.97 260.031 1658.76 307.631 1618.88 334.984C1621.62 324.484 1633.84 319.8 1644.61 318.777C1679.43 315.6 1712.26 334.338 1746.77 340.261C1779.49 345.861 1814.1 339.507 1842.63 322.546C1885.1 297.4 1922.13 241.992 1914.16 191.431" stroke="#535353" stroke-width="2" stroke-miterlimit="10" stroke-linecap="round" stroke-linejoin="round"/>
</g>
</svg>
