<svg width="1917" height="492" fill="none" xmlns="http://www.w3.org/2000/svg"><path d="M162.159 240.592c13.402-1.616 15.178-15.131 12.81-26.223-7.32-34.139-14.587-68.223-21.907-102.362-3.66-17.07-7.32-34.138-10.98-51.154-3.499-16.423-7.966-32.146-8.181-49.054-.054-3.769.592-8.4 4.144-9.8 4.145-1.615 8.02 2.693 10.334 6.462 30.842 49.915 50.273 105.592 72.826 159.6-45.267-50.939-130.042-60.415-185.481-20.731a80833.15 80833.15 0 01105.174-36.292c15.824-5.439 30.734-12.17 47.097-16.316a289.94 289.94 0 0151.726-8.238c.699-.054 1.399-.108 2.099-.108-16.148 15.4-36.386 25.631-56.355 35.485-19.969 9.854-40.315 19.815-56.839 34.838-16.417 14.916-28.904 35.916-28.312 58.208-.054-1.615 10.334-7.323 11.895-8.346a224.358 224.358 0 0113.295-8.077c8.558-4.792 17.439-8.4 26.105-13.085 19.646-10.607 39.238-21.161 58.885-31.769 9.419 6.677 6.62 23.208-3.445 28.862-10.066 5.654-23.414 1.884-31.757-6.085-8.343-7.969-12.703-19.223-15.932-30.315-7.374-25.308-10.335-51.747-18.677-76.731-8.343-24.985-23.522-49.377-47.42-60.416 43.813 53.9 101.675 96.224 166.265 121.693 5.706 2.261 12.326 5.492 12.972 11.577.861 8.292-9.904 12.384-18.247 12.6-19.915.592-39.992-4.362-57.323-14.269-3.983-2.262-8.236-5.654-7.966-10.177.269-4.362 4.682-7.162 8.558-9.1 24.382-12.223 50.595-20.731 77.454-25.2-.646 19.707-25.567 28.43-45.213 27.461-23.145-1.184-45.428-8.4-67.981-13.731-22.553-5.33-46.397-8.777-68.68-2.423-22.284 6.354-42.469 24.823-44.46 47.87-1.992 23.1 20.292 46.953 42.79 41.3 14.695-3.662 24.383-17.124 34.502-28.324 10.173-11.2 25.083-21.646 39.4-16.746 6.459 6.462 2.584 18.9-5.759 22.616-8.343 3.715-18.516.269-25.136-5.977-6.674-6.3-10.496-14.862-14.049-23.316-15.609-36.992-28.42-79.315-13.294-116.469 2.099-5.17 6.082-10.877 11.626-10.23 5.759.645 8.181 7.538 9.365 13.138 11.734 54.977 23.414 110.008 35.148 164.984 1.669 7.7 3.391 15.67 7.859 22.185 4.467 6.515 12.326 11.308 20.076 9.8 11.304-2.261 16.094-15.885 16.309-27.408.323-20.838-7.589-38.23-17.224-56.161-9.742-18.146-20.722-35.646-32.941-52.285 2.423 3.339 10.927 6.085 14.533 8.293a250.988 250.988 0 0115.609 10.284c9.904 7 19.377 14.646 28.366 22.831 17.924 16.423 35.632 32.308 49.465 52.5-30.303-2.962-53.125-28.539-69.488-54.169-9.903-15.4-18.731-31.877-21.853-49.862-3.121-17.984.216-37.854 12.488-51.477 11.142-12.384 29.119-18.092 45.374-14.484 16.255 3.607 30.088 16.477 34.933 32.415 7.751 25.577-7.697 53.308-28.851 69.623-21.153 16.315-47.366 24.392-71.748 35.323-36.978 16.585-70.726 40.331-98.823 69.516 18.031 8.13 39.185 6.73 57.916.323 18.677-6.408 35.417-17.393 51.887-28.377 6.513-4.362 14.802-8.831 21.692-5.116 9.096 4.9 6.728 18.846 1.13 27.516-5.598 8.723-13.51 17.823-11.357 27.946 12.541 2.908 20.669-12.169 28.258-22.616 16.04-21.915 49.304-28.861 72.771-15.184-1.668-10.823-3.498-21.969-9.365-31.231-5.867-9.261-16.901-16.1-27.559-13.677-12.756 2.962-18.192 16.316-22.768 27.192-5.867 14-15.609 26.816-27.397 36.347-11.41 9.207-25.889 12.223-40.422 14.323 1.561-.27 3.068-.539 4.629-.754" stroke="#CBEAFF" stroke-width="1.5" stroke-miterlimit="10" stroke-linecap="round" stroke-linejoin="round"/><path d="M1.975 436.376c4.306-7.808 12.542-12.923 21.207-14.915 8.666-2.046 17.763-1.292 26.536.323 8.774 1.615 17.332 4.092 26.105 5.654 10.389 1.777 20.938 2.154 31.434 1.184 6.082-.592 21.853-.807 24.114-8.184.861-2.746.161-5.762-.861-8.508-3.714-10.177-11.465-18.954-12.865-29.669-.968-7.592 1.346-15.185 3.66-22.508 3.122-9.908 6.244-19.761 9.366-29.669 1.346-4.254 2.745-8.615 5.436-12.115 2.638-3.447 6.352-5.87 9.958-8.239 1.83-1.185 3.66-2.369 5.759-2.961 4.037-1.131 8.505 1.184 11.949 3.176 2.369 1.4 10.927 4.47 11.411 7.485.162 1.185-.538 2.315-1.561 2.908-1.022.592-2.26.7-3.444.592-1.669-.108-3.284-.538-4.791-1.346-1.561-.808-2.96-1.939-4.575-2.477-2.422-.808-5.167-.162-7.374 1.077-2.261 1.238-4.091 3.069-5.921 4.9 6.19-2.585 14.425-2.208 19.808 2.1 1.884 1.508 9.635 10.608 3.606 11.092-3.714.323-6.782-5.815-10.98-6.084-1.453-.108-2.907.323-4.306.807-3.983 1.454-7.751 3.554-10.98 6.3 4.09-1.615 9.85-4.684 14.263-3.93 4.199.7 8.074 3.284 10.119 7.053.431.754.754 1.616.754 2.477-.054.862-.538 1.777-1.346 2.046-.969.324-1.991-.323-2.906-.807-4.575-2.477-11.142-1.4-15.933.107-4.844 1.562-9.204 4.308-13.51 7.054 6.244-1.4 12.757-6.461 19.27-5.654 2.529.324 12.702 1.993 11.734 5.762-.485 1.777-2.692 2.315-4.576 2.531l-13.886 1.454c1.776-2.208 4.252-3.877 6.997-4.523-1.184 5.923-9.473 8.938-13.941 11.576 5.544 4.577 7.051 12.385 7.428 19.547.377 7.161.054 14.646 3.068 21.161 2.691 5.708 7.643 9.962 12.057 14.431 4.413 4.523 8.558 9.961 8.827 16.261-3.929 1.024-7.212-3.015-9.042-6.676-6.675-13.3-21.584-69.462 9.957-62.57 6.136 1.346 11.734 4.416 17.816 5.923 11.68 2.962 24.76-.269 33.695-8.346-1.669 1.508-10.873-.215-13.134-.377-4.682-.43-9.365-1.13-13.994-2.1-6.244-1.346-21.369-3.23-23.468-10.392-1.399-4.846 2.046-10.069 6.513-12.385 5.329-2.8 12.541-3.23 18.354-4.846 8.289-2.315 16.955-3.338 25.298-5.546 3.445-.915 6.944-1.938 9.958-3.823 4.306-2.746 6.19-7.808 4.952-12.815-.754-3.123-2.476-5.87-4.253-8.562-6.189-9.477-13.133-18.415-19-28.108-5.921-9.638-10.819-20.138-12.487-31.284-.485-3.177-.538-6.839 1.722-9.154 3.014-3.016 8.182-1.777 11.68.592 7.536 5.169 11.573 14.539 11.68 23.693.108 9.153-3.283 18.092-8.073 25.9-6.029 9.853-14.533 20.084-24.545 25.953-6.19 3.662-13.833 5.493-20.722 3.5-5.598-1.615-19.754-14.753-9.258-18.846 2.691-1.077 5.705-1.4 8.558-.969-1.292 4.415-5.383 8.508-9.796 9.746-2.853.808-6.997 1.239-8.397-1.992-.753-1.723-.861-3.716-1.938-5.223-.915-1.293-2.368-2.1-3.767-2.8-1.4-.7-2.907-1.4-3.876-2.639-.969-1.238-1.399-3.123-.43-4.361 2.96.754 6.459 1.4 8.827-.539.7-.538 1.238-1.292 1.938-1.723 1.937-1.238 4.413-.377 6.566.323a41.147 41.147 0 0013.995 1.939c-.754 0-3.983 2.477-5.114 2.907-2.529.97-5.059 1.777-7.697 2.154-7.212 1.023-12.756-1.669-17.331-7.269-2.745-3.338-7.213-8.831-5.598-13.354.969-2.746 3.499-4.792 6.298-5.492 2.852-.7 5.866-.108 8.45 1.292 1.184.646 2.315 1.616 2.53 2.908.215 1.508-.969 2.961-2.422 3.554-2.799 1.131-6.244.323-9.043 1.4-3.391 1.238-6.19 6.031-10.227 5.438-4.79-.646-4.521-6.084-4.844-9.854-1.076-12.546-1.938-25.092-2.906-37.584-.431-5.385-.969-11.146-4.414-15.346-3.445-4.2-10.819-5.493-13.995-1.131-5.221 7.108 9.366 17.446 14.533 20.3 33.964 18.577 79.177-8.4 102.052-33.6 23.576-25.954 32.834-64.669 22.176-98.216.7 2.208-2.799 9.639-3.337 12.17-.969 4.577-1.722 9.207-2.153 13.838-.915 9.316-.7 18.739.538 28 2.369 17.5 9.42 34.192 14.856 50.723 11.357 34.462 32.887 61.816 61.845 83.085 24.544 18.038 50.918 40.761 62.222 69.946 8.773 22.562 9.419 48.192 1.83 71.131-2.207 6.73-5.221 13.354-10.119 18.415-4.898 5.062-12.057 8.4-19.001 7.323-8.235-1.238-14.478-8.077-19.161-15.023-21.153-31.446-23.899-74.415-6.836-108.231 14.317-28.377 45.967-46.092 77.293-36.077 17.493 5.6 28.473 21.97 23.736 40.977-7.32-15.077-4.575-34.515 6.567-47.007l-1.399 2.584c5.167-8.13 14.479-11.631 22.66-8.131 8.181 3.5 10.496 15.185 19.808 17.5 13.994 3.5 27.989-7 29.119-21 0 0 9.688-148.184 9.904-152.923l20.83 257.762s4.145-78.131 13.026-88.631c4.898-5.815 10.657-4.469 16.416-1.023 2.638 1.562 6.352 4.362 9.527 2.477 4.522-2.692 3.176-10.123 6.998-13.461 2.852-2.477 6.459-.539 9.365.861 5.813 2.746 11.357 3.985 15.394-2.423 4.198-6.677 2.476-24.285 11.788-27.139 8.073-2.476 11.142 14.97 12.649 19.977 2.045 7 3.714 14.108 6.243 20.947 1.4 3.769 4.414 13.353 9.366 7.807 5.006-5.546 6.028-22.184 16.739-19.492 10.389 2.638 10.712 15.885 17.386 22.454 2.261 2.207 5.167 3.554 8.397 3.446-2.799-12.654 11.733-23.1 22.768-15.723 6.566 5.923 15.932 11.792 24.059 7.108 5.813-4.685 8.182-22.185 8.182-22.185l22.391-150.823 17.655 246.131 8.935-66.123c1.184-5.816 2.314-11.685 6.997-14 5.813-2.316 11.68 2.315 17.493-1.185 5.813-2.315 8.181-9.315 16.309-10.5l35.955 1.292c-16.578-11.415 0 0 0 0-16.578-11.415-36.924-22.292-45.105-41.784-4.091-9.693-4.791-22.562 2.476-30.962 6.405-7.431 17.062-8.508 25.566-4.308 9.85 4.847 16.04 15.185 19.754 25.147 3.822-8.993 7.751-18.954 15.771-25.093 6.19-4.792 15.502-5.923 22.499-3.607 10.496 4.684 18.677 15.184 16.309 28-5.813 25.63-27.989 38.5-46.936 52.607.431 0 .431 0 0 0l45.752-1.292c5.813-1.185 6.997-11.685 13.994-9.315 6.997 2.315 9.312 11.684 12.81 18.684 3.499 7 8.182 12.816 17.494 11.685 8.181-1.185 13.994-5.816 18.677-12.816 2.314-4.684 4.683-16.315 4.683-16.315l12.054-148.669c.11 1.561-.11 1.561 0 0 0 1.561 19.43 258.246 19.43 258.246l17.66-84.323c1.4-4.523 1.61-10.285 7.43-8.185 3.76 1.346 7.53 4.793 11.78 4.416 4.79-.485 5.76-5.546 7.05-9.262 2.16-6.138 8.13-3.177 12.65-1.508 5.06 1.885 11.63 2.962 14.91-2.369 2.8-4.523 3.66-9.531 4.79-14.592.97-4.308 2.16-9.585 5.92-12.385 2.43-1.83 4.04.485 5.82 2.531 1.61 1.831 2.9 3.931 3.93 6.139 4.36 9.1 4.68 19.546 7.75 29.023.97 3.069 1.13 7.915 4.9 8.938 4.25 1.131 7.32-1.723 8.93-5.223 1.61-3.554 2.1-7.969 5.01-10.715 2.96-2.8 6.72-3.177 10.06-.97 10.6 7.054 10.66 22.939 23.74 26.87-1.46-.431-.38-8.239-.16-9.37.64-2.907 2.53-5.438 4.63-7.592 3.92-3.931 9.58-5.115 14.53-2.369 8.18 4.684 16.31 10.5 25.62 4.684 3.5-2.315 31.49-165.577 32.4-169.507-.11.7-.11.7 0 0 0 1.615 10.77 164.823 17.66 246.131.1-1.616.1-1.616 0 0 2.1-20.408 4.52-41.408 9.68-61.331 2.37-8.993 3.66-22.346 14.59-22.723 7.97-.27 9.42 8.077 20.83 6.623 19.43-2.477 22.98-.862 33.43 15.507 11.03 17.339 19.75 35.054 24.59 55.139 9.53 39.308 5.12 82.277-14.15 117.977-16.15-26.169-21.26-58.908-13.83-88.739 15.61-63.107 73.04-85.292 133.11-82.492-16.64-13.677-27.94-30.585-36.82-50.077-3.77-8.615-6.46-17.231-8.61-26.923-2.16-12.385-3.77-23.692-2.69-36.077.53-7.538 1.61-15.077 3.23-22.615 2.15-8.616 5.38-16.154 8.61-24.231 1.07-2.692 2.69-5.923 4.3-8.615 2.16-2.693 3.23-5.385 4.85-8.077 19.91-29.616 46.83-49.539 80.73-58.693 27.46-7 55.44-4.846 81.82 5.385 33.91 12.923 61.36 38.769 75.89 72.154 1.08 3.231 2.69 5.923 3.77 9.154 3.77 12.384 7 24.23 7.54 37.154 0 8.615.53 17.23-.54 25.846-2.16 19.923-9.15 37.692-18.84 54.923l-1.62 1.615c-16.68 29.077-43.06 50.077-74.27 61.385-29.07 10.231-59.75 11.307-89.89 3.231-10.23-2.693-19.92-5.385-29.61-10.77-13.99-8.077-26.37-17.23-37.14-29.615-21.53-25.846-30.14-57.615-27.98-89.923 4.84-60.846 47.9-115.769 108.72-130.846.54 0 1.62-1.077 2.15-1.077 45.22-10.77 90.43.538 126.49 29.077 2.16 2.153 4.31 3.769 7 5.923 25.3 22.615 39.83 52.769 43.6 86.154.54 8.615 1.08 17.23.54 25.846-.54 5.923-1.08 11.307-2.16 17.231-1.56 8.023-3.71 15.938-6.72 23.53-4.36 11.039-12.65 22.293-20.19 31.393-4.84 5.384-9.69 9.692-15.07 15.077-20.99 20.461-44.67 35.538-73.74 42.538-17.76 3.769-34.99 4.308-52.75 1.615-15.61-2.692-29.6-7.538-43.06-16.153-1.07-1.077-2.15-1.616-3.77-2.693-6.99-4.846-12.38-10.231-18.3-16.154-15.66-18.307-25.83-39.038-32.72-62.192-13.24-44.477-10.55-95.361 21.96-131.115.54-.539.54-1.616 1.08-2.154 24.75-25.846 58.13-38.769 93.11-39.846 29.07-1.077 56.52 6.461 81.82 22.077 25.29 16.153 44.13 38.23 55.97 64.615 8.62 20.462 14 41.462 15.08 63.538 1.07 23.154-2.7 45.77-16.69 66.231-9.69 13.462-19.92 24.231-34.99 30.154-11.84 4.846-25.29 5.923-37.67 1.077-1.08-.538-2.16-1.077-3.77-1.615-5.38-2.154-9.15-6.462-12.92-10.77-5.92-8.077-8.61-16.692-10.23-26.384-1.61-15.077-2.15-30.154 1.08-44.693 5.92-14 13.99-26.923 16.69-42.538.53-4.846 1.07-10.231.53-15.077-.86-8.131-2.42-16.208-5.32-23.854-2.05-5.384-6.25-13.461-11.36-16.531-2.69-1.615-5.38-2.153-8.08-2.153-5.38.538-9.68 4.307-12.91 8.615-7.54 12.923-10.77 26.385-10.23 40.923 1.08 10.769 3.23 21 9.69 30.692 3.23 4.308 5.92 9.154 7.53 14 5.39 16.154 4.31 33.385 2.7 50.077-.54 5.923-.54 11.846-3.23 17.231-2.7 5.385-7 10.231-12.38 12.385-7 2.692-15.08 2.692-22.07 0-10.93-4.362-13.24-15.023-14.16-25.523-1.07-12.6.38-25.254 2.75-37.585 2.53-12.977 6.08-25.685 9.04-38.554 2.74-12.061 3.5-24.877 2.91-37.315-.27-5.062-.65-9.962-1.94-14.862a62.689 62.689 0 00-2.59-7.646c-.64-1.561-3.01-4.577-3.01-6.192.16 9.746 0 19.6.65 29.346.59 8.831.8 17.392-.81 26.223-.22 1.131-.49 2.369-1.24 3.231-.75.915-2.21 1.346-3.12.646-.86-.646-.97-1.831-1.02-2.854-.49-9.8.1-19.869.8-29.723.33-4.469.11-9.046-.64-13.462-.38-2.315-.92-4.63-1.56-6.892-.27-.969-2.21-4.738-1.89-5.546-6.67 17.931 1.13 38.285-3.01 56.969-.22.916-.49 1.885-1.29 2.369-1.08.7-2.59.054-3.29-1.023-.7-1.077-.8-2.423-.86-3.661-.7-18.146 3.07-36.669-1.61-54.169-2.8 9.315-4.74 17.661-4.68 27.515.05 9.208 1.13 18.362 1.66 27.515.06.862.11 1.777-.21 2.639-.32.807-1.13 1.561-1.99 1.454-1.19-.108-1.83-1.4-2.21-2.531-6.14-18.362-2.05-38.877-2.05-57.885-7.64 17.339-9.9 36.993-6.51 55.57 2.53 13.676 8.29 26.169 11.74 39.63a184.119 184.119 0 015.49 35.808c.64 12.277-.76 24.5-.76 36.777-9.52-3.446-18.51-8.346-26.53-14.539-25.62-19.761-41.23-50.992-43.39-83.3-.53-13.461 0-26.384 3.77-39.307 1.62-4.846 2.69-9.693 4.85-14a256.106 256.106 0 018.61-17.231c20.99-33.923 54.9-55.462 94.19-59.769 36.6-3.769 73.2 10.769 96.35 40.923 4.3 6.461 8.07 12.384 11.3 19.384 5.92 12.924 8.08 26.385 8.61 40.385 1.89 49-26.32 96.6-66.2 123.954 2.74-10.5 14.96-15.185 25.73-16.208 34.82-3.177 67.65 15.562 102.16 21.485 32.72 5.6 67.33-.754 95.86-17.716 42.47-25.146 79.5-80.553 71.53-131.115" stroke="#CBEAFF" stroke-width="1.5" stroke-miterlimit="10" stroke-linecap="round" stroke-linejoin="round"/></svg>