<svg width="140" height="140" fill="none" xmlns="http://www.w3.org/2000/svg"><g clip-path="url(#clip0)" fill="#fff"><path d="M136.326 108.002L107.99 89.105a8.271 8.271 0 00-11.075 1.798l-8.254 10.613a3.528 3.528 0 01-4.524.952l-1.57-.866c-5.205-2.837-11.681-6.369-24.73-19.422C44.79 69.127 41.25 62.646 38.414 57.45l-.86-1.57a3.532 3.532 0 01.932-4.54l10.606-8.251a8.275 8.275 0 001.8-11.075L31.996 3.678a8.228 8.228 0 00-11.09-2.497L9.054 8.3a16.714 16.714 0 00-7.622 9.892C-2.834 33.738.376 60.569 39.902 100.1c31.441 31.439 54.848 39.894 70.937 39.894a41.31 41.31 0 0010.965-1.433 16.692 16.692 0 009.891-7.621l7.125-11.842a8.228 8.228 0 00-2.494-11.096zm-1.526 8.702l-7.108 11.849a12.06 12.06 0 01-7.116 5.515c-14.352 3.941-39.427.677-77.373-37.27C5.257 58.854 1.993 33.78 5.933 19.426a12.076 12.076 0 015.523-7.125l11.849-7.108a3.57 3.57 0 014.813 1.082l10.265 15.412 8.616 12.922a3.591 3.591 0 01-.78 4.806l-10.608 8.252a8.165 8.165 0 00-2.162 10.48l.842 1.53c2.982 5.468 6.689 12.272 20.223 25.803 13.533 13.531 20.334 17.238 25.8 20.22l1.533.844a8.165 8.165 0 0010.48-2.162l8.251-10.608a3.593 3.593 0 014.806-.78l28.334 18.898a3.566 3.566 0 011.082 4.813zM79.329 23.345c21.894.025 39.636 17.767 39.661 39.661a2.333 2.333 0 104.666 0c-.027-24.47-19.857-44.3-44.327-44.327a2.333 2.333 0 100 4.666z"/><path d="M79.329 37.343c14.166.017 25.646 11.497 25.663 25.663a2.333 2.333 0 004.666 0c-.02-16.742-13.587-30.31-30.329-30.328a2.333 2.333 0 100 4.665z"/><path d="M79.329 51.341c6.439.008 11.657 5.226 11.665 11.665a2.333 2.333 0 004.666 0c-.01-9.015-7.316-16.32-16.331-16.33a2.333 2.333 0 100 4.665z"/></g><defs><clipPath id="clip0"><path fill="#fff" d="M0 0h140v140H0z"/></clipPath></defs></svg>