<svg width="662" height="582" fill="none" xmlns="http://www.w3.org/2000/svg"><path opacity=".2" d="M462.132 2.659C356.088-6.705 246.667 23.889 162.43 86.564 78.194 149.237 20.01 243.34 2.834 344.305c-4.052 23.827-2.895 53.588 19.202 64.991 12.35 6.397 27.982 4.45 40.526-1.669 12.544-6.119 22.676-15.853 32.71-25.31 41.202-39.032 84.141-76.859 132.579-107.269 48.439-30.409 102.956-53.217 160.465-59.707 10.807-1.205 22-1.854 32.325 1.484 10.324 3.337 19.587 11.311 21.324 21.602 2.605 15.668-12.158 28.648-25.859 37.456-68.413 44.316-151.009 73.057-200.895 136.195-4.149 5.284-8.202 11.403-7.43 17.986 1.448 11.404 16.886 16.41 28.176 12.887 11.289-3.523 19.877-12.331 29.429-19.099 9.553-6.768 22.579-11.774 33.193-6.49 15.246 7.603 13.22 29.854 4.053 43.668-9.263 13.907-23.544 25.218-27.789 41.257-5.886 21.88 10.421 44.966 31.842 54.144 21.421 9.271 46.219 7.417 69.087 2.689 34.93-7.232 67.93-20.861 101.991-31.059 34.062-10.198 70.439-16.966 105.465-10.106 34.93 6.954 68.219 30.039 77.772 63.045" stroke="#292929" stroke-miterlimit="10" stroke-linecap="round" stroke-linejoin="round"/></svg>