<svg width="1072" height="289" fill="none" xmlns="http://www.w3.org/2000/svg"><path d="M372.333 1c74.546 86.477 227.512 160.99 346.847 194.411 117.475 32.77 257.733 27.439 351.81-40.183 1.39-1.04-102.601-44.083-113.295-46.944-43.549-11.574-89.269-17.166-134.988-16.646-111.431 1.43-318.33 74.644-255.408 196.362 20.768-30.3 13.174-72.173-17.203-95.97-30.376-23.798-80.745-27.179-115.305-7.673-19.993 11.314-41.07 30.17-63.542 22.758-11.159-3.772-17.823-13.004-24.332-21.457C275.161 93.068 126.689 48.205 1 81.105" stroke="#FFC8BE" stroke-width="2" stroke-miterlimit="10" stroke-linecap="round" stroke-linejoin="round"/></svg>