<svg width="18" height="18" fill="none" xmlns="http://www.w3.org/2000/svg"><path d="M12.87 0H5.13C2.31 0 0 2.31 0 5.13v7.74C0 15.69 2.31 18 5.13 18h7.74c2.82 0 5.13-2.31 5.13-5.13V5.13C18 2.31 15.69 0 12.87 0zm4.53 12.87c0 2.49-2.04 4.53-4.53 4.53H5.13C2.64 17.4.6 15.36.6 12.87V5.13C.6 2.64 2.64.6 5.13.6h7.74c2.49 0 4.53 2.04 4.53 4.53v7.74z" fill="#fff"/><path d="M9 4.2C6.36 4.2 4.2 6.36 4.2 9c0 2.64 2.16 4.8 4.8 4.8 2.64 0 4.8-2.16 4.8-4.8 0-2.64-2.16-4.8-4.8-4.8zm0 9c-2.31 0-4.2-1.89-4.2-4.2 0-2.31 1.89-4.2 4.2-4.2 2.31 0 4.2 1.89 4.2 4.2 0 2.31-1.89 4.2-4.2 4.2zm4.8-9.9c-.51 0-.9.39-.9.9s.39.9.9.9.9-.39.9-.9-.39-.9-.9-.9z" fill="#fff"/></svg>