<svg width="18" height="18" viewBox="0 0 18 18" fill="none" xmlns="http://www.w3.org/2000/svg">
<path d="M16.5 0H1.50001C0.659988 0 0 0.659988 0 1.50001V16.5C0 17.34 0.659988 18 1.50001 18H8.40002H12H16.5C17.34 18 18 17.34 18 16.5V1.50001C18 0.659988 17.34 0 16.5 0ZM9 17.4V11.4H6.59999V9H9V6.90001C9 5.19001 10.32 3.75001 12 3.6H14.7V6.00001H12.3C11.79 6.00001 11.4 6.39 11.4 6.90001V9H14.4V11.4H11.4V17.4H9V17.4ZM17.4 16.5C17.4 17.01 17.01 17.4 16.5 17.4H12V12H15V8.39999H12V6.89998C12 6.71998 12.12 6.59999 12.3 6.59999H15.3V2.99999H11.97C9.96001 3.17999 8.39999 4.88999 8.39999 6.89998V8.39999H5.99998V12H8.39999V17.4H1.50001C0.99 17.4 0.600012 17.01 0.600012 16.5V1.50001C0.600012 0.99 0.99 0.600012 1.50001 0.600012H16.5C17.01 0.600012 17.4 0.99 17.4 1.50001V16.5H17.4Z" fill="white"/>
</svg>
