<svg width="531" height="455" fill="none" xmlns="http://www.w3.org/2000/svg"><path d="M445.574 120.259a5.94 5.94 0 005.934-5.945 5.938 5.938 0 00-5.934-5.944 5.939 5.939 0 00-5.934 5.944 5.94 5.94 0 005.934 5.945z" fill="url(#paint0_linear)"/><path d="M445.574 124.495c5.613 0 10.162-4.558 10.162-10.181 0-5.622-4.549-10.18-10.162-10.18-5.612 0-10.162 4.558-10.162 10.18 0 5.623 4.55 10.181 10.162 10.181z" fill="url(#paint1_linear)"/><path d="M316.638 407.269c0 3.975-3.222 7.202-7.189 7.202-3.968 0-7.19-3.227-7.19-7.202s3.222-7.202 7.19-7.202a7.192 7.192 0 017.189 7.202z" stroke="url(#paint2_linear)" stroke-miterlimit="10"/><path d="M474.237 146.41c7.824 0 14.166-6.353 14.166-14.191 0-7.837-6.342-14.191-14.166-14.191-7.823 0-14.165 6.354-14.165 14.191 0 7.838 6.342 14.191 14.165 14.191z" fill="url(#paint3_linear)"/><path d="M74.424 286.017c0 3.631-2.937 6.574-6.562 6.574-3.624 0-6.561-2.943-6.561-6.574 0-3.63 2.937-6.573 6.561-6.573 3.625 0 6.562 2.943 6.562 6.573z" fill="url(#paint4_linear)"/><path d="M403.018 97.952l10.565-12.613" stroke="url(#paint5_linear)" stroke-miterlimit="10"/><path d="M406.263 100.669l16.594-19.803" stroke="url(#paint6_linear)" stroke-miterlimit="10"/><path d="M403.018 111.147l17.043-20.361" stroke="url(#paint7_linear)" stroke-miterlimit="10"/><path d="M80.713 244.797l10.554-12.613" stroke="url(#paint8_linear)" stroke-miterlimit="10"/><path d="M83.947 247.526l16.594-19.815" stroke="url(#paint9_linear)" stroke-miterlimit="10"/><path d="M80.713 257.991l17.033-20.36" stroke="url(#paint10_linear)" stroke-miterlimit="10"/><path d="M432.913 315.384l13.478-16.113" stroke="url(#paint11_linear)" stroke-miterlimit="10"/><path d="M437.046 318.861l21.19-25.309" stroke="url(#paint12_linear)" stroke-miterlimit="10"/><path d="M432.913 332.233l21.769-25.997" stroke="url(#paint13_linear)" stroke-miterlimit="10"/><g opacity=".5" stroke-miterlimit="10"><path opacity=".5" d="M411.049 34.105l-15.824 17.667" stroke="url(#paint14_linear)"/><path opacity=".5" d="M415.585 38.187l-24.849 27.752" stroke="url(#paint15_linear)"/><path opacity=".5" d="M429.845 31.423l-25.536 28.513" stroke="url(#paint16_linear)"/></g><path d="M74.424 307.719l20.076-23.98" stroke="url(#paint17_linear)" stroke-miterlimit="10"/><path d="M80.583 312.892l31.541-37.66" stroke="url(#paint18_linear)" stroke-miterlimit="10"/><path d="M74.424 332.802l32.394-38.705" stroke="url(#paint19_linear)" stroke-miterlimit="10"/><path d="M112.124 255.713a3.947 3.947 0 003.944-3.951 3.947 3.947 0 00-3.944-3.951 3.948 3.948 0 00-3.944 3.951 3.948 3.948 0 003.944 3.951zm2.594 79.012a3.946 3.946 0 01-3.944 3.951 3.946 3.946 0 01-3.944-3.951 3.947 3.947 0 013.944-3.952 3.947 3.947 0 013.944 3.952zM94.062 143.1a1.827 1.827 0 01-1.824 1.827 1.827 1.827 0 010-3.655 1.834 1.834 0 011.824 1.828zm349.736 52.812a1.826 1.826 0 001.824-1.827 1.825 1.825 0 10-3.648 0c0 1.009.816 1.827 1.824 1.827zm18.086 162.638a1.826 1.826 0 01-1.824 1.827 1.826 1.826 0 010-3.654 1.835 1.835 0 011.824 1.827zM74.424 118.266a3.948 3.948 0 003.944-3.952 3.948 3.948 0 00-3.944-3.951 3.948 3.948 0 00-3.944 3.951 3.948 3.948 0 003.944 3.952zm107.391 258.782a3.946 3.946 0 01-3.944 3.951 3.946 3.946 0 01-3.944-3.951 3.946 3.946 0 013.944-3.951 3.946 3.946 0 013.944 3.951zm255.042-2.385a3.946 3.946 0 01-3.944 3.951 3.946 3.946 0 01-3.944-3.951 3.946 3.946 0 013.944-3.951 3.946 3.946 0 013.944 3.951zm67.524-116.672a3.947 3.947 0 01-3.944 3.952 3.947 3.947 0 01-3.944-3.952 3.946 3.946 0 013.944-3.951c2.179-.012 3.944 1.768 3.944 3.951zM30.304 203.814a3.948 3.948 0 003.945-3.951 3.948 3.948 0 00-3.945-3.951 3.948 3.948 0 00-3.944 3.951 3.948 3.948 0 003.944 3.951z" fill="#fff"/><path d="M141.853 381.082l10.897 4.438 4.903-16.968-15.8 12.53z" fill="#31CC31"/><path d="M112.124 366.915l8.86 22.663 34.005-29.829-42.865 7.166z" fill="url(#paint20_linear)"/><path d="M495.96 180.333l-4.75 23.873-38.707-23.387 43.457-.486z" fill="#31CC52"/><path d="M105.088 89.552l-14.414 10.12 17.34 8.983-2.926-19.103z" fill="#37E637"/><path d="M458.33 220.414l-16.38-6.443 2.108 19.436 14.272-12.993z" fill="url(#paint21_linear)"/><path d="M308.229 47.465c-15.93-8.875-35.663-14.713-53.761-9.516-14.047 4.035-24.648 14.547-32.654 26.389-9.014 13.325-15.362 28.263-22.09 42.822-4.122 8.911-8.61 17.477-14.627 25.285a109.899 109.899 0 01-22.753 22.045 108.085 108.085 0 01-29.042 14.844c-11.832 3.939-24.127 6.122-36.267 8.875-19.957 4.545-41.123 11.604-54.187 28.43-5.78 7.439-9.215 16.457-9.369 25.913-.166 9.706 2.937 19.27 7.829 27.575 11.098 18.878 30.392 29.675 50.527 36.593 21.557 7.404 44.31 10.928 65.416 19.708 10.541 4.39 20.633 10.145 28.995 18.012 8.291 7.807 14.698 17.311 20.395 27.112 10.743 18.51 19.389 38.693 34.87 53.916 7.142 7.024 15.681 12.708 25.323 15.603 9.688 2.895 20.04 2.895 29.882.795 46.252-9.884 66.837-56.574 85.48-94.911 10.423-21.428 21.983-42.288 39.548-58.721 16.961-15.864 37.203-27.967 53.015-45.1 14.047-15.212 24.612-34.694 22.136-56.016-2.357-20.266-14.947-38.195-30.392-50.879-17.79-14.606-39.796-23.149-61.163-31.004-11.465-4.212-23.073-8.14-34.206-13.194-10.992-4.995-21.557-10.845-31.992-16.896-4.986-2.895-9.937-5.838-14.911-8.757-5.283-3.097-10.767-5.778-16.109-8.757-.414-.237-.793.404-.379.641 5.33 2.967 10.4 6.42 15.658 9.516 4.975 2.919 9.926 5.862 14.912 8.757 10.198 5.92 20.526 11.64 31.245 16.552 21.261 9.753 43.978 15.864 65.179 25.783 19.768 9.243 38.363 21.654 50.231 40.425 5.449 8.615 9.334 18.344 10.4 28.525 1.113 10.619-1.019 21.238-5.544 30.861-9.475 20.159-27.135 34.54-44.321 47.912-9.12 7.096-18.334 14.132-26.661 22.165-8.054 7.76-14.983 16.528-21 25.949-12.27 19.21-20.857 40.425-31.387 60.584-10.281 19.673-22.859 39.37-41.36 52.255-17.091 11.901-39.607 18.285-59.872 11.308-19.946-6.87-33.129-25.06-43.172-42.668-10.66-18.699-19.52-39.215-35.782-53.904-16.061-14.499-37.179-21.357-57.669-26.839-21.651-5.79-44.262-10.537-63.355-22.9-16.842-10.904-30.842-29.77-30.179-50.641.663-21.144 17.719-36.012 35.77-43.985 21.663-9.575 45.967-10.418 67.997-18.913 18.453-7.12 34.81-19.388 46.974-34.979 10.802-13.835 16.89-30.316 24.482-45.978 6.55-13.515 13.976-27.374 25.217-37.602 11.607-10.572 26.507-14.558 41.952-12.399 10.648 1.483 20.775 5.28 30.191 10.418.639.32 1.208-.653.58-1.009z" fill="url(#paint22_linear)"/><path opacity=".425" d="M314.388 13.103C296.172 2.958 273.597-3.71 252.905 2.246c-16.049 4.616-28.166 16.636-37.309 30.162-10.317 15.259-17.577 32.357-25.288 49.016-4.726 10.216-9.866 20.017-16.748 28.963a125.112 125.112 0 01-26.081 25.261 123.558 123.558 0 01-33.27 17.003c-13.538 4.509-27.62 7.001-41.514 10.169-22.824 5.197-47.045 13.265-61.992 32.511C4.105 203.826.197 214.125.007 224.923c-.19 11.094 3.364 22.01 8.943 31.502 12.685 21.583 34.75 33.935 57.776 41.837 24.683 8.472 50.728 12.506 74.891 22.556 12.092 5.031 23.664 11.628 33.246 20.646 9.499 8.935 16.843 19.827 23.369 31.063 12.282 21.18 22.184 44.282 39.903 61.7 8.161 8.033 17.908 14.523 28.935 17.834 11.075 3.31 22.895 3.31 34.147.913 52.908-11.307 76.455-64.737 97.786-108.603 11.939-24.537 25.169-48.434 45.304-67.253 19.425-18.154 42.592-32.012 60.69-51.626 16.061-17.394 28.142-39.665 25.299-64.049-2.7-23.161-17.103-43.664-34.763-58.163-20.348-16.707-45.529-26.484-69.963-35.466-13.136-4.829-26.437-9.326-39.193-15.116-12.578-5.72-24.683-12.411-36.622-19.352-5.709-3.311-11.382-6.68-17.068-10.027-6.04-3.547-12.294-6.668-18.406-10.073-.414-.238-.793.403-.379.64 6.1 3.394 11.939 7.297 17.968 10.833 5.685 3.346 11.371 6.704 17.068 10.027 11.666 6.775 23.487 13.324 35.757 18.948 24.34 11.166 50.35 18.154 74.619 29.51 22.646 10.595 43.942 24.81 57.551 46.31 6.242 9.872 10.695 21.037 11.915 32.713 1.279 12.185-1.173 24.347-6.372 35.394-10.861 23.09-31.079 39.559-50.753 54.877-10.446 8.128-20.987 16.172-30.522 25.368-9.215 8.875-17.139 18.913-24.02 29.687-14.047 21.998-23.878 46.287-35.935 69.365-11.785 22.544-26.188 45.1-47.389 59.86-19.591 13.633-45.411 20.954-68.637 12.945-22.86-7.878-37.985-28.714-49.497-48.909-12.2-21.393-22.338-44.874-40.946-61.688-18.37-16.587-42.532-24.43-65.972-30.695-24.79-6.633-50.693-12.079-72.546-26.222C16.885 269.714.836 248.072 1.583 224.14c.758-24.241 20.312-41.303 41.004-50.452 24.802-10.963 52.648-11.924 77.876-21.666 21.094-8.139 39.808-22.188 53.725-40.009 12.365-15.84 19.33-34.695 28.012-52.611 7.509-15.485 16.013-31.349 28.888-43.071C244.412 4.204 261.492-.364 279.223 2.128c12.199 1.708 23.795 6.051 34.573 11.948.663.344 1.232-.629.592-.973z" fill="url(#paint23_linear)"/><path d="M400.116 281.414c13.953-15.105 31.601-25.95 46.832-39.619 13.278-11.912 25.477-27.053 28.462-45.147 2.866-17.466-3.909-34.647-14.841-48.067-12.176-14.95-29.125-24.656-46.583-32.202-19.081-8.246-39.228-13.859-57.942-22.971-18.643-9.09-35.77-20.86-54.14-30.411-13.917-7.238-31.008-11.664-46.488-7.19-11.916 3.44-21.154 12.03-28.237 21.927-8.09 11.295-13.787 24.134-19.555 36.699-3.304 7.214-6.538 14.452-10.885 21.12a99.339 99.339 0 01-17.422 20.112 98.552 98.552 0 01-22.729 15.045c-9.464 4.521-19.638 7.167-29.836 9.433-18.548 4.117-37.878 7.44-53.453 19.139-6.55 4.924-12.211 11.189-15.516 18.771-3.304 7.57-3.968 15.959-2.298 24.027 3.59 17.3 16.263 31.23 31.222 39.82 33.803 19.424 78.693 16.089 107.735 44.448 14.094 13.763 21.734 32.297 31.564 49.015 8.73 14.855 19.97 29.628 36.398 36.308 16.759 6.822 35.852 3.263 51.285-5.304 16.689-9.255 28.912-24.537 38.506-40.722a248.807 248.807 0 006.869-12.446c2.251-4.331 3.98-8.864 6.1-13.254.201-.427-.426-.807-.639-.38-2.097 4.355-4.632 8.52-6.858 12.803-2.239 4.307-4.56 8.579-7.048 12.755-4.891 8.223-10.375 16.113-16.866 23.15-12.519 13.573-29.397 23.778-48.099 25.225-8.99.7-18.063-.83-26.152-4.888-7.9-3.963-14.557-9.955-20.195-16.707-11.879-14.226-18.986-31.526-28.651-47.2-4.808-7.795-10.304-15.247-17.115-21.405-6.845-6.194-14.864-10.94-23.273-14.654-17.281-7.641-35.936-11.082-53.963-16.457-17.956-5.351-36.207-13.004-48.253-28.002-10.908-13.586-16.084-32.523-7.272-48.553 8.551-15.555 25.927-23.837 42.319-28.358 19.176-5.292 39.275-7.297 57.16-16.588 15.09-7.831 28.13-19.589 37.511-33.78 8.007-12.103 12.946-26.08 19.436-39.013 5.733-11.403 12.354-22.96 22.113-31.408 10.115-8.756 22.895-12.067 36.078-10.406 19.673 2.468 36.302 14.227 53.014 24.004 8.801 5.15 17.672 10.204 26.851 14.665 8.848 4.307 17.968 7.808 27.206 11.166 34.372 12.541 76.301 27.029 89.235 65.354 2.854 8.448 3.695 17.489 2.025 26.27-1.706 8.946-5.768 17.252-10.991 24.656-11.158 15.852-27.076 27.076-42.047 38.989-7.545 6.004-14.888 12.269-21.367 19.424-.486.545.308 1.341.793.807z" fill="url(#paint24_linear)"/><path d="M255.48 143c23.613 0 40.187 6.747 49.72 20.24 9.68 13.347 14.52 32.707 14.52 58.08 0 25.373-4.84 44.807-14.52 58.3-9.533 13.347-26.107 20.02-49.72 20.02-23.76 0-40.48-6.673-50.16-20.02-9.533-13.493-14.3-32.927-14.3-58.3 0-25.373 4.767-44.733 14.3-58.08C215 149.747 231.72 143 255.48 143zm0 29.7c-7.627 0-13.053 2.933-16.28 8.8-3.227 5.867-4.84 15.473-4.84 28.82v21.78c0 13.493 1.613 23.173 4.84 29.04 3.227 5.867 8.653 8.8 16.28 8.8 7.627 0 12.98-2.933 16.06-8.8 3.08-5.867 4.62-15.547 4.62-29.04v-21.78c0-13.493-1.54-23.1-4.62-28.82-3.08-5.867-8.433-8.8-16.06-8.8zm97.68 116.5h18.64V300h-41.2v-5.2l17.76-26.24h-16.8v-10.8h39.52v4.96l-17.92 26.48zm49.253-29.92v8l-7.68 4.64V300h-15.92v-18.72l-6.56 3.92v-7.84l6.56-4V242h15.92v22l7.68-4.72z" fill="#fff"/><defs><linearGradient id="paint0_linear" x1="439.646" y1="114.319" x2="451.502" y2="114.319" gradientUnits="userSpaceOnUse"><stop offset=".028" stop-color="#45E668"/><stop offset=".715" stop-color="#4DDB59"/><stop offset="1" stop-color="#51D951"/></linearGradient><linearGradient id="paint1_linear" x1="435.42" y1="114.323" x2="455.725" y2="114.323" gradientUnits="userSpaceOnUse"><stop offset=".028" stop-color="#45E668"/><stop offset=".715" stop-color="#4DDB59"/><stop offset="1" stop-color="#51D951"/></linearGradient><linearGradient id="paint2_linear" x1="302.265" y1="407.275" x2="316.63" y2="407.275" gradientUnits="userSpaceOnUse"><stop offset=".028" stop-color="#45E668"/><stop offset=".715" stop-color="#4DDB59"/><stop offset="1" stop-color="#51D951"/></linearGradient><linearGradient id="paint3_linear" x1="460.066" y1="132.224" x2="488.405" y2="132.224" gradientUnits="userSpaceOnUse"><stop offset=".028" stop-color="#45E668"/><stop offset=".715" stop-color="#4DDB5D"/><stop offset="1" stop-color="#51D951"/></linearGradient><linearGradient id="paint4_linear" x1="61.31" y1="286.014" x2="74.424" y2="286.014" gradientUnits="userSpaceOnUse"><stop offset=".028" stop-color="#45E668"/><stop offset=".715" stop-color="#4DDB54"/><stop offset="1" stop-color="#51D951"/></linearGradient><linearGradient id="paint5_linear" x1="403.022" y1="91.651" x2="413.577" y2="91.651" gradientUnits="userSpaceOnUse"><stop offset=".028" stop-color="#45E668"/><stop offset=".715" stop-color="#4DDB59"/><stop offset="1" stop-color="#51D951"/></linearGradient><linearGradient id="paint6_linear" x1="406.27" y1="90.776" x2="422.848" y2="90.776" gradientUnits="userSpaceOnUse"><stop offset=".028" stop-color="#45E668"/><stop offset=".715" stop-color="#4DDB59"/><stop offset="1" stop-color="#51D951"/></linearGradient><linearGradient id="paint7_linear" x1="403.025" y1="100.974" x2="420.052" y2="100.974" gradientUnits="userSpaceOnUse"><stop offset=".028" stop-color="#45E668"/><stop offset=".715" stop-color="#4DDB59"/><stop offset="1" stop-color="#51D951"/></linearGradient><linearGradient id="paint8_linear" x1="80.07" y1="239.01" x2="91.912" y2="237.975" gradientUnits="userSpaceOnUse"><stop offset=".028" stop-color="#4DFF74"/><stop offset=".167" stop-color="#4DEB6F"/><stop offset=".454" stop-color="#4DB664"/><stop offset=".86" stop-color="#4E6255"/><stop offset="1" stop-color="#44494E"/></linearGradient><linearGradient id="paint9_linear" x1="82.936" y1="238.435" x2="101.555" y2="236.805" gradientUnits="userSpaceOnUse"><stop offset=".028" stop-color="#4DFF74"/><stop offset=".167" stop-color="#4DEB6F"/><stop offset=".454" stop-color="#4DB664"/><stop offset=".86" stop-color="#4E6255"/><stop offset="1" stop-color="#44494E"/></linearGradient><linearGradient id="paint10_linear" x1="79.676" y1="248.65" x2="98.786" y2="246.979" gradientUnits="userSpaceOnUse"><stop offset=".028" stop-color="#4DFF74"/><stop offset=".167" stop-color="#4DEB6F"/><stop offset=".454" stop-color="#4DB664"/><stop offset=".86" stop-color="#4E6255"/><stop offset="1" stop-color="#44494E"/></linearGradient><linearGradient id="paint11_linear" x1="432.919" y1="307.334" x2="446.384" y2="307.334" gradientUnits="userSpaceOnUse"><stop offset=".028" stop-color="#45E668"/><stop offset=".715" stop-color="#4DDB59"/><stop offset="1" stop-color="#51D951"/></linearGradient><linearGradient id="paint12_linear" x1="437.055" y1="306.216" x2="458.224" y2="306.216" gradientUnits="userSpaceOnUse"><stop offset=".028" stop-color="#45E668"/><stop offset=".715" stop-color="#4DDB59"/><stop offset="1" stop-color="#51D951"/></linearGradient><linearGradient id="paint13_linear" x1="432.922" y1="319.245" x2="454.671" y2="319.245" gradientUnits="userSpaceOnUse"><stop offset=".028" stop-color="#45E668"/><stop offset=".715" stop-color="#4DDB59"/><stop offset="1" stop-color="#51D951"/></linearGradient><linearGradient id="paint14_linear" x1="395.232" y1="42.946" x2="411.04" y2="42.946" gradientUnits="userSpaceOnUse"><stop offset=".028" stop-color="#45E668"/><stop offset=".715" stop-color="#4DDB59"/><stop offset="1" stop-color="#51D951"/></linearGradient><linearGradient id="paint15_linear" x1="390.746" y1="52.074" x2="415.571" y2="52.074" gradientUnits="userSpaceOnUse"><stop offset=".028" stop-color="#45E668"/><stop offset=".715" stop-color="#4DDB59"/><stop offset="1" stop-color="#51D951"/></linearGradient><linearGradient id="paint16_linear" x1="404.32" y1="45.691" x2="429.831" y2="45.691" gradientUnits="userSpaceOnUse"><stop offset=".028" stop-color="#45E668"/><stop offset=".715" stop-color="#4DDB59"/><stop offset="1" stop-color="#51D951"/></linearGradient><linearGradient id="paint17_linear" x1="73.201" y1="296.717" x2="95.727" y2="294.746" gradientUnits="userSpaceOnUse"><stop offset=".028" stop-color="#4DFF74"/><stop offset=".167" stop-color="#4DEB6F"/><stop offset=".454" stop-color="#4DB664"/><stop offset=".86" stop-color="#4E6255"/><stop offset="1" stop-color="#44494E"/></linearGradient><linearGradient id="paint18_linear" x1="78.661" y1="295.613" x2="114.051" y2="292.516" gradientUnits="userSpaceOnUse"><stop offset=".028" stop-color="#4DFF74"/><stop offset=".167" stop-color="#4DEB6F"/><stop offset=".454" stop-color="#4DB664"/><stop offset=".86" stop-color="#4E6255"/><stop offset="1" stop-color="#44494E"/></linearGradient><linearGradient id="paint19_linear" x1="72.45" y1="315.044" x2="108.798" y2="311.865" gradientUnits="userSpaceOnUse"><stop offset=".028" stop-color="#4DFF74"/><stop offset=".167" stop-color="#4DEB6F"/><stop offset=".454" stop-color="#4DB664"/><stop offset=".86" stop-color="#4E6255"/><stop offset="1" stop-color="#44494E"/></linearGradient><linearGradient id="paint20_linear" x1="112.123" y1="374.664" x2="154.989" y2="374.664" gradientUnits="userSpaceOnUse"><stop offset=".028" stop-color="#45E668"/><stop offset=".715" stop-color="#4DE655"/><stop offset="1" stop-color="#51E66A"/></linearGradient><linearGradient id="paint21_linear" x1="439.953" y1="216.046" x2="451.673" y2="227.329" gradientUnits="userSpaceOnUse"><stop offset=".028" stop-color="#45E668"/><stop offset=".715" stop-color="#4DDB59"/><stop offset="1" stop-color="#51D951"/></linearGradient><linearGradient id="paint22_linear" x1="59.759" y1="313.965" x2="491.406" y2="157.137" gradientUnits="userSpaceOnUse"><stop offset=".028" stop-color="#4DFF74"/><stop offset=".036" stop-color="#4CF771"/><stop offset=".08" stop-color="#4ACE67"/><stop offset=".129" stop-color="#48A85D"/><stop offset=".183" stop-color="#458854"/><stop offset=".243" stop-color="#446C51"/><stop offset=".31" stop-color="#425749"/><stop offset=".388" stop-color="#454B41"/><stop offset=".486" stop-color="#3A4241"/><stop offset=".622" stop-color="#333D40"/><stop offset="1" stop-color="#313C40"/></linearGradient><linearGradient id="paint23_linear" x1=".006" y1="227.34" x2="530.72" y2="227.34" gradientUnits="userSpaceOnUse"><stop stop-color="#5C5A44"/><stop offset=".61" stop-color="#3F4541"/><stop offset="1" stop-color="#313C40"/></linearGradient><linearGradient id="paint24_linear" x1="164.298" y1="107.263" x2="390.566" y2="333.128" gradientUnits="userSpaceOnUse"><stop stop-color="#313C40"/><stop offset=".251" stop-color="#333E40"/><stop offset=".397" stop-color="#3C4441"/><stop offset=".516" stop-color="#4A4E42"/><stop offset=".621" stop-color="#435E55"/><stop offset=".716" stop-color="#447859"/><stop offset=".804" stop-color="#46985F"/><stop offset=".887" stop-color="#49BD68"/><stop offset=".964" stop-color="#4CE86E"/><stop offset="1" stop-color="#4DFF74"/></linearGradient></defs></svg>