<svg width="135" height="40" fill="none" xmlns="http://www.w3.org/2000/svg"><path d="M130 0H5a5 5 0 00-5 5v30a5 5 0 005 5h125a5 5 0 005-5V5a5 5 0 00-5-5z" fill="#fff"/><path d="M48.384 23.408h2.014c-.336-2.142-2.19-3.633-4.603-3.633-2.855 0-4.996 2.099-4.996 5.614 0 3.452 2.045 5.593 5.055 5.593 2.7 0 4.634-1.736 4.634-4.549v-1.31h-4.426v1.545h2.514c-.032 1.555-1.07 2.54-2.711 2.54-1.827 0-3.08-1.368-3.08-3.84 0-2.456 1.274-3.82 3.037-3.82 1.316 0 2.21.704 2.562 1.86zm7.499 7.585c2.397 0 3.92-1.689 3.92-4.219 0-2.535-1.523-4.23-3.92-4.23-2.397 0-3.92 1.695-3.92 4.23 0 2.53 1.523 4.219 3.92 4.219zm.01-1.545c-1.326 0-1.976-1.182-1.976-2.68 0-1.496.65-2.694 1.977-2.694 1.305 0 1.954 1.198 1.954 2.695 0 1.497-.65 2.68-1.954 2.68zm9.116 1.545c2.397 0 3.92-1.689 3.92-4.219 0-2.535-1.523-4.23-3.92-4.23-2.397 0-3.92 1.695-3.92 4.23 0 2.53 1.523 4.219 3.92 4.219zm.01-1.545c-1.326 0-1.976-1.182-1.976-2.68 0-1.496.65-2.694 1.976-2.694 1.305 0 1.955 1.198 1.955 2.695 0 1.497-.65 2.68-1.955 2.68zm9.105 4.624c2.21 0 3.84-1.012 3.84-3.106v-8.315h-1.901v1.353h-.106c-.293-.59-.906-1.46-2.35-1.46-1.89 0-3.377 1.482-3.377 4.172 0 2.668 1.486 4 3.372 4 1.401 0 2.056-.751 2.355-1.353h.095v1.55c0 1.204-.799 1.7-1.896 1.7-1.161 0-1.672-.55-1.907-1.029l-1.736.421c.351 1.145 1.528 2.067 3.611 2.067zm.016-4.869c-1.273 0-1.944-.99-1.944-2.498 0-1.486.66-2.578 1.944-2.578 1.241 0 1.923 1.028 1.923 2.578 0 1.56-.692 2.498-1.923 2.498zm7.73-9.279h-1.93v10.91h1.93v-10.91zm5.604 11.069c1.907 0 3.218-.932 3.558-2.354l-1.8-.203c-.261.693-.9 1.055-1.731 1.055-1.247 0-2.072-.82-2.089-2.221h5.7v-.592c0-2.87-1.725-4.133-3.739-4.133-2.344 0-3.872 1.72-3.872 4.245 0 2.568 1.507 4.203 3.973 4.203zm-2.056-5.023c.059-1.044.831-1.923 1.982-1.923 1.107 0 1.853.81 1.864 1.923h-3.846zm11.132 4.863h1.976v-3.686h2.088c2.519 0 3.873-1.513 3.873-3.611 0-2.083-1.338-3.612-3.846-3.612H96.55v10.91zm1.976-5.31v-3.948h1.811c1.48 0 2.136.8 2.136 1.96 0 1.162-.656 1.987-2.126 1.987h-1.821zm9.52-5.599h-1.929v10.91h1.929v-10.91zm4.337 11.074c1.284 0 2.051-.602 2.403-1.289h.063v1.124h1.854v-5.476c0-2.162-1.763-2.812-3.324-2.812-1.72 0-3.042.767-3.467 2.258l1.8.256c.192-.56.735-1.039 1.678-1.039.895 0 1.385.458 1.385 1.263v.032c0 .554-.581.58-2.024.735-1.588.17-3.106.644-3.106 2.487 0 1.609 1.177 2.461 2.738 2.461zm.501-1.417c-.804 0-1.38-.367-1.38-1.076 0-.74.645-1.049 1.508-1.171.505-.07 1.518-.198 1.768-.4v.964c0 .911-.735 1.683-1.896 1.683zm6.663 4.32c1.503 0 2.371-.772 2.835-2.077l3.286-9.162-2.061-.01-1.891 6.178h-.086l-1.885-6.179h-2.046l2.968 8.353-.166.442c-.357.932-.921.996-1.763.75l-.447 1.503c.261.107.729.202 1.256.202zm-74.67-23.068h.758c-.225-1.172-1.208-1.977-2.486-1.977-1.554 0-2.652 1.196-2.652 3.114 0 1.917 1.09 3.113 2.699 3.113 1.444 0 2.474-.962 2.474-2.462v-.651h-2.308v.65h1.598c-.021 1.09-.737 1.776-1.764 1.776-1.124 0-1.989-.852-1.989-2.426 0-1.575.864-2.427 1.942-2.427.876 0 1.47.494 1.728 1.29zM46.927 15h3.705v-.651H47.66v-2.06h2.734v-.65H47.66V9.59h2.924v-.65h-3.658V15zm4.649-5.41h1.906V15h.734V9.59h1.905v-.65h-4.545v.65zm8.756-.65h-.734V15h.734V8.94zm1.14.65h1.906V15h.734V9.59h1.905v-.65h-4.545v.65zm13.135 2.38c0-1.918-1.124-3.114-2.675-3.114-1.55 0-2.675 1.196-2.675 3.114 0 1.917 1.124 3.113 2.675 3.113 1.55 0 2.675-1.196 2.675-3.113zm-.71 0c0 1.574-.864 2.426-1.965 2.426-1.1 0-1.965-.852-1.965-2.426 0-1.575.864-2.427 1.965-2.427s1.965.852 1.965 2.427zm6.75-3.03h-.722v4.77h-.06l-3.313-4.77h-.71V15h.733v-4.76h.06L79.936 15h.71V8.94z" fill="#292929"/><path d="M21.759 20.002L10.04 31.285a1.994 1.994 0 01-.868-1.663v-19.24a1.994 1.994 0 01.868-1.663l11.72 11.283z" fill="#00D4FF"/><path d="M25.859 16.061l-4.1 3.941L10.04 8.72c.044-.034.09-.066.138-.095a2.004 2.004 0 012.023-.032l13.657 7.47z" fill="#00F076"/><path d="M30.828 20.002c.007.75-.4 1.443-1.06 1.801l-3.91 2.14-4.1-3.94 4.1-3.942 3.91 2.14a2.026 2.026 0 011.06 1.801z" fill="#FFCF00"/><path d="M25.859 23.943l-13.657 7.47a2.03 2.03 0 01-2.023-.033 1.55 1.55 0 01-.138-.095L21.76 20.002l4.1 3.941z" fill="#FB3746"/></svg>