<svg width="236" height="70" fill="none" xmlns="http://www.w3.org/2000/svg"><path d="M227.259 0H8.741C3.913 0 0 3.918 0 8.75v52.5C0 66.082 3.913 70 8.74 70h218.52c4.828 0 8.741-3.918 8.741-8.75V8.75c0-4.832-3.913-8.75-8.741-8.75z" fill="#000"/><path d="M84.583 40.964h3.52c-.587-3.747-3.828-6.358-8.046-6.358-4.99 0-8.734 3.673-8.734 9.825 0 6.041 3.576 9.788 8.837 9.788 4.72 0 8.101-3.038 8.101-7.96v-2.294h-7.738v2.704h4.395c-.056 2.722-1.872 4.446-4.74 4.446-3.194 0-5.382-2.396-5.382-6.72 0-4.298 2.226-6.684 5.308-6.684 2.3 0 3.864 1.23 4.479 3.253zm13.109 13.274c4.19 0 6.853-2.955 6.853-7.383 0-4.437-2.663-7.401-6.853-7.401-4.19 0-6.854 2.964-6.854 7.401 0 4.428 2.663 7.383 6.854 7.383zm.018-2.703c-2.318 0-3.454-2.07-3.454-4.69 0-2.619 1.136-4.716 3.454-4.716 2.282 0 3.418 2.097 3.418 4.717 0 2.62-1.136 4.689-3.418 4.689zm15.935 2.703c4.191 0 6.854-2.955 6.854-7.383 0-4.437-2.663-7.401-6.854-7.401-4.19 0-6.853 2.964-6.853 7.401 0 4.428 2.663 7.383 6.853 7.383zm.019-2.703c-2.319 0-3.455-2.07-3.455-4.69 0-2.619 1.136-4.716 3.455-4.716 2.281 0 3.417 2.097 3.417 4.717 0 2.62-1.136 4.689-3.417 4.689zm15.916 8.091c3.865 0 6.714-1.771 6.714-5.435v-14.55h-3.324v2.367h-.187c-.512-1.035-1.583-2.554-4.106-2.554-3.306 0-5.904 2.591-5.904 7.298 0 4.67 2.598 7.001 5.895 7.001 2.449 0 3.594-1.314 4.115-2.367h.168v2.712c0 2.107-1.397 2.974-3.315 2.974-2.03 0-2.924-.96-3.334-1.8l-3.035.737c.614 2.004 2.672 3.617 6.313 3.617zm.028-8.52c-2.225 0-3.399-1.734-3.399-4.372 0-2.6 1.155-4.512 3.399-4.512 2.17 0 3.362 1.8 3.362 4.512 0 2.731-1.211 4.372-3.362 4.372zm13.512-16.239h-3.371v19.091h3.371v-19.09zm9.798 19.371c3.333 0 5.625-1.631 6.22-4.12l-3.148-.354c-.456 1.211-1.573 1.845-3.026 1.845-2.179 0-3.621-1.435-3.65-3.887h9.964v-1.035c0-5.024-3.017-7.233-6.536-7.233-4.098 0-6.77 3.01-6.77 7.43 0 4.492 2.635 7.354 6.946 7.354zm-3.594-8.79c.102-1.828 1.452-3.366 3.464-3.366 1.936 0 3.24 1.417 3.259 3.366h-6.723zm19.46 8.51h3.454v-6.45h3.651c4.403 0 6.769-2.648 6.769-6.32 0-3.645-2.338-6.32-6.723-6.32h-7.151v19.09zm3.454-9.294v-6.907h3.165c2.589 0 3.736 1.398 3.736 3.43 0 2.033-1.147 3.477-3.717 3.477h-3.184zm16.642-9.797h-3.371v19.091h3.371v-19.09zm7.583 19.38c2.243 0 3.585-1.053 4.2-2.255h.11v1.966h3.242v-9.582c0-3.785-3.083-4.922-5.811-4.922-3.007 0-5.318 1.342-6.062 3.952l3.148.447c.335-.978 1.285-1.817 2.933-1.817 1.564 0 2.421.801 2.421 2.21v.055c0 .97-1.016 1.016-3.539 1.286-2.775.299-5.429 1.128-5.429 4.354 0 2.815 2.058 4.306 4.787 4.306zm.875-2.48c-1.406 0-2.412-.643-2.412-1.882 0-1.296 1.127-1.837 2.635-2.051.884-.121 2.654-.345 3.091-.7v1.688c0 1.594-1.284 2.946-3.314 2.946zm11.649 7.56c2.626 0 4.144-1.351 4.954-3.635l5.746-16.033-3.604-.019-3.306 10.813h-.15l-3.295-10.813h-3.576l5.187 14.617-.29.773c-.623 1.632-1.609 1.743-3.081 1.315l-.782 2.628c.456.187 1.275.355 2.197.355zM78.451 18.958h1.325c-.393-2.05-2.11-3.46-4.346-3.46-2.716 0-4.635 2.093-4.635 5.449s1.904 5.448 4.718 5.448c2.525 0 4.325-1.683 4.325-4.309v-1.14h-4.035v1.14h2.793c-.036 1.906-1.288 3.108-3.083 3.108-1.966 0-3.476-1.492-3.476-4.247s1.51-4.247 3.393-4.247c1.531 0 2.571.865 3.021 2.258zm3.584 7.292h6.477v-1.14h-5.194v-3.604h4.78v-1.14h-4.78v-3.583h5.111v-1.139h-6.394V26.25zm8.127-9.467h3.332v9.467h1.283v-9.467h3.332v-1.139h-7.947v1.14zm15.307-1.139h-1.283V26.25h1.283V15.644zm1.993 1.14h3.331v9.466h1.283v-9.467h3.332v-1.139h-7.946v1.14zm22.963 4.163c0-3.356-1.966-5.448-4.677-5.448-2.711 0-4.677 2.092-4.677 5.448 0 3.356 1.966 5.448 4.677 5.448 2.711 0 4.677-2.092 4.677-5.448zm-1.242 0c0 2.755-1.511 4.247-3.435 4.247-1.924 0-3.435-1.492-3.435-4.247s1.511-4.247 3.435-4.247c1.924 0 3.435 1.492 3.435 4.247zm11.8-5.303h-1.262v8.348h-.104l-5.793-8.348h-1.242V26.25h1.283v-8.327h.103l5.774 8.327h1.241V15.644z" fill="#fff"/><path d="M38.037 35.004L17.554 54.749a3.49 3.49 0 01-1.52-2.91v-33.67a3.49 3.49 0 011.52-2.91l20.483 19.745z" fill="#00D4FF"/><path d="M45.205 28.107l-7.168 6.897-20.483-19.746c.077-.06.157-.115.24-.167a3.501 3.501 0 013.538-.055l23.873 13.07z" fill="#00F076"/><path d="M53.891 35.004a3.545 3.545 0 01-1.852 3.152L45.205 41.9l-7.168-6.897 7.168-6.897 6.834 3.745a3.546 3.546 0 011.852 3.152z" fill="#FFCF00"/><path d="M45.205 41.9L21.332 54.973a3.547 3.547 0 01-3.538-.056 2.708 2.708 0 01-.24-.167l20.483-19.745 7.168 6.897z" fill="#FB3746"/></svg>