<svg viewBox="0 0 42 42" fill="none" xmlns="http://www.w3.org/2000/svg"><rect x=".35" y=".35" width="41.3" height="41.3" rx="7.65" stroke="#292929" stroke-width=".7"/><path d="M32.25 20.065l-4.922-2.847a.396.396 0 00-.081-.03l-4.759-2.736-10.535-5.41a.575.575 0 00-.119-.033.347.347 0 00-.132-.004.4.4 0 00-.159.052c-.133.057-.2.204-.2.351v23.185c0 .163.081.285.204.366.04.041.121.041.203.041.081 0 .122 0 .203-.04l10.535-5.858 4.63-2.685h.007c.081 0 .122-.04.203-.122a.287.287 0 00.095-.054l4.827-2.793c.244-.122.407-.407.407-.691 0-.285-.163-.529-.407-.692zm-20.093-9.721l11.18 10.448L12.157 31.6V10.344zm14.317 7.322l-1.419 1.441-1.104 1.12-4.9-4.555-4.857-4.533 7.887 4.005 4.393 2.522zm-4.393 8.745l-7.816 4.31 7.41-7.162 2.276-2.19 2.5 2.533-4.37 2.509zm5.112-2.945l-2.634-2.668 2.65-2.684 4.634 2.683-4.65 2.67z" fill="#292929"/></svg>