<svg width="375" height="96" fill="none" xmlns="http://www.w3.org/2000/svg"><g opacity=".4" stroke="#535353" stroke-width=".5" stroke-miterlimit="10" stroke-linecap="round" stroke-linejoin="round"><path d="M31.721 46.945c2.622-.315 2.97-2.953 2.506-5.117-1.432-6.661-2.853-13.312-4.285-19.973-.716-3.33-1.432-6.661-2.148-9.981-.684-3.205-1.558-6.273-1.6-9.572-.011-.735.115-1.639.81-1.912.81-.315 1.569.526 2.022 1.261 6.033 9.74 9.834 20.603 14.246 31.141-8.855-9.939-25.439-11.788-36.284-4.045 6.855-2.363 13.72-4.727 20.574-7.081 3.096-1.061 6.012-2.374 9.213-3.183a56.86 56.86 0 0110.119-1.608c.137-.01.273-.021.41-.021-3.158 3.005-7.117 5.001-11.024 6.924-3.906 1.923-7.886 3.866-11.118 6.798-3.212 2.91-5.655 7.008-5.539 11.357-.01-.315 2.022-1.429 2.327-1.628a43.867 43.867 0 012.6-1.576c1.675-.935 3.412-1.64 5.107-2.553 3.844-2.07 7.676-4.13 11.52-6.2 1.842 1.303 1.294 4.53-.674 5.632-1.97 1.103-4.58.368-6.213-1.187-1.632-1.555-2.485-3.75-3.116-5.915-1.443-4.938-2.022-10.097-3.654-14.972-1.632-4.875-4.601-9.635-9.276-11.788 8.57 10.517 19.89 18.775 32.525 23.744 1.116.442 2.41 1.072 2.537 2.26.169 1.617-1.937 2.416-3.57 2.458a21.484 21.484 0 01-11.213-2.784c-.78-.442-1.61-1.104-1.558-1.986.052-.851.916-1.397 1.674-1.776a53.543 53.543 0 0115.151-4.917c-.126 3.846-5.001 5.548-8.844 5.359-4.528-.232-8.887-1.64-13.298-2.68-4.412-1.04-9.077-1.712-13.436-.472s-8.307 4.843-8.697 9.34c-.39 4.507 3.97 9.162 8.371 8.058 2.874-.714 4.77-3.34 6.75-5.526 1.99-2.185 4.906-4.224 7.707-3.267 1.263 1.26.505 3.687-1.127 4.412-1.632.725-3.622.053-4.917-1.166-1.306-1.23-2.053-2.9-2.748-4.55-3.054-7.217-5.56-15.476-2.601-22.725.41-1.009 1.19-2.122 2.274-1.996 1.127.126 1.6 1.47 1.832 2.563 2.296 10.728 4.58 21.465 6.876 32.192.326 1.503.663 3.058 1.537 4.33.874 1.27 2.411 2.206 3.928 1.911 2.21-.441 3.148-3.1 3.19-5.347.063-4.067-1.485-7.46-3.37-10.959a85.768 85.768 0 00-6.443-10.202c.473.652 2.137 1.188 2.843 1.618a49.294 49.294 0 013.053 2.007 57.815 57.815 0 015.549 4.455c3.506 3.204 6.97 6.304 9.676 10.244-5.928-.578-10.392-5.569-13.593-10.57-1.937-3.005-3.664-6.22-4.275-9.729-.61-3.51.042-7.386 2.443-10.044 2.18-2.417 5.696-3.53 8.876-2.827 3.18.704 5.886 3.215 6.833 6.325 1.517 4.991-1.505 10.402-5.643 13.585-4.138 3.184-9.266 4.76-14.036 6.893A62.316 62.316 0 0013.17 43.54c3.527 1.586 7.665 1.313 11.33.063 3.653-1.25 6.927-3.394 10.15-5.537 1.273-.851 2.895-1.723 4.243-.998 1.779.956 1.316 3.677.22 5.368-1.094 1.703-2.642 3.478-2.22 5.453 2.452.568 4.042-2.374 5.527-4.412 3.138-4.276 9.645-5.632 14.235-2.963-.326-2.112-.684-4.287-1.832-6.094-1.148-1.807-3.306-3.142-5.39-2.669-2.496.578-3.56 3.184-4.455 5.306-1.147 2.732-3.053 5.232-5.359 7.092-2.232 1.797-5.064 2.385-7.907 2.795.305-.053.6-.105.905-.147"/><path d="M.386 85.147c.843-1.524 2.454-2.522 4.149-2.91 1.695-.4 3.475-.253 5.19.062 1.717.316 3.391.799 5.107 1.104 2.033.346 4.096.42 6.15.23 1.19-.115 4.274-.157 4.717-1.596.168-.536.031-1.125-.169-1.66-.726-1.986-2.243-3.699-2.516-5.79-.19-1.48.263-2.962.716-4.391.61-1.933 1.221-3.856 1.832-5.79.263-.83.537-1.68 1.063-2.363.516-.673 1.243-1.145 1.948-1.608.358-.23.716-.462 1.127-.578.79-.22 1.663.232 2.337.62.463.273 2.138.872 2.232 1.46.032.232-.105.453-.305.568-.2.116-.442.137-.674.116a2.28 2.28 0 01-.937-.263c-.305-.158-.58-.378-.895-.483-.474-.158-1.01-.032-1.442.21-.443.241-.8.599-1.159.956 1.211-.504 2.822-.43 3.875.41.368.294 1.885 2.07.706 2.164-.727.063-1.327-1.135-2.149-1.187-.284-.021-.568.063-.842.157a7.046 7.046 0 00-2.148 1.23c.8-.316 1.927-.915 2.79-.767.822.136 1.58.64 1.98 1.376a.998.998 0 01.147.483c-.01.168-.105.347-.263.4-.19.063-.39-.064-.568-.158-.895-.483-2.18-.273-3.117.021-.948.305-1.8.84-2.643 1.376 1.221-.273 2.495-1.26 3.77-1.103.494.063 2.484.389 2.295 1.124-.095.347-.527.452-.895.494l-2.717.284a2.532 2.532 0 011.37-.883c-.232 1.156-1.854 1.744-2.728 2.26 1.085.892 1.38 2.416 1.453 3.813.074 1.397.01 2.858.6 4.13.527 1.113 1.495 1.943 2.359 2.815.863.882 1.674 1.944 1.727 3.173-.769.2-1.411-.589-1.77-1.303-1.305-2.595-4.221-13.553 1.949-12.209 1.2.263 2.295.862 3.485 1.156 2.285.578 4.843-.052 6.591-1.628-.326.294-2.127-.042-2.57-.074a24.234 24.234 0 01-2.737-.41c-1.221-.262-4.18-.63-4.59-2.027-.274-.946.4-1.965 1.274-2.417 1.042-.546 2.453-.63 3.59-.945 1.622-.452 3.317-.652 4.949-1.083.674-.178 1.358-.378 1.948-.746.842-.535 1.21-1.523.968-2.5-.147-.61-.484-1.145-.831-1.67-1.211-1.85-2.57-3.594-3.717-5.485-1.158-1.88-2.117-3.93-2.443-6.104-.095-.62-.105-1.335.337-1.787.59-.588 1.6-.346 2.285.116 1.474 1.009 2.264 2.837 2.285 4.623.02 1.786-.643 3.53-1.58 5.054-1.179 1.922-2.843 3.918-4.801 5.064-1.21.714-2.706 1.071-4.054.683-1.095-.316-3.864-2.88-1.81-3.678a3.252 3.252 0 011.673-.189c-.252.862-1.053 1.66-1.916 1.902-.558.157-1.369.241-1.643-.389-.147-.336-.168-.725-.379-1.019-.179-.252-.463-.41-.737-.546-.273-.137-.568-.273-.758-.515-.19-.242-.273-.61-.084-.851.58.147 1.264.273 1.727-.105.137-.105.242-.252.379-.337.379-.241.863-.073 1.284.063.885.284 1.812.41 2.738.379-.147 0-.78.483-1 .567-.495.19-.99.347-1.506.42-1.41.2-2.495-.325-3.39-1.418-.537-.651-1.411-1.723-1.095-2.606.19-.536.684-.935 1.232-1.071.558-.137 1.147-.021 1.653.252.231.126.452.315.494.567.043.294-.189.578-.473.694-.548.22-1.222.063-1.77.273-.662.242-1.21 1.177-2 1.061-.937-.126-.884-1.187-.947-1.923-.21-2.448-.38-4.896-.569-7.333-.084-1.051-.19-2.175-.863-2.995-.674-.82-2.117-1.071-2.738-.22-1.021 1.387 1.832 3.404 2.843 3.96 6.644 3.625 15.488-1.638 19.963-6.555 4.612-5.065 6.423-12.619 4.338-19.164.137.43-.547 1.88-.653 2.374a23.556 23.556 0 00-.315 8.164c.463 3.414 1.842 6.671 2.906 9.897 2.221 6.724 6.433 12.061 12.098 16.212 4.8 3.52 9.96 7.953 12.171 13.648a20.669 20.669 0 01.358 13.879c-.431 1.313-1.021 2.605-1.98 3.593-.957.988-2.358 1.639-3.716 1.429-1.61-.242-2.832-1.576-3.748-2.931-4.138-6.136-4.675-14.52-1.338-21.119 2.801-5.537 8.992-8.993 15.12-7.04 3.422 1.094 5.57 4.288 4.644 7.996-1.432-2.941-.895-6.734 1.284-9.172l-.273.505c1.01-1.587 2.832-2.27 4.432-1.587 1.6.683 2.053 2.963 3.875 3.415 2.738.683 5.475-1.366 5.696-4.098 0 0 1.895-28.914 1.938-29.839l4.074 50.295s.811-15.245 2.548-17.293c.959-1.135 2.085-.872 3.212-.2.516.305 1.242.851 1.863.483.885-.525.622-1.975 1.369-2.626.558-.484 1.264-.105 1.832.168 1.138.535 2.222.777 3.012-.473.821-1.303.484-4.739 2.306-5.295 1.579-.484 2.179 2.92 2.474 3.898.4 1.365.726 2.752 1.221 4.087.274.735.864 2.605 1.832 1.523.98-1.082 1.18-4.329 3.275-3.803 2.032.514 2.095 3.1 3.401 4.38.442.432 1.011.694 1.642.673-.547-2.469 2.296-4.507 4.454-3.068 1.285 1.156 3.117 2.301 4.707 1.387 1.137-.914 1.6-4.328 1.6-4.328l4.38-29.43 3.454 48.026 1.748-12.902c.231-1.135.452-2.28 1.369-2.732 1.137-.451 2.284.452 3.421-.23 1.138-.453 1.601-1.818 3.191-2.05l7.033.253c-3.243-2.228 0 0 0 0-3.243-2.228-7.223-4.35-8.823-8.154-.8-1.89-.937-4.402.484-6.04 1.253-1.45 3.338-1.66 5.002-.841 1.926.945 3.137 2.963 3.864 4.906.747-1.754 1.516-3.698 3.085-4.896 1.211-.935 3.032-1.155 4.401-.704 2.053.914 3.654 2.963 3.19 5.464-1.137 5-5.475 7.512-9.181 10.265.084 0 .084 0 0 0l8.95-.252c1.137-.232 1.368-2.28 2.737-1.818 1.369.452 1.822 2.28 2.506 3.646.685 1.366 1.601 2.5 3.422 2.28 1.601-.232 2.738-1.135 3.654-2.501.453-.914.916-3.184.916-3.184l2.358-29.008c.021.305-.021.305 0 0 0 .305 3.801 50.39 3.801 50.39l3.454-16.454c.274-.883.316-2.007 1.453-1.597.737.263 1.474.935 2.306.862.937-.095 1.126-1.083 1.379-1.808.421-1.197 1.59-.62 2.475-.294.989.368 2.274.578 2.916-.462.548-.883.716-1.86.937-2.847.19-.84.421-1.87 1.158-2.417.474-.357.79.095 1.138.494.315.357.568.767.768 1.198.853 1.775.916 3.814 1.516 5.663.19.599.221 1.544.959 1.744.831.22 1.431-.336 1.747-1.02.316-.693.411-1.554.98-2.09.579-.546 1.316-.62 1.968-.19 2.075 1.377 2.085 4.477 4.644 5.244-.284-.084-.074-1.608-.032-1.828.127-.568.495-1.062.906-1.482.768-.767 1.874-.998 2.843-.462 1.6.914 3.19 2.048 5.012.914.684-.452 6.159-32.308 6.338-33.075-.021.137-.021.137 0 0 0 .315 2.106 32.16 3.454 48.026.021-.316.021-.316 0 0 .41-3.982.884-8.08 1.895-11.967.463-1.755.716-4.36 2.853-4.434 1.559-.053 1.843 1.576 4.075 1.292 3.801-.483 4.496-.168 6.539 3.026 2.158 3.383 3.864 6.84 4.811 10.759 1.864 7.67 1.001 16.054-2.769 23.02-3.158-5.106-4.159-11.495-2.706-17.315 3.054-12.314 14.288-16.643 26.039-16.096-3.254-2.669-5.465-5.968-7.202-9.771-.737-1.681-1.264-3.362-1.685-5.253-.421-2.417-.737-4.623-.526-7.04.105-1.47.316-2.942.632-4.413.421-1.68 1.053-3.152 1.684-4.728.211-.525.527-1.155.843-1.68.421-.526.631-1.051.947-1.577 3.896-5.778 9.161-9.666 15.794-11.452 5.37-1.366 10.845-.945 16.004 1.05 6.634 2.522 12.003 7.566 14.846 14.08.211.63.527 1.155.737 1.786.737 2.416 1.369 4.728 1.474 7.25 0 1.68.106 3.361-.105 5.042-.421 3.888-1.79 7.355-3.685 10.717l-.316.315c-3.264 5.674-8.423 9.771-14.53 11.978-5.686 1.996-11.687 2.206-17.584.63-2-.525-3.896-1.05-5.791-2.101-2.737-1.576-5.159-3.362-7.265-5.779-4.212-5.043-5.896-11.242-5.475-17.546.948-11.872 9.371-22.589 21.269-25.53.105 0 .316-.21.421-.21 8.844-2.102 17.689.104 24.743 5.673.422.42.843.735 1.369 1.155 4.949 4.413 7.792 10.297 8.529 16.811.105 1.681.21 3.362.105 5.043-.105 1.156-.21 2.206-.421 3.362-.305 1.566-.727 3.11-1.316 4.592-.853 2.154-2.475 4.35-3.949 6.125-.947 1.05-1.895 1.891-2.948 2.942-4.106 3.992-8.739 6.934-14.425 8.3-3.474.735-6.844.84-10.318.315-3.054-.525-5.791-1.47-8.424-3.152-.21-.21-.421-.315-.737-.525-1.368-.946-2.421-1.996-3.58-3.152-3.064-3.572-5.054-7.617-6.401-12.135-2.59-8.679-2.064-18.607 4.296-25.584.105-.105.105-.315.21-.42 4.844-5.043 11.372-7.565 18.216-7.775 5.685-.21 11.055 1.261 16.004 4.308 4.949 3.152 8.634 7.46 10.95 12.608 1.685 3.992 2.738 8.09 2.948 12.398.211 4.517-.526 8.93-3.264 12.923-1.895 2.626-3.895 4.728-6.844 5.883-2.316.946-4.948 1.156-7.37.21-.211-.105-.421-.21-.737-.315-1.053-.42-1.79-1.26-2.527-2.101-1.158-1.576-1.685-3.257-2.001-5.148-.315-2.942-.421-5.884.211-8.72 1.158-2.733 2.738-5.254 3.264-8.301.105-.946.211-1.996.105-2.942-.168-1.586-.473-3.162-1.042-4.654-.4-1.05-1.221-2.627-2.222-3.226a2.975 2.975 0 00-1.579-.42c-1.053.105-1.895.84-2.527 1.681-1.474 2.522-2.106 5.148-2.001 7.985.211 2.101.632 4.098 1.896 5.989.631.84 1.158 1.786 1.474 2.731 1.053 3.153.842 6.515.526 9.772-.105 1.155-.105 2.311-.632 3.362-.526 1.05-1.368 1.996-2.421 2.416a6.109 6.109 0 01-4.317 0c-2.138-.85-2.59-2.931-2.769-4.98-.211-2.458.073-4.927.537-7.334.494-2.532 1.189-5.011 1.769-7.522.537-2.354.684-4.854.568-7.281-.053-.988-.126-1.944-.379-2.9a12.46 12.46 0 00-.505-1.492c-.127-.305-.59-.893-.59-1.208.032 1.901 0 3.824.126 5.726.116 1.723.158 3.393-.158 5.117-.042.22-.094.462-.242.63-.147.179-.431.263-.61.126-.169-.126-.19-.357-.2-.557-.095-1.912.021-3.877.157-5.8a10.9 10.9 0 00-.126-2.626 11.956 11.956 0 00-.305-1.345c-.053-.19-.432-.924-.369-1.082-1.305 3.499.221 7.47-.589 11.116-.043.178-.095.368-.253.462-.211.137-.505.01-.642-.2-.137-.21-.158-.472-.169-.714-.137-3.54.6-7.155-.316-10.57-.547 1.818-.926 3.447-.916 5.37.011 1.796.221 3.582.327 5.368.01.168.021.347-.042.515-.064.158-.222.305-.39.284-.232-.021-.358-.273-.432-.494-1.2-3.583-.4-7.586-.4-11.295a18.703 18.703 0 00-1.274 10.843c.495 2.669 1.622 5.106 2.295 7.733.59 2.29.948 4.633 1.074 6.987.127 2.395-.147 4.78-.147 7.176a19.189 19.189 0 01-5.191-2.837c-5.012-3.856-8.065-9.95-8.486-16.254-.106-2.626 0-5.148.737-7.67.316-.945.526-1.89.947-2.731a50.235 50.235 0 011.685-3.362c4.106-6.62 10.74-10.822 18.426-11.663 7.16-.735 14.32 2.102 18.847 7.985.843 1.261 1.58 2.417 2.211 3.783 1.159 2.521 1.58 5.148 1.685 7.88.369 9.56-5.149 18.849-12.951 24.186.537-2.049 2.927-2.963 5.033-3.163 6.812-.62 13.235 3.037 19.984 4.192 6.402 1.093 13.172-.147 18.753-3.456 8.307-4.907 15.551-15.718 13.993-25.584"/></g></svg>