<svg width="540" height="283" fill="none" xmlns="http://www.w3.org/2000/svg"><path d="M1 193.099c36.487 3.341 69.37 17.553 93.018 46.241 7.534 9.169 14.019 21.875 8.647 32.485-3.865 7.598-13.429 11.397-21.813 9.825-8.385-1.572-15.46-7.729-19.521-15.261-4.061-7.532-5.372-16.243-5.306-24.823.131-16.898 5.633-33.992 16.573-46.895 10.94-12.902 27.447-21.286 44.347-21.155 11.661.066 23.583 3.995 34.653.459 13.363-4.192 21.224-17.684 26.989-30.456 7.664-17.029 19.127-43.751 42.709-37.988 7.927 1.9 14.084 7.86 20.831 12.379 6.747 4.519 15.656 7.794 22.862 3.995 7.402-3.929 12.511-14.802 20.503-12.509 5.372 1.506 7.992 8.645 13.494 9.497 9.106 1.375 10.481-13.165 17.228-19.387 11.791-10.873 26.334 3.799 36.553 8.842 13.821 6.746 29.477 10.414 44.675 11.658 44.413 3.668 84.961-13.23 109.198-51.218C519.676 48.354 527.078 24.775 531.663 1c-27.316 20.893-48.278 50.104-59.217 82.656-10.743 31.831-14.084 72.766-1.965 104.728 10.415 27.442 36.094 51.741 62.623 63.334a110.02 110.02 0 005.896 2.358" stroke="#fff" stroke-width="2" stroke-miterlimit="10" stroke-linecap="round" stroke-linejoin="round"/></svg>