<svg width="90" height="42" fill="none" xmlns="http://www.w3.org/2000/svg"><path d="M13.166.58h.694v18.029L.694 2.526v15.821H0V.317l13.166 16.058V.579zm7.084 16.336c-1.099-1.126-1.644-2.444-1.644-3.945 0-1.5.554-2.8 1.67-3.9 1.117-1.1 2.453-1.65 4.017-1.65 1.564 0 2.9.55 4.008 1.65 1.107 1.1 1.66 2.4 1.66 3.91 0 1.509-.544 2.818-1.625 3.944-1.081 1.125-2.39 1.684-3.938 1.684h-.21c-1.53 0-2.84-.567-3.938-1.693zm8.947-3.883c0-1.336-.483-2.488-1.441-3.474-.967-.977-2.11-1.466-3.445-1.466-1.336 0-2.497.498-3.472 1.484-.976.986-1.468 2.146-1.468 3.473 0 1.326.492 2.478 1.468 3.447.976.969 2.136 1.457 3.48 1.457 1.345 0 2.496-.488 3.446-1.457.958-.977 1.432-2.13 1.432-3.464zm4.316-5.341h.79l4.413 9.311 2.074-4.337-2.312-4.93h.765l1.934 4.188 1.977-4.241h.712l-2.338 4.974 2.048 4.381 4.368-9.329h.695l-5.08 10.9-2.435-5.184-2.46 5.184-5.151-10.917zm29.988 0v10.655h-.765v-2.653a4.996 4.996 0 01-2.004 2.13 5.551 5.551 0 01-2.865.785c-1.555 0-2.891-.55-4.008-1.65-1.116-1.099-1.67-2.408-1.67-3.944s.554-2.845 1.67-3.944c1.117-1.1 2.453-1.65 4.008-1.65 1.02 0 1.995.27 2.918.803.932.541 1.582 1.248 1.943 2.13v-2.68h.773v.018zm-10.547 5.35c0 1.326.492 2.478 1.468 3.446.976.969 2.136 1.458 3.48 1.458 1.345 0 2.496-.49 3.446-1.458.958-.968 1.432-2.12 1.432-3.455 0-1.336-.483-2.488-1.441-3.474-.967-.977-2.11-1.466-3.445-1.466-1.336 0-2.496.498-3.472 1.484-.984.977-1.468 2.138-1.468 3.464zM73.617 3.38v.664c-.923 0-1.705.314-2.347.951-.641.629-.966 1.431-.966 2.391v6.231h3.34v.663h-3.34v4.076h-.765V7.378c0-1.17.396-2.13 1.195-2.88.791-.742 1.758-1.117 2.883-1.117zm5.81 1.729c-.457 0-.695-.21-.695-.637 0-.428.229-.638.695-.638.466 0 .694.21.694.638-.009.418-.237.637-.694.637zm.378 2.6v10.638h-.765V7.71h.765zM90 17.823v.664c-1.134 0-2.092-.376-2.883-1.126-.79-.75-1.195-1.71-1.195-2.88V3.398h.764V7.71h3.296v.663h-3.296v6.11c0 .959.326 1.762.967 2.39.642.637 1.424.951 2.347.951z" fill="#535353"/><path d="M20.285 41.682l-4.36-10.044h.493l3.938 9.04 1.845-4.276-2.056-4.764h.474l1.846 4.328 1.898-4.328h.37l-2.066 4.747 1.88 4.328 4.017-9.075h.36l-4.429 10.044-2.11-4.817-2.1 4.817zm12.656-.017h-.123c-.835 0-1.573-.314-2.197-.943-.624-.628-.931-1.361-.931-2.19 0-.838.307-1.553.931-2.164.615-.611 1.38-.917 2.294-.917.905 0 1.688.358 2.347 1.083l-4.166 4.075c.571.454 1.125.68 1.652.68a2.88 2.88 0 001.424-.357 3.137 3.137 0 001.037-.969v.672c-.615.69-1.38 1.03-2.268 1.03zm-.14-5.838c-.703 0-1.327.27-1.872.811-.545.541-.818 1.16-.818 1.86 0 .697.238 1.317.703 1.84l3.859-3.804a2.78 2.78 0 00-1.872-.707zm7.576 5.428v.366c-.624 0-1.16-.21-1.6-.628-.44-.419-.659-.951-.659-1.597v-7.767h.422v7.767c0 .532.176.977.536 1.326.352.358.782.533 1.3.533zm4.913 0v.366c-.624 0-1.16-.21-1.6-.628-.439-.419-.659-.951-.659-1.597v-7.767h.422v7.767c0 .532.176.977.536 1.326.352.358.791.533 1.301.533zm3.076.253h-.422v-5.926h.422v1.196c.449-.899 1.222-1.344 2.303-1.344.738 0 1.362.253 1.872.76.501.505.756 1.125.756 1.858v3.456h-.422V38.06a2.2 2.2 0 00-.642-1.58c-.43-.445-.949-.672-1.555-.672-.607 0-1.143.227-1.609.672-.466.445-.694.978-.694 1.58v3.447h-.009zm11.092.157h-.123c-.844 0-1.573-.314-2.197-.943-.624-.628-.932-1.361-.932-2.19 0-.838.308-1.553.932-2.164.615-.611 1.38-.917 2.294-.917.914 0 1.687.358 2.346 1.083l-4.157 4.075c.571.454 1.125.68 1.652.68.528 0 1.002-.122 1.424-.357a3.138 3.138 0 001.037-.969v.672c-.624.69-1.38 1.03-2.276 1.03zm-.14-5.838c-.704 0-1.328.27-1.873.811-.545.541-.817 1.16-.817 1.86 0 .697.237 1.317.703 1.84l3.858-3.804a2.78 2.78 0 00-1.872-.707zm6.609-.027a.918.918 0 00-.607.227.692.692 0 00-.263.55c0 .218.096.42.299.602.202.184.439.35.711.506.282.158.563.315.844.498.281.175.528.401.72.672.194.27.3.585.3.934 0 .514-.194.96-.59 1.326-.395.367-.87.55-1.423.55-.352 0-.686-.079-.984-.227-.308-.157-.528-.358-.668-.61v-.63c.334.734.878 1.11 1.617 1.11.457 0 .844-.14 1.16-.42.316-.279.466-.593.466-.942 0-.35-.097-.637-.299-.873a2.838 2.838 0 00-.72-.602l-.844-.497a2.626 2.626 0 01-.712-.594 1.206 1.206 0 01-.3-.812c0-.314.124-.575.379-.785.255-.218.58-.323.975-.323.396 0 .739.157 1.02.463v.54c-.29-.453-.65-.663-1.081-.663zm6.153 0a.917.917 0 00-.607.227.692.692 0 00-.264.55c0 .218.097.42.299.602.202.184.44.35.712.506.281.158.562.315.844.498.28.175.527.401.72.672.194.27.299.585.299.934 0 .514-.193.96-.589 1.326-.395.367-.87.55-1.424.55a2.21 2.21 0 01-.984-.227c-.308-.157-.527-.358-.668-.61v-.63c.334.734.879 1.11 1.617 1.11.457 0 .844-.14 1.16-.42.317-.279.475-.593.475-.942 0-.35-.097-.637-.299-.873a2.838 2.838 0 00-.72-.602l-.844-.497a2.626 2.626 0 01-.712-.594 1.206 1.206 0 01-.3-.812c0-.314.124-.575.379-.785.255-.218.58-.323.975-.323.396 0 .739.157 1.02.463v.54c-.299-.453-.66-.663-1.09-.663z" fill="#8B8B8B"/></svg>