<svg width="340" height="207" fill="none" xmlns="http://www.w3.org/2000/svg"><g clip-path="url(#clip0)"><path d="M4.933 206.506c-3.1-2.257-4.475-6.312-4.299-10.12.176-3.809 1.727-7.441 3.594-10.791 7.364-13.436 19.237-23.698 29.279-35.3 10.041-11.601 18.709-25.989 17.264-41.258-.282-3.104-1.515-6.736-4.545-7.476-2.184-.565-4.51.74-5.778 2.574-1.269 1.834-1.727 4.126-1.973 6.383-.846 7.158-.177 14.74 3.417 21.017 3.559 6.277 10.43 10.967 17.617 10.579 4.968-.247 9.97-2.786 13.917-5.677 4.369-3.209 8.738-5.854 13.847-7.97 10.605-4.373 22.161-6.418 33.612-5.889-19.871-16.68-28.962-45.209-22.408-70.317 6.553-25.108 28.362-45.56 53.836-50.427 25.474-4.867 53.308 6.1 68.599 27.047 9.231 12.625 13.987 28.458 13.494 44.08-.916 28.176-19.906 54.977-46.19 65.133-27.905 10.791-63.42 5.043-82.728-18.901-17.546-21.758-17.757-51.91-4.263-75.712 8.808-15.517 22.972-28.141 39.849-34.242 27.693-9.98 60.53-1.163 80.014 20.7 4.087 4.585 7.61 9.698 10.323 15.234 6.166 12.378 8.421 26.59 6.836 40.272-.811 6.947-2.572 13.753-5.356 20.171-2.818 6.559-7.962 11.708-12.86 16.891-17.194 18.197-39.285 29.763-65.181 26.695-26.178-3.103-42.632-20.135-51.088-44.327-4.017-11.531-6.307-23.803-5.497-36.004.81-12.202 4.827-24.332 12.438-33.889 13.811-17.385 36.008-25.214 57.747-23.697 30.653 2.15 55.598 22.287 65.569 51.203 5.32 15.41 7.504 36.78.176 51.909-3.664 7.511-8.738 14.528-15.714 19.183-6.941 4.62-15.926 6.63-23.888 4.056-12.332-3.985-15.256-16.433-15.397-28-.071-5.36-.458-12.342 1.938-17.209 2.889-5.854 5.919-11.496 7.293-17.95 1.691-7.757.176-14.563-2.537-21.792-1.761-4.69-5.989-10.791-11.768-8.252-5.003 2.186-7.258 9.098-8.491 13.93-1.691 6.7-1.409 13.928 1.022 20.417 2.255 6.03 7.258 10.509 7.927 17.315.811 7.969 1.128 16.08-.141 24.05-.493 3.244-1.338 6.594-3.452 9.098-4.827 5.677-16.278 5.536-20.33-.882-2.361-3.738-2.678-8.393-2.537-12.801.247-7.299 1.163-14.564 2.643-21.687 1.444-6.912 4.192-13.506 4.827-20.524.422-4.866.035-9.662-.212-14.493-.211-4.267-.881-8.181-2.995-11.955-.916 10.05.67 19.819-1.233 29.94-.07.387-.176.81-.458 1.093-.211.211-.563.211-.81.07-1.304-4.373-.247-10.403-.388-15.022-.141-5.184-.493-10.438-1.867-15.481-3.84 9.662 1.409 21.194-2.431 30.856-3.347 0-1.691-10.227-1.515-12.06.599-6.277.282-12.66-.987-18.831-2.889 4.972-2.677 10.014-2.642 15.516.035 5.078.599 10.156.916 15.198-1.903-.352-2.643-2.644-2.96-4.584a82.315 82.315 0 01-.986-14.705c.07-2.363.211-4.725.493-7.088.141-1.199-.387-4.373-.035-5.254-5.074 12.377-5.637 25.954-.458 38.296 2.924 7.018 6.307 13.683 6.412 21.441.106 8.745-.845 17.491-.845 26.236-26.954-9.732-40.413-40.412-34.141-67.671 8.632-37.486 52.532-61.148 87.378-42.035 8.562 4.69 15.925 11.672 20.682 20.206 9.09 16.398 7.645 37.027.634 54.413-5.849 14.564-16.56 28.458-31.745 32.337 10.957-9.31 27.165-8.851 41.187-5.713 11.592 2.61 23.008 6.771 34.987 7.37 11.803.6 22.056-5.43 32.097-11.002 12.226-6.771 24.558-14.071 33.648-24.685 9.09-10.615 14.587-25.32 11.028-38.826" stroke="#292929" stroke-miterlimit="10" stroke-linecap="round" stroke-linejoin="round"/></g><defs><clipPath id="clip0"><path fill="#fff" d="M0 0h340v207H0z"/></clipPath></defs></svg>