<svg width="360" height="120" fill="none" xmlns="http://www.w3.org/2000/svg"><path d="M.517 76.5c2.068-3.75 5.828-5.357 9.117-3.75 3.29 1.607 4.23 6.964 7.99 8.036 5.64 1.607 11.28-3.215 11.75-9.643 0 0 3.9-68.09 3.994-70.232l8.413 118.393s1.692-35.893 5.263-40.715c1.974-2.678 4.277-2.035 6.627-.482 1.034.75 2.538 1.982 3.854 1.125 1.833-1.232 1.269-4.66 2.82-6.16 1.175-1.126 2.584-.215 3.76.374 2.35 1.286 4.558 1.822 6.203-1.124 1.692-3.054.987-11.143 4.747-12.483 3.243-1.125 4.512 6.858 5.075 9.161.847 3.214 1.505 6.482 2.538 9.643.564 1.714 1.786 6.107 3.807 3.59 2.021-2.519 2.444-10.18 6.768-8.947 4.183 1.232 4.324 7.285 7.002 10.285.893 1.018 2.068 1.608 3.384 1.608-1.128-5.84 4.747-10.608 9.165-7.233 2.632 2.733 6.391 5.411 9.681 3.268 2.35-2.142 3.29-10.178 3.29-10.178l9.023-69.268 7.097 113.089 3.619-30.375c.47-2.678.94-5.357 2.82-6.428 2.35-1.072 4.699 1.071 7.049-.536 2.35-1.072 3.29-4.286 6.58-4.822l14.522.59c-6.673-5.25 0 0 0 0-6.673-5.25-14.898-10.232-18.188-19.232-1.645-4.447-1.927-10.34.987-14.25 2.585-3.429 6.862-3.911 10.293-1.983 3.994 2.25 6.438 6.965 7.989 11.572 1.551-4.125 3.102-8.679 6.345-11.518 2.491-2.196 6.25-2.732 9.07-1.66 4.23 2.142 7.52 6.964 6.58 12.856-2.35 11.786-11.279 17.68-18.893 24.161.141 0 .141 0 0 0l18.423-.59c2.35-.535 2.82-5.356 5.64-4.285 2.819 1.072 3.759 5.357 5.169 8.572 1.41 3.214 3.29 5.892 7.05 5.357 3.29-.536 5.64-2.679 7.519-5.893.94-2.143 1.88-7.5 1.88-7.5L231.18.589c.047.697-.047.697 0 0 0 .697 7.849 118.607 7.849 118.607l7.143-38.732c.564-2.089.658-4.714 3.008-3.75 1.504.643 3.055 2.197 4.747 2.036 1.927-.214 2.303-2.571 2.867-4.232.893-2.84 3.29-1.447 5.122-.697 2.021.858 4.7 1.34 6.016-1.07 1.128-2.09 1.504-4.394 1.927-6.697.376-1.983.893-4.393 2.397-5.679.987-.857 1.645.214 2.35 1.179.658.857 1.175 1.821 1.598 2.839 1.739 4.178 1.88 8.946 3.101 13.34.423 1.392.47 3.642 1.974 4.124 1.692.536 2.961-.803 3.572-2.41.658-1.608.846-3.643 2.021-4.93 1.175-1.285 2.726-1.445 4.042-.428 4.277 3.215 4.277 10.554 9.54 12.322-.564-.215-.141-3.804-.047-4.286.282-1.34 1.034-2.518 1.88-3.482 1.598-1.822 3.854-2.357 5.828-1.072 3.29 2.143 6.579 4.822 10.339 2.143 1.41-1.071 12.69-76.071 13.066-77.839-.047.321-.047.321 0 0 0 .75 4.323 75.697 7.096 113.089.047-.75.047-.75 0 0 0 0 2.867-31.982 7.097-37.875 1.41-1.607 4.23 1.072 6.109 1.072 2.82 0 4.7-3.215 7.285-4.286" stroke="#292929" stroke-miterlimit="10" stroke-linecap="round" stroke-linejoin="round"/></svg>