<svg width="220" height="213" fill="none" xmlns="http://www.w3.org/2000/svg"><path d="M.685 212.246c2.089-3.799 6.085-6.289 10.289-7.258 4.205-.996 8.618-.629 12.875.157 4.256.786 8.409 1.992 12.666 2.751a58.28 58.28 0 0015.25.577c2.952-.288 10.603-.393 11.7-3.983.418-1.336.079-2.804-.418-4.14-1.801-4.953-5.562-9.224-6.241-14.438-.47-3.695.653-7.39 1.776-10.953 1.514-4.822 3.03-9.617 4.544-14.439.653-2.07 1.332-4.192 2.637-5.895 1.28-1.677 3.082-2.857 4.832-4.01.888-.576 1.776-1.153 2.794-1.441 1.959-.55 4.126.577 5.798 1.546 1.149.682 5.301 2.175 5.536 3.643.078.576-.261 1.126-.757 1.415-.496.288-1.097.34-1.672.288a5.642 5.642 0 01-2.324-.655c-.757-.393-1.436-.944-2.22-1.206-1.175-.393-2.507-.078-3.577.524-1.097.603-1.985 1.494-2.873 2.385 3.003-1.258 6.999-1.074 9.61 1.022.914.734 4.675 5.162 1.75 5.398-1.802.157-3.29-2.83-5.328-2.961-.705-.053-1.41.157-2.089.393-1.932.707-3.76 1.729-5.327 3.066 1.984-.786 4.779-2.28 6.92-1.913 2.037.34 3.918 1.598 4.91 3.432.209.367.366.787.366 1.206-.027.419-.262.865-.653.996-.47.157-.967-.158-1.41-.393-2.22-1.206-5.406-.682-7.73.052-2.351.76-4.466 2.096-6.556 3.433 3.03-.682 6.19-3.145 9.35-2.752 1.227.157 6.163.97 5.693 2.804-.235.865-1.306 1.127-2.22 1.232l-6.738.707c.862-1.074 2.063-1.887 3.395-2.201-.574 2.882-4.596 4.35-6.763 5.634 2.69 2.227 3.42 6.027 3.603 9.512.183 3.485.026 7.127 1.489 10.298 1.306 2.777 3.708 4.847 5.85 7.022 2.141 2.201 4.152 4.848 4.283 7.914-1.907.498-3.5-1.468-4.388-3.25-3.238-6.472-10.472-33.802 4.832-30.448 2.977.655 5.693 2.149 8.644 2.882 5.667 1.441 12.013-.131 16.348-4.061-.81.733-5.276-.105-6.372-.184a59.596 59.596 0 01-6.79-1.022c-3.03-.655-10.368-1.572-11.386-5.057-.68-2.358.992-4.9 3.16-6.027 2.585-1.362 6.084-1.572 8.905-2.358 4.021-1.127 8.226-1.625 12.274-2.699 1.671-.446 3.369-.943 4.831-1.86 2.089-1.337 3.003-3.8 2.403-6.237-.366-1.52-1.202-2.856-2.063-4.166-3.004-4.612-6.373-8.962-9.219-13.679-2.847-4.716-5.25-9.8-6.059-15.224-.235-1.546-.261-3.328.836-4.454 1.462-1.468 3.969-.865 5.667.288 3.656 2.515 5.615 7.075 5.667 11.529.052 4.455-1.593 8.805-3.917 12.604-2.925 4.796-7.052 9.774-11.909 12.63-3.003 1.782-6.712 2.673-10.054 1.704-2.716-.786-9.584-7.18-4.492-9.172a8.024 8.024 0 014.152-.471c-.627 2.148-2.611 4.14-4.753 4.743-1.384.393-3.395.602-4.074-.97-.365-.838-.417-1.808-.94-2.542-.444-.629-1.149-1.022-1.828-1.362-.679-.341-1.41-.682-1.88-1.284-.496-.603-.68-1.52-.209-2.123 1.436.367 3.134.682 4.283-.262.34-.262.6-.629.94-.838.94-.603 2.141-.184 3.186.157a19.904 19.904 0 006.79.943c-.366 0-1.933 1.206-2.481 1.415-1.227.472-2.455.865-3.734 1.048-3.5.498-6.19-.812-8.41-3.537-1.331-1.625-3.499-4.298-2.716-6.499.47-1.336 1.698-2.332 3.056-2.672 1.384-.341 2.847-.053 4.1.628.575.315 1.123.787 1.227 1.415.105.734-.47 1.442-1.175 1.73-1.358.55-3.029.157-4.387.681-1.645.603-3.003 2.935-4.962 2.647-2.324-.315-2.194-2.961-2.35-4.795-.523-6.106-.94-12.211-1.41-18.291-.21-2.62-.47-5.424-2.142-7.468-1.671-2.043-5.249-2.672-6.79-.55-2.533 3.459 4.544 8.49 7.051 9.879 16.479 9.04 38.415-4.088 49.514-16.351 11.439-12.63 15.931-31.47 10.76-47.796.339 1.075-1.358 4.69-1.619 5.922a59.152 59.152 0 00-1.045 6.735 59.48 59.48 0 00.261 13.626c1.149 8.516 4.57 16.639 7.208 24.683 5.171 15.775 15.956 31.445 30.006 40.433 6.398 4.087 13.58 6.76 20.083 10.664 6.502 3.905 12.561 9.46 14.52 16.797 1.958 7.337-1.645 16.482-8.984 18.447-6.398 1.73-13.214-2.541-16.426-8.332-4.884-8.831-2.612-20.754 4.57-27.802 7.182-7.049 18.489-9.198 28.074-6.132 9.584 3.066 17.314 10.874 21.257 20.177" stroke="#292929" stroke-miterlimit="10" stroke-linecap="round" stroke-linejoin="round"/><path d="M78.377 116.996c6.503-.786 7.365-7.363 6.216-12.761-3.552-16.613-7.078-33.2-10.63-49.813-1.775-8.306-3.551-16.613-5.327-24.893-1.697-7.992-3.865-15.644-3.97-23.872-.025-1.834.288-4.088 2.011-4.769 2.011-.786 3.892 1.31 5.015 3.145 14.964 24.29 24.391 51.385 35.333 77.667-21.963-24.789-63.094-29.4-89.992-10.088 17-5.896 34.028-11.792 51.029-17.662 7.677-2.646 14.911-5.922 22.85-7.94a140.298 140.298 0 0125.097-4.008c.339-.027.679-.053 1.018-.053-7.834 7.494-17.653 12.473-27.342 17.268-9.689 4.796-19.56 9.643-27.578 16.954-8.017 7.285-14.05 17.53-13.762 28.379-.026-.787 5.014-3.564 5.771-4.062a108.636 108.636 0 016.45-3.93c4.153-2.333 8.462-4.088 12.666-6.368 9.532-5.162 19.038-10.298 28.57-15.46 4.57 3.25 3.212 11.294-1.671 14.045-4.884 2.751-11.36.917-15.408-2.961s-6.163-9.355-7.73-14.753c-3.578-12.315-5.014-25.181-9.062-37.34-4.048-12.158-11.412-24.028-23.007-29.4 21.257 26.23 49.331 46.826 80.669 59.22 2.768 1.1 5.981 2.673 6.294 5.634.418 4.035-4.805 6.027-8.853 6.131-9.663.289-19.404-2.122-27.813-6.944-1.932-1.1-3.995-2.751-3.865-4.952.13-2.122 2.272-3.485 4.153-4.428a132.288 132.288 0 0137.579-12.264c-.313 9.59-12.404 13.836-21.936 13.364-11.23-.576-22.042-4.088-32.984-6.682-10.942-2.594-22.511-4.271-33.323-1.179-10.811 3.092-20.604 12.08-21.57 23.295-.967 11.241 9.845 22.85 20.76 20.098 7.13-1.782 11.83-8.333 16.74-13.783 4.936-5.45 12.17-10.534 19.117-8.15 3.134 3.145 1.253 9.198-2.795 11.006-4.047 1.808-8.983.131-12.195-2.908-3.239-3.066-5.093-7.233-6.816-11.346-7.574-18.002-13.79-38.598-6.45-56.679 1.018-2.515 2.95-5.293 5.64-4.979 2.794.315 3.97 3.669 4.544 6.394 5.693 26.754 11.36 53.534 17.053 80.288.81 3.747 1.645 7.625 3.813 10.796 2.168 3.17 5.98 5.503 9.741 4.769 5.484-1.101 7.808-7.73 7.913-13.338.157-10.14-3.682-18.604-8.357-27.33A214.072 214.072 0 0076.001 44.91c1.175 1.625 5.301 2.961 7.05 4.036a122.146 122.146 0 017.574 5.004 143.843 143.843 0 0113.763 11.11c8.696 7.993 17.288 15.723 23.999 25.55-14.702-1.442-25.775-13.889-33.714-26.361-4.78-7.495-9.088-15.513-10.603-24.265-1.514-8.752.105-18.421 6.059-25.05 5.406-6.027 14.128-8.805 22.015-7.05 7.887 1.756 14.598 8.019 16.949 15.775 3.76 12.447-3.735 25.942-13.998 33.881-10.263 7.94-22.981 11.87-34.811 17.19a154.554 154.554 0 00-47.948 33.829c8.749 3.956 19.012 3.275 28.1.157 9.062-3.118 17.184-8.464 25.175-13.81 3.16-2.122 7.182-4.297 10.524-2.489 4.414 2.385 3.265 9.172.549 13.39-2.716 4.245-6.555 8.674-5.51 13.6 6.084 1.415 10.028-5.922 13.71-11.006 7.782-10.664 23.921-14.045 35.308-7.389-.81-5.267-1.698-10.691-4.545-15.198-2.846-4.507-8.2-7.835-13.37-6.656-6.19 1.442-8.827 7.94-11.047 13.233-2.847 6.813-7.574 13.049-13.293 17.688-5.536 4.48-12.561 5.948-19.612 6.97.757-.131 1.488-.262 2.246-.367" stroke="#292929" stroke-miterlimit="10" stroke-linecap="round" stroke-linejoin="round"/></svg>