<svg width="1126" height="786" fill="none" xmlns="http://www.w3.org/2000/svg"><g filter="url(#filter0_d)"><path d="M205.512 80.345c39.052-16.207 59.547-29.198 100-41.5 120.122-36.531 211.377-60.304 321.5 0 44.141 24.172 55.015 30.545 99 55 109.597 60.934 222.834-42.525 320.998 35.5 36.89 29.316 73.48 47.41 75 94.5 2.48 76.669-110.52 75.827-185.998 89.5-200.265 36.277-313.655-65.479-517-74-103.425-4.334-172.322-31.275-271 0-48.115 15.249-85.905 7.257-115 48.5-35.569 50.419-41.676 112.499 0 158 45.5 49.677 105.719 8.855 172.5 0 39.179-5.195 59.771-16.196 99-21 124.014-15.188 192.636 30.211 316 50 41.205 6.61 64.005 12.559 105.5 17 124.24 13.295 245.239-117.487 319.498-17 16.14 21.842 22.22 36.634 30.5 62.5 12.09 37.748 19.7 62.568 10 101-25.74 102.075-159.427 42.37-263.998 54.5-78.263 9.078-124.153-4.998-201.5 10-86.538 16.78-135.043 34.512-212 77.5" stroke="#87E29B" stroke-width="3.5" stroke-dasharray="16 16"/></g><defs><filter id="filter0_d" x=".323" y=".277" width="1125.48" height="785.596" filterUnits="userSpaceOnUse" color-interpolation-filters="sRGB"><feFlood flood-opacity="0" result="BackgroundImageFix"/><feColorMatrix in="SourceAlpha" values="0 0 0 0 0 0 0 0 0 0 0 0 0 0 0 0 0 0 127 0" result="hardAlpha"/><feOffset dy="2"/><feGaussianBlur stdDeviation="1"/><feColorMatrix values="0 0 0 0 0 0 0 0 0 0 0 0 0 0 0 0 0 0 0.04 0"/><feBlend in2="BackgroundImageFix" result="effect1_dropShadow"/><feBlend in="SourceGraphic" in2="effect1_dropShadow" result="shape"/></filter></defs></svg>