<svg width="145" height="56" fill="none" xmlns="http://www.w3.org/2000/svg"><rect width="145" height="56" rx="8" fill="#fff"/><g clip-path="url(#clip0)"><path d="M80.055 14.523h-15v26.955h15V14.523z" fill="#FF5F00"/><path d="M66.004 28a17.113 17.113 0 016.548-13.478 17.143 17.143 0 100 26.955A17.113 17.113 0 0166.004 28z" fill="#EB001B"/><path d="M100.291 28a17.143 17.143 0 01-27.736 13.477 17.145 17.145 0 000-26.955A17.142 17.142 0 01100.291 28zm-1.635 10.626v-.552h.222v-.112h-.567v.112h.223v.552h.122zm1.1 0v-.666h-.174l-.2.458-.2-.458h-.173v.666h.122v-.502l.188.433h.127l.187-.434v.503h.123z" fill="#F79E1B"/></g><defs><clipPath id="clip0"><path fill="#fff" transform="translate(44 10)" d="M0 0h56.571v36H0z"/></clipPath></defs></svg>