<svg width="145" height="56" fill="none" xmlns="http://www.w3.org/2000/svg"><rect width="145" height="56" rx="8" fill="#fff"/><g clip-path="url(#clip0)"><path d="M101.847 22.43l3.722-2.748H93.107v16.456h12.462V33.39h-8.901v-4.202h7.607v-2.747h-7.607V22.43h5.179zm-18.154 3.662h-4.316v-3.663h6.905l3.723-2.747h-14.19v16.456h7.42c4.153 0 6.554-1.886 6.554-5.171 0-3.151-2.158-4.875-6.096-4.875zm-.594 7.299h-3.722v-4.552h3.722c2.266 0 3.318.754 3.318 2.29 0 1.534-1.133 2.262-3.318 2.262zm32.559-13.709h-6.771v16.456h3.561v-4.66h3.237c4.316 0 7.014-2.262 7.014-5.898 0-3.636-2.698-5.898-7.041-5.898zm-.081 9.05h-3.156v-6.303h3.156c2.293 0 3.534 1.131 3.534 3.151 0 2.02-1.241 3.151-3.534 3.151zM69.72 32.583a6.44 6.44 0 01-3.076.781c-3.21 0-5.53-2.289-5.53-5.44 0-3.151 2.32-5.44 5.53-5.44 1.16-.027 2.293.35 3.237 1.023l2.563-1.885-.162-.162c-1.483-1.32-3.48-1.993-5.746-1.993-2.454 0-4.693.835-6.312 2.343a8.103 8.103 0 00-2.481 6.006 8.496 8.496 0 002.481 6.114c1.7 1.589 3.966 2.477 6.285 2.424 2.563 0 4.802-.89 6.313-2.505l-2.293-1.697-.81.431zM46.602 19.575a14.64 14.64 0 011.645 2.72l-12.462 9.184-5.234-3.286V24.26l5.207 3.259L46.6 19.575z" fill="#21A038"/><path d="M25.237 27.923c0-.188 0-.35.027-.538l-3.156-.162c0 .216-.027.458-.027.673a13.63 13.63 0 004.02 9.669l2.238-2.235a10.344 10.344 0 01-3.102-7.407z" fill="url(#paint0_linear)"/><path d="M35.758 17.42c.188 0 .35 0 .54.027l.161-3.151c-.216 0-.459-.027-.674-.027a13.672 13.672 0 00-9.684 4.013l2.239 2.235a10.423 10.423 0 017.418-3.097z" fill="url(#paint1_linear)"/><path d="M35.758 38.427c-.19 0-.351 0-.54-.027l-.162 3.15c.216 0 .459.028.675.028 3.776 0 7.202-1.535 9.684-4.013l-2.24-2.235c-1.888 1.939-4.504 3.097-7.417 3.097z" fill="url(#paint2_linear)"/><path d="M41.692 19.252l2.67-1.966a13.717 13.717 0 00-8.605-3.044v3.151c2.212.027 4.262.7 5.935 1.858z" fill="url(#paint3_linear)"/><path d="M49.461 27.924c0-.835-.08-1.643-.216-2.451l-2.94 2.181v.27c0 3.097-1.349 5.87-3.48 7.783l2.131 2.343a13.633 13.633 0 004.505-10.126z" fill="#21A038"/><path d="M35.757 38.427c-3.102 0-5.88-1.346-7.795-3.474l-2.347 2.128a13.621 13.621 0 0010.142 4.497v-3.15z" fill="url(#paint4_linear)"/><path d="M28.717 20.14l-2.131-2.343a13.58 13.58 0 00-4.505 10.126h3.156a10.47 10.47 0 013.48-7.783z" fill="url(#paint5_linear)"/></g><defs><linearGradient id="paint0_linear" x1="25.774" y1="37.182" x2="22.553" y2="27.886" gradientUnits="userSpaceOnUse"><stop offset=".144" stop-color="#F2E913"/><stop offset=".304" stop-color="#E7E518"/><stop offset=".582" stop-color="#CADB26"/><stop offset=".891" stop-color="#A3CD39"/></linearGradient><linearGradient id="paint1_linear" x1="27" y1="17.917" x2="35.185" y2="14.802" gradientUnits="userSpaceOnUse"><stop offset=".059" stop-color="#0FA8E0"/><stop offset=".538" stop-color="#0099F9"/><stop offset=".923" stop-color="#0291EB"/></linearGradient><linearGradient id="paint2_linear" x1="34.871" y1="38.89" x2="44.626" y2="36.689" gradientUnits="userSpaceOnUse"><stop offset=".123" stop-color="#A3CD39"/><stop offset=".285" stop-color="#86C339"/><stop offset=".869" stop-color="#21A038"/></linearGradient><linearGradient id="paint3_linear" x1="35.109" y1="16.258" x2="43.222" y2="18.757" gradientUnits="userSpaceOnUse"><stop offset=".057" stop-color="#0291EB"/><stop offset=".79" stop-color="#0C8ACB"/></linearGradient><linearGradient id="paint4_linear" x1="26.417" y1="37.593" x2="35.129" y2="40.842" gradientUnits="userSpaceOnUse"><stop offset=".132" stop-color="#F2E913"/><stop offset=".298" stop-color="#EBE716"/><stop offset=".531" stop-color="#D9E01F"/><stop offset=".802" stop-color="#BBD62D"/><stop offset=".983" stop-color="#A3CD39"/></linearGradient><linearGradient id="paint5_linear" x1="24.483" y1="28.304" x2="27.966" y2="19.257" gradientUnits="userSpaceOnUse"><stop offset=".07" stop-color="#A3CD39"/><stop offset=".26" stop-color="#81C55F"/><stop offset=".922" stop-color="#0FA8E0"/></linearGradient><clipPath id="clip0"><path fill="#fff" transform="translate(22 14)" d="M0 0h100.947v28H0z"/></clipPath></defs></svg>