<svg width="145" height="56" fill="none" xmlns="http://www.w3.org/2000/svg"><rect width="145" height="56" rx="8" fill="#fff"/><g clip-path="url(#clip0)"><path d="M61.872 25.852H58.26V23.63h9.855v2.227h-3.613v6.137h-2.63v-6.142zm7.172 6.12v-8.329h2.63v8.329h-2.63zm11.182-3.77V23.63h2.42v8.329h-2.244l-4.507-4.599v4.612h-2.42v-8.329h2.35l4.401 4.559zm6.799 3.77h-2.542v-8.329h2.542v3.139h.702l3.068-3.139h3.192l-4.069 3.998 4.226 4.348h-3.388l-3.034-3.156h-.701l.004 3.139z" fill="#222220"/><path d="M104.888 27.816c0 2.49-2.051 4.419-5.453 4.419s-5.47-1.929-5.47-4.419c0-2.49 2.05-4.418 5.47-4.418 3.419 0 5.453 1.928 5.453 4.418zm-2.665 0c0-1.368-1.105-2.367-2.788-2.367-1.683 0-2.788 1-2.788 2.367 0 1.368 1.087 2.385 2.788 2.385 1.701 0 2.788-1.017 2.788-2.385zm6.448-2.069v1.508h5.611v1.754h-5.611v2.963h-2.542v-8.329h8.364v2.122l-5.822-.018zm9.548 0v1.508h5.611v1.754h-5.611v2.963h-2.534v-8.329h8.364v2.122l-5.83-.018z" fill="#222220"/><path d="M55.985 26.808l.439-1.473-1.521.048a3.586 3.586 0 01-1.951-.67h.206a2.45 2.45 0 002.192-1.368l.653-1.451a11.777 11.777 0 01-1.574-.092 2.438 2.438 0 01-1.28-.776 2.424 2.424 0 00-1.753-.767 2.53 2.53 0 00-.767.122c.037-.117.066-.238.087-.36a3.257 3.257 0 00-.666-2.393l-1.14-1.415-.71 1.665a1.488 1.488 0 01-.5.588 3.09 3.09 0 00-.841-1.565 3.78 3.78 0 00-3.266-1.1l-1.368.267c.12-.464.31-.908.561-1.315l.754-1.206-1.924.206-.61-1.315-1.183.61L38.718 12l-1.082 1.078-1.188-.609-.61 1.284-1.915-.219.762 1.201a4.7 4.7 0 01.557 1.315l-1.315-.258h-.044a3.51 3.51 0 00-.552-.04 3.774 3.774 0 00-2.731 1.14c-.43.428-.723.972-.846 1.565a1.469 1.469 0 01-.495-.574l-.71-1.67-1.162 1.424a3.28 3.28 0 00-.653 2.385c.021.122.05.242.087.36a2.499 2.499 0 00-.767-.123 2.43 2.43 0 00-1.753.767 2.472 2.472 0 01-1.267.776 8.934 8.934 0 01-1.587.092l.653 1.45a2.454 2.454 0 002.192 1.368h.206a3.586 3.586 0 01-1.95.684L21 25.348l.469 1.473a3.043 3.043 0 002.538 2.152 2.432 2.432 0 01-1.315 1.793l-1.153.474.631 1.095a2.792 2.792 0 002.376 1.285c.25 0 .5-.027.745-.08a8.3 8.3 0 00.21.816c.218.576.233 1.208.045 1.793l-.57 1.192 1.271.334c.287.072.581.109.877.11.214-.003.428-.031.636-.084a2.92 2.92 0 00.438-.136c.163.294.363.565.596.806.815.838 1.973 1.263 3.432 1.263h1.044l-2.157.877 1.64.793a21.65 21.65 0 002.02.877l-.206.56.566.26c.938.37 1.933.578 2.941.613h1.345a8.845 8.845 0 002.925-.61l.565-.258-.206-.56a22.04 22.04 0 002.043-.908l1.608-.78-2.152-.877h1.048c1.464 0 2.63-.439 3.437-1.263.233-.241.433-.512.596-.806.142.056.289.102.438.136.204.047.413.07.623.07.295 0 .59-.038.876-.11l1.28-.337-.556-1.17a2.7 2.7 0 01.035-1.82c.087-.267.166-.54.228-.806.246.051.497.078.75.078a2.775 2.775 0 002.38-1.315l.622-1.082-1.153-.474a2.425 2.425 0 01-1.315-1.793 3.068 3.068 0 002.538-2.152l-.044.03z" fill="#fff"/><path d="M38.718 16.506c-1.223 0-2.139.404-2.336.877l2.336.92 2.341-.924c-.197-.474-1.113-.877-2.34-.877m.031 24.429h-.032a9.57 9.57 0 01-2.253-.289l-.605 1.604c1.873.54 3.861.54 5.734 0l-.592-1.6a9.598 9.598 0 01-2.253.29m4.475-1.591c-.641.32-1.308.587-1.994.797l.478 1.316a11.923 11.923 0 002.218-.825l-.995-.328.294-.96zm-8.994 0l.293.96-.995.328c.71.347 1.45.623 2.214.825l.482-1.316a13.016 13.016 0 01-1.994-.797zm4.488-24.368a5.29 5.29 0 012.52.61c.075-.253.166-.5.273-.742l-.264.03-.276.032-.118-.25-.35-.741-.64.333-.25.127-.19-.184-.705-.706-.688.706-.189.18-.25-.127-.644-.333-.346.74-.118.25-.277-.03-.263-.031c.106.241.197.488.272.74a5.3 5.3 0 012.503-.604zm14.08 8.583c.117.04.24.061.364.06a1.372 1.372 0 001.197-.723 3.375 3.375 0 01-1.986-1.1 1.317 1.317 0 00-.969-.438c-.286.005-.566.09-.806.245 1.24.662 1.495 1.723 2.191 1.96m-28.493.056c.123.001.244-.02.36-.06.71-.237.964-1.316 2.192-1.96a1.54 1.54 0 00-.807-.245 1.315 1.315 0 00-.973.438 3.375 3.375 0 01-1.982 1.1 1.373 1.373 0 001.197.723" fill="#fff"/><path d="M53.131 27.869h.053c1.315 0 1.754-1.394 1.754-1.394h-.027a4.712 4.712 0 01-3.542-1.793c-.898-1.144-1.64-2.148-3.094-2.543l-.145-.026-.03-.145c-.04-.223.113-.438.438-.657 2.012-1.315.644-2.994.644-2.994s-.574 1.341-1.859 1.341h-.096a2.71 2.71 0 01-.439-.044l-.236-.044a1.911 1.911 0 00-.517-1.91 2.674 2.674 0 00-1.942-.807 2.122 2.122 0 00-.386.03c.438.579.767 1.543.254 2.14-.438.512-1.526.534-1.526 1.315 0 .324.303.697.842 1.034 1.627 1.026 3.24 2.385 3.915 4.204.837 2.27-.105 3.779-1.456 4.647a1.9 1.9 0 001.035.438h.36a3.069 3.069 0 001.963-.61 3.419 3.419 0 01-.732 1.623 3.349 3.349 0 01-2.683 1.161 1.437 1.437 0 00.491 1.083c.35.235.749.385 1.166.438 0 0-1.525.311-1.696 2.565a3.449 3.449 0 01-.403 1.644h.026c3.542 0 3.45-3.038 3.45-3.038a1.718 1.718 0 001.604 1.179c.201-.002.401-.027.596-.075a3.72 3.72 0 010-2.63c.25-.703.37-1.446.355-2.192a1.99 1.99 0 001.662.728 1.662 1.662 0 001.416-.745c-2.363-.982-2.126-4.143-2.126-4.143a1.7 1.7 0 00.903.25l.008-.03zm-.718 3.335c-.96-.473-1.57-1.731-1.714-2.191-.145 2.472-1.368 4.2-2.775 5.865a5.331 5.331 0 00-.995 1.7c.116-.628.384-1.22.78-1.722 1.315-1.596 2.59-3.581 2.683-5.874a6.978 6.978 0 00-.991-3.971 3.572 3.572 0 01-.912 3.756s2.416-2.915-1.004-5.9c-1.358-1.135-2.849-1.837-3.616-2.337 2.766.903 4.12-.092 4.12-.092a3.362 3.362 0 01-2.695.645c.193.092.394.193.609.307 2.332 1.267 4.432 3.353 4.787 6.242v-.022c.543 2.836 1.753 3.564 1.753 3.564m-22.33 3.156c.41-.048.805-.189 1.153-.412a1.437 1.437 0 00.513-1.078 3.358 3.358 0 01-2.687-1.162 3.442 3.442 0 01-.78-1.618c.564.425 1.258.64 1.963.61h.364a1.908 1.908 0 001.04-.439c-1.35-.876-2.298-2.371-1.46-4.646.67-1.82 2.288-3.183 3.914-4.204.54-.338.842-.715.842-1.035 0-.762-1.083-.784-1.526-1.315-.513-.596-.193-1.556.25-2.139a2.112 2.112 0 00-.386-.03 2.672 2.672 0 00-1.942.806 1.906 1.906 0 00-.517 1.911l-.237.049c-.144.026-.29.04-.438.043h-.092c-1.289 0-1.859-1.341-1.859-1.341s-1.345 1.666.667 2.985c.346.224.5.438.438.658l-.03.144-.145.027c-1.456.394-2.192 1.398-3.095 2.542a4.707 4.707 0 01-3.52 1.78h-.044s.438 1.394 1.753 1.394h.062a1.7 1.7 0 00.903-.25s.232 3.16-2.13 4.142a1.667 1.667 0 001.415.746 1.99 1.99 0 001.662-.728 6.211 6.211 0 00.355 2.192 3.73 3.73 0 010 2.63c.193.048.392.073.591.074.125.002.248-.013.369-.043a1.718 1.718 0 001.236-1.136s-.092 3.038 3.45 3.038h.026a3.47 3.47 0 01-.399-1.644c-.166-2.253-1.696-2.564-1.696-2.564l.017.013zm-.587.535c-1.42-1.666-2.63-3.393-2.801-5.887-.15.438-.754 1.71-1.714 2.191 0 0 1.205-.727 1.753-3.563v.021c.36-2.888 2.455-4.975 4.791-6.242.215-.118.417-.215.61-.307a3.364 3.364 0 01-2.736-.644s1.35.995 4.121.092c-.754.504-2.24 1.206-3.599 2.341-3.402 2.985-.969 5.9-.969 5.9a3.573 3.573 0 01-.912-3.756 6.957 6.957 0 00-.99 3.971c.092 2.297 1.354 4.278 2.678 5.874a3.94 3.94 0 01.785 1.723 5.385 5.385 0 00-1-1.701m6.545-11.656c.057.061.114.132.171.197l.04.049.153.21.035.048c.057.088.114.184.171.276a2.582 2.582 0 002.06 1.416 2.582 2.582 0 002.056-1.411c.057-.097.114-.193.176-.28l.026-.04c.053-.075.105-.15.158-.22l.035-.043c.057-.07.114-.14.175-.202l.027-.026c.266-.28.604-.482.977-.583l-.175-.092-.72-.439-.736-.438-1.998 1.096-1.973-1.074-.736.438-.72.439-.184.105c.37.09.71.277.982.543l.031.031h-.03zm1.85-.088h1.657v.575a.706.706 0 00-.578-.193v.824c-.002.204.046.406.14.587h-.807c.1-.178.155-.378.158-.583v-.824a.705.705 0 00-.579.193l.01-.579z" fill="#fff"/><path d="M38.556 22.025v-3.353l-2.135-.724.544 3.257 1.591.82zm-.438-2.53v.54l-.105-.048a1.349 1.349 0 01-.439-.25.972.972 0 01-.438-.653l.982.412zm2.354 1.71l.56-3.248-2.134.723v3.354l1.574-.829zm-1.114-1.71l.969-.407a.972.972 0 01-.438.653c-.129.11-.278.196-.439.25l-.1.048.008-.543zm-3.822 10.307c.19.061.388.093.587.092v-.061c.013-.04.023-.079.031-.119a3.25 3.25 0 00.053-.53.745.745 0 01-.28-.298.373.373 0 00-.36-.246 1.162 1.162 0 00-.544.189.951.951 0 00.491.968m4.743-1.775c-.394.438-1.175 1.184-1.21 1.219l-.048.048-2.45-.04a2.525 2.525 0 01-.08.6v.08l2.916.526c.302-.21 1.14-.824 1.464-1.061a1.42 1.42 0 01-.206-1.039 1.462 1.462 0 01-.368-.329" fill="#fff"/><path d="M40.59 25.072a2.503 2.503 0 01-1.872.833 2.592 2.592 0 01-.267 0 1.964 1.964 0 01-.263-.04c-.047.2-.03.41.048.6a1.012 1.012 0 00.614.51l.1.039v.11a1.022 1.022 0 00.803.942c.127-.132.24-.25.328-.346a.807.807 0 01.154-.943 1.314 1.314 0 00.64 1.315l.123.057-.035.131a1.035 1.035 0 00.644 1.285l.162.061-.07.158a1.012 1.012 0 00.469 1.315h1.81v-1.446a1.153 1.153 0 01-.99-.97 1.052 1.052 0 01-.693-.394.878.878 0 01-.044-.947c.004.294.111.576.303.798.157.164.37.266.596.285h.131v.136a.877.877 0 00.697.807v-2.955c.018-.46.117-.915.294-1.341H40.59zm-4.896 1.354l-.053 1.88.215.031.522-1.801-.264-.557-.42.447zm5.76 8.623h.053c.324.092.407 1.262.977 1.368a.743.743 0 00.154 0 .438.438 0 00.368-.198s-.285-.438-.5-.754c-.285-.399-.504-.876-1.039-.876h-.04a.535.535 0 00-.28.092 1.1 1.1 0 00-.596-.18c-.244.03-.484.081-.719.153l-1.184-.118a.627.627 0 01-.385-.276v-.127a1.398 1.398 0 00-1.057-1.39s.03-.184-.04-.254l-.262.316-.877-.439.614.715-.553.613a.162.162 0 00-.03.193l.223.198.285-.171a.133.133 0 01.07 0h.303c.105 0 .215-.027.228-.132-.035.36-.369.982-.15 1.473l.163.373-1.048-.15-.482.829a.666.666 0 000 .736l.184.228a1.71 1.71 0 00.316-.438l-.084-.092a.175.175 0 01-.021-.228l.306-.508 1.237.289.065-.11a.36.36 0 01.338-.18 1.15 1.15 0 01.166 0c.325.066.655.101.987.106a1.414 1.414 0 001.043-.32c.438.666 1.355.771 1.284 1.109l-.24 1.135c.157 0 .31 0 .438-.035l.228-1.184c.026-.127.048-.302.048-.302a2.192 2.192 0 01-.438-.504c-.163-.307-.075-.47-.224-.877a.176.176 0 01.149-.092l.022.009zm-4.651-1.675a.104.104 0 01-.096-.072.105.105 0 01-.005-.041.106.106 0 01.072-.096.105.105 0 01.042-.005.107.107 0 010 .214" fill="#fff"/><path d="M35.137 36.11s.412-.172.438-.29l-.052-.136a.184.184 0 01.04-.236L36 35.14l.74.14a.626.626 0 01-.122-.39l-.706-.15-.666.404a.644.644 0 00-.21.767l.1.197zm5.23 1.942h.438s.381-1.114.403-1.149a9.307 9.307 0 01-.828-.438c.114.17.386.36.333.508l-.346 1.079z" fill="#fff"/><path d="M43.979 31.454H33.458V35.4c0 1.618 1.17 2.63 2.898 2.63 1.442 0 1.823.057 2.362.588a1.755 1.755 0 011.315-.557V38l.347-1.013-.561-.64a2.029 2.029 0 01-.697.083c-.35-.004-.7-.04-1.044-.11a.478.478 0 00-.11 0c-.048 0-.048 0-.06.027l-.066.11-.119.197-.228-.053-1.008-.236-.14.228v.026l.122.136-.052.175a1.82 1.82 0 01-.39.574l-.255.272-.227-.29-.171-.214a.876.876 0 01-.123-.842l-.285.119-.127-.276-.088-.198a.96.96 0 01.32-1.161l.811-.439.772.154c0-.075.048-.338.07-.408h-.044l-.438.167-.439-.298a.226.226 0 01-.05-.25.227.227 0 01.05-.075l.417-.631-1.057-1.315 1.622.666.11-.131.219-.263.25.236a.48.48 0 01.131.233c.439.175 1.245.688 1.315 1.52l-.25.102a.309.309 0 00.119.096l1.157.114.105-.03a1.87 1.87 0 01.614-.119c.21.002.416.05.605.14a.912.912 0 01.259-.052h.056a1.428 1.428 0 011.175.833l.128.184c.214.307.5.75.508.771l.127.197-.158.18a.771.771 0 01-.609.303c-.07.006-.14.006-.21 0a.916.916 0 01-.21-.119c0 .062 0 .136-.036.198l-.202 1.056a2.472 2.472 0 001.99-2.525v-3.954zm-10.521-.32h8.193a1.315 1.315 0 01-.298-1.315 1.366 1.366 0 01-.307-.201c-.32.236-1.315.946-1.552 1.126l-.052.035-3.209-.578h-.066a2.648 2.648 0 01-.31 0 .311.311 0 01-.303.245H35.5a.32.32 0 01-.263-.364v-.07a1.284 1.284 0 01-.5-1.315l.035-.04.049-.035s.06-.043.144-.087l-.232-.035a.163.163 0 01-.11-.243.157.157 0 01.162-.073l.557.088.053-1.955.828-.877.518 1.087-.566 1.863.491.079a.162.162 0 01.132.184.158.158 0 01-.158.132h-.027l-.398-.066v.03a.44.44 0 00.192.18l2.446.04.627-.618a1.316 1.316 0 01-.876-1.092 1.284 1.284 0 01-.697-.636 1.315 1.315 0 01-.057-.876 2.858 2.858 0 01-1.022-.684h-3.651c.172.43.267.887.28 1.35v4.721z" fill="#FCE527"/><path d="M36.838 33.168a.105.105 0 00-.114.101.105.105 0 00.1.114.108.108 0 00.077-.183.108.108 0 00-.076-.032m7.153 7.176l-.605-.232.167-.627.184-.684c-.827.424-1.693.766-2.586 1.022-.438.122-.754.18-.754.18v.464c-.538.087-1.082.134-1.626.14h-.04a10.861 10.861 0 01-1.626-.14v-.465s-.325-.057-.754-.18a14.276 14.276 0 01-2.586-1.02l.18.683.17.627-.61.232-.674.25c.907.478 1.855.875 2.832 1.188l-.233.631a8.715 8.715 0 003.301.57h.026a8.71 8.71 0 003.314-.57l-.232-.63a17.503 17.503 0 002.823-1.184l-.67-.255zm-10.446.294l.996-.329-.294-.96c.642.32 1.309.588 1.994.798l-.482 1.315a12.056 12.056 0 01-2.214-.824zm5.186 2.016a11.057 11.057 0 01-2.858-.407l.592-1.6c.741.185 1.502.28 2.266.285h.048a9.619 9.619 0 002.254-.29l.574 1.605a11.03 11.03 0 01-2.867.403l-.009.004zm2.99-1.192l-.483-1.315c.686-.21 1.353-.477 1.995-.798l-.294.96.995.329a11.99 11.99 0 01-2.218.824m-2.985-26.095a4.546 4.546 0 012.775.841c.132-.65.38-1.27.732-1.832l-.995.114-.535-1.105-1 .513-.977-.956-.964.956-.995-.513-.517 1.105-.995-.114a5.48 5.48 0 01.714 1.832 4.554 4.554 0 012.757-.841zm-2.52-.492l.276.031.118-.25.347-.74.644.333.25.127.197-.184.688-.706.706.706.197.197.25-.127.64-.333.35.74.12.25.275-.03.264-.031c-.107.24-.198.488-.272.74a5.523 5.523 0 00-5.037 0 6.413 6.413 0 00-.272-.74l.259.018zm16.986 13.423c1.596 0 2.13-1.622 2.152-1.692l.18-.57h-.596a4.278 4.278 0 01-3.218-1.63l-.118-.15c-.815-1.034-1.587-2.02-2.972-2.472a1.4 1.4 0 01.175-.131 2.6 2.6 0 001.267-1.754 2.59 2.59 0 00-.526-1.872l-.438-.548-.29.658c0 .04-.486 1.083-1.468 1.083h-.267a2.367 2.367 0 00-.702-1.859 3.112 3.112 0 00-2.249-.934 2.98 2.98 0 00-.469.035l-.67.132.412.543c.324.439.618 1.197.271 1.6a1.884 1.884 0 01-.56.338c-.439.206-1.07.5-1.07 1.236 0 .478.372.978 1.043 1.398 1.986 1.25 3.209 2.552 3.74 3.99.819 2.191-.25 3.476-1.29 4.138l-.464.298.407.372c.364.31.814.501 1.29.548h.398a4.07 4.07 0 001.201-.175 2.934 2.934 0 01-2.709 1.495h-.39l-.03.39a1.846 1.846 0 00.653 1.42c.109.096.231.176.363.237a3.41 3.41 0 00-1.03 2.398 3.305 3.305 0 01-.315 1.481l-.439.658h.78c1.286 0 2.271-.352 2.955-1.057.355-.373.62-.823.772-1.315a2.092 2.092 0 001.345.491c.237 0 .472-.028.702-.083l.495-.131-.22-.465a3.305 3.305 0 010-2.297c.164-.484.277-.984.338-1.49.395.2.833.303 1.276.298a2.109 2.109 0 001.797-.956l.241-.438-.438-.184c-1.468-.61-1.793-2.245-1.854-3.13.144.029.29.046.438.052l.101.044zm1.162 3.463a1.661 1.661 0 01-1.416.745 1.995 1.995 0 01-1.662-.727 6.204 6.204 0 01-.36 2.191 3.722 3.722 0 000 2.63 2.55 2.55 0 01-.595.075 1.718 1.718 0 01-1.604-1.18s.091 3.039-3.45 3.039h-.027a3.454 3.454 0 00.404-1.644c.166-2.253 1.692-2.565 1.692-2.565a2.71 2.71 0 01-1.158-.407 1.438 1.438 0 01-.513-1.079 3.343 3.343 0 002.705-1.166c.401-.46.672-1.018.785-1.617a3.043 3.043 0 01-1.964.61h-.36a1.903 1.903 0 01-1.034-.44c1.35-.876 2.292-2.37 1.455-4.646-.67-1.819-2.288-3.182-3.914-4.204-.54-.337-.842-.714-.842-1.034 0-.763 1.083-.785 1.526-1.315.512-.596.192-1.556-.255-2.14.128-.021.257-.032.386-.03a2.676 2.676 0 011.942.806 1.912 1.912 0 01.517 1.912l.237.048c.145.026.291.04.438.044h.097c1.284 0 1.858-1.342 1.858-1.342s1.364 1.68-.644 2.994c-.346.224-.5.439-.438.658l.03.145.145.026c1.455.394 2.192 1.398 3.095 2.542a4.713 4.713 0 003.49 1.776h.025s-.438 1.394-1.753 1.394h-.061a1.7 1.7 0 01-.903-.25s-.233 3.16 2.126 4.142" fill="#222220"/><path d="M50.392 21.977c.49.28.914.66 1.244 1.118.25.386.606.691 1.026.876.16.054.327.08.496.08a1.789 1.789 0 001.586-.974l.255-.565-.618-.035a2.95 2.95 0 01-1.706-.974 1.751 1.751 0 00-1.275-.565 2.003 2.003 0 00-1.052.32l-.566.399.61.32zm1.008-.623a1.314 1.314 0 01.968.439 3.376 3.376 0 001.986 1.1 1.377 1.377 0 01-1.196.723 1.1 1.1 0 01-.364-.061c-.706-.237-.96-1.315-2.192-1.96.24-.155.52-.24.806-.245m-.736 6.26c-.359-2.889-2.454-4.975-4.786-6.242a15.886 15.886 0 00-.61-.307 3.366 3.366 0 002.74-.645s-1.35.996-4.12.093c.767.495 2.253 1.196 3.616 2.336 3.397 2.985.969 5.9.969 5.9a3.573 3.573 0 00.911-3.756 6.983 6.983 0 01.991 3.971c-.092 2.297-1.354 4.278-2.683 5.874a3.945 3.945 0 00-.78 1.723 5.328 5.328 0 011.004-1.68c1.42-1.665 2.63-3.392 2.797-5.886.149.438.754 1.71 1.714 2.192 0 0-1.21-.728-1.754-3.564m-18.1 10.682a3.406 3.406 0 01-.329-1.433 3.41 3.41 0 00-1.03-2.398c.133-.06.255-.14.364-.236a1.837 1.837 0 00.653-1.42l-.026-.39h-.395a2.933 2.933 0 01-2.367-1.018 3.194 3.194 0 01-.377-.495c.388.117.792.176 1.197.175h.399a2.35 2.35 0 001.289-.552l.408-.373-.465-.298c-1.04-.666-2.104-1.929-1.289-4.138.53-1.438 1.754-2.74 3.74-3.99.67-.437 1.038-.924 1.038-1.397 0-.737-.614-1.026-1.065-1.237a1.873 1.873 0 01-.561-.337c-.35-.403-.057-1.18.267-1.6l.417-.544-.675-.131a2.95 2.95 0 00-.465-.035 3.11 3.11 0 00-2.249.933 2.371 2.371 0 00-.67 1.837h-.263c-.987 0-1.451-1.043-1.469-1.083l-.276-.653-.439.548a2.604 2.604 0 00-.521 1.872 2.595 2.595 0 001.267 1.753c.062.04.12.083.175.132-1.385.438-2.157 1.438-2.972 2.472l-.118.15a4.279 4.279 0 01-3.222 1.63l-.623-.018.184.57c0 .07.553 1.692 2.148 1.692h.08a2.81 2.81 0 00.438-.052c-.066.877-.39 2.52-1.86 3.13l-.438.184.242.438a2.11 2.11 0 001.801.96 2.74 2.74 0 001.271-.298 7.52 7.52 0 00.338 1.49 3.305 3.305 0 010 2.297l-.22.465.5.132c.23.054.466.082.702.083a2.081 2.081 0 001.346-.49c.15.49.413.94.767 1.314.684.704 1.668 1.056 2.954 1.056h.78l-.38-.697zm-.377.241c-3.542 0-3.45-3.037-3.45-3.037a1.72 1.72 0 01-1.236 1.135 1.47 1.47 0 01-.368.044 2.54 2.54 0 01-.592-.075 3.73 3.73 0 000-2.63 6.21 6.21 0 01-.355-2.192 1.99 1.99 0 01-1.661.728 1.665 1.665 0 01-1.416-.745c2.358-.982 2.13-4.143 2.13-4.143a1.7 1.7 0 01-.903.25h-.1c-1.316 0-1.754-1.394-1.754-1.394h.026a4.709 4.709 0 003.538-1.793c.899-1.144 1.64-2.148 3.095-2.542l.144-.026.031-.145c.04-.224-.114-.438-.438-.657-2.008-1.316-.645-2.994-.645-2.994s.57 1.34 1.859 1.34h.092c.147-.002.294-.017.438-.043l.237-.048a1.907 1.907 0 01.517-1.911 2.674 2.674 0 011.942-.807c.13-.002.259.009.386.03-.438.58-.763 1.544-.25 2.14.439.513 1.526.535 1.526 1.315 0 .324-.303.697-.842 1.035-1.626 1.025-3.24 2.384-3.915 4.203-.837 2.271.11 3.779 1.46 4.647-.294.247-.656.4-1.039.438h-.364a3.042 3.042 0 01-1.963-.61 3.44 3.44 0 00.78 1.619 3.357 3.357 0 002.687 1.161 1.438 1.438 0 01-.535 1.083 2.71 2.71 0 01-1.17.438s1.525.311 1.696 2.565a3.473 3.473 0 00.4 1.643l.012-.022z" fill="#222220"/><path d="M24.296 24.041c.169.002.336-.025.495-.078a2.34 2.34 0 001.026-.877c.33-.457.755-.839 1.245-1.118l.614-.329-.57-.399a1.999 1.999 0 00-1.052-.32 1.752 1.752 0 00-1.276.566 2.95 2.95 0 01-1.705.973l-.618.061.254.566a1.789 1.789 0 001.587.969v-.014zm.785-2.235a1.318 1.318 0 01.973-.439c.293-.002.58.078.829.233-1.241.662-1.495 1.723-2.192 1.96-.116.04-.237.061-.36.06a1.372 1.372 0 01-1.197-.723 3.375 3.375 0 001.982-1.1m1.964 7.185a6.957 6.957 0 01.99-3.971 3.573 3.573 0 00.912 3.756s-2.433-2.915.969-5.9c1.359-1.135 2.845-1.837 3.612-2.337-2.766.903-4.12-.091-4.12-.091a3.363 3.363 0 002.735.644 15.91 15.91 0 00-.61.307c-2.336 1.267-4.431 3.353-4.79 6.242v-.022c-.544 2.836-1.754 3.564-1.754 3.564.96-.474 1.565-1.732 1.714-2.192.162 2.494 1.376 4.221 2.801 5.887.435.5.774 1.077 1 1.701a3.945 3.945 0 00-.785-1.723c-1.315-1.595-2.587-3.581-2.679-5.874m10.855-5.834v.574a.706.706 0 01.578-.193v.824a1.227 1.227 0 01-.158.583h.807a1.249 1.249 0 01-.158-.583v-.824a.708.708 0 01.578.193v-.574H37.93zm-.356-3.398c.129.111.278.196.439.25l.105.049v-.544l-.97-.408a.973.973 0 00.44.653m2.292 0a.967.967 0 00.438-.653l-.968.408v.54l.1-.049c.162-.054.31-.138.439-.25" fill="#222220"/><path d="M41.629 17.545c0-.82-1.376-1.556-2.898-1.556-1.52 0-2.897.737-2.897 1.556l.03.202.61 3.507-.61.355-1.59.912s-.356.184-.522.293c-.6.439-.728 1.026-.382 1.276a1.188 1.188 0 011.215-1.017 1.579 1.579 0 011.258.684c.085.106.165.217.236.333.093.15.184.28.272.408h-4.05c.341.589.54 1.249.583 1.928v8.982c0 2.192 1.674 3.218 3.507 3.218 1.398 0 1.587-.066 2.362.706.767-.772.956-.706 2.359-.706 1.81 0 3.485-1.039 3.485-3.218v-8.995c.042-.68.241-1.34.583-1.928h-4.09a5.16 5.16 0 00.272-.408c.072-.115.151-.227.236-.333a1.582 1.582 0 011.258-.684 1.192 1.192 0 011.215 1.017c.35-.25.223-.877-.382-1.276-.149-.114-.513-.28-.513-.28l-1.578-.92-.609-.356.61-3.507.03-.193zm-5.208.404l2.135.723v3.353l-1.591-.82-.544-3.256zm.439 7.123c.286.3.635.533 1.021.684-.082.29-.062.6.057.877.143.292.392.52.697.635a1.315 1.315 0 00.877 1.092l-.64.605-2.446-.04a.439.439 0 01-.193-.18v-.03l.399.066h.026a.158.158 0 00.158-.132.162.162 0 00-.132-.184l-.49-.079.543-1.88-.517-1.088-.829.877-.052 1.955-.566-.088a.157.157 0 00-.184.132.162.162 0 00.132.184l.232.035a.927.927 0 00-.145.092l-.035.053v.057a1.285 1.285 0 00.5 1.315v.07a.32.32 0 00.263.364h.053a.311.311 0 00.302-.246c.104.006.208.006.311 0h.066l3.209.579.052-.035c.254-.18 1.232-.877 1.552-1.127.093.081.196.149.307.202a1.315 1.315 0 00.298 1.315h-8.228v-4.739a3.918 3.918 0 00-.294-1.341h3.696zm3.945 4.318c-.325.24-1.162.85-1.464 1.06l-2.915-.525v-.08c.05-.196.076-.397.079-.6l2.45.04.048-.049c.035-.035.816-.789 1.21-1.218.103.13.228.24.368.328-.068.36.006.733.206 1.04l.018.004zm-4.857-.504a.745.745 0 00.28.298 3.408 3.408 0 01-.052.53c0 .04 0 .08-.03.119v.06c-.2.002-.399-.03-.588-.091a.952.952 0 01-.491-.969c.157-.1.336-.16.522-.175a.368.368 0 01.355.245l.004-.017zm-.298-.583l.048-1.88.438-.44.263.553-.521 1.802-.228-.035zm5.155 9.74h-.438l.346-1.056c.052-.15-.22-.342-.333-.513.268.16.545.306.828.438 0 .035-.403 1.148-.403 1.148v-.017zm1.091-1.21l-.227 1.184c-.145 0-.299.03-.439.035l.241-1.136c.07-.337-.837-.438-1.284-1.109a1.407 1.407 0 01-1.043.32 5.34 5.34 0 01-.987-.105 1.053 1.053 0 00-.166 0 .36.36 0 00-.338.18l-.066.11-1.236-.29-.307.509a.18.18 0 00.022.228l.084.092c-.082.161-.188.31-.316.438l-.184-.245a.666.666 0 010-.737l.49-.828 1.048.149-.162-.373c-.219-.491.114-1.113.15-1.473 0 .11-.115.132-.229.132h-.302a.128.128 0 00-.07 0l-.285.17-.202-.197a.162.162 0 01.03-.193l.518-.583-.614-.714.877.438.263-.315c.07.07.04.254.04.254a1.399 1.399 0 011.056 1.39v.126c.087.14.226.239.386.277l1.183.118c.235-.072.476-.123.72-.153.211 0 .418.063.595.18a.53.53 0 01.281-.093h.04c.53 0 .753.483 1.038.877.215.303.5.754.5.754a.44.44 0 01-.368.197.756.756 0 01-.154 0c-.57-.105-.653-1.275-.977-1.367h-.053a.176.176 0 00-.149.092c.15.399.062.56.224.876.12.19.267.36.438.505 0 0-.022.17-.048.302l-.018-.022zm-6.369-1.135l.053.136c-.035.118-.439.289-.439.289l-.087-.193a.644.644 0 01.21-.767l.666-.403.706.149c-.004.14.04.277.123.39l-.741-.14-.438.306a.184.184 0 00-.04.237l-.013-.004zm6.492 2.24l.206-1.061c0-.061.022-.136.03-.197.06.025.122.044.185.057.07.006.14.006.21 0a.772.772 0 00.61-.303l.157-.18-.127-.197s-.293-.465-.508-.771l-.123-.184a1.43 1.43 0 00-1.175-.833h-.057a.898.898 0 00-.258.052 1.411 1.411 0 00-.605-.14c-.21.005-.417.045-.614.118l-.105.031-1.157-.114a.31.31 0 01-.119-.1l.25-.102c-.07-.832-.877-1.345-1.315-1.52a.474.474 0 00-.131-.237l-.25-.237-.22.263-.11.131-1.621-.666 1.052 1.315-.416.631a.228.228 0 000 .325l.438.298.438-.167h.044c0 .066-.048.334-.07.408l-.772-.153-.81.438a.96.96 0 00-.303 1.219l.092.197.127.276.285-.118a.877.877 0 00.123.841l.17.215.229.29.254-.272c.166-.165.299-.36.39-.575l.053-.175-.123-.136v-.026l.14-.228 1.009.237.227.052.123-.201.066-.11c0-.022 0-.026.061-.026h.11c.344.068.693.105 1.043.11.236.012.471-.016.697-.084l.53.657-.346 1.022v.061a1.753 1.753 0 00-1.315.557c-.539-.535-.916-.587-2.362-.587-1.727 0-2.898-1.013-2.898-2.63v-3.946h10.52v3.945a2.472 2.472 0 01-1.98 2.525l.021.005zm2.253-12.866c-.177.426-.276.88-.293 1.341v2.95a.877.877 0 01-.693-.797v-.136h-.132a.938.938 0 01-.596-.285 1.249 1.249 0 01-.306-.802.876.876 0 00.048.986c.17.217.419.359.692.395a1.153 1.153 0 00.987.968v1.447h-1.81a1.012 1.012 0 01-.47-1.315l.07-.158-.162-.061a1.035 1.035 0 01-.644-1.285l.035-.131-.123-.057a1.315 1.315 0 01-.64-1.315.806.806 0 00-.153.942c-.088.097-.202.22-.33.346a1.02 1.02 0 01-.801-.946v-.123l-.101-.04a1.017 1.017 0 01-.614-.53.995.995 0 01-.044-.64 1.882 1.882 0 00.53.04 2.503 2.503 0 001.86-.834l3.69.04zm-2.827-2.99l.719.439.18.105a2.12 2.12 0 00-.978.583l-.017.013a3.838 3.838 0 00-.176.202l-.035.044c-.055.07-.108.143-.158.219l-.026.04a4.182 4.182 0 00-.175.28 2.582 2.582 0 01-2.06 1.411 2.582 2.582 0 01-2.052-1.411 7.826 7.826 0 00-.171-.276l-.035-.049-.154-.21-.04-.048a3.942 3.942 0 00-.17-.197l-.009-.036a2.118 2.118 0 00-.977-.578l.184-.105.719-.439.736-.438 1.968 1.109 1.973-1.074.754.416zm-.973-.876l-1.574.828v-3.362l2.135-.723-.561 3.257zm-1.754-2.893l-2.336-.925c.197-.47 1.118-.877 2.336-.877 1.219 0 2.14.403 2.341.877l-2.34.924z" fill="#222220"/></g><defs><clipPath id="clip0"><path fill="#fff" transform="translate(21 12)" d="M0 0h103.452v32H0z"/></clipPath></defs></svg>