<svg width="145" height="56" fill="none" xmlns="http://www.w3.org/2000/svg"><rect width="145" height="56" rx="8" fill="#fff"/><g clip-path="url(#clip0)"><path d="M61.222 40.223l4.325-24.311h6.758l-4.19 24.311h-6.893z" fill="#3C58BF"/><path d="M61.222 40.223l5.541-24.311h5.542l-4.19 24.311h-6.893z" fill="#293688"/><path d="M92.579 16.182c-1.352-.54-3.514-1.08-6.218-1.08-6.758 0-11.623 3.376-11.623 8.238 0 3.647 3.379 5.538 6.082 6.753 2.703 1.216 3.514 2.026 3.514 3.107 0 1.62-2.163 2.43-4.055 2.43-2.703 0-4.19-.404-6.487-1.35l-.947-.405-.946 5.538c1.622.675 4.596 1.35 7.704 1.35 7.164 0 11.894-3.376 11.894-8.509 0-2.836-1.757-4.997-5.811-6.753-2.433-1.216-3.92-1.89-3.92-3.106 0-1.08 1.216-2.162 3.92-2.162 2.297 0 3.92.406 5.136.946l.675.27 1.082-5.267z" fill="#3C58BF"/><path d="M92.579 16.182c-1.352-.54-3.514-1.08-6.218-1.08-6.758 0-10.407 3.376-10.407 8.238 0 3.647 2.163 5.538 4.866 6.753 2.703 1.216 3.514 2.026 3.514 3.107 0 1.62-2.163 2.43-4.055 2.43-2.703 0-4.19-.404-6.487-1.35l-.947-.405-.946 5.538c1.622.675 4.596 1.35 7.704 1.35 7.164 0 11.894-3.376 11.894-8.509 0-2.836-1.757-4.997-5.811-6.753-2.433-1.216-3.92-1.89-3.92-3.106 0-1.08 1.216-2.162 3.92-2.162 2.297 0 3.92.406 5.136.946l.675.27 1.082-5.267z" fill="#293688"/><path d="M104.202 15.912c-1.622 0-2.838.135-3.514 1.755L90.551 40.224h7.299l1.351-4.052h8.651l.811 4.052h6.487l-5.677-24.311h-5.271zm-3.108 16.207c.405-1.215 2.703-7.158 2.703-7.158s.54-1.486.946-2.431l.405 2.296s1.352 6.078 1.622 7.428h-5.676v-.135z" fill="#3C58BF"/><path d="M105.824 15.912c-1.622 0-2.838.135-3.514 1.755L90.551 40.224h7.299l1.351-4.052h8.651l.811 4.052h6.487l-5.677-24.311h-3.649zm-4.73 16.207c.54-1.35 2.703-7.158 2.703-7.158s.54-1.486.946-2.431l.405 2.296s1.352 6.078 1.622 7.428h-5.676v-.135z" fill="#293688"/><path d="M48.787 32.93l-.675-3.512c-1.217-4.052-5.137-8.509-9.462-10.67l6.083 21.61h7.298l10.949-24.31h-7.3L48.787 32.93z" fill="#3C58BF"/><path d="M48.787 32.93l-.675-3.512c-1.217-4.052-5.137-8.509-9.462-10.67l6.083 21.61h7.298l10.949-24.31h-5.947L48.787 32.93z" fill="#293688"/><path d="M30 15.912l1.216.27c8.65 2.026 14.598 7.158 16.895 13.236l-2.433-11.48c-.405-1.621-1.621-2.026-3.108-2.026H30z" fill="#FFBC00"/><path d="M30 15.912c8.65 2.026 15.814 7.293 18.111 13.371l-2.297-9.59c-.406-1.62-1.758-2.566-3.244-2.566L30 15.912z" fill="#F7981D"/><path d="M30 15.912c8.65 2.026 15.814 7.293 18.111 13.371l-1.622-5.268c-.405-1.62-.946-3.241-2.838-3.916L30 15.912z" fill="#ED7C00"/><path d="M55.545 32.12l-4.596-4.593-2.162 5.133-.54-3.377c-1.217-4.052-5.137-8.51-9.462-10.67l6.082 21.61h7.299l3.379-8.104zm12.57 8.103l-5.812-5.943-1.081 5.943h6.893zm15.543-8.373c.54.54.81.945.675 1.485 0 1.62-2.162 2.431-4.054 2.431-2.703 0-4.19-.405-6.488-1.35l-.946-.406-.946 5.538c1.622.675 4.595 1.35 7.704 1.35 4.325 0 7.84-1.215 9.867-3.376l-5.812-5.673zm7.839 8.373h6.353l1.351-4.052h8.65l.811 4.052h6.488l-2.298-9.86-8.109-7.833.405 2.16s1.352 6.079 1.622 7.43h-5.677c.541-1.351 2.704-7.159 2.704-7.159s.54-1.486.946-2.431" fill="#051244"/></g><defs><clipPath id="clip0"><path fill="#fff" transform="translate(30 15)" d="M0 0h85.15v26H0z"/></clipPath></defs></svg>