<svg width="145" height="56" fill="none" xmlns="http://www.w3.org/2000/svg"><rect width="145" height="56" rx="8" fill="#fff"/><g clip-path="url(#clip0)"><path d="M101.872 21.366h-5.855c-.345 0-.689.345-.861.69l-2.411 15.162c0 .345.172.517.516.517h3.1c.345 0 .517-.172.517-.517l.689-4.307c0-.345.344-.69.861-.69h1.894c3.962 0 6.2-1.895 6.717-5.686.345-1.55 0-2.929-.689-3.79-1.033-.862-2.583-1.379-4.478-1.379zm.689 5.686c-.344 2.068-1.894 2.068-3.444 2.068h-1.034l.69-3.963c0-.172.172-.345.516-.345h.344c1.034 0 2.067 0 2.584.69.344.172.344.689.344 1.55z" fill="#139AD6"/><path d="M59.678 21.366h-5.856c-.344 0-.689.345-.861.69L50.55 37.217c0 .345.172.517.517.517h2.755c.344 0 .689-.344.861-.689l.689-4.135c0-.345.345-.69.861-.69h1.895c3.96 0 6.2-1.895 6.716-5.686.345-1.55 0-2.929-.689-3.79-1.033-.862-2.41-1.379-4.477-1.379zm.689 5.686c-.345 2.068-1.895 2.068-3.445 2.068h-.861l.689-3.963c0-.172.172-.345.517-.345h.344c1.033 0 2.067 0 2.583.69.172.172.345.689.172 1.55zm17.049-.172h-2.755c-.172 0-.517.172-.517.344l-.172.862-.172-.345c-.69-.861-1.895-1.206-3.272-1.206-3.1 0-5.856 2.413-6.373 5.686-.344 1.723.172 3.274 1.034 4.308.86 1.034 2.066 1.378 3.616 1.378 2.584 0 3.961-1.55 3.961-1.55l-.172.861c0 .345.172.517.517.517h2.583c.345 0 .689-.344.861-.69l1.55-9.648c-.172-.173-.516-.517-.689-.517zm-3.96 5.514c-.345 1.55-1.55 2.757-3.273 2.757-.861 0-1.55-.345-1.894-.69-.345-.517-.517-1.206-.517-2.067.172-1.551 1.55-2.757 3.1-2.757.861 0 1.378.344 1.894.689.517.517.69 1.378.69 2.068z" fill="#263B80"/><path d="M119.439 26.88h-2.756c-.172 0-.516.172-.516.344l-.173.862-.172-.345c-.689-.861-1.894-1.206-3.272-1.206-3.1 0-5.856 2.413-6.372 5.686-.345 1.723.172 3.274 1.033 4.308.861 1.034 2.067 1.378 3.617 1.378 2.583 0 3.961-1.55 3.961-1.55l-.172.861c0 .345.172.517.516.517h2.584c.344 0 .688-.344.861-.69l1.55-9.648c-.173-.173-.345-.517-.689-.517zm-3.961 5.514c-.345 1.55-1.55 2.757-3.273 2.757-.861 0-1.55-.345-1.894-.69-.344-.517-.517-1.206-.517-2.067.173-1.551 1.55-2.757 3.1-2.757.861 0 1.378.344 1.895.689.689.517.861 1.378.689 2.068z" fill="#139AD6"/><path d="M92.4 26.88h-2.928c-.344 0-.517.173-.689.345l-3.789 5.858-1.722-5.513c-.172-.345-.344-.517-.861-.517h-2.756c-.344 0-.516.344-.516.689l3.1 9.132-2.928 4.136c-.172.344 0 .861.344.861h2.756c.344 0 .517-.172.689-.345l9.472-13.612c.517-.517.172-1.034-.172-1.034z" fill="#263B80"/><path d="M122.711 21.883L120.3 37.39c0 .344.172.517.516.517h2.412c.344 0 .688-.345.861-.69l2.411-15.163c0-.344-.172-.517-.517-.517h-2.755c-.173-.172-.345 0-.517.345z" fill="#139AD6"/><path d="M37.806 16.197C36.6 14.82 34.36 14.13 31.26 14.13h-8.61c-.517 0-1.033.517-1.206 1.034L18 37.736c0 .517.344.861.689.861h5.339l1.378-8.443v.345c.172-.517.688-1.034 1.205-1.034h2.583c4.995 0 8.784-2.068 9.99-7.754v-.517c-.173 0-.173 0 0 0 .172-2.24-.173-3.618-1.378-4.997z" fill="#263B80"/><path d="M39.011 21.194v.517c-1.205 5.858-4.994 7.754-9.989 7.754H26.44c-.517 0-1.033.517-1.206 1.034l-1.722 10.51c0 .345.172.69.69.69h4.477c.517 0 1.033-.345 1.033-.862v-.172l.861-5.342v-.345c0-.517.517-.861 1.034-.861h.689c4.305 0 7.75-1.723 8.61-6.892.345-2.068.173-3.963-.86-5.17a1.765 1.765 0 00-1.034-.861z" fill="#139AD6"/><path d="M37.806 20.677c-.172 0-.345-.172-.517-.172-.172 0-.344 0-.517-.172-.688-.173-1.377-.173-2.239-.173h-6.716c-.172 0-.345 0-.517.172a.948.948 0 00-.517.862l-1.377 8.96v.345c.172-.517.689-1.034 1.205-1.034h2.584c4.994 0 8.783-2.068 9.989-7.754 0-.172 0-.345.172-.517-.345-.172-.517-.345-.861-.345-.517-.172-.517-.172-.69-.172z" fill="#232C65"/></g><defs><clipPath id="clip0"><path fill="#fff" transform="translate(18 14)" d="M0 0h108.5v28H0z"/></clipPath></defs></svg>