<svg width="145" height="56" fill="none" xmlns="http://www.w3.org/2000/svg"><rect width="145" height="56" rx="8" fill="#fff"/><g clip-path="url(#clip0)"><path d="M55.576 17.673H37.038L38.373 14h18.539l-1.336 3.673zm-.667 1.836H36.362l-1.336 3.673h18.539l1.344-3.673zm-2.004 5.492H34.358l-1.335 3.673h18.522L52.905 25z" fill="#009FDF"/><path d="M99.75 37.864h3.338a2.912 2.912 0 002.554-.994 3.185 3.185 0 00.651-2.095 2.914 2.914 0 00-.256-1.396 2.916 2.916 0 00-.887-1.108 3.34 3.34 0 00-2.095-.534h-3.306v6.127zm-4.383 3.697V19.51h14.348l-1.26 3.697h-8.706v4.883h3.548c2.863 0 4.348.685 5.375 1.561a6.504 6.504 0 012.179 5.225 6.343 6.343 0 01-2.596 5.46c-1.378.95-2.822 1.218-5.76 1.218l-7.128.008zm-12.704 0V23.198h-6.377v-3.69H93.99l-1.26 3.698h-5.643V41.57l-4.424-.009zM64.993 28.34h2.504a5.316 5.316 0 001.527-.117 2.412 2.412 0 001.67-2.504 2.228 2.228 0 00-1.67-2.446 6.078 6.078 0 00-1.67-.15h-2.361v5.217zm0 3.814v5.785h3.055a3.28 3.28 0 002.362-.651 2.88 2.88 0 00.918-2.27 3.138 3.138 0 00-.585-1.887c-.65-.835-1.452-.993-2.82-.993l-2.93.016zm7.061-2.329v.076c.744.286 1.44.686 2.062 1.185a5.2 5.2 0 011.87 4.315c0 3.013-1.603 5.192-4.233 5.843-1.047.256-2.127.36-3.205.309H60.61V19.509h7.062a13.052 13.052 0 013.339.309c2.554.684 4.232 2.445 4.232 5.225a4.881 4.881 0 01-1.411 3.589 5.35 5.35 0 01-1.736 1.177l-.042.017z" fill="#0A2973"/></g><defs><clipPath id="clip0"><path fill="#fff" transform="translate(33 14)" d="M0 0h78.256v28H0z"/></clipPath></defs></svg>