<svg width="150" height="150" fill="none" xmlns="http://www.w3.org/2000/svg"><path d="M.878 75.06l.003-.03V75c0-12.401 4.504-22.306 9.926-32.7C23.183 18.579 46.367.65 74.731.65c24.567 0 45.03 13.08 58.472 31.73 8.834 12.256 14.387 28.78 15.379 42.666 1.799 25.182-13.764 45.908-32.729 59.425-12.087 8.615-25.292 14.879-41.122 14.879-20.38 0-39.719-9.166-53.531-23.058C7.386 112.398-.85 93.829.878 75.06z" stroke="#87E29B" stroke-width="1.3"/><path d="M1.873 72.102l.008-.05V72c0-6.155 1.978-12.583 4.66-18.804 2.066-4.788 4.527-9.41 6.795-13.67a547.25 547.25 0 001.948-3.68C27.686 19 49.969 3.177 80.659 5.145c12.697 1.994 21.114 4.478 28.273 8.181 7.154 3.7 13.09 8.636 20.812 15.609 8.831 12.27 14.337 25.725 14.337 39.564 0 24.768-11.882 45.589-29.018 59.986-12.081 8.607-25.28 14.864-41.102 14.864-16.494 0-32.687-2.858-45.34-12.369C9.732 116.782-1.582 93.816 1.873 72.102z" stroke="#87E29B" stroke-width="1.3"/><path d="M30.121 130.98l-.01-.007-.01-.007C17.344 122.134 9.375 103.884 7.88 77.463c-.899-15.87 3.976-32.2 11.978-41.879l.012-.014.01-.015C32.216 18.78 54.334 9.171 82.139 11.645c11.196 2.24 18.742 4.722 25.406 8.363 6.663 3.64 12.479 8.456 20.2 15.428l.824 1.143c8.373 11.604 13.085 18.135 14.516 31.49 1.343 12.535-1.466 20.713-5.959 32.194-3.969 10.144-11.421 19.688-19.793 26.723-12.146 8.657-22.967 16.034-38.744 16.034-16.53 0-35.83-2.54-48.467-12.04z" stroke="#87E29B" stroke-width="1.3"/><path d="M36.7 131.327l-.01-.008-.01-.007c-12.01-8.823-19.52-27.066-20.93-53.487-.847-15.873 3.748-32.2 11.286-41.876l.011-.014.01-.015C38.674 19.157 59.49 9.566 85.65 12.034c10.54 2.239 17.64 4.718 23.91 8.352 6.271 3.636 11.747 8.447 19.02 15.415l.778 1.145c7.884 11.595 12.326 18.127 13.674 31.484 1.266 12.538-1.383 20.72-5.614 32.195-3.741 10.142-10.761 19.682-18.643 26.71-11.445 8.656-21.623 16.015-36.458 16.015-15.566 0-33.726-2.538-45.616-12.023z" stroke="#87E29B" stroke-width="1.3"/><path d="M28.526 126.87l-.01-.008-.01-.008c-12.485-9.16-20.288-28.1-21.752-55.515-.88-16.474 3.894-33.422 11.729-43.467l.01-.014.011-.015C30.576 10.442 52.208.487 79.392 3.049c10.95 2.323 18.33 4.896 24.846 8.67 6.518 3.773 12.208 8.768 19.763 16l.811 1.19c8.189 12.03 12.806 18.812 14.208 32.677 1.316 13.016-1.438 21.509-5.834 33.416-3.887 10.529-11.182 20.43-19.372 27.725-11.889 8.981-22.468 16.623-37.888 16.623-16.17 0-35.042-2.634-47.4-12.48z" stroke="#87E29B" stroke-width="1.3"/><path d="M59.685 99c-2.008 0-2.907-1.721-2.907-3.427V54.427c0-1.706.899-3.427 2.907-3.427.65 0 1.324.199 2.004.592l35.634 20.572c1.207.697 1.899 1.73 1.899 2.836 0 1.105-.692 2.138-1.898 2.835L61.688 98.41c-.68.392-1.354.591-2.004.591zm0-45.86c-.667 0-.767.806-.767 1.287v41.146c0 .48.1 1.287.767 1.287.185 0 .498-.053.934-.305l35.634-20.573c.52-.3.829-.667.829-.982 0-.316-.31-.683-.829-.982L60.62 53.445c-.436-.252-.749-.305-.934-.305z" fill="#87E29B"/></svg>