<svg width="480" height="320" fill="none" xmlns="http://www.w3.org/2000/svg"><g clip-path="url(#clip0)"><path opacity=".1" d="M279.786 63.823c-28.239-1.006-55.134-10.138-80.798-20.11s-51.119-21.067-78.682-26.361c-17.727-3.406-38.003-3.887-52.284 5.635-13.748 9.18-18.19 24.984-20.577 39.664-1.797 11.043-2.853 22.663 2.069 33.002 3.42 7.178 9.485 13.211 13.682 20.088 14.604 23.922 4.28 53.422-11.54 76.78-7.418 10.96-16.035 21.422-21.764 33.077-5.729 11.655-8.377 25.028-3.364 36.927 4.966 11.804 16.803 20.652 29.626 26.882 26.044 12.652 56.722 16.276 86.658 18.326 66.246 4.542 132.842 2.575 199.263.608 24.582-.73 49.269-1.469 73.45-5.277 13.43-2.116 27.292-5.473 37.044-13.574 12.374-10.286 15.441-27.708 7.146-40.604-13.909-21.636-52.358-27.009-62.092-50.231-5.35-12.779.144-27.017 7.923-38.869 16.685-25.426 44.649-47.735 46.119-76.802 1.013-19.961-12.43-39.953-33.217-49.4-21.785-9.902-52-8.656-68.066 7.733-16.571 16.858-45.661 23.35-70.596 22.506z" fill="#80CCFF"/><path d="M74.724 320c17.642 0 31.943-2.756 31.943-6.155 0-3.4-14.301-6.156-31.943-6.156-17.641 0-31.943 2.756-31.943 6.156 0 3.399 14.302 6.155 31.943 6.155z" fill="#63C1FF"/><path d="M74.188 316.109c2.053 0 3.717-2.184 3.717-4.879 0-2.694-1.664-4.878-3.717-4.878s-3.718 2.184-3.718 4.878c0 2.695 1.665 4.879 3.718 4.879z" fill="#3F3D56"/><path d="M74.188 310.146c2.053 0 3.717-2.184 3.717-4.879 0-2.694-1.664-4.878-3.717-4.878s-3.718 2.184-3.718 4.878c0 2.695 1.665 4.879 3.718 4.879z" fill="#3F3D56"/><path d="M74.188 304.183c2.053 0 3.717-2.184 3.717-4.878 0-2.695-1.664-4.879-3.717-4.879s-3.718 2.184-3.718 4.879c0 2.694 1.665 4.878 3.718 4.878z" fill="#3F3D56"/><path d="M74.188 298.224c2.053 0 3.717-2.184 3.717-4.878 0-2.695-1.664-4.879-3.717-4.879s-3.718 2.184-3.718 4.879c0 2.694 1.665 4.878 3.718 4.878z" fill="#3F3D56"/><path d="M74.188 292.262c2.053 0 3.717-2.185 3.717-4.879 0-2.695-1.664-4.879-3.717-4.879s-3.718 2.184-3.718 4.879c0 2.694 1.665 4.879 3.718 4.879z" fill="#3F3D56"/><path d="M74.188 286.299c2.053 0 3.717-2.185 3.717-4.879 0-2.695-1.664-4.879-3.717-4.879s-3.718 2.184-3.718 4.879c0 2.694 1.665 4.879 3.718 4.879z" fill="#3F3D56"/><path d="M74.188 280.336c2.053 0 3.717-2.185 3.717-4.879 0-2.695-1.664-4.879-3.717-4.879s-3.718 2.184-3.718 4.879c0 2.694 1.665 4.879 3.718 4.879z" fill="#3F3D56"/><path d="M88.11 234.656c.51-.647.974-1.329 1.388-2.041l-9.773-1.609 10.567.078a17.89 17.89 0 00.34-14.142l-14.175 7.371 13.09-9.618a17.834 17.834 0 00-4.843-5.415 17.796 17.796 0 00-13.851-3.176 17.79 17.79 0 00-6.71 2.767 17.841 17.841 0 00-7.61 12.023 17.885 17.885 0 003.588 13.775 18.024 18.024 0 00-2.034 3.257l12.689 6.601-13.526-4.546a17.872 17.872 0 002.87 16.761 17.878 17.878 0 00-2.024 18.834 17.838 17.838 0 006.573 7.332 17.794 17.794 0 0018.906 0 17.837 17.837 0 006.572-7.332 17.878 17.878 0 00-2.023-18.834 17.873 17.873 0 000-22.073l-.013-.013z" fill="#63C1FF"/><path opacity=".1" d="M56.311 245.685a17.799 17.799 0 003.814 11.035 17.88 17.88 0 00-2.023 18.834 17.843 17.843 0 006.571 7.332 17.794 17.794 0 0018.906 0 17.844 17.844 0 006.572-7.332 17.88 17.88 0 00-2.023-18.834c2.373-3.03-31.817-13.032-31.817-11.035z" fill="#000"/><path d="M229.483 239.565c.27 3.497 1.614 7.117 4.441 9.18 2.828 2.064 7.326 2.024 9.486-.747a10.644 10.644 0 001.575-3.432c1.819-5.762 3.111-12.066 1.117-17.771-4.498-.293-9.712-2.413-13.09 1.311-2.727 3.034-3.844 7.415-3.529 11.459z" fill="#3F3D56"/><path d="M250.365 204.317c-.598 5.084-1.615 10.146-1.51 15.266.039 1.976.249 3.934.253 5.919a29.216 29.216 0 01-3.927 14.676 4.91 4.91 0 01-1.073 1.39c-1.034.839-2.592.769-3.753.127a7.394 7.394 0 01-2.665-2.899c-3.251-5.578-3.343-12.359-4.63-18.684-.986-4.84-2.714-9.531-3.338-14.427-.405-3.152-.344-6.365-.99-9.478-.196-.94-.746-2.352-1.108-3.738-.332-1.237-.515-2.452-.175-3.287.694-1.71 2.967-1.045 4.446-.94 5.209.387 10.44.374 15.647-.04.515-.039 1.099-.061 1.461.307.158.185.277.401.349.633a21.17 21.17 0 01.947 3.498c.72 3.808.519 7.799.066 11.677z" fill="#FABDBD"/><path opacity=".1" d="M248.358 188.201a3.897 3.897 0 00-.808 0 99.772 99.772 0 01-7.491.315c2.766.006 5.532-.099 8.299-.315zm-7.121 53.493a7.394 7.394 0 01-2.666-2.898c-3.251-5.579-3.342-12.359-4.629-18.685-.986-4.84-2.714-9.53-3.338-14.427-.406-3.152-.345-6.365-.991-9.478-.196-.94-.746-2.352-1.108-3.737-.332-1.238-.515-2.453-.174-3.288a1.86 1.86 0 011.745-1.137c-1.104-.074-2.182.057-2.618 1.137-.34.835-.157 2.05.174 3.288.363 1.385.912 2.797 1.109 3.737.645 3.113.584 6.326.99 9.478.624 4.901 2.352 9.592 3.338 14.427 1.287 6.326 1.379 13.115 4.629 18.685a7.394 7.394 0 002.666 2.898 3.867 3.867 0 002.287.463 4.017 4.017 0 01-1.414-.463z" fill="#000"/><path d="M266.862 231.127c-2.618 5.246-2.181 12.678-2.181 12.678.436 17.487-6.545 54.209-6.545 54.209h-6.109s-.872-40.657 0-44.154c.873-3.497-.436-15.738-1.745-32.788-.973-12.678 1.675-24.167 3.098-29.207.489-1.749.829-2.706.829-2.706s10.035-14.864 15.707-7.869c1.309 1.626 2.003 4.909 2.243 9.053.777 13.675-3.29 36.758-5.297 40.784z" fill="#FABDBD"/><path opacity=".1" d="M272.159 190.344c-.24-4.144-.925-7.432-2.243-9.054-1.265-1.556-2.749-2.028-4.284-1.823a4.65 4.65 0 012.975 1.823c1.309 1.627 2.003 4.91 2.243 9.054.777 13.675-3.29 36.757-5.297 40.784-2.618 5.246-2.182 12.678-2.182 12.678.437 17.486-6.544 54.209-6.544 54.209h1.309s6.981-36.723 6.544-54.209c0 0-.436-7.432 2.182-12.678 2.007-4.027 6.074-27.109 5.297-40.784z" fill="#000"/><path d="M248.851 296.419a5.686 5.686 0 00-1.248 1.364c-.781 1.478.327 3.244 1.514 4.42 1.187 1.176 2.618 2.435 2.618 4.11 0 1.346-1.017 2.5-2.156 3.217-.61.385-1.378.875-1.252 1.6.045.184.123.357.231.512.978 1.499 2.71 2.378 4.464 2.71 1.754.332 3.565.188 5.349.044.268.009.529-.081.733-.254a.992.992 0 00.197-.603c.087-.927.03-1.906.436-2.741.567-1.141 1.872-1.723 2.618-2.745 1.047-1.399.903-3.345.506-5.045-.873-3.703-2.814-7.926-5.729-10.493-3.377-2.946-6.025 1.775-8.281 3.904zm13.22-220.356c2.435-3.646 1.802-8.743-.685-12.372-2.487-3.628-6.484-5.91-10.607-7.383-5.559-1.985-11.689-2.663-17.4-1.172-4.547 1.185-8.631 3.663-12.915 5.578a55.45 55.45 0 01-24.12 4.81c-9.211-.259-19.303-2.624-27.03 2.421-14.146 9.22-7.854 34.314-21.236 44.591-3.608 2.772-8.15 3.983-12.164 6.121-4.015 2.138-7.819 5.858-7.723 10.413.043 2.186 1.003 4.271 2.181 6.121 5.018 7.969 14.399 12.9 23.793 12.809 9.394-.092 18.561-5.098 23.976-12.801 1.357-1.928 2.552-4.074 4.52-5.359 3.927-2.58 9.102-.774 13.788-.389 10.432.852 20.869-6.995 22.946-17.291.872-4.393.72-9.644 4.249-12.402 2.85-2.225 6.859-1.749 10.472-2.13 6.606-.686 11.82-4.808 15.407-10.194 1.645-2.47 1.836-5.42 4.079-7.366 2.417-2.138 6.157-.56 8.469-4.005z" fill="#3F3D56"/><path opacity=".1" d="M187.617 66.366a55.208 55.208 0 0011.419-.874c-1.038.03-2.086.03-3.128 0-7.23-.201-15.001-1.696-21.747.105 4.451.044 9.054.647 13.456.77zm-13.691 64.342c-1.968 1.285-3.163 3.432-4.52 5.36a30.65 30.65 0 01-17.222 11.895c.511.022 1.021.035 1.536.031 9.403-.092 18.561-5.098 23.976-12.801 1.357-1.927 2.552-4.074 4.52-5.359l.34-.21c-3.08-.424-6.104-.573-8.63 1.084zm87.02-67.03c-2.483-3.611-6.484-5.91-10.607-7.384-5.559-1.985-11.689-2.662-17.401-1.172-.131.03-.257.07-.384.105 3.242.181 6.441.835 9.495 1.941 4.123 1.474 8.124 3.773 10.607 7.384 2.482 3.611 3.119 8.743.685 12.372-2.313 3.458-6.052 1.88-8.5 4.009-2.243 1.945-2.435 4.896-4.08 7.366-3.084 4.621-7.378 8.306-12.723 9.705 1.837-.218 3.774-.192 5.607-.384 6.606-.687 11.82-4.81 15.407-10.195 1.644-2.47 1.836-5.421 4.079-7.367 2.448-2.129 6.187-.55 8.5-4.008 2.439-3.646 1.806-8.761-.685-12.372zm-35.587 34.816c-3.591.376-7.6-.096-10.471 2.129-3.53 2.758-3.36 8.009-4.25 12.402-1.532 7.681-7.754 14.016-15.14 16.372l.519.049c10.432.852 20.869-6.995 22.946-17.291.872-4.393.72-9.644 4.25-12.402a7.863 7.863 0 012.709-1.312c-.196.005-.375.035-.563.053z" fill="#000"/><path d="M330.783 60.413s-10.472 20.984-13.962 28.853c-3.491 7.87-35.342 19.673-39.705 20.11A5.617 5.617 0 00274 110.88c-2.465 2.186-3.865 5.928-3.865 5.928s1.745 11.803-.437 31.476c-.043.38-.083.761-.118 1.128-1.902 18.72 2.082 23.135 2.082 23.135s-42.323 16.175-41.014-4.809c.41-6.606.349-11.432-.057-15.467a65.04 65.04 0 00-2.505-12.18c-1.034-3.624-2.268-7.598-3.547-13.01a57.056 57.056 0 00-2.426-7.934c-.03-.079-.061-.158-.087-.232-2.182-5.425-4.363-7.178-5.611-7.747a18.846 18.846 0 01-3.351-1.888c-4.032-2.916-12.684-9.452-20.389-17.172-10.472-10.493-20.944-35.411-20.944-35.411s-3.054-14.427 3.927-26.23c6.981-11.804 3.927 23.17 3.927 23.17s12.653 17.05 15.708 24.918c1.57 4.048 4.066 6.12 6.108 7.196a72.354 72.354 0 019.66 6.05 56.47 56.47 0 006.497 4.25c4.878 2.623 10.72 5.583 15.59 6.361.76.126 1.529.191 2.299.196a2.382 2.382 0 001.92-.874c1.309-1.543 1.278-4.866.977-7.598a38.684 38.684 0 00-.715-4.21s14.18-8.962 13.744 1.967a12.243 12.243 0 00.331 3.594 6.218 6.218 0 004.228 4.634c1.703.5 3.505.559 5.236.17a5.117 5.117 0 001.545-.529c1.309-.874 14.398-4.808 18.325-5.246 3.927-.437 23.561-10.055 23.561-10.055l21.38-29.727s-.436-17.487 8.29-24.482c8.727-6.994-3.486 30.16-3.486 30.16z" fill="#FABDBD"/><path opacity=".1" d="M269.581 146.787a87.147 87.147 0 00-.502 10.58c.043-2.309.196-4.945.502-7.957.034-.367.074-.747.117-1.128a171.54 171.54 0 001.091-20.28c-.067 5.9-.431 11.794-1.091 17.657-.026.381-.083.761-.117 1.128zm-31.498-57.143c-.293.171-.437.276-.437.276.425 1.87.705 3.77.839 5.683a26.86 26.86 0 00-.402-5.959zM179.79 51.261c.214-3.06.533-8.546.472-13.425-.074 6.523-.655 13.176-.655 13.176l.183.25zm50.888 115.964c0 .17 0 .341-.031.511-1.309 20.984 41.015 4.809 41.015 4.809a7.12 7.12 0 01-1.104-2.221c-6.375 2.273-38.41 12.844-39.88-3.099zM330.783 57.789s-10.472 20.984-13.962 28.853c-3.491 7.869-35.342 19.673-39.705 20.11a5.617 5.617 0 00-3.116 1.504c-2.465 2.185-3.865 5.928-3.865 5.928s.104.712.231 2.067c.488-1.123 1.745-3.702 3.634-5.372a5.617 5.617 0 013.116-1.504c4.363-.437 36.214-12.241 39.705-20.11 3.49-7.87 13.962-28.853 13.962-28.853s7.378-22.449 6.567-29.164c-.672 8.604-6.567 26.54-6.567 26.54zm-100.192 91.858a65.03 65.03 0 00-2.505-12.179c-1.034-3.624-2.269-7.598-3.547-13.01a57.028 57.028 0 00-2.426-7.935c-.03-.079-.061-.157-.087-.232-2.182-5.425-4.363-7.178-5.611-7.746a18.878 18.878 0 01-3.351-1.889c-4.032-2.916-12.684-9.452-20.389-17.172-10.472-10.492-20.944-35.41-20.944-35.41a39.633 39.633 0 01-.646-6.375c-.106 3.014.11 6.03.646 8.997 0 0 10.472 24.919 20.944 35.411 7.705 7.72 16.357 14.256 20.389 17.172a18.851 18.851 0 003.377 1.889c1.243.568 3.421 2.321 5.611 7.746.026.075.057.153.087.232a57.058 57.058 0 012.413 7.935c1.279 5.412 2.513 9.386 3.547 13.01a65.03 65.03 0 012.505 12.179c.183 1.828.292 3.817.323 6.055a76.425 76.425 0 00-.336-8.678z" fill="#000"/><path d="M273.804 130.658a25.946 25.946 0 00-1.745 3.445c-.659 1.836-.664 3.834-.786 5.779a46.428 46.428 0 01-1.239 8.096 8.95 8.95 0 01-.436 1.434 3.818 3.818 0 01-.511.875 3.696 3.696 0 01-.811.738 9.56 9.56 0 01-1.479.809c-6.074 2.842-12.697 5.351-19.325 4.372a28.077 28.077 0 01-8.041-2.711c-2.4-1.167-5.114-2.553-7.601-1.582a3.808 3.808 0 01-1.217.38 1.123 1.123 0 01-.245-.022c-.82-.157-.82-2.929-1.008-3.746-.715-3.139-.824-5.683-1.252-8.411a27.655 27.655 0 00-1.051-4.446c-1.746-5.29-2.274-10.93-2.274-16.473 0-.275-1.963 0-2.618-.026-.165 0-.257-.026-.218-.083a.885.885 0 01.131-.149c.229-.186.495-.319.781-.389l.515-.153c2.696-.765 5.672-1.084 7.688-2.986 2.094-1.963 2.618-5.097 2.526-7.965-.026-.923-.475-3.161-.401-5.019.76.126 1.529.192 2.299.197a2.375 2.375 0 001.92-.874 34.526 34.526 0 011.885 4.371c.742 1.828 1.309 3.751 2.395 5.404 1.746 2.693 4.966 4.463 8.168 4.192 3.203-.271 6.183-2.737 6.755-5.902.501-2.776-.664-6.771-.638-9.657 1.703.501 3.505.559 5.236.171.074.178.137.36.188.546.982 3.375 2.291 7.249 5.585 8.446 2.129.77 4.647.193 6.614 1.312.152.087.297.183.437.288.454.339.845.755 1.156 1.229a9.903 9.903 0 011.401 4.407 24.493 24.493 0 01-2.784 14.103z" fill="#63C1FF"/><path opacity=".1" d="M251.704 95.482a14.842 14.842 0 01-13.36-1.35 38.626 38.626 0 00-.716-4.21s14.181-8.963 13.745 1.967a12.243 12.243 0 00.331 3.593z" fill="#000"/><path d="M246.351 95.605c8.193 0 14.835-6.655 14.835-14.864 0-8.21-6.642-14.864-14.835-14.864-8.193 0-14.835 6.655-14.835 14.864s6.642 14.864 14.835 14.864z" fill="#FABDBD"/><path d="M220.394 117.682s28.797-18.361 118.242 1.311c89.446 19.673 141.368 3.935 141.368 3.935v20.547s-100.353 10.929-138.75 0c-38.396-10.929-93.054-17.233-112.195-.31l-8.665-25.483z" fill="#F86D70"/><path opacity=".1" d="M220.394 117.682s28.797-18.361 118.242 1.311c89.446 19.673 141.368 3.935 141.368 3.935v20.547s-100.353 10.929-138.75 0c-38.396-10.929-93.054-17.233-112.195-.31l-8.665-25.483z" fill="#000"/><path d="M221.267 118.557s27.924-18.361 117.37 1.311c89.445 19.673 140.495 3.935 140.495 3.935l.436 18.798s-99.481 10.93-137.877 0c-38.396-10.929-92.618-18.545-111.759-1.622l-8.665-22.422z" fill="#F8826D"/><path d="M210.769 146.797s-28.797 18.361-118.243-1.312c-89.446-19.672-85.082-3.934-85.082-3.934v-20.547s44.068-10.929 82.464 0 93.054 17.233 112.195.31l8.666 25.483z" fill="#F86D70"/><path opacity=".1" d="M210.769 146.797s-28.797 18.361-118.243-1.312c-89.446-19.672-85.082-3.934-85.082-3.934v-20.547s44.068-10.929 82.464 0 93.054 17.233 112.195.31l8.666 25.483z" fill="#000"/><path d="M209.896 145.923s-27.924 18.361-117.37-1.311c-89.446-19.673-84.21-3.935-84.21-3.935l-.436-18.798s43.196-10.929 81.592 0 92.617 18.545 111.759 1.622l8.665 22.422z" fill="#F8826D"/><path d="M233.593 83.203c-.437-2.728-1.109-6.164 1.169-7.725a4.834 4.834 0 012.701-.7c4.716-.047 9.223 3.245 13.848 2.283a7.799 7.799 0 003.892-2.098 7.825 7.825 0 001.819-8.296 7.822 7.822 0 00-2.656-3.539c-1.82-1.355-4.119-1.845-6.344-2.304-5.851-1.206-11.96-2.408-17.737-.874-5.777 1.534-11.056 6.724-10.594 12.678.219 2.85 1.667 5.438 3.181 7.87 1.152 1.844 5.637 10.491 7.815 10.622 3.071.18 3.207-6.133 2.906-7.917z" fill="#3F3D56"/><path d="M270.352 165.115s-30.106 7.432-40.141 0c0 0-4.363 17.05-3.054 25.793 0 0 21.379 1.312 23.561 2.623 0 0 .436-3.497 2.618-1.748 0 0 7.417-8.744 20.943-.875 0 0 2.618-20.547-3.927-25.793z" fill="#63C1FF"/><path opacity=".1" d="M254.375 63.128a8.747 8.747 0 00-.973-.612 7.813 7.813 0 01-.678 10.99 7.785 7.785 0 01-3.594 1.806c-4.625.961-9.132-2.33-13.849-2.282a4.833 4.833 0 00-2.7.699c-2.278 1.56-1.61 4.997-1.174 7.725.288 1.784.17 8.096-2.893 7.926h-.052c.842 1.027 1.627 1.722 2.234 1.748 3.054.17 3.18-6.12 2.892-7.925-.436-2.728-1.103-6.165 1.174-7.725a4.836 4.836 0 012.701-.7c4.717-.048 9.224 3.244 13.849 2.282a7.803 7.803 0 003.892-2.098 7.832 7.832 0 00-.838-11.834h.009z" fill="#000"/><path opacity=".1" d="M37.68 42.361S5.058 28.616.782 53.404c0 0-2.23 3.86.873 7.051 0 0 .667-1.709 3.822.062a16.39 16.39 0 003.56 1.447 7.996 7.996 0 005.07-.271s10.73-.582 19.752-14.645c0 0 3.866-2.396 4.063-3.292l-6.467.437s.493 4.743-2.181 7.59c0 0 2.378-7.358 1.235-7.568-.232-.044-3.417.38-3.417.38s.825 8.245-3.49 12.512c0 0 4.005-8.39 2.26-12.363l-4.77.922s1.31 8.674-3.411 13.723c0 0 3.879-8.918 2.382-13.452l-4.573 1.539s1.104 8.49-2.844 12.678c0 0 3.447-10.759 1.823-12.24 0 0-4.11 1.67-4.991 2.622 0 0 .654 6.12-1.859 8.306 0 0 1.545-7.431.781-7.737 0 0-4.778 3.602-6.23 6.71 0 0 1.815-4.748 5.628-7.432 0 0-3.203-.542-5.672.8 0 0 1.654-3.152 6.828-1.657 0 0 3.836-2.658 4.604-2.623 0 0-4.896-2.186-8.435-1.919 0 0 3.792-2.186 9.634 1.469l4.555-1.653s-6.322-3.248-9.494-3.235c0 0 4.215-1.63 10.681 2.916l4.665-.957s-5.236-3.213-8.766-3.96c0 0 4.237-.67 10.114 3.741l3.194-.27s-3.866-2.278-5.035-2.834c-1.17-.555-1.117-.918-1.117-.918a15.215 15.215 0 017.491 3.611s6.606-.126 6.637-.533zm-1.204-24.638S24.896-9.064 8.276 3.222c0 0-3.52 1.023-3.49 4.677 0 0 1.37-.634 2.234 2.217a13.734 13.734 0 001.31 2.894 6.548 6.548 0 003.136 2.723s6.702 5.78 20.071 2.575c0 0 3.66.787 4.29.363l-4.09-3.436s-2.399 3.1-5.619 3.253c0 0 5.598-3.017 5.035-3.795-.113-.157-2.242-1.723-2.242-1.723s-4.202 5.369-9.163 5.452c0 0 7.151-2.702 8.373-6.055l-3.356-2.186s-4.162 5.898-9.83 6.204c0 0 7.374-3.06 9.062-6.628l-3.59-1.696s-4.172 5.683-8.888 5.898c0 0 8.163-4.425 8.037-6.23 0 0-3.39-1.355-4.464-1.277 0 0-3.085 4-5.838 3.887 0 0 5.145-3.537 4.86-4.153 0 0-4.886-.586-7.517.437 0 0 3.779-1.784 7.57-1.198 0 0-1.592-2.155-3.813-2.754 0 0 2.775-.931 5 2.911 0 0 3.787.608 4.228 1.063 0 0-1.658-4.105-3.927-5.955 0 0 3.49.875 4.887 6.37l3.643 1.622s-1.907-5.54-3.822-7.336c0 0 3.434 1.434 4.69 7.825l3.312 2.095s-1.287-4.897-2.954-7.336c0 0 2.897 2.015 3.883 7.991l2.051 1.662s-1.003-3.559-1.383-4.556c-.38-.997-.14-1.18-.14-1.18a12.61 12.61 0 012.396 6.422s4.023 3.68 4.258 3.454z" fill="#6C63FF"/></g><defs><clipPath id="clip0"><path fill="#fff" d="M0 0h480v320H0z"/></clipPath></defs></svg>