<svg width="824" height="432" fill="none" xmlns="http://www.w3.org/2000/svg"><path d="M822.3 136.735c-55.7-5.1-105.9-26.8-142-70.6-11.5-14-21.4-33.4-13.2-49.6 5.9-11.6 20.5-17.4 33.3-15 12.8 2.4 23.6 11.8 29.8 23.3 6.2 11.5 8.2 24.8 8.1 37.9-.2 25.8-8.6 51.9-25.3 71.6-16.7 19.7-41.9 32.5-67.7 32.3-17.8-.1-36-6.1-52.9-.7-20.4 6.4-32.4 27-41.2 46.5-11.7 26-29.2 66.8-65.2 58-12.1-2.9-21.5-12-31.8-18.9-10.3-6.9-23.9-11.9-34.9-6.1-11.3 6-19.1 22.6-31.3 19.1-8.2-2.3-12.2-13.2-20.6-14.5-13.9-2.1-16 20.1-26.3 29.6-18 16.6-40.2-5.8-55.8-13.5-21.1-10.3-45-15.9-68.2-17.8-67.8-5.6-129.7 20.2-166.7 78.2-19.9 31.2-31.2 67.2-38.2 103.5 41.7-31.9 73.7-76.5 90.4-126.2 16.4-48.6 21.5-111.1 3-159.9-15.9-41.9-55.1-79-95.6-96.7-3-1.3-6-2.5-9-3.6" stroke="#CBEAFF" stroke-width="2" stroke-miterlimit="10" stroke-linecap="round" stroke-linejoin="round"/></svg>