<svg width="320" height="309" fill="none" xmlns="http://www.w3.org/2000/svg"><g opacity=".7" stroke="#CBEAFF" stroke-width=".8" stroke-miterlimit="10" stroke-linecap="round" stroke-linejoin="round"><path d="M.4 308.108c3.044-5.524 8.868-9.144 14.997-10.553 6.128-1.448 12.56-.915 18.765.228s12.257 2.896 18.462 4.001a85.239 85.239 0 0022.23.838c4.3-.419 15.453-.572 17.052-5.791.61-1.943.114-4.077-.609-6.02-2.626-7.201-8.108-13.411-9.097-20.992-.686-5.372.951-10.744 2.588-15.925 2.208-7.011 4.416-13.983 6.623-20.993.952-3.01 1.942-6.096 3.845-8.572 1.865-2.438 4.491-4.153 7.042-5.829 1.294-.838 2.588-1.676 4.073-2.096 2.854-.8 6.014.839 8.45 2.248 1.675.991 7.727 3.162 8.069 5.296.115.838-.38 1.638-1.103 2.057-.724.419-1.599.496-2.436.419a8.231 8.231 0 01-3.388-.952c-1.104-.572-2.094-1.372-3.236-1.753-1.713-.571-3.654-.114-5.215.762-1.598.877-2.892 2.172-4.187 3.467 4.378-1.828 10.202-1.562 14.008 1.486 1.332 1.067 6.814 7.506 2.55 7.848-2.626.229-4.796-4.114-7.765-4.305-1.027-.076-2.055.229-3.045.572-2.817 1.028-5.481 2.514-7.765 4.457 2.893-1.143 6.966-3.314 10.087-2.781 2.969.495 5.71 2.324 7.156 4.991.305.533.533 1.143.533 1.753-.038.609-.381 1.257-.952 1.447-.685.229-1.408-.228-2.055-.571-3.236-1.753-7.879-.991-11.267.076-3.426 1.105-6.51 3.048-9.554 4.991 4.415-.991 9.021-4.572 13.627-4 1.789.228 8.983 1.409 8.298 4.076-.343 1.257-1.903 1.638-3.236 1.791l-9.82 1.029c1.256-1.563 3.007-2.744 4.948-3.201-.837 4.191-6.699 6.325-9.859 8.191 3.921 3.239 4.987 8.763 5.253 13.83.267 5.067.038 10.363 2.17 14.973 1.903 4.038 5.405 7.048 8.526 10.21 3.122 3.201 6.053 7.049 6.243 11.506-2.779.724-5.101-2.133-6.395-4.724-4.72-9.41-15.264-49.147 7.042-44.271 4.339.953 8.298 3.124 12.599 4.191 8.26 2.096 17.51-.19 23.829-5.905-1.18 1.067-7.689-.152-9.288-.267a87.374 87.374 0 01-9.897-1.486c-4.415-.952-15.111-2.286-16.596-7.353-.99-3.429 1.447-7.124 4.606-8.762 3.768-1.981 8.869-2.286 12.98-3.429 5.862-1.638 11.99-2.362 17.89-3.924 2.436-.648 4.911-1.372 7.042-2.705 3.045-1.943 4.378-5.525 3.502-9.068-.533-2.21-1.751-4.153-3.007-6.058-4.377-6.705-9.288-13.029-13.437-19.887-4.149-6.858-7.651-14.249-8.831-22.135-.342-2.248-.38-4.839 1.218-6.477 2.132-2.134 5.786-1.257 8.26.419 5.329 3.657 8.184 10.287 8.26 16.763.076 6.477-2.322 12.802-5.709 18.326-4.264 6.972-10.278 14.211-17.358 18.363-4.377 2.591-9.782 3.886-14.655 2.477-3.958-1.143-13.969-10.439-6.547-13.335a11.74 11.74 0 016.053-.686c-.914 3.125-3.807 6.02-6.928 6.896-2.018.572-4.948.877-5.938-1.409-.533-1.219-.609-2.629-1.37-3.696-.648-.914-1.675-1.486-2.665-1.981-.99-.495-2.055-.991-2.741-1.867-.723-.876-.989-2.21-.304-3.086 2.093.534 4.568.991 6.242-.381.495-.381.876-.914 1.371-1.219 1.37-.876 3.121-.267 4.644.229a29.095 29.095 0 009.896 1.371c-.533 0-2.816 1.753-3.616 2.058-1.789.685-3.578 1.257-5.443 1.523-5.101.724-9.021-1.181-12.257-5.143-1.941-2.362-5.1-6.248-3.958-9.448.685-1.943 2.474-3.391 4.453-3.886 2.018-.496 4.149-.077 5.976.914.838.457 1.637 1.143 1.789 2.057.153 1.067-.685 2.096-1.713 2.515-1.979.8-4.415.228-6.394.99-2.399.877-4.378 4.267-7.233 3.848-3.387-.457-3.197-4.305-3.425-6.972-.762-8.877-1.37-17.754-2.056-26.593-.304-3.809-.685-7.886-3.121-10.858-2.436-2.971-7.651-3.886-9.897-.8-3.692 5.029 6.623 12.344 10.277 14.363 24.019 13.144 55.993-5.943 72.171-23.773 16.672-18.364 23.219-45.757 15.682-69.492.495 1.562-1.979 6.82-2.36 8.61-.685 3.239-1.218 6.515-1.522 9.792-.648 6.59-.495 13.258.38 19.811 1.675 12.382 6.661 24.193 10.506 35.889 7.537 22.935 23.257 45.718 43.736 58.786 9.326 5.943 19.793 9.829 29.272 15.506 9.478 5.677 18.308 13.754 21.163 24.421 2.855 10.668-2.398 23.964-13.094 26.822-9.326 2.514-19.26-3.696-23.942-12.116-7.118-12.839-3.807-30.174 6.661-40.422 10.468-10.249 26.95-13.373 40.919-8.915 13.97 4.457 25.237 15.811 30.985 29.336"/><path d="M113.641 169.62c9.478-1.143 10.734-10.706 9.059-18.554-5.177-24.155-10.315-48.271-15.492-72.426-2.589-12.077-5.177-24.154-7.765-36.194-2.474-11.62-5.634-22.744-5.786-34.708-.038-2.666.419-5.943 2.93-6.933 2.932-1.143 5.673 1.904 7.309 4.571 21.811 35.318 35.552 74.712 51.501 112.925-32.012-36.042-91.963-42.747-131.17-14.668 24.78-8.572 49.598-17.145 74.378-25.679 11.191-3.848 21.735-8.61 33.307-11.544a204.95 204.95 0 0136.58-5.829c.494-.038.989-.076 1.484-.076-11.419 10.896-25.731 18.135-39.853 25.107-14.122 6.972-28.511 14.02-40.196 24.65-11.686 10.591-20.479 25.488-20.06 41.261-.038-1.143 7.308-5.182 8.412-5.905a157.762 157.762 0 019.402-5.715c6.052-3.391 12.333-5.944 18.461-9.258 13.894-7.506 27.749-14.973 41.643-22.478 6.661 4.724 4.681 16.42-2.437 20.42-7.118 4.001-16.558 1.334-22.458-4.305-5.9-5.638-8.983-13.601-11.267-21.449-5.214-17.907-7.308-36.613-13.208-54.29-5.9-17.679-16.634-34.937-33.535-42.748 30.985 38.137 71.904 68.083 117.581 86.103 4.035 1.6 8.717 3.886 9.174 8.192.609 5.867-7.004 8.762-12.904 8.915-14.084.419-28.282-3.086-40.539-10.096-2.816-1.6-5.824-4-5.633-7.201.19-3.086 3.311-5.067 6.052-6.439a193.147 193.147 0 0154.775-17.83c-.457 13.944-18.081 20.116-31.974 19.43-16.368-.838-32.127-5.943-48.076-9.715-15.949-3.772-32.811-6.21-48.57-1.714-15.759 4.495-30.033 17.563-31.441 33.869-1.409 16.345 14.35 33.223 30.261 29.222 10.392-2.591 17.243-12.115 24.4-20.04 7.194-7.924 17.737-15.315 27.863-11.848 4.567 4.571 1.827 13.372-4.073 16.001-5.9 2.629-13.094.191-17.776-4.229-4.72-4.457-7.423-10.515-9.935-16.497-11.039-26.173-20.098-56.119-9.402-82.407 1.484-3.657 4.301-7.696 8.222-7.239 4.073.457 5.785 5.334 6.623 9.296 8.298 38.899 16.558 77.836 24.856 116.735 1.18 5.448 2.398 11.086 5.557 15.696 3.16 4.61 8.717 8.001 14.198 6.934 7.994-1.6 11.382-11.239 11.534-19.392.228-14.744-5.367-27.05-12.181-39.737-6.889-12.84-14.654-25.221-23.295-36.994 1.713 2.362 7.727 4.305 10.277 5.867a177.827 177.827 0 0111.039 7.277 209.067 209.067 0 0120.06 16.154c12.675 11.62 25.199 22.859 34.981 37.146-21.43-2.095-37.569-20.192-49.141-38.327-6.966-10.896-13.246-22.554-15.454-35.28-2.208-12.724.152-26.783 8.831-36.422 7.879-8.762 20.593-12.8 32.088-10.248 11.496 2.553 21.278 11.658 24.704 22.935 5.481 18.097-5.443 37.718-20.403 49.262-14.959 11.544-33.496 17.259-50.74 24.993-26.15 11.734-50.016 28.535-69.886 49.185 12.752 5.753 27.711 4.762 40.957.228 13.209-4.533 25.047-12.305 36.695-20.077 4.605-3.086 10.467-6.249 15.34-3.62 6.432 3.467 4.758 13.335.799 19.469-3.959 6.172-9.554 12.61-8.032 19.773 8.869 2.057 14.617-8.611 19.984-16.002 11.343-15.506 34.867-20.421 51.463-10.744-1.18-7.657-2.474-15.544-6.623-22.097-4.149-6.553-11.952-11.391-19.489-9.677-9.021 2.096-12.866 11.544-16.101 19.24-4.149 9.906-11.039 18.973-19.375 25.717-8.07 6.514-18.309 8.648-28.586 10.134 1.104-.191 2.169-.381 3.273-.534"/></g></svg>