<svg width="540" height="467" fill="none" xmlns="http://www.w3.org/2000/svg"><path d="M1.238 370.008c37.874 16.116 65.434 54.305 68.814 95.414 5.71-25.985 13.11-60.554 35.892-77.02 19.171-13.84 44.866-13.431 66.95-19.095 18.354-4.671 38.573-16.525 40.554-37.547a246.013 246.013 0 01-8.216 80.641c7.633-15.766 10.139-32.7 11.013-50.043.816-16.759 1.457-33.576-5.535-49.225-4.604-10.219-12.237-18.978-15.849-29.605-8.799-26.161 1.107-59.737 18.471-80.116.64-.759 1.515-1.635 2.505-1.518 2.331.175 1.573 3.854.233 5.723-13.751 18.977-19.286 44.262-14.508 67.21-2.331-11.328-.758-23.299 2.272-34.277 3.205-11.503 8.39-21.43 13.751-32.116.524-.993 1.107-2.102 2.156-2.452 1.107-.351 2.389.35 2.972 1.343.582.992.699 2.277.641 3.445-.233 3.854-1.923 7.416-3.555 10.861-4.137 8.7-7.808 16.467-9.264 26.043-1.107 7.591-2.681 17.577.932 24.701-2.272-18.511 1.923-38.073 11.653-54.014 1.108-1.81 3.089-3.796 5.012-2.92 5.185 2.394-2.04 14.657-3.03 17.81-2.389 7.533-3.788 15.358-4.079 23.241-.291 8.058.757 16.525 5.069 23.298-.757-13.722-1.398-27.853 2.855-40.933.408-1.226.874-2.511 1.748-3.387.874-.934 2.331-1.46 3.496-.876 1.399.643 1.807 2.453 1.981 3.971.408 4.379-.815 8.7-.291 13.022.583 4.905.699 9.81 1.34 14.715.933 7.708 2.797 15.123 4.37 22.656 1.166 5.781-.058 11.212 1.515 17.051 3.788 13.956 12.47 26.043 15.849 40.174 2.972 12.438 1.457 25.46 1.224 38.248-.35 19.562 2.272 39.123 7.633 57.867-4.895-31.123-5.477-61.838-5.477-93.195 18.995 2.161 38.806-5.489 51.45-19.795 6.875-7.766 15.557-11.854 22.141-19.912-1.922 3.737-2.855 7.941-2.622 12.146-9.614 1.81-15.79 11.036-20.859 19.444 1.107-6.89 5.535-12.846 10.313-17.926 4.778-5.08 10.139-9.752 14.042-15.591 5.245-7.883 7.342-17.343 9.615-26.394 1.165-4.613 2.389-9.284 4.137-13.722 1.748-4.438 4.544-8.409 6.176-12.905-.583 15.416-4.195 30.89-6.643 46.072a128.4 128.4 0 008.1-37.372c.466-7.182.699-15.299 5.885-20.32-.059 16.35-.059 33.634-4.079 49.575-1.282 5.139-3.03 10.102-5.011 14.949-2.039 5.08-5.477 9.927-6.759 15.357-3.088 13.314-12.586 20.73-19.287 31.883-6.467 10.803-10.196 23.24-10.546 35.853-.524 18.686 6.351 37.547 18.82 51.445 5.244-21.839-3.437-46.364-21.209-60.028-5.128-3.913-10.896-7.008-15.791-11.27-8.157-7.066-13.285-20.088-2.389-27.445-5.011 3.387-10.488 5.43-16.373 6.774-2.971.7-5.943.934-9.089.992-5.303.059-9.556-1.46-11.537-7.007-2.04-5.722-4.137-11.562-2.681-17.693 1.282-5.489 5.011-10.336 9.964-13.08-.991.525 3.846 7.883 4.428 8.642 2.448 3.095 5.769 5.547 9.498 6.89 4.02 1.519 8.449 1.752 12.644.818 3.263-.759 8.157-3.387 7.983-7.358-6.468-.408-12.877-2.102-19.112-3.678-5.535-1.402-10.488-3.095-14.276-7.65 5.186-2.978 14.626-3.328 19.229.876.699.642 1.34 1.46 2.272 1.81 1.107.409 2.331.059 3.496 0 4.137-.35 8.216 3.037 8.682 7.124-3.904-.35-7.983-.701-11.42-2.686-9.498-5.489-3.846-18.51-.874-26.043.233-.642.524-1.285.407-1.986-.291-1.635-2.389-2.16-4.02-2.043-3.496.233-6.934 1.868-9.381 4.379-.932.993-1.806 2.511-1.049 3.621.874 1.343 2.913.759 4.545.7 3.205-.175 5.943 2.161 8.099 4.555 2.156 2.394 4.254 5.08 7.342 6.014 2.738.818 5.943 0 7.866-2.102 2.797-2.978 2.331-8.292 2.389-12.087.058-4.964.524-9.927 1.631-14.774 2.156-9.518 6.585-18.452 13.285-25.576 2.797-2.978 5.944-5.664 9.731-7.124s8.274-1.518 11.712.584c5.302 3.212 6.875 10.102 7.458 16.292.175 1.635-.116 3.737-1.69 4.029-1.748.35-2.68-1.927-3.263-3.562-1.981-5.606-7.633-9.635-13.518-9.693-5.885-.059-11.653 3.912-13.693 9.459 8.741-1.81 18.296 1.694 23.89 8.643 2.098-3.27.699-7.942-2.156-10.57-2.855-2.686-6.759-3.853-10.546-4.905-5.128-1.459-10.605-3.328-14.217-7.299-4.837-5.313-8.041-12.379-12.645-17.985-5.36-6.423-11.944-12.087-19.927-14.598-7.924-2.569-17.364-1.518-23.54 4.029 11.187-1.752 28.376.642 35.601 10.511 3.263 4.438 4.487 10.277 3.263 15.649-1.456-5.722-4.545-11.153-9.381-14.656-7.516-5.373-18.471-4.146-25.171 2.043 12.119-2.16 25.288 5.606 29.192 17.343-13.46 1.168-27.328-5.489-34.786-16.759-3.554-5.314-7.4-12.087-3.671-17.985 3.729-5.956 10.255-10.919 16.14-14.598 12.353-7.65 27.503-11.036 41.895-8.525" stroke="#CBEAFF" stroke-width="1.5" stroke-miterlimit="10" stroke-linecap="round" stroke-linejoin="round"/><path d="M380.501 208.492c-19.753-11.737-61.647-62.831-84.546-61.604-22.899 1.226-45.274 7.182-67.241 13.722 23.074 31.649 60.191 52.904 99.171 55.59 38.981 2.686 79.128-13.722 104.183-43.795 25.055-30.072 33.97-73.283 21.617-110.48-.874-2.627-2.039-5.43-4.428-6.773-2.797-1.577-6.293-.584-9.265.409-21.85 7.416-43.293 17.167-61.122 31.883-17.83 14.715-31.931 34.743-36.301 57.517-3.613 18.861-.466 38.364 3.496 57.167 3.146 15.007 7.225 30.656 17.597 41.926 9.148 9.927 22.025 15.24 34.494 20.262 2.622 1.051 5.536 2.161 8.274 1.402 5.011-1.402 6.526-8.409 4.137-13.022-3.379-6.482-14.683-15.065-20.918-18.978-8.507-5.255-18.412-8.175-28.376-8.876-13.518-.992-27.153 1.927-39.797 6.891-2.447-37.021-13.576-74.393-21.326-110.655a87088.973 87088.973 0 00-11.886-55.474c-3.788-17.81-8.624-34.86-8.857-53.196-.058-4.087.641-9.109 4.487-10.627 4.486-1.752 8.681 2.92 11.187 7.007 33.387 54.13 54.422 114.509 78.836 173.077-49.003-55.24-140.774-65.517-200.79-22.481a86748.632 86748.632 0 01113.855-39.357c17.13-5.898 33.27-13.197 50.984-17.693a313.343 313.343 0 0155.995-8.934c.757-.059 1.515-.117 2.272-.117-17.48 16.7-39.389 27.795-61.006 38.481-21.617 10.686-43.642 21.489-61.53 37.78-17.888 16.292-31.348 39.065-30.707 63.24-.059-1.752 11.187-7.942 12.877-9.051a242.703 242.703 0 0114.392-8.759c9.264-5.197 18.879-9.109 28.26-14.189 21.267-11.504 42.477-22.949 63.744-34.452 10.197 7.24 7.167 25.167-3.729 31.298-10.896 6.132-25.346 2.044-34.378-6.598-9.031-8.642-13.751-20.846-17.247-32.875-7.982-27.445-11.187-56.116-20.219-83.21-9.031-27.095-25.463-53.547-51.333-65.518 47.429 58.452 110.067 104.35 179.988 131.97 6.176 2.452 13.343 5.956 14.043 12.554.932 8.993-10.722 13.431-19.753 13.664-21.559.643-43.293-4.73-62.055-15.474-4.312-2.452-8.915-6.131-8.624-11.036.292-4.73 5.07-7.767 9.265-9.869 26.395-13.255 54.771-22.481 83.847-27.328-.699 21.372-27.677 30.832-48.945 29.781-25.055-1.285-49.178-9.109-73.592-14.89-24.414-5.781-50.226-9.518-74.349-2.628-24.123 6.89-45.973 26.919-48.129 51.911-2.156 24.993 21.967 50.919 46.323 44.788 15.907-3.971 26.395-18.569 37.349-30.715 11.013-12.146 27.153-23.474 42.652-18.16 6.992 7.007 2.797 20.496-6.235 24.525-9.031 4.029-20.044.292-27.211-6.482-7.167-6.773-11.362-16.116-15.207-25.284-16.898-40.116-30.766-86.013-14.393-126.304 2.273-5.606 6.585-11.796 12.586-11.095 6.235.7 8.857 8.175 10.139 14.248 12.702 59.62 25.346 119.297 38.048 178.917 1.807 8.35 3.671 16.992 8.508 24.057 4.836 7.066 13.343 12.263 21.733 10.628 12.236-2.452 17.422-17.226 17.655-29.722.35-22.598-8.215-41.459-18.645-60.904-10.547-19.679-22.433-38.656-35.66-56.7 2.622 3.621 11.828 6.599 15.732 8.993a272.184 272.184 0 0116.898 11.153c10.721 7.591 20.976 15.883 30.707 24.759 19.403 17.809 38.573 35.035 53.548 56.933-32.805-3.212-57.51-30.949-75.224-58.744-10.663-16.7-20.277-34.568-23.656-54.072-3.38-19.503.233-41.05 13.518-55.824 12.061-13.43 31.522-19.62 49.119-15.707 17.597 3.912 32.572 17.868 37.816 35.152 8.39 27.737-8.332 57.81-31.232 75.503-22.899 17.693-51.275 26.452-77.67 38.306-40.03 17.985-76.564 43.736-106.979 75.385 19.519 8.817 42.418 7.299 62.696.35 20.218-6.948 38.34-18.861 56.169-30.773 7.051-4.73 16.024-9.576 23.482-5.547 9.848 5.314 7.284 20.438 1.224 29.839s-14.509 19.27-12.236 30.247c13.576 3.154 22.374-13.196 30.59-24.525 11.537-15.766 30.882-23.941 49.994-24.466 9.031-.234 63.744 5.489 65.492 16.992-1.981-12.846-7.691-25.343-17.305-34.043-9.614-8.701-23.365-13.139-36.009-10.102-10.255 2.452-18.879 9.459-25.755 17.518-22.258 26.101-19.403 55.648-23.773 87.239-1.923 13.956-4.778 27.912-10.779 40.758-1.515 3.329-23.948 35.854-26.162 32.934 19.461 26.043 40.729 53.43 71.319 64.174 12.935 4.555 27.561 5.723 40.263.526 12.702-5.197 22.841-17.752 22.783-31.474-.059-13.781-12.237-27.036-25.93-26.044-11.828.876-21.325 11.854-23.132 23.591-1.806 11.796 2.914 23.766 10.022 33.284 21.967 29.255 69.106 35.095 97.54 12.029" stroke="#CBEAFF" stroke-width="1.5" stroke-miterlimit="10" stroke-linecap="round" stroke-linejoin="round"/></svg>