<svg width="20" height="20" fill="none" xmlns="http://www.w3.org/2000/svg"><path d="M15.34 16.52c-1.748 0-3.738-.64-5.912-1.9-1.746-1.013-3.552-1.336-5.145-1.621-1.628-.292-3.288-.594-4.279-1.72.105 4.551 5.096 2.504 9.879 5.276 5.886 3.413 9.493 1.537 10.041-2.468-.953 1.537-2.549 2.433-4.583 2.433z" fill="#047BF8"/><path d="M5.035 10.65c1.515.246 3.233.524 4.959 1.43 1.8.943 3.418 1.421 4.811 1.422 1.24 0 2.262-.397 2.954-1.145.671-.725 1.026-1.762 1.026-3 0-3.736-3.989-6.776-8.89-6.776-5.516 0-8.679 1.924-8.679 5.278 0 2.173 1.52 2.42 3.819 2.792zm1.249-6.066c1.381 0 2.502.867 2.502 1.936 0 1.07-1.12 1.936-2.502 1.936-1.382 0-2.502-.867-2.502-1.936s1.12-1.936 2.502-1.936z" fill="#047BF8"/><path d="M9.883 13.835C16.291 17.55 20 15 20 10.257S15.471 1.668 9.883 1.668C4.295 1.668 0 3.673 0 8.416c0 4.744 5.049 2.617 9.883 5.42zm.012-11.679c5.136 0 9.314 3.23 9.314 7.2 0 1.347-.394 2.485-1.138 3.29-.775.837-1.904 1.28-3.265 1.28-1.463 0-3.148-.494-5.01-1.47-1.664-.873-3.345-1.145-4.829-1.385-2.333-.379-4.175-.677-4.175-3.212 0-3.624 3.317-5.703 9.103-5.703z" fill="#047BF8"/><path d="M6.283 7.48c.685 0 1.24-.43 1.24-.96s-.555-.96-1.24-.96c-.684 0-1.24.43-1.24.96s.556.96 1.24.96z" fill="#047BF8"/></svg>