<svg width="20" height="20" fill="none" xmlns="http://www.w3.org/2000/svg"><g clip-path="url(#clip0)"><path d="M5.783 1.116c1.992 0 3.952 1.774 5.031 4.532a11.097 11.097 0 00-2.636 1.93c-2.742 2.76-3.408 6.63-1.643 9.172a4.45 4.45 0 01-.752.071C2.594 16.821 0 13.54 0 9.504c0-3.878 2.526-8.388 5.783-8.388zm1.52 15.922c-1.89-2.356-1.231-6.172 1.459-8.878a10.627 10.627 0 012.7-1.947l.091-.047-.021-.042c1.338-.665 2.779-1.033 4.07-1.033 1.336 0 2.446.401 3.21 1.161 1.064 1.058 1.43 2.758 1.03 4.785-.385 1.946-1.42 3.883-2.841 5.312-1.601 1.611-3.667 2.534-5.667 2.534-1.462 0-2.73-.49-3.665-1.421a4.362 4.362 0 01-.283-.316l-.083-.108z" fill="#047BF8"/></g><defs><clipPath id="clip0"><path fill="#fff" d="M0 0h20v20H0z"/></clipPath></defs></svg>