<svg width="20" height="20" fill="none" xmlns="http://www.w3.org/2000/svg"><g clip-path="url(#clip0)" fill="#047BF8"><path d="M17.466 11.677a15.704 15.704 0 01-2.703 2.135l-.002.012a.586.586 0 00.726.684 4.078 4.078 0 002.49-1.911 4.076 4.076 0 00.55-2.112c-.315.4-.667.798-1.061 1.192zM5.47 3.956a4.074 4.074 0 00-1.91 2.49.586.586 0 00.682.726c.302-.061.607-.092.91-.094.637-1.276 1.419-2.543 2.373-3.673a4.077 4.077 0 00-2.055.551zm3.71 12.687a.586.586 0 00.726.684 4.082 4.082 0 001.832-1.06c.362-.363.655-.791.862-1.261a27.245 27.245 0 01-3.37 1.338c-.013.1-.03.2-.05.3zM19.917 1.855c-.097-.69-.245-1.137-.44-1.332-.194-.194-.642-.342-1.332-.44a9.466 9.466 0 00-2.4-.014 10.46 10.46 0 00-1.626.323 5.298 5.298 0 001.55 3.94 5.298 5.298 0 003.94 1.55 10.61 10.61 0 00.323-1.627 9.47 9.47 0 00-.015-2.4zm-2.69.723a.586.586 0 11-1.172 0 .586.586 0 011.172 0z"/><path d="M14.84 5.16A6.46 6.46 0 0112.948.797c-1.21.498-2.527 1.297-3.796 2.566-2.511 2.511-3.94 6.12-4.719 8.88-1.244-.17-2.579-.058-3.895.33l-.117.034A.586.586 0 00.36 13.71a11.017 11.017 0 013.559 2.371 11.018 11.018 0 012.371 3.56.586.586 0 001.103-.062l.035-.117c.387-1.316.498-2.651.328-3.895 2.76-.78 6.37-2.208 8.881-4.72 1.27-1.268 2.068-2.584 2.566-3.795A6.46 6.46 0 0114.84 5.16zm-1.472 4.366a.586.586 0 11-.658.97A11.945 11.945 0 019.505 7.29a.586.586 0 11.97-.657 10.781 10.781 0 002.894 2.893zm1.797-1.64a.6.6 0 01.244.79.588.588 0 01-.813.236 9.637 9.637 0 01-3.508-3.51.586.586 0 111.014-.586 8.463 8.463 0 003.063 3.07z"/></g><defs><clipPath id="clip0"><path fill="#fff" d="M0 0h20v20H0z"/></clipPath></defs></svg>