<svg width="96" height="96" fill="none" xmlns="http://www.w3.org/2000/svg"><g clip-path="url(#clip0)"><path d="M91.776 93.183H4.224a4.184 4.184 0 01-3.618-2.05 4.184 4.184 0 01-.102-4.156l5.302-9.924a1.406 1.406 0 112.48 1.325l-5.302 9.924a1.384 1.384 0 00.034 1.386c.124.205.488.683 1.207.683H61.72v-5.777c-6.416-.843-11.424-7.39-11.424-15.315 0-.776.63-1.406 1.406-1.406 4.974 0 9.296 3.417 11.424 8.398 2.128-4.981 6.45-8.398 11.424-8.398.776 0 1.406.63 1.406 1.406 0 7.925-5.008 14.471-11.424 15.315v5.777h27.246c.719 0 1.082-.478 1.206-.683.123-.206.373-.752.034-1.386L80.599 65.06h-35.84a1.406 1.406 0 010-2.812h34.337l-7.513-14.061H24.417l-7.513 14.06H38.98a1.406 1.406 0 110 2.813c-2.01 0-3.751 1.253-4.472 3.018.674-.115 1.397-.206 1.99-.206 4.698 0 7.98 3.542 7.98 8.614 0 4.458-3.486 11.071-8.303 11.071-1.108 0-2.694-.37-3.428-.559-.733.189-2.319.56-3.427.56-4.817 0-8.304-6.614-8.304-11.072 0-5.072 3.282-8.614 7.982-8.614.757 0 1.728.15 2.538.306a7.627 7.627 0 011.539-3.118H15.402l-4.61 8.626a1.406 1.406 0 01-2.48-1.325L44.28 5.048A4.211 4.211 0 0148 2.818c1.56 0 2.986.854 3.72 2.23l7.29 13.641a1.406 1.406 0 01-2.48 1.326L49.24 6.373A1.376 1.376 0 0048 5.629c-.253 0-.881.073-1.24.744l-11.824 22.13h2.778a1.406 1.406 0 010 2.811h-4.28L25.92 45.375h29.21l-2.812-2.812h-5.042a7.038 7.038 0 01-7.03-7.03 7.038 7.038 0 017.03-7.03h13.789l-1.9-3.556a1.406 1.406 0 112.48-1.326l33.852 63.356a4.184 4.184 0 01-.102 4.156 4.186 4.186 0 01-3.618 2.05zm-59.03-9.045c.128 0 .255.017.378.052.556.154 2.188.556 3.05.556 1.234 0 2.582-.984 3.699-2.7 1.105-1.7 1.792-3.83 1.792-5.56 0-2.676-1.353-5.8-5.169-5.8-.972 0-2.785.406-3.402.564a1.405 1.405 0 01-.694 0c-.617-.157-2.431-.565-3.403-.565-3.815 0-5.17 3.125-5.17 5.802 0 1.729.688 3.858 1.794 5.558 1.116 1.717 2.464 2.701 3.699 2.701.862 0 2.494-.402 3.05-.556.123-.035.25-.052.377-.052zm20.436-13.316c.547 5.608 4.037 10.086 8.462 10.914-.547-5.607-4.037-10.086-8.462-10.914zm19.886 0c-4.425.828-7.915 5.307-8.462 10.914 4.425-.828 7.915-5.306 8.462-10.914zM59.107 45.375H70.08l-7.513-14.06h-9.67a6.995 6.995 0 011.409 4.218v5.042l4.8 4.8zm-11.831-14.06a4.223 4.223 0 00-4.219 4.218 4.223 4.223 0 004.218 4.218h4.219v-4.218a4.223 4.223 0 00-4.218-4.219zM42.61 58.87a1.406 1.406 0 01-1.92-.515l-2.813-4.87a1.406 1.406 0 012.435-1.406l2.813 4.87a1.406 1.406 0 01-.515 1.921zm7.5 0a1.406 1.406 0 01-1.922-.515l-2.812-4.87a1.406 1.406 0 012.436-1.406l2.812 4.87a1.406 1.406 0 01-.515 1.921zm7.498 0a1.406 1.406 0 01-1.92-.515l-2.813-4.87a1.406 1.406 0 012.436-1.406l2.812 4.87a1.406 1.406 0 01-.515 1.921zM48 25.69a4.874 4.874 0 01-4.868-4.868c0-2.163 2.825-6.655 3.69-7.98a1.406 1.406 0 012.355 0c.866 1.325 3.691 5.818 3.691 7.98A4.874 4.874 0 0148 25.69zm0-9.398c-1.123 1.932-2.056 3.864-2.056 4.53 0 1.133.922 2.056 2.056 2.056a2.058 2.058 0 002.056-2.056c0-.666-.933-2.598-2.056-4.53z" fill="#87E29B"/></g><defs><clipPath id="clip0"><path fill="#fff" d="M0 0h96v96H0z"/></clipPath></defs></svg>