<svg width="96" height="72" fill="none" xmlns="http://www.w3.org/2000/svg"><path d="M94.357 34.54h-8.121c3.376-7.665 3.011-13.87 1.734-18.069C85.78 8.99 78.388.867 67.437.867c-2.92 0-5.84.547-8.851 1.643-5.202 1.916-8.67 4.015-10.221 5.11-1.551-1.095-4.928-3.194-10.22-5.11C35.133 1.414 32.121.867 29.293.867 18.343.867 10.95 8.989 8.76 16.47c-1.277 4.472-1.733 11.225 2.556 19.711H1.46c-.821 0-1.46.64-1.46 1.46 0 .822.639 1.46 1.46 1.46h11.59a19.265 19.265 0 001.642 2.465c9.49 13.688 30.114 28.562 33.855 29.475v.091s.092 0 .183-.091h.274v-.091C52.198 69.399 72 56.624 82.403 41.475a33.573 33.573 0 002.555-4.106h9.582c.821 0 1.46-.639 1.46-1.46 0-.822-.821-1.37-1.643-1.37zm-14.6 5.384c-9.673 14.145-27.468 25.551-31.3 28.015-3.925-2.464-21.628-13.962-31.392-28.015a5855 5855 0 00-.548-.821h13.415c.547 0 1.095-.274 1.368-.822l6.114-12.045 9.582 24.547c.183.548.822.913 1.369.913h.091c.64 0 1.187-.456 1.37-1.095l8.395-28.745 4.471 14.509c.182.548.639.913 1.186 1.004.548.091 1.095-.183 1.46-.639l3.56-5.201 3.01 5.11c.275.456.73.73 1.278.73H81.4c-.547.912-1.095 1.734-1.642 2.555zm3.285-5.384h-8.943l-3.742-6.388a1.456 1.456 0 00-1.277-.73c-.548 0-1.004.183-1.278.639L64.7 32.624l-5.02-16.335c-.182-.639-.82-1.004-1.46-1.095-.638 0-1.277.456-1.46 1.095l-8.486 29.293-9.217-23.544a1.372 1.372 0 00-1.278-.913c-.638 0-1.095.274-1.368.822L29.2 36.09H14.692c-3.65-6.661-4.654-13.05-3.011-18.798 1.916-6.48 8.213-13.415 17.703-13.415 2.555 0 5.202.548 7.848 1.46 6.662 2.464 10.22 5.293 10.312 5.293a1.388 1.388 0 001.825 0s3.559-2.829 10.312-5.293a22.061 22.061 0 017.847-1.46c9.4 0 15.788 6.936 17.704 13.415 1.551 5.293.73 11.133-2.19 17.247z" fill="#87E29B"/></svg>