<svg width="96" height="88" fill="none" xmlns="http://www.w3.org/2000/svg"><path d="M22.491 8.222c10.388 0 13.375 7.285 14.052 13.396a1.516 1.516 0 103.013-.334c-.311-2.807-1.215-6.851-3.756-10.174-3.003-3.928-7.48-5.92-13.309-5.92a1.516 1.516 0 100 3.032zm21.175 11.043c1.284.379 2.642.571 4.036.571 3.8 0 7.607-1.418 10.72-3.993C62.696 12.308 65.045 7 64.55 1.991A1.516 1.516 0 0063.47.687a14.25 14.25 0 00-4.036-.572c-3.8 0-7.607 1.418-10.719 3.992-4.275 3.535-6.623 8.843-6.129 13.853.061.613.488 1.13 1.08 1.305zm6.981-12.822c2.57-2.126 5.69-3.297 8.787-3.297.735 0 1.454.067 2.15.2-.003 3.7-1.892 7.513-5.094 10.161-2.571 2.127-5.691 3.297-8.788 3.297-.734 0-1.454-.066-2.15-.199.004-3.701 1.893-7.514 5.095-10.162z" fill="#87E29B"/><path d="M94.484 47.874H76.338v-7.557c0-.837-.678-1.516-1.516-1.516H73.24c-.87-3.64-2.373-6.944-4.48-9.831-.42-.62-5.419-7.747-13.604-7.747-1.77 0-3.57.343-5.35 1.018-7.227 2.74-10.157 3.036-11.082 3.036-.082 0-.142-.003-.183-.005-.334-.145-.407-.145-.742 0-.04.002-.1.005-.183.005-.924 0-3.855-.296-11.08-3.036-1.781-.675-3.581-1.018-5.352-1.018-8.186 0-13.185 7.127-13.604 7.747-2.107 2.887-3.61 6.19-4.48 9.832H1.516C.678 38.802 0 39.48 0 40.317v18.145c0 .837.679 1.515 1.516 1.515h2.59c2.308 8.429 6.288 15.967 9.336 20.319 7.482 10.685 15.157 7.357 17.331 6.082 1.612-.945 5.042-1.517 6.339-1.673h2.114c1.296.155 4.722.725 6.339 1.673.95.558 2.951 1.507 5.529 1.507 3.318 0 7.59-1.575 11.802-7.59 1.893-2.702 4.146-6.634 6.135-11.246h14.35a1.516 1.516 0 100-3.031h-13.12c.027-.072.05-.144.078-.216.143-.381.284-.766.422-1.155l.107-.301c.142-.405.28-.814.416-1.225l.06-.182c.144-.44.282-.883.417-1.328l.06-.199c.13-.433.255-.869.376-1.307l.036-.127h2.588c.838 0 1.516-.679 1.516-1.516v-7.557h3.195v6.286a1.515 1.515 0 103.032 0v-6.286h3.733v3.574a1.515 1.515 0 103.031 0v-3.574h3.64v15.113h-4.872a1.515 1.515 0 100 3.031h6.388c.837 0 1.515-.678 1.515-1.515V49.389a1.513 1.513 0 00-1.515-1.515zm-84.44-17.14c.014-.019.028-.038.04-.058.043-.064 4.333-6.421 11.1-6.421 1.4 0 2.84.276 4.275.82 7.418 2.813 10.8 3.233 12.156 3.233.222 0 .405-.01.554-.026.149.015.332.026.554.026 1.356 0 4.738-.42 12.156-3.233 1.436-.544 2.874-.82 4.276-.82 6.726 0 11.058 6.36 11.099 6.422l.04.057c1.74 2.38 3.022 5.087 3.82 8.067H6.225c.798-2.98 2.08-5.687 3.82-8.067zM73.307 49.39v7.557H62.498a1.515 1.515 0 100 3.031h6.584l-.061.219-.057.192a63.808 63.808 0 01-.646 2.052l-.037.108a67.935 67.935 0 01-1.652 4.404l-.006.017c-1.981 4.775-4.29 8.847-6.21 11.588-5.83 8.326-11.253 6.414-13.314 5.206-2.496-1.464-7.096-2.021-7.613-2.08a1.551 1.551 0 00-.171-.01h-2.291c-.058 0-.115.003-.172.01-.516.059-5.116.616-7.612 2.08-2.06 1.208-7.483 3.12-13.315-5.207-2.804-4.004-6.442-10.853-8.672-18.58h50.058a1.515 1.515 0 100-3.03H3.032V41.832h2.926v5.917a1.516 1.516 0 103.031 0v-5.917h3.733v3.205a1.515 1.515 0 103.032 0v-3.205h3.732v5.917a1.516 1.516 0 103.032 0v-5.917h3.733v3.205a1.515 1.515 0 103.032 0v-3.205h3.733v5.917a1.516 1.516 0 103.031 0v-5.917h3.733v3.205a1.515 1.515 0 103.032 0v-3.205h3.733v5.917a1.516 1.516 0 103.031 0v-5.917h3.733v3.205a1.516 1.516 0 103.032 0v-3.205h3.732v5.917a1.516 1.516 0 103.031 0v-5.917h3.734v3.205a1.515 1.515 0 103.031 0v-3.205h3.438v7.556z" fill="#87E29B"/></svg>