<svg width="96" height="96" fill="none" xmlns="http://www.w3.org/2000/svg"><path d="M94.397 60.802H1.603a1.6 1.6 0 00-1.6 1.6C.003 80.927 15.074 96 33.601 96h28.798c18.525 0 33.598-15.073 33.598-33.598 0-.885-.716-1.6-1.6-1.6zM62.399 92.8H33.6c-16.224 0-29.52-12.777-30.356-28.798h89.511C91.92 80.023 78.624 92.8 62.4 92.8zm19.205-70.385c0-.117-.001-.234-.013-.412-.246-2.652-2.07-4.831-4.478-5.649l1.811-1.81a8.568 8.568 0 00.707-11.474c-2.943-3.577-8.249-4.086-11.824-1.143-.204.168-.4.345-.597.542l-1.968 1.997a6.677 6.677 0 00-5.7-4.456c-3.544-.194-6.544 2.526-6.734 6.049a6.38 6.38 0 00-.008.349V8.86a6.36 6.36 0 00-3.605-.848c-3.42.319-6.052 3.258-5.995 6.665v2.176a6.378 6.378 0 00-3.602-.841c-3.423.318-6.054 3.257-5.997 6.665v23.726a1.6 1.6 0 001.6 1.6H62.4c3.53 0 6.4-2.87 6.398-6.396a6.35 6.35 0 00-.859-3.2H70.1c3.436.095 6.375-2.576 6.697-6.059a6.36 6.36 0 00-.875-3.58 6.36 6.36 0 003.803-1.829 6.358 6.358 0 001.88-4.524zm-4.139 2.259a3.184 3.184 0 01-2.262.932h-4.805a1.6 1.6 0 100 3.2l.177.005c1.763.095 3.12 1.605 3.03 3.304a3.41 3.41 0 01-3.478 3.09h-7.728a1.6 1.6 0 100 3.2c1.765 0 3.2 1.436 3.2 3.2 0 1.765-1.435 3.2-3.2 3.2H36.801V22.65c-.03-1.771 1.33-3.286 3.03-3.447l.174-.004a3.202 3.202 0 013.195 3.195v.01a1.6 1.6 0 001.598 1.6h.002a1.6 1.6 0 001.6-1.597V14.65c-.03-1.77 1.33-3.286 3.03-3.446l.173-.005a3.205 3.205 0 013.197 3.198v.01a1.6 1.6 0 001.598 1.6h.002a1.6 1.6 0 001.6-1.598V6.407l.005-.177c.092-1.762 1.567-3.118 3.302-3.03 1.766.165 3.124 1.68 3.09 3.481V8.01a1.6 1.6 0 002.74 1.122l4.34-4.405c.119-.117.24-.227.367-.331 2.214-1.82 5.495-1.504 7.3.685a5.373 5.373 0 01-.469 7.188l-4.207 4.208a1.6 1.6 0 001.13 2.73h1.413c1.747 0 3.232 1.348 3.389 3.031l.004.176a3.18 3.18 0 01-.939 2.26z" fill="#87E29B"/><path d="M69.269 10.071L24.472 54.867l2.263 2.263 44.796-44.796-2.262-2.263z" fill="#87E29B"/><path d="M62.396 12.815h-3.2v8h3.2v-8zm-9.599 8h-3.2v9.6h3.2v-9.6zm-9.6 7.983h-3.2v11.2h3.2v-11.2z" fill="#87E29B"/><path d="M68.795 19.215h-8v3.2h8v-3.2zm-7.999 9.583h-9.6v3.2h9.6v-3.2zm-8 9.6H41.597v3.2h11.2v-3.2zM29.865 7.401c-.001-.003-.005-.006-.006-.01-2.258-3.38-6.846-4.298-10.225-2.04-.106.068-.21.141-.328.23l-.576.438-.554-.399C15.25 2.89 10.646 3 7.86 5.893a7.305 7.305 0 00-2.06 5.242 7.316 7.316 0 002.247 5.163 7.34 7.34 0 001.361 1.037l1.348 1.053v.819c0 4.41 3.588 8 8 8 4.41 0 7.999-3.59 7.997-8.002v-.819l1.416-1.105c3.063-2.325 3.807-6.665 1.697-9.88zm-3.65 7.345l-2.047 1.6a1.6 1.6 0 00-.614 1.261v1.6c0 2.646-2.154 4.8-4.8 4.8a4.805 4.805 0 01-4.8-4.8v-1.6c0-.493-.225-.958-.614-1.26l-2.048-1.6a1.588 1.588 0 00-.194-.13 4.12 4.12 0 01-.828-.621 4.135 4.135 0 01-1.272-2.918 4.132 4.132 0 011.165-2.963 4.148 4.148 0 012.994-1.27 4.14 4.14 0 012.888 1.164c.055.051.112.1.175.146l1.6 1.152a1.6 1.6 0 001.902-.024l1.686-1.27a4.15 4.15 0 013.135-.621 4.148 4.148 0 012.652 1.77c1.187 1.815.765 4.26-.98 5.584zM38.398 1.6h-3.2v3.2h3.2V1.6zm9.599 51.197h-3.2v3.2h3.2v-3.2zm38.4-43.19v3.2c1.765 0 3.2 1.435 3.2 3.2 0 1.765-1.435 3.2-3.2 3.2v3.2c3.53 0 6.4-2.87 6.4-6.4 0-3.53-2.87-6.4-6.4-6.4zM6.4 24.014H3.2v3.2h3.2v-3.2zm-3.197-6.399h-3.2v3.2h3.2v-3.2zm59.196 33.588c-3.53 0-6.4 2.87-6.4 6.4h3.2c0-1.765 1.435-3.2 3.2-3.2 1.765 0 3.2 1.435 3.2 3.2h3.2c0-3.53-2.87-6.4-6.4-6.4zM19.202 36.804H19c-.713-2.757-3.22-4.8-6.197-4.8a6.412 6.412 0 00-6.199 4.8h-.201c-3.53 0-6.4 2.87-6.4 6.4a6.406 6.406 0 006.4 6.399h12.799c3.53 0 6.4-2.87 6.4-6.4 0-3.529-2.87-6.4-6.4-6.4zm0 9.6h-12.8a3.203 3.203 0 01-3.2-3.199c0-1.765 1.436-3.2 3.2-3.2h1.6a1.6 1.6 0 001.6-1.6c0-1.764 1.436-3.2 3.2-3.2 1.765 0 3.2 1.436 3.2 3.2a1.6 1.6 0 001.6 1.6h1.6c1.765 0 3.2 1.435 3.2 3.2 0 1.765-1.435 3.2-3.2 3.2z" fill="#87E29B"/><path d="M16.002 46.403h-6.4a1.6 1.6 0 00-1.6 1.6v6.4a1.6 1.6 0 001.6 1.6h6.4a1.6 1.6 0 001.6-1.6v-6.4a1.6 1.6 0 00-1.6-1.6zm-1.6 6.4h-3.2v-3.2h3.2v3.2zm70.395-11.199a4.806 4.806 0 00-4.8 4.8 4.806 4.806 0 004.8 4.799c2.647 0 4.8-2.154 4.8-4.8s-2.153-4.8-4.8-4.8zm0 6.4c-.883 0-1.6-.718-1.6-1.6a1.6 1.6 0 111.6 1.6z" fill="#87E29B"/><path d="M84.797 35.204c-6.173 0-11.199 5.024-11.199 11.2 0 6.175 5.026 11.198 11.2 11.198 6.173 0 11.199-5.023 11.199-11.199 0-6.175-5.026-11.199-11.2-11.199zm0 19.2c-4.41 0-7.999-3.59-7.999-8s3.588-7.999 8-7.999c4.41 0 7.999 3.589 7.999 8 0 4.41-3.589 8-8 8z" fill="#87E29B"/></svg>