<svg width="292" height="1979" viewBox="0 0 292 1979" fill="none" xmlns="http://www.w3.org/2000/svg">
<path opacity="0.5" d="M-341 1291.9C-150.57 1154.17 13.5156 871.536 87.1105 651.045C159.274 433.99 147.533 174.841 -1.37518 1.02569C-3.66608 -1.55148 -98.4518 190.591 -104.752 210.349C-130.238 290.814 -142.551 375.288 -141.406 459.762C-138.256 665.649 22.9656 1047.93 291 931.67C224.278 893.299 132.069 907.33 79.6651 963.455C27.2609 1019.58 19.8156 1112.64 62.7698 1176.5C87.6832 1213.44 129.206 1252.38 112.883 1293.91C104.579 1314.52 84.2469 1326.84 65.6334 1338.86C-138.256 1471.44 -237.051 1745.77 -164.601 1978" stroke="#535353" stroke-miterlimit="10" stroke-linecap="round" stroke-linejoin="round"/>
</svg>
