<svg width="292" height="1979" fill="none" xmlns="http://www.w3.org/2000/svg"><path opacity=".5" d="M-341 1291.9c190.43-137.73 354.516-420.364 428.11-640.855C159.274 433.99 147.534 174.841-1.374 1.025-3.666-1.55-98.452 190.592-104.752 210.35c-25.486 80.465-37.799 164.939-36.654 249.413C-138.256 665.649 22.966 1047.93 291 931.67c-66.722-38.371-158.931-24.34-211.335 31.785-52.404 56.125-59.85 149.185-16.895 213.045 24.913 36.94 66.436 75.88 50.113 117.41-8.304 20.61-28.636 32.93-47.25 44.95C-138.256 1471.44-237.05 1745.77-164.6 1978" stroke="#535353" stroke-miterlimit="10" stroke-linecap="round" stroke-linejoin="round"/></svg>