<svg width="40" height="38" fill="none" xmlns="http://www.w3.org/2000/svg"><path d="M36.745 29.796l-.436-.1c4.218-3.455 5.117-11.127 1.144-15.125-1.529-1.537-2.442-3.97-2.442-6.51 0-3.679-2.42-6.673-5.396-6.673-2.975 0-5.397 2.994-5.397 6.674 0 .836-.099 1.66-.287 2.444-2.773-3.2-7.175-3.567-10.12-1.521V1.479a.59.59 0 00-1.178 0v2.314C10.873.618 7.671-.232 4.084.49a.59.59 0 00-.429.802c.033.08.827 1.993 2.36 3.668 1.815 1.983 4.068 2.968 6.618 2.261v1.764C9.173 6.58 3.377 7.444.997 12.927a.59.59 0 001.08.469c2.18-5.017 7.39-5.423 10.152-3.247a1.543 1.543 0 001.987 0c3.145-2.477 8.587-1.399 10.451 4.022 1.003 2.92.802 5.973-.938 9.131A430.749 430.749 0 0022 26.427c-3.65-.786-4.17-1.074-5.413-1.047a.588.588 0 10.024 1.178c.214-.005.457.006.713.038l-.354 3.174a.59.59 0 001.172.13l.341-3.068 5.712 1.305-.169 1.513a.59.59 0 101.171.13l.154-1.38 8.832 2.019-.455 4.085a.59.59 0 001.172.13l.44-3.951 1.143.262a2.828 2.828 0 012.192 3.086 2.841 2.841 0 01-2.819 2.527l-6.031.012.214-1.922a.59.59 0 10-1.171-.13l-.229 2.054-5.78.011.2-1.806a.59.59 0 10-1.17-.13c-.05.45-.212 1.89-.216 1.939l-2.768.005.35-3.145a.59.59 0 00-1.171-.13l-.365 3.277h-.021l-.976.002a5.018 5.018 0 01-2.146-9.554.59.59 0 10-.506-1.065 6.18 6.18 0 00-2.692 2.456c-1.192-.595-2.557-1.53-3.284-2.909-.94-1.786-3.652-1.115-3.661.902l-1.847-3.357c-1.265-2.3-1.729-4.88-1.178-7.544a.59.59 0 00-1.154-.239c-.59 2.859-.142 5.73 1.3 8.351l2.517 4.576-1.845-.206a1.942 1.942 0 00-2.147 1.717 1.945 1.945 0 001.716 2.146l3.055.34c-.758.678-1.367 1.293-1.29 2.262.132 1.714 2.287 2.427 3.414 1.112.927-1.085 2.375-1.755 3.844-2.117a6.205 6.205 0 005.904 4.307l19.136-.036a4.02 4.02 0 004.014-4.025 4 4 0 00-3.127-3.916zM5.068 1.518c3.918-.535 6.389 1.333 7.214 4.578C9.09 6.955 6.58 4.43 5.068 1.518zm29.704 27.827L23.197 26.7c.335-.613.706-1.289 1.12-2.033a6.302 6.302 0 005.45 3.146 6.31 6.31 0 006.174-5.054.589.589 0 00-1.156-.232 5.128 5.128 0 01-5.018 4.108 5.127 5.127 0 01-4.754-3.223c.979-1.863 1.448-3.832 1.432-5.785 2.957-2.528 7.515-.934 8.324 2.801a.589.589 0 101.151-.25 6.294 6.294 0 00-9.569-3.949c-.196-1.548-.71-3.162-1.533-4.507.378-1.139.578-2.379.578-3.66 0-2.719 1.694-5.496 4.219-5.496 2.497 0 4.218 2.74 4.218 5.496 0 2.885 1.015 5.56 2.784 7.34 3.07 3.086 2.772 8.816.106 12.19a7.33 7.33 0 01-1.95 1.753zm-24.206 2.961c-1.679.408-3.377 1.21-4.49 2.511a.764.764 0 11-1.163-.994 8.149 8.149 0 011.783-1.541c.464-.3.296-1.02-.255-1.08-.51-.058-4.13-.461-4.516-.504a.765.765 0 11.17-1.52h.003l.014.001h-.001l.014.002-.009-.001 4.082.455c.187-.012.758.23 1.008-.282a.59.59 0 00-.11-.67 8.155 8.155 0 01-1.398-1.895.764.764 0 111.353-.714c.868 1.645 2.46 2.739 3.831 3.42a6.265 6.265 0 00-.316 2.812z" fill="#292929"/></svg>