<svg width="40" height="40" fill="none" xmlns="http://www.w3.org/2000/svg"><g clip-path="url(#clip0)" fill="#292929"><path d="M39.414 33.146h-.001l-2.242.003-.003-1.892a.586.586 0 10-1.173.002l.003 1.891-8.772.01-.01-7.514 6.072-.007c.31 0 .601-.121.82-.34a1.15 1.15 0 00.338-.82l-.007-6.127c0-.31-.121-.601-.34-.82a1.152 1.152 0 00-.82-.338l-6.072.007-.003-2.425 8.773-.01.015 13.835a.586.586 0 001.173-.001l-.016-13.836h1.155a1.618 1.618 0 001.613-1.618l-.001-1.538A1.618 1.618 0 0038.3 9.993h-.002l-3.756.004a.586.586 0 000 1.173l3.757-.004c.245 0 .444.199.444.443l.002 1.538a.443.443 0 01-.443.443l-11.1.013-.002-2.425 4.685-.005A.586.586 0 0031.884 10l-4.685.006-.003-2.754c0-.432-.17-.838-.476-1.144a1.608 1.608 0 00-1.143-.472h-.002l-11.215.013c-.433 0-.84.17-1.144.475a1.608 1.608 0 00-.473 1.145l.003 2.754-11.1.013a1.6 1.6 0 00-1.141.475 1.606 1.606 0 00-.472 1.143l.002 1.538c0 .431.169.837.474 1.142.305.304.71.472 1.141.472h.002l1.161-.002v1.756a.586.586 0 001.173 0v-1.757l8.765-.01.003 2.424-6.07.007c-.31 0-.602.122-.82.34-.219.22-.34.512-.339.821l.007 6.127a1.158 1.158 0 001.16 1.158h.001l6.071-.007.009 7.514-8.787.01V19.218a.586.586 0 00-1.173 0v13.97l-2.227.003a.586.586 0 000 1.173h.001l38.827-.045a.586.586 0 000-1.173zm-6.147-14.78l.007 6.1-6.059.008-.006-6.1 6.058-.008zM1.65 13.633a.44.44 0 01-.443-.442l-.002-1.539a.441.441 0 01.442-.444l11.1-.013.002 2.425-11.1.013zm5.054 10.864l-.007-6.1 6.058-.007.007 6.1-6.058.007zm7.21-17.23a.443.443 0 01.446-.445l11.215-.013c.247 0 .447.2.447.445l.03 25.908-1.466.002-.012-10.341c0-.495-.19-.96-.534-1.31a1.81 1.81 0 00-1.3-.547h-.002l-5.508.007a1.81 1.81 0 00-1.3.55 1.86 1.86 0 00-.532 1.31l.012 10.341-1.466.002-.03-25.908zm2.657 15.565c0-.186.07-.36.197-.49a.645.645 0 01.463-.197l5.509-.006c.175 0 .34.07.463.196.128.13.198.304.199.489l.012 10.34-6.83.009-.013-10.341z"/><path d="M16.185 15.65h.001l1.955-.003.003 1.955c0 .604.491 1.094 1.094 1.094h.002l1.485-.002c.293 0 .568-.114.774-.322.207-.206.32-.482.32-.774l-.002-1.955 1.955-.003c.603 0 1.094-.492 1.093-1.096l-.002-1.485c0-.293-.114-.567-.321-.774a1.087 1.087 0 00-.773-.32h-.002l-1.955.002-.002-1.955c0-.292-.115-.567-.322-.773a1.087 1.087 0 00-.773-.32h-.001l-1.486.002a1.092 1.092 0 00-1.094 1.096l.003 1.955-1.955.002c-.293 0-.567.115-.774.322-.207.207-.32.482-.32.774l.002 1.486c0 .292.115.567.322.774.206.206.48.32.773.32zm2.54-2.506a.586.586 0 00.585-.587l-.002-2.464 1.33-.001.002 2.463.003.06c.03.296.28.526.584.526l2.464-.003.001 1.33-2.463.003a.586.586 0 00-.586.587l.003 2.463-1.33.002-.003-2.464a.586.586 0 00-.586-.585l-2.464.002-.002-1.33 2.464-.002z"/></g><defs><clipPath id="clip0"><path fill="#fff" d="M0 0h40v40H0z"/></clipPath></defs></svg>