<svg width="40" height="40" fill="none" xmlns="http://www.w3.org/2000/svg"><path d="M38.162 11.899h-6.263a.586.586 0 100 1.172h6.263c.367 0 .666.299.666.666v12.526a.667.667 0 01-.666.666H27.515a.586.586 0 00-.586.586v10.646a.667.667 0 01-.666.667h-5.677V20.596c2.368-.046 4.748-1.11 6.614-2.976 2.03-2.029 3.11-4.665 2.965-7.233a.586.586 0 00-.552-.552c-2.567-.144-5.204.936-7.233 2.965-2.023 2.023-3.103 4.65-2.966 7.21v6.644l-6.479-6.478a.586.586 0 00-.828.828l3.19 3.19c-1.471-.273-2.929-1.05-4.091-2.212-1.413-1.412-2.255-3.26-2.319-5.038 1.778.064 3.626.906 5.038 2.318a8.381 8.381 0 011.292 1.661.586.586 0 101.009-.596 9.544 9.544 0 00-1.472-1.893c-1.817-1.817-4.178-2.784-6.48-2.655a.586.586 0 00-.552.552c-.13 2.301.838 4.663 2.655 6.48 1.708 1.708 3.899 2.666 6.068 2.666l.132-.002 2.084 2.083c.438.439.7 1.006.753 1.617v9.653h-5.677a.667.667 0 01-.666-.666V27.515a.586.586 0 00-.586-.586H1.838a.667.667 0 01-.666-.666V13.737c0-.367.299-.666.666-.666h10.647a.586.586 0 00.586-.586V1.838c0-.367.299-.666.666-.666h12.525c.368 0 .667.299.667.666v6.263a.586.586 0 101.172 0V1.838A1.84 1.84 0 0026.263 0H13.737A1.84 1.84 0 0011.9 1.838v10.06H1.839A1.84 1.84 0 000 13.739v12.525A1.84 1.84 0 001.838 28.1h10.06v10.06A1.84 1.84 0 0013.739 40h12.524a1.84 1.84 0 001.839-1.839v-10.06h10.06A1.84 1.84 0 0040 26.263V13.737a1.84 1.84 0 00-1.838-1.838zm-14.953 1.73c1.622-1.623 3.752-2.582 5.794-2.633-.05 2.043-1.01 4.173-2.631 5.795-1.383 1.383-3.134 2.284-4.885 2.55l3.311-3.31a.586.586 0 00-.828-.83l-3.312 3.312c.267-1.751 1.168-3.502 2.55-4.885z" fill="#292929"/></svg>